<svg width="1920" height="1080" viewBox="0 0 1920 1080" fill="none" xmlns="http://www.w3.org/2000/svg">

<style>

@keyframes fadeIn {
    0% { 
        fill-opacity: 0;
         <!-- transform: translateX(20px); -->

    }
    100% {
         fill-opacity: 1;
         transform: translateY(-20px);
    }    
}

.letter{
  animation: fadeIn 7s ease forwards;
<!--   
  animation-delay: 100s;
  animation-iteration-count: 1;
  animation-fill-mode: forwards; -->

  -webkit-animation: fadeIn ease 7s forwards;
  -moz-animation: fadeIn ease 7s forwards;
  -o-animation: fadeIn ease 7s forwards;
  -ms-animation: fadeIn ease 7s forwards;

  <!-- -webkit-animation-delay: 5s; -->
}

.outline{

  stroke: #a15151;
  fill-opacity: 1;
  stroke-opacity: 1;
  stroke-width: 0.5;
  stroke-dasharray: 800;
  stroke-dashoffset: 900;
  animation: dash 5s forwards; 
}

.big{

  stroke-dasharray: 1700;
  stroke-dashoffset: 1000;
  animation: dash 5s forwards; 

}

.vbig{

  stroke-dasharray: 2000 !important;
  stroke-dashoffset: 3000;
  animation: dash 5s forwards !important; 
}



@keyframes dash {
  to {
    stroke-dashoffset: 0;
  }
}
  <!-- animation-iteration-count: infinite; -->

</style>

<g clip-path="url(#clip0)">
<rect width="1920" height="1080" fill="#FFE6DE"/>
<path class="letter" d="M1184.27 866.445C1183.63 868.303 1182.39 869.713 1180.57 870.674L1160.41 881.284C1159.03 882.012 1158.11 882.597 1157.68 883.04C1156.98 883.725 1156.39 884.814 1155.9 886.306L1150.66 902.308C1149.81 904.87 1148.76 906.486 1147.49 907.155C1145.99 907.941 1144 907.948 1141.51 907.175L1124.99 902.047C1122.28 901.209 1120.76 900.458 1120.41 899.794C1119.8 898.632 1119.83 897.024 1120.52 894.969L1124.34 883.315L1124.23 887.721C1124.22 889.985 1124.37 891.422 1124.69 892.03C1125.12 892.832 1126.53 893.607 1128.94 894.353L1141.81 898.383C1144.68 899.274 1146.42 899.559 1147.03 899.239C1147.39 899.05 1147.97 897.716 1148.79 895.239L1151.16 888.061C1151.68 886.442 1151.57 884.928 1150.83 883.518C1150.41 882.716 1149.81 881.987 1149.04 881.332L1146.93 879.531C1146.02 878.74 1144.7 878.376 1142.97 878.44L1145.56 870.187L1154.35 876.525L1159 874.08L1154.59 870.943C1153.52 870.168 1152.19 869.804 1150.63 869.851L1153.22 861.598L1165.64 870.586L1170.28 868.141L1162.13 862.314C1161.05 861.54 1159.73 861.176 1158.17 861.223L1160.76 852.97L1177.3 864.976C1178.78 866.035 1179.86 866.683 1180.55 866.921C1181.73 867.287 1182.97 867.129 1184.27 866.445ZM1144.9 849.296C1145.26 849.988 1145.31 851.832 1145.05 854.829C1143.26 853.971 1141.32 853.634 1139.22 853.818C1137.75 853.96 1136.79 853.617 1136.35 852.787C1136 852.124 1136.75 849.627 1138.61 845.297C1139.23 846.276 1140.33 846.987 1141.9 847.43C1143.46 847.845 1144.46 848.467 1144.9 849.296ZM1154.54 854.337C1154.9 855.029 1154.96 856.873 1154.7 859.869C1152.91 859.012 1150.96 858.675 1148.87 858.859C1147.39 859.001 1146.43 858.658 1146 857.828C1145.65 857.165 1146.4 854.668 1148.25 850.338C1148.87 851.317 1149.97 852.028 1151.55 852.471C1153.11 852.885 1154.1 853.508 1154.54 854.337ZM1144.96 859.381C1145.32 860.072 1145.38 861.916 1145.12 864.913C1143.32 864.055 1141.38 863.719 1139.29 863.902C1137.81 864.045 1136.85 863.701 1136.41 862.872C1136.06 862.208 1136.82 859.711 1138.67 855.381C1139.29 856.361 1140.39 857.071 1141.96 857.514C1143.52 857.929 1144.52 858.551 1144.96 859.381Z" fill="#FFC4B0"/>
<path class="letter" d="M89.5426 615.87C87.6419 616.38 85.7816 616.149 83.9616 615.179L53.8084 599.101C52.4297 598.366 51.4554 597.935 50.8855 597.808C49.9259 597.615 48.6713 597.743 47.1217 598.191L30.9365 602.842C28.3447 603.585 26.4145 603.618 25.1461 602.942C23.6571 602.148 22.5328 600.504 21.7734 598.009L16.7341 581.457C15.9103 578.752 15.6748 577.068 16.0277 576.406C16.6452 575.248 17.9962 574.374 20.0807 573.786L31.8709 570.404L28.1597 572.782C26.2811 574.046 25.1801 574.982 24.8567 575.589C24.4303 576.389 24.5839 577.993 25.3176 580.403L29.215 593.318C30.0903 596.193 30.8313 597.792 31.4379 598.116C31.7964 598.307 33.2293 598.044 35.7365 597.327L43.0047 595.253C44.6389 594.778 45.8309 593.838 46.5807 592.431C46.9777 591.687 47.1909 590.756 47.2202 589.638L47.3492 583.917C47.384 582.589 46.9427 581.292 46.0253 580.023L57.6913 576.576L57.62 580.894L86.0774 596.067C86.9322 596.523 87.3092 597.875 87.2083 600.123L86.8314 608.103C86.7268 610.491 86.7426 612.022 86.8787 612.697C87.1931 614.033 88.0811 615.091 89.5426 615.87ZM79.1215 604.63L79.1707 600.353L57.2486 588.664L57.1166 592.896L79.1215 604.63Z" fill="#FFC4B0"/>
<path class="letter" d="M210.717 387.8C209.805 388.225 207.611 387.48 204.135 385.564C200.304 383.453 197.922 381.462 196.99 379.592C195.981 377.538 196.321 374.978 198.011 371.913L212.173 346.213C213.124 344.489 213.564 339.968 213.493 332.65C215.6 333.811 219.938 333.062 226.507 330.402L204.833 369.731C203.219 372.66 202.68 375.289 203.216 377.618C203.644 379.495 204.928 381.666 207.067 384.129C207.956 384.976 209.173 386.2 210.717 387.8ZM229.777 318.931C229.134 318.933 228.107 319.081 226.697 319.374L224.905 320.1C224.351 320.329 224.036 320.512 223.96 320.649C223.794 320.95 223.799 321.363 223.973 321.888L224.866 324.735C225.127 325.556 225.077 326.296 224.715 326.952C224.338 327.637 223.831 328.071 223.194 328.255L218.654 329.5C217.311 329.866 215.873 329.626 214.34 328.782C213.656 328.405 213.155 327.986 212.838 327.526C213.598 327.766 214.488 327.704 215.51 327.339L217.256 326.696C218.108 326.38 218.624 326.058 218.805 325.73C218.926 325.511 218.876 325.019 218.655 324.255L217.973 321.899C217.666 320.838 217.678 320.006 218.01 319.404C218.372 318.747 219.097 318.272 220.186 317.98L224.002 316.979C225.133 316.675 226.547 316.99 228.244 317.926C228.71 318.182 229.221 318.517 229.777 318.931Z" fill="#FFC4B0"/>
<path class="letter" d="M1702.72 719.938C1701.28 721.281 1699.53 721.953 1697.47 721.953H1663.3C1661.73 721.953 1660.67 722.031 1660.11 722.188C1659.17 722.469 1658.13 723.172 1656.97 724.297L1644.88 736.016C1642.94 737.891 1641.25 738.828 1639.81 738.828C1638.13 738.828 1636.36 737.906 1634.52 736.062L1622.28 723.828C1620.28 721.828 1619.28 720.453 1619.28 719.703C1619.28 718.391 1620.06 716.984 1621.63 715.484L1630.44 706.953L1628.28 710.797C1627.22 712.797 1626.69 714.141 1626.69 714.828C1626.69 715.734 1627.58 717.078 1629.36 718.859L1638.88 728.422C1641 730.547 1642.41 731.609 1643.09 731.609C1643.5 731.609 1644.64 730.703 1646.52 728.891L1651.95 723.641C1653.17 722.453 1653.78 721.062 1653.78 719.469C1653.78 718.625 1653.53 717.703 1653.03 716.703L1650.45 711.594C1649.86 710.406 1648.86 709.469 1647.45 708.781L1656.13 700.25L1658.09 704.094H1690.34C1691.31 704.094 1692.28 705.109 1693.25 707.141L1696.67 714.359C1697.7 716.516 1698.44 717.859 1698.88 718.391C1699.78 719.422 1701.06 719.938 1702.72 719.938ZM1688.23 714.922L1686.27 711.125H1661.42L1663.3 714.922H1688.23ZM1677.27 694.438C1677.27 695.219 1676.45 696.875 1674.83 699.406C1673.64 697.812 1672.08 696.609 1670.14 695.797C1668.77 695.234 1668.08 694.484 1668.08 693.547C1668.08 692.797 1669.91 690.938 1673.56 687.969C1673.66 689.125 1674.3 690.266 1675.48 691.391C1676.67 692.484 1677.27 693.5 1677.27 694.438Z" fill="#FFC4B0"/>
<!-- <path class="letter" d="M1408.74 893.967L1404.93 895.922C1403.19 896.824 1401.72 896.562 1400.5 895.134L1388.07 880.536C1388.38 880.517 1389.36 880.673 1390.99 881.003C1392.3 881.286 1393.09 881.316 1393.35 881.093C1393.56 880.91 1393.97 879.924 1394.58 878.133C1395.21 876.365 1396.19 874.915 1397.53 873.78C1400.02 871.653 1404.1 871.714 1409.75 873.963C1411.98 874.852 1414.27 875.346 1416.61 875.446C1418.98 875.525 1421.36 875.572 1423.75 875.587L1415.76 882.393C1415.07 882.981 1414.49 883.245 1414.03 883.186C1413.57 883.126 1412.62 882.684 1411.18 881.859L1406.74 879.109C1405.02 878.195 1403.66 878.163 1402.66 879.014C1402.14 879.46 1401.64 880.273 1401.17 881.454C1400.5 883.086 1400.56 884.354 1401.33 885.258L1408.74 893.967Z" fill="#FFC4B0"/> -->
<path class="letter" d="M1903.21 563.276L1895.24 555.301C1895.77 559.976 1894.47 563.32 1891.99 565.798L1872.8 584.996L1873.52 585.719L1892.72 566.52C1895.19 564.043 1898.54 562.749 1903.21 563.276ZM1894.49 554.55L1886.51 546.576C1887.04 551.25 1885.75 554.595 1883.27 557.072L1864.07 576.271L1864.79 576.993L1883.99 557.794C1886.47 555.317 1889.81 554.024 1894.49 554.55ZM1885.76 545.825L1877.79 537.85C1878.31 542.524 1877.02 545.869 1874.54 548.346L1855.34 567.545L1856.07 568.267L1875.27 549.069C1877.74 546.591 1881.09 545.298 1885.76 545.825ZM1877.04 537.099L1869.06 529.124C1869.59 533.799 1868.3 537.143 1865.82 539.621L1846.62 558.819L1847.34 559.542L1866.54 540.343C1869.02 537.866 1872.36 536.573 1877.04 537.099ZM1861.73 542.644L1862.45 541.923L1860.31 539.785C1858.11 537.59 1857.27 534.386 1858.5 529.628L1849.46 538.673C1854.22 537.439 1857.39 538.31 1859.59 540.506L1861.73 542.644ZM1851.87 552.495L1852.59 551.775L1850.46 549.637C1848.26 547.441 1847.42 544.237 1848.65 539.479L1839.61 548.524C1844.37 547.291 1847.54 548.161 1849.74 550.357L1851.87 552.495Z" fill="#FFC4B0"/>
<path class="letter" d="M128.727 196.982L129.791 195.402L114.724 185.257C108.647 181.165 104.205 175.326 102.101 167.11L92.0979 181.965C100.502 180.826 107.583 182.745 113.66 186.837L128.727 196.982ZM148.227 193.713L128.158 180.2C132.272 188.574 131.825 194.704 128.59 199.509L98.8805 243.632L100.463 244.698L130.173 200.574C133.408 195.77 138.92 193.05 148.227 193.713ZM117.405 213.797L118.469 212.217L103.402 202.072C97.3246 197.979 92.8832 192.141 90.7784 183.925L86.3092 190.562L68.4566 178.542C63.6453 175.302 60.9589 169.726 61.5239 160.552L48.1587 180.401C56.4471 176.427 62.5812 176.882 67.3925 180.122L85.2451 192.143L80.7759 198.78C89.1801 197.64 96.2605 199.56 102.338 203.652L117.405 213.797ZM106.083 230.612L107.147 229.032L92.08 218.887C86.0026 214.794 81.5611 208.956 79.4564 200.74L69.4538 215.595C77.858 214.455 84.9385 216.375 91.0159 220.467L106.083 230.612ZM83.7215 170.629L83.0577 167.242C82.2695 163.22 83.0049 159.122 85.8142 154.95C86.9634 153.243 88.5361 151.454 90.4472 149.709L68.7436 153.929L51.3975 142.249C55.5116 150.624 55.0644 156.754 51.8295 161.558L35.3997 185.958L25.6596 187.852C28.1525 188.796 30.222 189.822 31.9946 191.016C36.1095 193.786 38.3385 197.308 39.1267 201.33L40.4968 208.041L42.4025 207.67L41.0324 200.96C40.1809 196.895 40.9796 192.839 43.7463 188.73C44.9381 186.96 46.4682 185.235 48.4219 183.426L38.0465 185.444L53.4122 162.624C56.6471 157.819 62.1588 155.099 71.4658 155.762L71.4232 155.825C72.3947 156.295 73.2177 156.85 73.9773 157.361C78.1556 160.174 80.3638 163.591 81.152 167.613L81.8158 171L83.7215 170.629Z" fill="#FFC4B0"/>
<path class="letter" d="M396.525 1009.2L397.721 1007.24L376.837 994.5C370.848 990.848 367.293 984.267 367.461 973.177L352.44 997.81C362.222 992.583 369.652 992.809 375.641 996.461L396.525 1009.2ZM394.82 984.158L393.829 980.11C392.653 975.303 393.311 970.323 396.468 965.146C397.76 963.028 399.558 960.788 401.767 958.584L375.805 964.813L354.212 951.645C359.647 961.525 359.451 968.938 355.815 974.9L337.35 1005.18L325.698 1007.98C328.76 1008.98 331.316 1010.11 333.522 1011.46C338.645 1014.58 341.533 1018.71 342.71 1023.52L344.74 1031.53L347.019 1030.99L344.989 1022.97C343.734 1018.11 344.471 1013.18 347.58 1008.08C348.92 1005.89 350.67 1003.73 352.927 1001.44L340.516 1004.42L357.785 976.102C361.421 970.14 367.922 966.571 379.193 966.88L379.146 966.958C380.345 967.474 381.369 968.099 382.315 968.676C387.516 971.848 390.373 975.85 391.55 980.657L392.541 984.705L394.82 984.158Z" fill="#FFC4B0"/>
<path class="letter" d="M502.711 485.332C501.773 485.777 500.262 486 498.176 486C494.309 486 492.375 484.031 492.375 480.094V472.008H487.348C485.637 472.008 484.441 471.855 483.762 471.551C482.684 471.082 482.145 470.133 482.145 468.703V461.531C483.504 463.781 485.566 464.906 488.332 464.906H495.398C496.547 464.906 497.906 464.133 499.477 462.586C499.125 464.578 498.949 467.262 498.949 470.637V476.262C498.949 479.238 500.203 482.262 502.711 485.332ZM489.352 482.625C489.352 483.375 489.047 484.125 488.438 484.875C487.828 485.625 487.172 486 486.469 486C485.766 486 485.109 485.625 484.5 484.875C483.891 484.125 483.586 483.375 483.586 482.625C483.586 481.898 483.891 481.16 484.5 480.41C485.109 479.66 485.766 479.285 486.469 479.285C487.172 479.285 487.828 479.66 488.438 480.41C489.047 481.16 489.352 481.898 489.352 482.625Z" fill="#FFC4B0"/>
<path class="letter" d="M1608.19 234.007L1553.81 200.755C1551.01 199.045 1549.77 196.314 1550.09 192.562C1550.32 189.897 1551.07 187.524 1552.34 185.445L1558.1 176.032C1557.53 183.421 1558.77 188.052 1561.83 189.925L1603.46 215.375L1610.25 204.26L1595.57 195.28C1592.81 193.593 1591.03 192.168 1590.23 191.006C1588.96 189.187 1589.02 187.124 1590.43 184.818L1597.51 173.25C1597.52 178.243 1599.73 182.092 1604.16 184.796L1620.94 195.059C1622.8 196.192 1625.75 196.285 1629.81 195.339C1627.41 198.077 1625.09 201.28 1622.84 204.947L1617.78 213.226C1615.33 217.234 1614.57 220.172 1615.51 222.042L1608.19 234.007Z" fill="#FFC4B0"/>
<path class="letter" d="M1708.97 1034.53C1706.27 1039.17 1703.54 1040.69 1700.77 1039.08L1677.6 1025.6C1675.91 1024.62 1675.63 1023.14 1676.77 1021.18L1682.15 1011.94C1685.37 1011.84 1689.76 1010.96 1695.33 1009.3C1702.47 1007.18 1706.85 1004.74 1708.46 1001.98C1709.73 999.788 1710.34 998.23 1710.28 997.301C1703.34 991.887 1701.16 986.948 1703.76 982.485C1704.82 980.655 1706.52 979.374 1708.86 978.642C1711.2 977.911 1713.39 978.142 1715.44 979.336C1721.65 982.945 1721.95 989.57 1716.34 999.211C1713.12 1004.75 1710.59 1008.53 1708.75 1010.57C1705.87 1013.67 1701.94 1016.22 1696.95 1018.22L1708.87 1025.15C1709.72 1025.64 1710.21 1026.8 1710.35 1028.61C1710.52 1030.68 1710.06 1032.65 1708.97 1034.53Z" fill="#FFC4B0"/>
<path class="letter" d="M716.488 827.098C716.536 832.174 716.125 835.679 715.255 837.612C714.047 840.126 711.267 842.543 706.917 844.863C699.956 848.15 692.995 851.413 686.034 854.652C678.251 859.196 674.36 864.924 674.36 871.837C674.36 872.804 675.713 875.027 678.42 878.508C681.127 881.94 682.481 884.236 682.481 885.396C682.481 887.185 681.949 889.094 680.886 891.125C679.677 893.542 678.227 894.75 676.535 894.75C674.408 894.75 672.354 893.59 670.372 891.27C668.487 889.094 667.544 887.088 667.544 885.251C667.544 884.333 668.124 882.979 669.284 881.191C670.493 879.354 671.097 878 671.097 877.13C671.097 873.795 669.913 870.459 667.544 867.124C664.934 863.498 662.009 861.686 658.77 861.686C655.338 861.686 653.259 861.758 652.534 861.903C649.876 862.483 648.546 864.006 648.546 866.471C648.546 869.517 650.794 873.48 655.29 878.363C659.834 883.197 662.106 886 662.106 886.774C662.106 889.674 660.801 891.608 658.19 892.575C655.628 893.3 653.09 894.025 650.577 894.75C647.483 898.762 645.525 900.768 644.703 900.768C644.703 900.043 644.897 898.303 645.283 895.548C645.67 892.841 645.864 890.81 645.864 889.457C645.864 883.656 644.824 878.605 642.746 874.302C641.73 872.175 639.797 869.323 636.945 865.746C634.866 863.087 633.827 860.912 633.827 859.22C662.492 851.341 685.14 842.132 701.769 831.594C703.605 830.434 705.708 827.993 708.077 824.271C709.962 821.274 711.726 819.775 713.37 819.775C715.449 819.775 716.488 822.216 716.488 827.098Z" fill="#FFC4B0"/>
<path class="letter" d="M314.977 501.762L303.552 496.4L304.268 494.872L305 495.216C305.361 495.385 305.706 495.119 306.034 494.419C306.134 494.207 306.201 493.954 306.236 493.659L307.614 480.792L293.706 474.265C290.311 477.694 288.14 480.416 287.194 482.432C286.676 483.535 286.613 484.58 287.004 485.566C287.396 486.552 288.143 487.304 289.247 487.822L290.933 488.614L290.217 490.142L275.959 483.45L276.675 481.923C279.133 482.92 282.487 481.401 286.738 477.363L315.394 450.229L317.272 451.11L313.274 488.923C312.983 491.583 312.909 493.645 313.05 495.11C313.315 497.745 314.196 499.453 315.694 500.234L314.977 501.762ZM307.825 478.522L309.979 458.872L295.349 472.667L307.825 478.522Z" fill="#FFC4B0"/>
<path class="letter" d="M300.873 166.95L285.405 156.52L286.663 154.654C287.734 155.301 288.523 155.249 289.03 154.498C289.187 154.264 289.28 153.931 289.308 153.498L290.721 127.256C279.607 130.994 272.879 134.599 270.538 138.071C268.809 140.636 269.675 143.124 273.138 145.534L271.88 147.4L253.419 134.952L254.677 133.086C258.264 135.09 264.16 134.562 272.367 131.502L290.878 124.592L291.972 104.355C292.396 96.3489 291.114 91.1504 288.128 88.7599L289.386 86.8944L304.543 97.1149L303.285 98.9804C302.214 98.3334 301.477 98.3079 301.076 98.9038C300.936 99.1111 300.857 99.3403 300.838 99.5916L299.683 121.427C308.558 118.102 313.826 115.209 315.486 112.748C317.163 110.26 316.05 107.663 312.147 104.956L313.405 103.09L332.021 115.643L330.763 117.508C326.838 115.616 321.046 116.045 313.387 118.795L299.436 123.805L298.102 152.53C297.917 156.438 298.481 159.626 299.794 162.095C300.274 163.059 301.053 164.056 302.131 165.084L300.873 166.95Z" fill="#FFC4B0"/>
<path class="outline" d="M917.929 1005.6L951.133 1063.24C956.983 1073.39 958.514 1083.14 955.727 1092.48C952.94 1101.83 946.104 1109.63 935.219 1115.9C924.455 1122.1 914.424 1123.99 905.124 1121.56C895.801 1119.08 888.203 1112.75 882.33 1102.55L849.266 1045.16L860.537 1038.67L893.812 1096.43C898 1103.7 903.17 1108.21 909.322 1109.97C915.514 1111.7 922.51 1110.32 930.308 1105.83C937.66 1101.59 942.171 1096.37 943.841 1090.16C945.552 1083.93 944.266 1077.1 939.984 1069.66L906.78 1012.03L917.929 1005.6ZM856.387 1019.07C855.147 1016.92 854.826 1015.05 855.425 1013.46C856.001 1011.83 857.101 1010.54 858.726 1009.61C860.31 1008.69 861.972 1008.39 863.711 1008.68C865.427 1008.94 866.905 1010.14 868.146 1012.29C869.386 1014.45 869.709 1016.37 869.116 1018.06C868.524 1019.76 867.435 1021.06 865.851 1021.97C864.226 1022.91 862.553 1023.2 860.831 1022.84C859.108 1022.48 857.627 1021.22 856.387 1019.07ZM879.843 1005.56C878.603 1003.4 878.282 1001.53 878.882 999.943C879.457 998.313 880.517 997.053 882.06 996.164C883.644 995.251 885.306 994.943 887.046 995.239C888.762 995.495 890.24 996.699 891.48 998.852C892.72 1001 893.044 1002.93 892.451 1004.62C891.858 1006.32 890.769 1007.62 889.185 1008.53C887.642 1009.42 886.009 1009.69 884.287 1009.33C882.565 1008.96 881.083 1007.71 879.843 1005.56Z" fill="#FFC4B0"/>
<path class="outline vbig" d="M1633.45 435.263L1632.31 428.072L1626.11 421.063L1623.78 415.155L1622.25 413.8L1619.52 414.974L1616.3 418.569L1605.35 425.652L1601.88 429.012L1600.75 433.782L1598.92 434.902L1592.53 433.42L1588.91 430.24L1587.12 427.169L1581.58 425.868L1580.44 421.677L1576.92 419.31L1573.56 414.884L1571.28 416.419L1570.99 418.479L1571.98 423.321L1569.51 429.102L1568.46 429.988L1563 430.873L1556.72 433.763L1546.85 432.932L1543.78 434.233L1538.92 438.19L1535.94 439.075L1531.19 438.551L1529.36 435.01L1524.81 433.239L1525.26 424.929L1524.58 423.231L1517.19 422.345L1511.14 416.275L1513.01 413.33L1512.76 412.625L1508.79 410.313L1508.19 404.405L1508.75 400.557L1510.27 396.6L1515.69 389.464L1516.32 386.754L1516.07 385.218L1515.15 384.514L1522.54 377.739L1524.79 374.27L1525.25 371.686L1523.2 366.05L1526.08 364.442L1536.21 362.256L1541.65 359.13L1543.73 356.185L1543.31 351.777L1542.26 350.422L1529.47 342.924L1522.68 341.931L1521.83 339.907L1522.17 338.498L1527.79 333.024L1528.05 326.809L1531.5 322.527L1534.75 316.854L1535.4 314.343L1536.36 313.53L1539.84 313.078L1545.9 303.394L1553.84 301.281L1561.02 296.276L1562.7 296.005L1564.72 299.618L1568.55 300.648L1574.1 300.142L1577.53 296.186L1582.59 297.432L1584.58 299.329L1588.28 299.42L1596.1 302.545L1598.89 302.654L1600.1 301.859L1602.46 298.083L1601.18 295.301L1597.26 291.94L1590.12 289.537L1584.68 284.84L1584.4 282.762L1585.68 279.691L1591.55 270.82L1595.05 267.008L1598.36 265.689L1598.9 263.142L1605.05 257.848L1605.52 255.138L1610.88 252.645L1617.37 254.741L1621.31 252.464L1623.96 249.899L1624.58 243.919L1629.02 238.011L1631.12 236.385L1634.69 235.084L1635.89 230.224L1638.2 228.092L1639.25 224.822L1643.91 222.257L1645.66 219.655L1644.77 218.698L1647.94 216.837L1654.08 216.602L1661.67 220.36L1671.42 220.667L1681.88 215.428L1686.29 214.47L1703.69 235.807L1713.55 252.898L1718.7 259.565L1742.59 273.783L1746.06 274.741L1753.68 274.199L1755.22 275.626L1761.5 288.345L1766.65 296.366L1772.79 300.522L1784.94 313.584L1798.32 323.665L1807.19 332.608L1810.37 339.13L1814.15 349.735L1821.77 360.63L1825.15 364.279L1837.73 374.053L1844.47 378.136L1860.02 382.689L1878.65 395.516L1895.65 411.632L1909.07 421.189L1921.75 431.921L1937.85 443.646L1945.75 451.234L1799.41 543.518L1793.05 535.912L1786.62 532.1L1782.41 526.644L1777.26 522.543L1761.59 507.295L1759.86 504.187L1758.47 491.974L1754.71 486.988L1750.25 485.109L1745.69 488.289L1743.08 487.873L1738.96 485.109L1734.15 483.103L1733.3 480.574L1728.95 474.757L1728.66 470.294L1723.91 466.771L1718.36 464.477L1707.66 463.411L1704.68 462.002L1702.21 459.111L1701.07 452.986L1693.64 445.272L1692.16 439.978L1689.89 437.449L1684.2 434.378L1678.34 428.958L1675.02 428.614L1663.67 431.921L1635.67 435.227L1633.99 435.986L1633.45 435.263ZM1603.29 351.217L1585.48 350.657L1583.09 352.174L1583.26 359.961L1586.27 363.195L1588.03 367.368L1590.57 368.705L1603.13 368.326L1603.29 351.217Z" stroke="#A15151" stroke-width="0.5"/>
<path class="outline big" d="M1510.94 -49.809L1498 -60.5225L1493.43 -61.9137L1492.09 -59.547L1490.61 -61.3175L1489.22 -61.733L1488.62 -62.5279L1489.22 -64.5153L1489.42 -64.3346L1488.99 -62.4015L1490.07 -63.7926L1490.52 -66.1051L1489.82 -66.5929L1490.95 -68.4719L1489.27 -69.1223L1489.02 -70.5315L1488.14 -70.0437L1488.05 -71.7239L1487.49 -71.3806L1484.96 -72.9524L1484.92 -73.8016H1483.93L1486.2 -76.5296L1485.57 -78.4085L1484.38 -78.8421L1481.74 -77.6859L1481 -79.1312L1483.13 -79.077L1485.46 -80.7753L1485.72 -80.0526L1486.94 -79.8539L1487.34 -80.9559L1488.48 -80.8295L1489.53 -84.5332L1490.52 -84.9667L1490.72 -83.9912L1491.5 -84.1176L1490.95 -86.123L1491.86 -86.2314L1493.2 -89.6279L1492.4 -90.4229L1491.95 -93.5304L1490.21 -94.6685L1490.32 -97.8302L1492.6 -100.197L1495.67 -100.92L1495.92 -102.383L1497.1 -103.232L1496.86 -104.262L1498.63 -105.183L1499.14 -106.701L1501.33 -107.496L1502.01 -112.464L1503.94 -113.566L1502.81 -122.69L1501.22 -124.75V-127.134L1499.59 -128.76L1499.48 -132.229L1497.1 -133.819L1498.06 -136.674L1496.01 -137.342L1496.07 -138.083L1497.46 -137.83L1498.43 -138.679L1499.14 -137.595L1500.42 -137.902L1501.07 -136.926L1504.14 -137.107L1507.52 -140.504L1509 -140.576L1510.23 -142.274L1511.57 -148.724L1512.42 -149.284L1512.82 -151.289L1513.7 -152.626L1516.93 -154.27L1517.08 -155.065L1520.17 -152.066L1531.89 -156.944L1533.12 -156.818L1535.71 -153.349L1534.28 -145.761L1534.95 -143.828L1540.53 -143.394L1552.4 -140.413L1555.54 -138.173L1558.04 -133.44L1559.03 -128.706L1558.24 -125.581L1558.78 -124.171L1560.75 -123.015L1572.8 -125.093L1579.73 -125.454L1582.75 -124.424L1583.2 -122.961L1582.32 -119.727L1577.08 -116.403L1574.98 -115.536L1573.68 -113.783L1573.88 -107.767L1573.19 -105.201L1571.75 -103.575L1567.88 -102.6L1566.65 -99.6188L1570.27 -93.4942L1571.66 -83.6479L1571.01 -68.6706L1567.39 -44.9852L1569.42 -36.5842L1571.66 -32.0495L1571.8 -26.774L1576.16 -10.3875L1576.7 -0.252148L1568.79 -4.49783L1560.82 -0.848352L1543.24 -0.32443L1537.13 1.21127L1535.56 0.849919L1526.96 -5.97928L1524.18 -7.37042L1519.64 -7.67755L1519.1 -8.79767L1518.07 -8.72542L1517.42 -11.869L1517.87 -15.6269L1517.31 -17.3793L1517.91 -18.644L1517.17 -19.1318L1517.77 -23.3052L1517.22 -23.5943L1516.83 -33.8742L1517.51 -34.5427L1515.74 -41.3177L1516.46 -42.4197L1514.44 -45.9247L1510.94 -49.809Z" stroke="#A15151" stroke-width="0.5"/>
<path class="outline" d="M1577.08 -116.403L1578.29 -114.199L1581.72 -112.374L1585.08 -112.5L1588.89 -114.56L1591.53 -113.964L1593.5 -108.309L1594.84 -107.514L1603.87 -107.406L1605.3 -106.719L1605.5 -100.721L1601.43 -79.4023L1601.49 -76.8007L1602.82 -73.35L1602.48 -69.6463L1603.56 -63.4675L1601.69 -60.3781L1604.7 -54.669L1606.64 -47.1714L1608.62 -45.166L1613.28 -46.0693L1618.09 -49.1587L1623.53 -46.3764L1625.62 -41.7152L1627.36 -40.3783L1634.44 -40.3241L1646.24 -36.9998L1651.93 -36.4578L1659.55 -36.9998L1664.07 -39.2943L1679.53 -42.5102L1686.33 -37.054L1687.86 -33.7298L1691.03 -31.7424L1692.56 -29.3215L1694.58 -30.2248H1699.01L1700.29 -30.8933L1702.48 -36.1507L1706.63 -40.0892L1709.31 -44.6781L1710.16 -44.7504L1712.18 -41.8959L1712.72 -38.6981L1712.38 -35.9158L1710.3 -31.5437L1711.58 -21.878L1714.46 -20.4869L1724.72 -20.9024L1726.76 -21.7516L1728.69 -25.1481L1730.77 -27.0812L1732.11 -27.6232L1735.23 -26.4127L1735.58 -26.9006L1735.47 -36.6385L1734.24 -40.1434L1732.05 -40.6312L1728.13 -35.2473L1725.6 -35.0667L1723.73 -36.3314L1723.78 -39.9085L1726.65 -44.3168L1728.44 -50.1343L1729.83 -51.7784L1735.63 -53.5308L1737.94 -55.1568L1739.79 -57.4693L1743.2 -64.678L1744.68 -69.8269L1748.59 -71.6878L1761.79 -67.4602L1772.09 -60.9743L1781.36 -60.613L1805.78 -63.883L1811.33 -63.6481L1827.39 -52.5552L1836.26 -48.6889L1856.48 -46.0151L1883.89 -46.0693L1897.22 -44.9311L1918.18 -46.5029L1930.26 -46.4668L1939.28 -39.475L1942.19 -34.8138L1942.6 -19.6919L1941.75 -5.7987L1938.83 2.04225L1933.08 10.8588L1931.55 14.6708L1930.75 20.2173L1931.75 29.1965L1919.35 33.8938L1905.04 40.6507L1902.17 42.6923L1897.85 47.3354L1897.45 50.4609L1893.84 56.9649L1893.75 61.5358L1892.16 65.4563L1888.69 69.4309L1886.71 70.3884L1884.97 69.6116L1875.96 57.3985L1861.94 45.5829L1859.89 35.3391L1855.83 29.07L1848.86 27.8776L1844.28 23.4693L1841.81 22.4395L1836.01 23.3429L1817.93 29.07L1812.47 29.4494L1801.38 36.7844L1799.1 40.5242L1798.79 50.0454L1799.89 54.3272L1798.05 56.5494L1795.63 56.2423L1792.65 51.7979L1791.37 51.0752L1781.76 51.1294L1778.68 53.5323L1776.81 54.0742L1770.86 51.4907L1769.27 52.8818L1768.93 56.2423L1765.6 55.2305L1762.08 55.646L1760.89 59.44L1758.76 61.7887L1757.67 65.6911L1754.75 68.2205L1749.8 66.3596L1746.33 60.9396L1742.66 60.3434L1737.71 62.3307L1736.07 67.1906L1730.77 64.0651H1728.24L1725.12 67.9856L1719.23 68.8166L1706.92 78.3197L1704.65 77.9042L1703.91 73.7489L1700.98 70.2078L1699.99 66.7751L1696.43 61.8971L1694.24 55.7002L1690.93 53.5323L1688.3 52.9902L1685.88 53.0444L1681.76 55.8267L1677.1 56.1339L1673.48 59.3678L1666.85 59.0065L1664.47 60.1627L1662.48 59.3136L1659.26 62.0778L1655.8 62.5114L1651.33 64.3723L1647.41 67.1906L1641.92 67.9133L1638.16 66.2873L1636.86 66.468L1631.91 69.4309L1630.12 69.6658L1627.76 69.1238L1626.71 65.2756L1623.38 64.3181L1624.86 60.8854L1624.63 59.2594L1622.39 57.9947L1620.66 58.1212L1618.52 59.4942L1616.45 63.8302L1612.49 66.7751L1611.75 69.0696L1612.04 72.1229L1610.16 73.7489L1610.05 77.4164L1608.08 78.8617L1607.68 80.4877L1606.58 81.391L1603.37 79.2231H1601L1599.3 76.4589L1598.07 75.7362L1596.08 76.6395L1593.07 80.5419L1591.53 80.6684L1590.48 76.0975L1586.33 74.8329L1588.95 72.0144L1587.54 69.4851L1585.97 67.1184L1580.62 63.2882L1577.39 54.2368L1566.96 55.628L1558.58 54.3272L1556.84 53.0444L1555.85 50.226L1556.05 47.5702L1557.08 46.5585L1562.14 47.0282L1565.06 45.1132L1568.32 44.5712L1569.18 43.4872L1572.67 43.2704L1577.35 39.0247L1577.55 35.6463L1579.28 31.0754L1577.69 20.6329L1576.7 -0.25222L1576.16 -10.3876L1571.8 -26.7741L1571.66 -32.0496L1569.42 -36.5843L1567.39 -44.9853L1571.01 -68.6707L1571.66 -83.648L1570.27 -93.4943L1566.65 -99.6189L1567.88 -102.6L1571.75 -103.575L1573.19 -105.201L1573.88 -107.767L1573.68 -113.783L1574.98 -115.536L1577.08 -116.403Z" stroke="#A15151" stroke-width="0.5"/>
<path class="outline big" d="M2240.81 276.312L2150.98 327.802L2031.83 397.738L1945.75 451.162L1937.85 443.574L1921.74 431.83L1909.05 421.099L1895.63 411.541L1878.63 395.426L1860 382.617L1844.45 378.064L1837.69 373.981L1825.12 364.207L1821.74 360.557L1814.11 349.663L1810.34 339.058L1807.18 332.536L1798.31 323.593L1784.94 313.494L1772.79 300.449L1766.63 296.294L1761.49 288.272L1755.2 275.554L1753.66 274.126L1746.02 274.65L1742.55 273.711L1718.67 259.492L1713.52 252.826L1703.65 235.735L1686.27 214.38L1681.87 215.337L1671.4 220.595L1661.65 220.288L1654.06 216.53L1647.92 216.765L1644.76 218.644L1640.04 216.385L1638.69 213.946L1637.13 206.467L1637.96 204.389L1640.55 201.48L1640.17 198.228L1633.92 196.024L1628.59 183.757L1628.89 181.589L1633.07 176.097L1631.95 173.621L1625.52 170.984L1623.98 167.732L1617.2 164.281L1614.26 159.042L1613.68 155.808L1608.03 156.151L1605.95 157.687L1600.84 155.808L1598.22 157.614L1594.75 156.097L1593.27 153.712L1594.12 151.038L1602.64 147.208L1605.12 145.329L1605.75 143.685L1604.77 139.855L1607.2 132.899L1608.59 133.044L1611.32 136.35L1614.33 136.061L1615.69 128.238L1613.79 127.859L1609.92 129.972L1606.6 129.43L1599.99 125.185L1596.46 121.752L1596.57 119.873L1593.3 115.483L1590.76 115.013L1589.04 117.037L1588.12 123.45L1584.16 127.118L1581 127.515L1576.28 126.54L1573.1 127.913L1568.61 125.257L1563.33 126.702L1555.99 124.679L1551.71 125.654L1552.29 121.066L1557.68 111.057L1563.13 103.125L1564.52 98.6267L1566.91 97.0007L1568.98 92.6827L1572.8 91.0026L1574.42 87.6964L1580.53 82.3486L1580.28 75.7363L1581.47 72.4842L1587.54 69.4852L1588.95 72.0145L1586.33 74.8329L1590.48 76.0976L1591.53 80.6684L1593.07 80.5419L1596.08 76.6396L1598.07 75.7363L1599.3 76.4589L1601 79.2231H1603.37L1606.58 81.3911L1607.68 80.4877L1608.08 78.8618L1610.05 77.4164L1610.16 73.7489L1612.04 72.1229L1611.75 69.0697L1612.49 66.7752L1616.45 63.8303L1618.52 59.4943L1620.66 58.1213L1622.39 57.9948L1624.63 59.2594L1624.87 60.8855L1623.38 64.3181L1626.71 65.2756L1627.76 69.1238L1630.12 69.6658L1631.91 69.431L1636.86 66.468L1638.16 66.2874L1641.92 67.9134L1647.41 67.1907L1651.33 64.3723L1655.8 62.5114L1659.26 62.0778L1662.48 59.3136L1664.47 60.1627L1666.85 59.0065L1673.48 59.3678L1677.1 56.1339L1681.76 55.8268L1685.88 53.0445L1688.3 52.9903L1690.93 53.5323L1694.24 55.7003L1696.43 61.8972L1699.99 66.7752L1700.98 70.2078L1703.91 73.7489L1704.65 77.9042L1706.92 78.3198L1719.23 68.8167L1725.12 67.9856L1728.24 64.0652H1730.77L1736.07 67.1907L1737.71 62.3308L1742.66 60.3434L1746.33 60.9397L1749.8 66.3597L1754.75 68.2205L1757.67 65.6911L1758.76 61.7888L1760.89 59.4401L1762.08 55.6461L1765.6 55.2306L1768.93 56.2423L1769.27 52.8819L1770.86 51.4908L1776.81 54.0743L1778.68 53.5323L1781.76 51.1294L1791.37 51.0752L1792.65 51.7979L1795.63 56.2423L1798.05 56.5494L1799.89 54.3272L1798.79 50.0455L1799.1 40.5243L1801.38 36.7845L1812.47 29.4494L1817.93 29.07L1836.01 23.3429L1841.81 22.4396L1844.28 23.4693L1848.86 27.8776L1855.83 29.07L1859.89 35.3392L1861.94 45.583L1875.96 57.3985L1884.97 69.6116L1886.71 70.3885L1888.69 69.431L1892.16 65.4563L1893.75 61.5358L1893.84 56.965L1897.45 50.461L1897.85 47.3355L1902.17 42.6923L1905.04 40.6508L1919.35 33.8939L1931.75 29.1965L1930.75 20.2174L1931.55 14.6709L1933.08 10.8589L1938.83 2.04231L1941.75 -5.79864L1942.6 -19.6919L1942.19 -34.8137L1954.55 -36.5662L1969.65 -36.6926L1981.65 -36.0964L2010.19 -32.7541L2048.49 -25.0216L2070.24 -17.5239L2089.07 -14.0732L2109.94 -5.88896L2119.1 0.235643L2131 10.4975L2145.85 41.6806L2143.97 58.9523L2245.17 203.739L2279.28 254.434L2240.81 276.312Z" stroke="#A15151" stroke-width="0.5"/>
<path class="outline" d="M1519.61 105.619L1518.52 94.9231L1510.99 77.1455L1509.02 70.5873L1506.35 69.8647L1505.61 67.7508L1506.55 69.684L1508.62 70.0453L1507.94 69.5756L1507.43 69.3949L1507.97 68.6723L1507.12 68.4916L1507.92 68.0218L1507.12 67.6424L1510.14 65.4744L1509.89 58.2116L1508.61 55.0861L1509.4 55.6823L1509.8 50.5694L1512.58 48.3473L1513.47 46.5406L1512.47 39.3681L1511.19 36.7845V34.1107L1512.38 30.8768L1511.53 25.0232L1512.49 24.5353L1513.03 22.4216L1514.77 22.1325L1516.7 15.8453L1517.84 15.6104L1518.69 14.2916L1518.04 10.6782L1519.43 8.97997L1522.84 7.1733L1523.28 6.08929L1522.39 -1.15543L1519.66 -7.64136L1524.2 -7.33423L1526.98 -5.94311L1535.58 0.886084L1537.15 1.24744L1543.26 -0.270154L1560.84 -0.794103L1568.8 -4.46163L1576.72 -0.1979L1577.73 20.6872L1579.32 31.1116L1577.58 35.6825L1577.39 39.061L1572.71 43.3066L1569.22 43.5053L1568.35 44.5894L1565.1 45.1314L1562.17 47.0645L1557.11 46.5767L1556.07 47.6065L1555.87 50.2623L1556.86 53.0987L1558.6 54.3634L1566.98 55.6823L1577.4 54.2911L1580.66 63.3426L1586 67.1727L1587.58 69.5575L1581.5 72.5566L1580.31 75.8086L1580.57 82.421L1574.48 87.7687L1572.83 91.0749L1569.02 92.7732L1566.94 97.0911L1564.58 98.699L1563.19 103.216L1557.73 111.147L1552.35 121.174L1551.77 125.745L1546.8 127.136L1543.31 126.576L1538.24 127.046L1535.27 124.336L1531.28 123.974L1530.36 122.908L1528.17 125.112L1527.97 124.408L1526.42 125.275L1519.61 105.619Z" stroke="#A15151" stroke-width="0.5"/>
<path class="outline" d="M1588.03 367.368L1586.27 363.177L1583.26 359.961L1583.09 352.174L1585.48 350.639L1603.29 351.217L1603.13 368.308L1590.57 368.687L1588.03 367.368Z" stroke="#A15151" stroke-width="0.5"/>
<path class="outline" d="M1508.77 410.295L1512.74 412.607L1512.98 413.312L1511.1 416.275L1517.15 422.345L1524.52 423.231L1525.23 424.947L1524.78 433.258L1522.99 442.851L1523.35 443.917L1527.59 446.988L1528.24 449.21L1523.19 459.219L1521.96 470.71L1526.08 478.695L1528.89 482.164L1529.53 486.337L1528.59 487.692L1525.77 484.278L1519.83 484.928L1519.52 486.518L1521.16 489.698L1521.36 495.046L1516.18 499.996L1517.66 495.389L1513.95 489.608L1512.42 475.516L1511.5 472.498L1512.02 465.832L1511.12 462.11L1512.29 460.394L1515.85 461.351L1518.81 460.538L1518.85 459.111L1516.43 455.66L1519.63 452.246L1520.04 446.699L1516.28 441.261L1511.01 439.834L1510.65 437.539L1512.82 434.667L1513.85 431.252L1512.42 424.441L1506.71 417.973L1508.77 414.468V410.295Z" stroke="#A15151" stroke-width="0.5"/>
<path class="outline" d="M1599.32 602.072L1591.66 594.25L1568.3 576.219L1563.44 578.333L1555.49 577.159L1551.35 577.339L1547.81 578.423L1546.67 571.847L1544.18 566.228L1537.84 559.634L1538.61 552.172L1538.09 549.679L1535.15 548.071L1530.48 548.18L1526.87 546.138L1528.57 543.844L1528.53 542.019L1527.09 540.7L1524.97 540.664L1522.99 539.327L1521.83 536.31L1520.35 534.955L1517.42 535.388L1514.01 534.81L1509.92 532.516H1506.98L1502.19 533.925L1499.55 532.733L1498.98 531.703L1497.3 531.938L1496.74 531.034L1497.48 528.812L1503.06 522.344L1507.43 514.503L1510.32 511.396L1516.18 499.996L1521.36 495.046L1521.16 489.698L1519.52 486.518L1519.83 484.928L1525.77 484.278L1528.59 487.692L1529.53 486.337L1528.89 482.164L1526.08 478.695L1521.96 470.71L1523.19 459.219L1528.24 449.21L1527.59 446.988L1523.35 443.917L1522.99 442.851L1524.78 433.258L1529.35 435.028L1531.17 438.551L1535.92 439.093L1538.9 438.208L1543.76 434.251L1546.84 432.95L1556.7 433.782L1562.99 430.891L1568.44 430.006L1569.47 429.12L1571.95 423.339L1570.95 418.515L1571.26 416.456L1573.54 414.92L1576.92 419.328L1580.42 421.695L1581.56 425.886L1587.11 427.187L1588.89 430.24L1592.53 433.42L1598.9 434.902L1600.75 433.782L1601.88 429.012L1605.35 425.652L1616.3 418.569L1619.52 414.974L1622.25 413.8L1623.78 415.155L1626.11 421.045L1632.31 428.072L1633.45 435.263L1631.12 437.323L1629.49 437.666L1622.59 436.618L1617.58 440.448L1615.51 444.748L1616.36 447.801L1615.8 451.631L1618.29 458.352L1618.78 464.115L1620.46 465.29L1624.12 464.115L1626.42 464.585L1627.16 471.053L1629.18 475.823L1626.85 476.401L1615.9 475.642L1610.05 476.057L1605.8 477.647L1598.47 483.88L1593.07 487.223L1592.47 489.463L1593.56 492.697L1591.57 497.972L1593.21 505.958L1596.54 512.299L1594.55 516.653L1595.43 524.386L1597.48 530.601L1597.17 531.775L1595.43 532.48L1595 533.546L1595.34 539.508L1596.83 540.917L1602.82 542.615L1609.85 543.392L1611.98 546.138L1611.24 550.185L1606.69 553.871L1602.53 555.569L1602.34 556.743L1604.16 560.194L1602.62 565.343L1604.5 566.337L1607.68 566.626L1613.72 566.102L1616.5 568.685L1619.91 568.27L1621.85 569.733L1622.35 571.142L1622.3 572.841L1620.11 575.533L1619.63 577.448L1625.03 584.006L1625.66 585.758L1623.73 596.4L1624.67 603.644L1623.2 612.334L1621.4 611.829L1617.28 608.829L1604.7 606.969L1599.32 602.072Z" stroke="#A15151" stroke-width="0.5"/>
<path class="outline vbig" d="M1633.45 435.263L1633.93 435.841L1635.63 435.082L1663.62 431.776L1674.96 428.47L1678.29 428.831L1684.14 434.251L1689.83 437.322L1692.11 439.852L1693.61 445.163L1701.03 452.878L1702.17 458.984L1704.65 461.875L1707.63 463.284L1718.32 464.35L1723.87 466.645L1728.64 470.168L1728.93 474.648L1733.3 480.466L1734.13 482.995L1738.94 485L1743.06 487.746L1745.68 488.162L1750.25 485L1754.69 486.879L1758.47 491.866L1759.86 504.079L1761.59 507.204L1777.24 522.453L1782.41 526.554L1786.62 532.01L1793.05 535.822L1799.41 543.428L1702.19 605.162L1690.27 614.123L1682.5 621.62L1678.85 622L1663.35 617.447L1658.85 618.947L1655.07 616.02L1651.21 615.351L1623.2 612.334L1624.67 603.644L1623.73 596.399L1625.66 585.758L1625.03 584.006L1619.63 577.447L1620.11 575.532L1622.3 572.84L1622.35 571.142L1621.85 569.733L1619.91 568.27L1616.5 568.685L1613.72 566.102L1607.68 566.625L1604.5 566.336L1602.62 565.343L1604.16 560.194L1602.34 556.743L1602.53 555.569L1606.69 553.87L1611.24 550.185L1611.98 546.138L1609.85 543.392L1602.82 542.615L1596.83 540.917L1595.34 539.507L1595 533.545L1595.43 532.48L1597.17 531.775L1597.48 530.601L1595.43 524.386L1594.55 516.653L1596.54 512.299L1593.21 505.958L1591.57 497.972L1593.56 492.697L1592.47 489.463L1593.07 487.223L1598.47 483.88L1605.8 477.647L1610.05 476.057L1615.9 475.642L1626.85 476.401L1629.18 475.822L1627.16 471.053L1626.42 464.585L1624.12 464.115L1620.46 465.29L1618.78 464.115L1618.29 458.352L1615.8 451.631L1616.36 447.801L1615.51 444.748L1617.58 440.448L1622.59 436.618L1629.49 437.666L1631.12 437.322L1633.45 435.263Z" stroke="#A15151" stroke-width="0.5"/>
<path class="outline" d="M292.466 915.124L290.343 916.515L280.929 934.406L282.194 940.984L281.148 944.073L275.199 946.883L273.582 962.931L262.991 976.118L253.282 978.483L246.723 997.499L250.517 1004.8L243.275 1009.51L243.517 1017.34L236.353 1023.44L226.867 1049.51L209.818 1059.61L203.558 1039.78L203.431 1035.72L205.849 1029.81L202.831 1024.03L201.751 1022.9L198.428 1020.78L192.97 1018.46L190.008 1017.7L183.856 1016.99L181.267 1015.91L179.309 1013.89L175.525 1007.08L175.238 1004.9L175.588 1003.79L177.262 1002.44L179.507 1001.57L180.346 1000.45L180.591 998.049L180.158 996.029L177.969 993.711L177.579 992.171L178.26 989.94L182.789 981.186L188.451 986.195L192.85 989.182L195.428 988.618L197.009 987.421L198.494 985.605L199.757 983.526L201.701 976.912L206.578 970.37L208.119 969.15L212.843 966.833L214.335 965.557L214.889 964.513L215.339 963.462L215.554 956.459L215.969 954.824L216.443 953.733L219.933 948.93L220.817 946.765L221.065 943.345L221.455 941.937L222.306 941.119L226.198 940.462L231.414 936.931L232.846 935.62L233.946 933.822L234.155 932.818L233.884 931.856L230.35 927.657L227.739 919.385L228.031 918.054L228.542 917.36L229.583 917.135L230.569 917.468L234.112 919.716L237.002 920.137L237.891 919.529L238.565 918.555L238.636 916.774L238.252 914.809L237.762 913.854L237.954 913.939L237.919 912.203L238.756 908.322L239.344 906.574L242.381 901.722L243.606 899.246L244.111 897.181L244.594 891.513L245.297 890.073L247.217 888.108L250.191 886.221L252.098 885.936L255.057 886.746L259.133 888.769L264.625 890.382L267.233 890.506L268.777 889.233L269.535 887.423L269.527 882.14L270.205 879.453L275.513 873.322L276.656 871.173L277.755 867.579L278.987 864.999L281.003 862.501L285.097 858.826L286.529 856.041L286.712 854.299L286.47 853.194L285.513 852.074L283.7 851.046L280.568 850.35L279.615 849.823L279.303 849.346L279.255 848.461L279.933 847.248L281.948 846.088L286.644 845.202L290.985 843.359L302.805 834.371L307.579 841.918L308.719 845.072L309.06 854.114L307 863.554L307.273 866.446L307.987 867.799L308.93 868.481L310.334 868.601L317.025 867.187L319.891 867.005L320.935 867.237L329.781 872.115L336.239 875.201L329.82 879.373L321.716 888.191L314.447 898.433L310.493 902.189L301.796 905.947L296.494 912.483L292.466 915.124Z" stroke="#A15151" stroke-width="0.5"/>
<path class="outline" d="M341.963 763.038L339.958 763.077L334.671 766.085L332.927 766.089L329.516 765.365L327.163 766.14L323.095 766.132L318.886 768.346L317.822 768.424L316.485 767.914L315.757 767.276L314.011 764.197L312.814 763.26L310.663 763.134L307.245 764.174L305.339 764.272L300.381 762.245L298.952 762.03L298.157 762.292L297.073 763.188L294.603 766.789L290.277 770.356L289.125 772.66L287.847 776.285L286.233 778.83L284.401 780.229L280.109 782.449L276.258 785.568L272.683 779.229L271.305 775.425L269.789 769.185L269.33 768.409L268.284 768.041L264.945 769.958L263.013 770.469L261.076 770.253L258.825 769.239L254.593 766.563L250.765 762.595L246.976 760.632L244.809 756.987L243.217 755.578L239.386 753.457L234.262 752.085L231.628 750.901L230.092 749.257L229.577 748.207L229.391 747.054L229.706 745.683L233.528 740.724L234.36 738.556L234.362 737.539L231.897 734.176L229.553 730.052L226.903 726.822L225.768 721.125L224.846 719.946L222.021 717.525L221.759 716.408L221.982 715.841L224.952 712.853L226.886 709.529L229.137 707.409L231.414 702.757L233.516 699.558L238.356 695.889L238.869 695.008L239.04 693.607L238.776 692.542L237.862 691.395L236.073 690.14L233.085 688.643L230.205 688.066L225.148 688.421L222.744 688.041L221.69 687.133L221.132 684.638L221.395 683.264L222.083 682.404L223.041 681.863L224.16 681.736L228.629 682.621L231.108 682.321L233.306 680.893L234.784 678.858L235.761 676.533L235.918 675.204L235.406 672.629L233.913 670.635L231.83 669.102L230.747 668.66L235.037 665.983L238.813 665.526L255.74 668.351L266.9 668.974L276.565 667.977L283.038 666.383L285.684 664.599L296.18 661.111L298.558 661.261L302.193 662.706L305.444 668.08L307.896 678.054L310.923 685.013L314.788 690.852L317.112 693.169L321.125 695.53L339.809 702.244L346.367 706.219L348.871 708.64L352.035 716.054L352.121 728.805L348.125 738.164L342.976 746.049L341.554 753.1L342.157 757.684L340.857 759.688L341.963 763.038Z" stroke="#A15151" stroke-width="0.5"/>
<path class="outline" d="M210.542 772.963L204.307 770.783L197.533 769.254L193.769 767.708L191.012 768.302L187.524 769.784L182.877 771.047L181.642 772.526L179.986 773.76L174.671 772.624L170.958 774.216L169.277 773.882L166.167 771.858L161.644 762.635L161.264 757.805L160.499 755.619L160.177 749.724L158.021 732.284L159.044 732.183L161.932 729.844L167.077 717.267L173.828 706.536L181.498 701.78L185.489 700.216L196.8 701.408L200.566 700.463L207.985 690.979L215.833 684.396L223.522 674.908L228.34 670.126L230.747 668.659L231.83 669.102L233.913 670.635L235.406 672.628L235.918 675.204L235.761 676.533L234.783 678.858L233.305 680.893L231.108 682.321L228.629 682.621L224.16 681.736L223.041 681.863L222.083 682.404L221.395 683.264L221.132 684.638L221.69 687.133L222.744 688.04L225.148 688.421L230.205 688.066L233.085 688.643L236.073 690.14L237.862 691.394L238.776 692.542L239.04 693.607L238.869 695.008L238.356 695.889L233.516 699.558L231.414 702.757L229.137 707.408L226.886 709.529L224.952 712.852L221.982 715.841L221.759 716.408L222.02 717.525L224.846 719.945L225.768 721.125L226.902 726.822L229.553 730.052L231.897 734.175L234.362 737.539L234.36 738.556L233.528 740.724L229.706 745.683L226.847 742.305L225.261 739.319L222.389 735.826L219.959 739.773L218.743 743.246L218.966 744.983L221.753 750.141L222.071 751.345L221.865 753.958L220.238 757.353L218.75 759.22L217.339 760.034L213.547 759.919L212.179 760.704L210.861 762.51L210.3 764.488L211.245 768.253L210.542 772.963Z" stroke="#A15151" stroke-width="0.5"/>
<path class="outline" d="M377.248 794.146L372.337 801.07L373.039 805.713L372.494 808.584L367.973 814.101L365.218 816.303L363.079 819.427L361.535 828.256L357.116 831.983L355.347 834.84L354.298 842.081L347.839 850.329L345.792 856.935L342.359 863.621L341.425 867.392L339.083 872.247L336.239 875.201L329.781 872.115L320.935 867.237L319.891 867.005L317.025 867.187L310.334 868.601L308.93 868.481L307.987 867.799L307.273 866.446L307 863.554L309.06 854.114L308.719 845.072L307.579 841.918L302.805 834.371L303.442 831.017L305.134 825.114L306.025 820.219L306.241 817.451L305.81 815.566L303.932 813.589L300.635 811.564L295.114 811.06L289.968 809.219L284.926 808.35L282.65 806.919L281.936 805.244L282.075 801.412L281.745 799.077L280.993 797.514L277.999 792.986L276.692 788.554L276.258 785.568L280.109 782.449L284.401 780.229L286.233 778.83L287.847 776.285L289.125 772.66L290.277 770.356L294.603 766.789L297.073 763.188L298.157 762.292L298.952 762.03L300.381 762.245L305.339 764.272L307.245 764.174L310.663 763.134L312.814 763.26L314.011 764.197L315.757 767.276L316.485 767.914L317.822 768.424L318.886 768.346L323.095 766.132L327.163 766.14L329.516 765.365L332.927 766.089L334.671 766.085L339.958 763.078L341.963 763.038L345.921 766.278L351.96 767.781L359.611 772.687L363.167 776.524L370.578 787.185L377.248 794.146Z" stroke="#A15151" stroke-width="0.5"/>
<path class="outline" d="M173.295 856.581L183.156 852.804L188.094 851.684L198.421 852.036L204.009 854.268L205.717 854.511L206.922 854.328L208.776 853.397L210.275 852.018L212.219 848.861L212.561 847.72L212.511 844.904L211.199 841.676L209.756 839.872L206.465 837.1L204.025 833.832L202.386 832.503L200.462 831.572L199.438 831.351L195.875 831.396L194.244 830.929L191.649 829.125L189.51 826.354L188.84 824.464L188.561 821.996L188.807 819.085L190.14 811.955L190.063 810.383L189.362 808.502L191.577 806.306L196.864 803.299L201.227 799.62L207.331 792.398L209.057 789.891L211.062 785.752L212.209 778.621L211.803 776.001L210.542 772.963L211.245 768.253L210.3 764.488L210.861 762.51L212.179 760.704L213.547 759.919L217.339 760.034L218.75 759.22L220.238 757.353L221.865 753.958L222.071 751.345L221.753 750.141L218.966 744.983L218.743 743.246L219.959 739.773L222.389 735.827L225.261 739.319L226.847 742.305L229.706 745.683L229.391 747.054L229.577 748.207L230.092 749.257L231.628 750.901L234.262 752.085L239.386 753.457L243.217 755.578L244.809 756.987L246.976 760.632L250.765 762.595L254.593 766.563L258.825 769.239L261.076 770.253L263.013 770.469L264.945 769.958L268.284 768.041L269.33 768.409L269.789 769.185L271.305 775.426L272.683 779.229L276.258 785.568L276.692 788.554L277.999 792.986L280.993 797.514L281.745 799.077L282.075 801.412L281.936 805.244L282.65 806.919L284.926 808.35L289.968 809.219L295.114 811.06L300.635 811.564L303.932 813.589L305.81 815.566L306.241 817.451L306.025 820.219L305.134 825.114L303.442 831.017L302.805 834.371L290.985 843.359L286.643 845.202L281.948 846.088L279.933 847.248L279.255 848.461L279.302 849.346L279.615 849.823L280.568 850.35L283.7 851.046L285.513 852.075L286.47 853.194L286.712 854.299L286.529 856.041L285.097 858.826L281.003 862.501L278.987 864.999L277.755 867.579L276.656 871.173L275.513 873.322L270.205 879.453L269.527 882.14L269.535 887.424L268.777 889.234L267.233 890.506L264.625 890.383L259.132 888.769L255.057 886.747L252.098 885.937L250.191 886.221L247.217 888.109L245.297 890.073L244.594 891.513L244.111 897.181L243.606 899.246L242.381 901.722L239.344 906.574L238.756 908.322L237.919 912.203L237.954 913.939L237.762 913.854L235.688 912.674L232.3 909.471L230.335 908.703L224.624 910.044L223.553 909.904L222.694 909.216L221.565 906.228L221.215 902.407L221.418 900.998L223.151 896.406L223.314 894.651L223.125 893.871L221.417 891.002L213.193 881.369L211.149 880.046L207.605 879.137L206.182 878.175L205.214 876.567L204.028 873.492L203.125 872.511L199.546 870.832L196.232 868.744L191.776 866.5L190.881 865.229L189.826 861.56L188.891 860.588L179.741 859.687L177.226 858.76L173.295 856.581Z" stroke="#A15151" stroke-width="0.5"/>
<path class="outline" d="M189.362 808.502L182.764 805.655L180.757 804.408L178.439 802.496L175.19 799.374L171.16 793.68L168.009 790.481L165.27 786.852L164.594 786.217L163.472 785.752L162.06 785.922L161.35 786.313L157.427 790.57L156.294 791.412L147.602 796.404L145.002 798.617L143.371 799.303L136.158 800.279L133.552 800.29L131.755 799.969L126.005 797.831L117.509 796.774L114.882 797.283L111.111 798.653L108.673 798.468L109.816 796.962L115.706 793.287L119.276 789.683L121.883 784.232L125.992 771.133L126.401 766.146L125.795 756.361L128.371 751.563L131.732 747.167L146.17 736.673L154.91 732.565L158.021 732.284L160.177 749.724L160.499 755.619L161.264 757.805L161.644 762.635L166.167 771.858L169.277 773.882L170.958 774.216L174.671 772.624L179.986 773.76L181.642 772.526L182.877 771.047L187.524 769.784L191.012 768.302L193.769 767.708L197.533 769.254L204.307 770.783L210.542 772.963L211.803 776.001L212.209 778.621L211.062 785.752L209.057 789.891L207.331 792.398L201.227 799.62L196.864 803.298L191.577 806.306L189.362 808.502Z" stroke="#A15151" stroke-width="0.5"/>
<path class="outline" d="M173.295 856.581L171.424 853.67L169.369 849.233L167.999 847.257L165.731 845.536L161.395 844.193L160.457 843.594L158.014 839.547L155.457 836.479L153.013 835.245L151.064 835.049L149.399 835.286L146.054 836.797L145.184 836.773L140.343 834.869L136.752 834.362L133.686 834.427L130.927 833.412L129.24 832.35L126.243 829.856L121.61 825.152L116.76 821.742L114.868 819.006L114.523 815.269L113.929 813.986L112.451 812.75L108.374 810.406L108.418 809.226L107.05 803.285L107.541 799.953L108.673 798.468L111.111 798.653L114.882 797.283L117.509 796.774L126.006 797.831L131.755 799.969L133.552 800.29L136.158 800.279L143.371 799.303L145.002 798.617L147.602 796.405L156.294 791.412L157.427 790.57L161.35 786.313L162.06 785.922L163.472 785.752L164.594 786.217L165.27 786.852L168.009 790.482L171.16 793.68L175.19 799.374L178.439 802.496L180.757 804.408L182.764 805.656L189.362 808.502L190.063 810.383L190.14 811.955L188.807 819.085L188.561 821.996L188.84 824.464L189.51 826.354L191.649 829.125L194.244 830.929L195.875 831.396L199.438 831.351L200.462 831.572L202.386 832.503L204.025 833.832L206.465 837.1L209.756 839.872L211.199 841.676L212.511 844.904L212.561 847.72L212.219 848.86L210.275 852.017L208.776 853.397L206.922 854.328L205.717 854.511L204.009 854.268L198.421 852.036L188.094 851.684L183.156 852.804L173.295 856.581Z" stroke="#A15151" stroke-width="0.5"/>
<path class="outline" d="M182.789 981.186L181.515 979.829L180.519 979.33L176.049 978.124L175.191 977.571L174.37 976.45L174.799 971.474L173.993 968.299L174.606 964.02L174.504 962.996L173.706 961.835L170.724 959.591L168.501 957.146L167.889 951.887L167.432 950.093L166.865 949.04L163.641 946.2L161.091 943.35L159.341 942.305L157.331 942.075L154.138 943.326L153.409 943.197L152.576 942.096L151.96 938.87L150.632 937.053L144.65 933.01L141.217 932.139L137.674 928.096L135.006 927.294L131.745 927.648L129.302 929.175L127.772 932.036L126.873 933.121L125.935 933.352L124.579 932.966L118.445 929.183L116.084 925.64L107.058 920.658L103.327 918.273L102.05 916.968L98.7058 912.397L97.2675 911.507L96.0436 911.491L94.1625 912.514L91.078 916.481L89.2824 917.956L83.5533 919.098L81.2349 919.813L74.9109 919.86L64.3241 923.134L53.7058 921.165L44.967 914.26L39.9649 907.519L43.3821 895.01L51.2838 891.191L70.3166 898.135L78.857 890.455L80.9685 883.001L76.7364 872.125L75.5964 861.923L80.0894 852.263L90.6843 844.92L91.5118 840.042L93.7556 839.686L94.3643 837.119L95.868 834.35L102.137 829.93L106.42 824.409L107.992 819.08L108.374 810.406L112.451 812.75L113.93 813.985L114.523 815.269L114.868 819.006L116.76 821.742L121.61 825.152L126.243 829.856L129.24 832.35L130.927 833.412L133.686 834.427L136.752 834.361L140.343 834.869L145.184 836.773L146.054 836.797L149.399 835.286L151.064 835.049L153.013 835.245L155.458 836.479L158.014 839.547L160.457 843.594L161.395 844.193L165.731 845.536L167.999 847.257L169.369 849.233L171.424 853.67L173.295 856.581L177.226 858.76L179.741 859.687L188.891 860.588L189.826 861.56L190.881 865.229L191.776 866.5L196.233 868.743L199.547 870.832L203.125 872.511L204.028 873.492L205.214 876.567L206.182 878.175L207.605 879.136L211.149 880.046L213.194 881.369L221.417 891.002L223.125 893.871L223.314 894.651L223.151 896.405L221.418 900.998L221.215 902.407L221.565 906.228L222.694 909.216L223.554 909.903L224.624 910.044L230.335 908.703L232.3 909.471L235.688 912.674L237.762 913.854L238.252 914.809L238.636 916.774L238.565 918.555L237.891 919.529L237.002 920.137L234.112 919.716L230.569 917.468L229.583 917.135L228.542 917.36L228.031 918.054L227.739 919.385L230.35 927.657L233.884 931.856L234.155 932.817L233.946 933.822L232.846 935.62L231.414 936.931L226.198 940.462L222.306 941.119L221.455 941.937L221.065 943.345L220.817 946.765L219.933 948.93L216.443 953.733L215.969 954.824L215.554 956.459L215.339 963.462L214.889 964.513L214.335 965.557L212.843 966.833L208.119 969.15L206.578 970.37L201.701 976.912L199.757 983.526L198.494 985.605L197.009 987.421L195.428 988.618L192.85 989.182L188.451 986.194L182.789 981.186Z" stroke="#A15151" stroke-width="0.5"/>
<path class="outline" d="M209.818 1059.61L208.999 1060.1L199.969 1068.3L194.302 1046.3L193.424 1044.26L192.333 1042.64L188.749 1038.75L187.349 1037.75L183.326 1036.7L180.528 1035.15L177.823 1032.61L172.059 1028.57L168.306 1024.56L167.508 1024.04L165.909 1023.57L158.523 1022.67L156.588 1022.09L153.311 1020.07L151.115 1017.54L148.939 1015.84L144.451 1014.76L139.216 1015.14L137.698 1014.85L131.401 1012.5L128.674 1010.32L126.889 1009.34L118.317 1008L114.802 1006.3L112.821 1004.64L112.079 1003.57L105.788 990.287L112.665 986.757L122.188 972.734L119.72 962.51L103.676 953.285L92.2528 938.602L87.2583 931.249L83.7375 919.795L81.2348 919.813L83.5532 919.098L89.2823 917.956L91.0779 916.481L94.1624 912.514L96.0435 911.491L97.2674 911.506L98.7057 912.397L102.049 916.968L103.327 918.273L107.058 920.658L116.084 925.64L118.445 929.183L124.578 932.966L125.935 933.352L126.873 933.121L127.772 932.036L129.302 929.175L131.745 927.648L135.005 927.294L137.674 928.095L141.217 932.139L144.65 933.01L150.632 937.053L151.96 938.87L152.576 942.096L153.409 943.197L154.138 943.326L157.331 942.075L159.341 942.305L161.091 943.35L163.641 946.2L166.865 949.04L167.432 950.093L167.889 951.887L168.501 957.146L170.724 959.591L173.706 961.835L174.504 962.996L174.606 964.02L173.992 968.299L174.798 971.474L174.37 976.45L175.191 977.571L176.049 978.124L180.519 979.33L181.515 979.829L182.789 981.186L178.26 989.94L177.579 992.17L177.969 993.711L180.158 996.029L180.591 998.049L180.345 1000.45L179.507 1001.57L177.262 1002.44L175.588 1003.79L175.237 1004.9L175.525 1007.08L179.309 1013.89L181.267 1015.91L183.856 1016.99L190.008 1017.7L192.97 1018.46L198.428 1020.78L201.75 1022.9L202.831 1024.03L205.849 1029.81L203.431 1035.72L203.557 1039.78L209.818 1059.61Z" stroke="#A15151" stroke-width="0.5"/>
<path class="outline" d="M93.2197 1130.25L90.9649 1129.8L87.9849 1128.01L86.7143 1126.6L81.992 1119.7L80.9641 1117.74L81.088 1110.2L81.5337 1107.91L82.8067 1106L86.3344 1103.07L87.1805 1101.01L87.1002 1099.49L84.3098 1092.08L80.7524 1087.28L78.0677 1084.43L77.2973 1082.99L76.5383 1077.43L75.2173 1071.73L73.1366 1066.56L73.1677 1064.75L75.9958 1059.75L76.891 1051.67L79.7166 1038.01L79.8302 1035.56L78.816 1029.93L78.2783 1029.25L77.7395 1029.07L76.4331 1029.7L71.4535 1036.88L70.0759 1037.82L68.6522 1038.01L66.7695 1037.74L64.9609 1036.8L61.6894 1034.04L57.7544 1031.27L56.4205 1029.88L55.2813 1028.2L54.7525 1026.71L54.6201 1024.86L54.938 1023.12L55.904 1022.29L59.6742 1022.58L61.9307 1021.69L63.0415 1020.7L63.6453 1019.53L63.4968 1016.79L61.0816 1012.14L59.1928 1009.68L58.4086 1009.27L55.3254 1008.95L53.1419 1008.19L51.2761 1006.84L50.466 1005.7L50.2384 1005.03L50.3314 1003.4L52.5039 998.096L52.5364 996.105L51.2605 993.138L45.5075 984.647L69.0075 978.567L87.2095 981.088L104.865 990.768L105.788 990.287L112.079 1003.57L112.821 1004.64L114.802 1006.3L118.317 1008L126.889 1009.34L128.674 1010.32L131.401 1012.5L137.699 1014.85L139.216 1015.14L144.451 1014.76L148.939 1015.84L151.116 1017.54L153.311 1020.07L156.588 1022.09L158.523 1022.67L165.909 1023.57L167.509 1024.04L168.306 1024.56L172.059 1028.57L177.823 1032.61L180.528 1035.15L183.326 1036.7L187.349 1037.75L188.749 1038.75L192.333 1042.64L193.424 1044.26L194.302 1046.3L199.969 1068.3L178.773 1087.51L156.939 1108.28L145.768 1125.87L135.815 1142.43L113.207 1128.83L106.643 1127.58L93.2197 1130.25Z" stroke="#A15151" stroke-width="0.5"/>
<path class="outline" d="M-12.086 994.612L-5.89117 991.195L11.2556 985.948L19.8936 984.273L40.5905 985.914L45.5075 984.647L51.2604 993.138L52.5364 996.105L52.5038 998.095L50.3313 1003.4L50.2383 1005.03L50.466 1005.7L51.2761 1006.84L53.1418 1008.19L55.3253 1008.95L58.4086 1009.27L59.1928 1009.68L61.0816 1012.14L63.4967 1016.79L63.6452 1019.53L63.0415 1020.7L61.9306 1021.69L59.6742 1022.58L55.904 1022.29L54.938 1023.12L54.6201 1024.86L54.7524 1026.71L55.2812 1028.2L56.4204 1029.88L57.7544 1031.27L61.6894 1034.04L64.9609 1036.8L66.7694 1037.74L68.6521 1038.01L70.0758 1037.82L71.4535 1036.88L76.4331 1029.7L77.7394 1029.07L78.2782 1029.25L78.816 1029.93L79.8301 1035.56L79.7165 1038.01L76.8909 1051.67L75.9958 1059.75L73.1676 1064.75L73.1365 1066.56L75.2172 1071.73L76.5382 1077.43L77.2972 1082.99L78.0677 1084.43L80.7523 1087.28L84.3098 1092.08L87.1002 1099.49L87.1805 1101.01L86.3344 1103.07L82.8067 1106L81.5336 1107.91L81.088 1110.2L80.9641 1117.74L81.992 1119.7L86.7142 1126.6L87.9848 1128.01L90.9649 1129.8L93.2197 1130.25L88.184 1131.26L71.843 1132.96L57.7822 1131.42L43.5675 1136.1L27.4984 1140.55L20.6625 1140.65L11.4648 1137.39L4.67143 1134.19L-3.5423 1131.13L-7.68717 1127.24L-17.1765 1126.79L-36.3336 1113.93L-49.7624 1104.54L-66.3149 1099.73L-83.1921 1092.68L-90.4225 1085.39L-93.3018 1077.58L-93.5209 1069.06L-89.8036 1060.51L-75.2583 1050.93L-61.8682 1045.51L-47.3322 1036.41L-41.9746 1030.15L-33.9266 1012.86L-22.0671 999.472L-12.086 994.612Z" stroke="#A15151" stroke-width="0.5"/>
<path class="outline big" d="M617.754 661.543L605.16 668.821L593.619 677.007L584.519 679.753L567.21 690.024L549.159 696.273L549.631 694.725L548.17 692.214L538.837 690.939L534.997 689.294L532.424 689.755L529.313 692.018L524.685 696.749L516.187 693.253L508.299 695.39L500.553 696.084L496.524 695.134L493.129 695.303L484.23 690.931L478.557 691.195L479.867 688.527L479.515 686.875L474.643 680.048L473.176 676.811L473.742 676.068L484.156 673.229L492.726 667.387L497.956 660.837L507.218 646.341L515.01 638.52L519.257 632.737L522.101 625.682L522.859 620.924L523.487 609.526L522.341 604.492L522.344 601.171L519.109 600.79L518.039 598.989L518.332 596.827L519.666 594.763L524.242 591.503L526.981 588.406L540.708 568.308L545.636 558.5L546.007 548.694L547.005 546.701L555.967 544.331L563.491 539.596L566.207 538.657L570.564 539.691L570.889 541.434L577.205 530.852L583.364 522.429L596.499 511.687L600.68 507.447L602.307 504.695L604.803 496.581L607.362 490.753L612.808 481.943L618.228 476.494L625.174 471.37L625.471 470.122L624.164 467.808L620.157 464.7L617.943 463.761L612.009 463.552L609.042 462.71L606.84 460.599L605.529 456.219L608.729 453.712L611.585 452.533L624.333 453.651L638.565 453.461L644.121 452.11L654.01 446.902L658.387 445.965L661.018 446.37L669.257 452.154L675.027 454.304L683.632 455.45L693.079 453.951L696.708 452.364L699.676 449.749L707.369 440.209L713.081 437.207L720.551 436.434L745.678 436.955L746.657 439.373L745.425 442.596L741.133 447.119L734.058 450.99L722.637 454.824L715.245 460.761L709.863 467.572L701.824 485.217L699.672 487.718L691.772 492.179L692.541 496.753L695.1 504.056L695.525 508.484L695.514 511.13L692.98 520.831L690.614 525.912L688.035 528.78L684.788 531.367L679.748 532.937L677.366 534.499L675.441 539.328L677.711 542.015L682.145 545.264L684.057 548.011L685.22 562.782L678.145 573.057L669.777 574.728L668.146 576.057L667.623 578.754L668.953 585.45L668.329 587.445L667.246 588.155L664.764 588.184L660.611 586.386L654.803 580.569L652.655 580.9L650.588 582.565L648.16 590.746L639.639 603.047L638.029 609.962L625.142 638.936L626.304 650.759L625.82 654.31L624.524 656.584L620.403 660.029L617.754 661.543Z" stroke="#A15151" stroke-width="0.5"/>
<path class="outline big" d="M341.963 763.038L340.857 759.688L342.157 757.684L341.554 753.1L342.976 746.049L348.125 738.164L352.121 728.805L352.035 716.054L348.871 708.64L346.367 706.219L339.809 702.244L321.125 695.53L317.112 693.169L314.788 690.852L310.923 685.013L307.896 678.054L305.444 668.08L302.193 662.705L298.558 661.261L296.18 661.111L292.989 662.175L292.96 658.032L292.623 656.63L289.519 652.707L288.843 651.243L289.07 644.863L288.633 643.403L287.718 642.121L285.262 641.737L280.383 644.366L275.591 643.99L274.025 644.285L271.663 647.011L270.238 647.71L267.62 647.098L262.903 649.955L260.739 650.358L258.183 649.916L257.222 649.357L252.604 644.259L247.238 641.138L246.064 639.839L245.673 637.655L245.999 635.112L244.984 633.771L244.147 633.874L242.536 633.097L243.067 629.789L242.471 628.371L240.765 626.467L241.342 623.909L244.441 621.022L246.194 618.424L245.926 616.902L244.49 614.994L244.747 612.571L244.264 611.835L242.573 611.012L242.147 609.532L242.813 607.052L244.793 603.648L244.301 601.406L243.78 600.781L243.323 599.31L243.963 597.565L245.408 596.878L247.005 597.218L249.588 598.72L251.619 601.402L253.101 602.585L255.492 603.359L256.634 602.041L256.525 600.477L252.131 596.099L251.91 593.853L252.7 592.035L254.466 589.874L257.193 588.271L258.748 587.809L261.125 588.146L262.847 589.148L264.623 590.931L267.349 595.089L268.891 595.986L270.456 595.691L272.507 594.606L278.414 590.164L280.507 589.237L288.522 589.37L289.999 588.997L291.301 588.093L292.645 585.552L292.436 583.286L291.516 581.09L291.747 579.403L294.303 575.423L295.576 574.341L296.961 573.94L297.892 574.321L298.317 575.801L298.347 579.758L298.81 580.482L300.319 580.744L303.966 579.542L305.28 578.618L306.5 577.211L307.024 576.31L307.431 573.814L312.081 573.329L313.436 572.751L314.102 572.066L314.936 567.085L315.746 565.278L316.38 564.602L326.159 559.491L327.745 557.225L329.664 555.447L330.612 553.587L331.069 551.28L330.901 547.377L331.962 539.795L333.337 537.245L337.718 532.8L338.338 531.043L337.067 528.16L331.758 522.5L329.996 517.375L327.864 513.991L328.726 512.51L332.441 508.748L333.589 507.005L333.434 505.521L332.206 503.44L331.715 501.198L332.142 498.713L333.297 496.036L332.749 495.503L338.115 488.628L339.097 483.76L336.496 482.703L336.406 481.338L335.963 480.303L334.88 479.539L334.302 479.658L333.778 480.559L333.225 479.943L332.306 479.542L332.83 478.641L336.747 475.453L338.651 472.595L343.23 467.809L345.252 464.563L345.948 464.057L346.64 462.637L346.89 462.622L347.554 461.481L348.746 460.352L348.972 459.733L351.091 458.072L351.685 457.05L352.406 457.148L354.187 454.084L354.766 453.965L356.036 452.426L358.833 450.704L359.665 449.044L359.711 448.32L360.131 448.243L360.992 446.761L361.997 446.14L362.581 444.952L363.864 444.037L363.961 443.638L364.582 443.677L365.065 442.431L366.518 441.454L367.808 439.927L368.825 439.285L369.995 437.688L371.946 436.545L371.693 436.104L372.229 435.183L373.656 434.941L373.584 434.604L374.42 433.858L374.546 433.181L375.82 432.555L376.284 431.298L376.564 431.461L377.206 430.173L377.876 430.08L379.491 427.535L380.337 426.956L382.727 423.308L383.503 422.849L384.225 421.607L384.154 421.084L386.414 417.199L401.939 425.935L413.347 431.338L424.346 440.576L425.85 440.754L429.079 439.764L433.82 440.781L446.839 447.79L461.217 453.661L467.102 459.254L466.491 473.664L467.569 479.275L470.981 485.386L472.646 487.132L483.687 488.328L493.6 493.076L496.871 493.21L506.054 490.968L509.107 489.635L513.141 489.195L514.736 489.908L519.972 494.91L527.08 496.097L528.472 495.593L531.948 490.675L533.731 489.407L541.917 490.444L546.026 487.341L551.945 478.778L559.895 470.085L564.365 467.513L568.723 463.938L571.342 458.789L573.362 452.461L575.385 449.351L582.23 444.355L585.21 443.838L590.935 441.46L598.478 436.093L599.799 435.709L601.069 439.101L602.46 455.506L603.557 456.706L605.529 456.219L606.84 460.599L609.042 462.71L612.009 463.552L617.943 463.761L620.157 464.7L624.164 467.808L625.471 470.122L625.174 471.37L618.228 476.494L612.808 481.943L607.362 490.753L604.803 496.581L602.307 504.695L600.68 507.447L596.499 511.687L583.364 522.429L577.205 530.852L570.889 541.434L570.564 539.691L566.207 538.657L563.491 539.596L555.967 544.331L547.005 546.701L546.007 548.693L545.636 558.499L540.708 568.308L526.981 588.406L524.242 591.503L519.666 594.763L518.332 596.827L518.039 598.988L519.109 600.789L522.344 601.171L522.341 604.492L523.487 609.526L522.859 620.924L522.101 625.682L519.257 632.737L515.01 638.52L507.218 646.341L497.956 660.836L492.726 667.387L484.156 673.229L473.742 676.068L473.176 676.811L474.643 680.048L479.515 686.875L479.867 688.527L478.557 691.195L466.357 689.779L462.624 691.038L459.922 697.157L455.121 696.428L453.837 699.004L452.425 699.496L448.881 698.586L441.694 699.471L438.8 703.388L439.147 705.278L435.118 711.054L434.804 713.39L436.552 716.282L435.754 719.221L431.899 722.07L429.434 725.755L428.704 735.165L427.875 735.808L424.454 733.764L421.597 737.248L420.039 736.288L418.805 733.802L417.831 733.771L416.643 736.322L416.776 741.437L415.269 742.276L411.355 740.99L408.01 742.502L408.93 744.698L411.187 745.931L410.467 752.238L412.444 754.781L412.464 756.267L410.833 758.105L402.107 763.293L400.608 765.18L400.077 767.337L402.125 770.404L402.034 772.173L400.008 773.674L398.291 772.756L396.513 773.142L394.221 779.017L389.443 777.926L385.086 787.719L383.612 788.871L380.587 788.129L379.842 788.581L379.908 796.068L377.248 794.146L370.578 787.185L363.167 776.523L359.611 772.686L351.96 767.781L345.921 766.278L341.963 763.038Z" stroke="#A15151" stroke-width="0.5"/>
<path class="outline" d="M142.407 646.994L142.405 646.537L143.341 645.849L144.188 645.913L145.004 645.155L145.132 644.935L144.191 644.387L145.206 643.933L145.544 643.352L146.548 642.73L147.527 642.844L147.625 642.446L147.863 642.45L153.381 636.281L155.491 633.114L158.373 630.556L160.735 627.83L161.15 625.365L156.926 622.908L157.263 622.327L161.066 624.405L161.486 624.328L162.21 623.543L162.393 624.105L162.027 624.964L163.168 625.628L163.408 625.446L162.747 625.061L162.633 624.566L162.901 624.106L163.352 624.207L164.006 623.543L164.274 623.082L163.963 622.741L164.15 622.42L164.6 622.521L164.502 622.92L164.782 623.083L165.461 623.022L165.459 622.565L166.281 621.382L168.402 620.177L168.528 619.5L167.839 619.394L168.659 617.754L169.167 617.755L169.691 616.854L170.468 616.395L170.536 615.818L171.67 615.433L172.136 614.632L171.954 614.07L172.914 612.834L174.033 612.707L175.053 611.184L176.716 610.49L175.845 609.822L176.071 609.203L176.552 609.483L177.834 608.568L180.595 605.618L181.301 605.279L182.252 603.875L183.268 603.234L184.018 601.714L183.507 601.256L183.425 600.752L184.077 599.631L185.419 598.429L186.635 598.091L187.257 598.587L188.47 597.792L188.638 597.273L188.035 596.788L188.431 596.108L188.149 595.488L190.548 593.989L190.593 593.265L191.218 592.423L192.194 592.08L194.597 589.699L194.849 590.141L195.317 589.796L195.571 588.899L197.194 587.86L197.538 586.854L197.253 585.777L197.649 585.097L198.726 584.812L199.926 583.393L199.674 582.952L200.012 582.371L201.571 581.027L202.597 580.552L202.585 579.928L203.319 579.311L204.357 577.342L205.203 576.762L205.797 575.741L205.625 575.346L206.689 574.438L209.178 571.035L209.728 571.194L210.861 570.353L212.951 567.174L214.987 565.009L216.3 564.272L215.938 563.605L217.874 561.382L218.822 559.522L220.149 559.221L220.517 558.819L222.725 555.253L225.463 551.835L227.331 548.393L228.198 547.825L228.396 547.485L228.193 546.912L228.519 546.351L228.859 546.227L229.213 545.388L230.062 545.265L230.358 544.526L230.075 543.906L230.599 543.005L232.17 541.641L232.694 540.74L234.489 540.096L234.815 539.535L236.041 539.177L237.313 540.077L238.996 539.395L240.519 538.298L241.909 536.829L242.203 535.633L243.349 535.228L246.164 531.264L247.984 529.885L253.277 522.352L254.519 521.091L256.569 517.568L257.669 516.091L258.594 515.422L262.42 509.904L263.099 507.86L263.58 508.14L263.808 507.978L265.672 505.418L266.396 503.99L266.439 502.809L266.72 502.972L267.118 502.748L267.2 503.252L267.55 503.295L267.748 502.954L267.526 502.691L268.342 501.933L268.16 501.372L268.473 500.187L270.581 496.563L271.388 496.282L271.404 495.38L272.36 495.025L273.093 495.746L276.403 494.939L277.584 495.304L278.776 496.158L281.022 496.258L281.798 495.799L282.218 495.722L282.449 496.016L282.997 495.719L283.858 496.22L284.781 497.534L284.722 499.617L285.583 500.117L285.796 500.857L287.122 502.54L288.105 503.246L287.907 503.586L288.05 504.446L290.583 506.08L293.473 506.823L293.264 507.184L291.866 506.961L291.794 506.624L290.707 506.742L290.327 506.521L288.052 504.903L286.878 503.604L285.878 501.361L284.989 501.139L285.4 501.538L285.324 502.084L285.635 502.425L285.287 502.839L286.695 505.025L286.649 505.748L286.98 506.101L287.144 507.108L286.879 508.026L287.399 508.007L288.051 506.885L288.432 507.107L288.038 508.244L288.518 508.524L289.095 507.948L288.882 507.208L289.15 506.747L289.378 506.585L289.889 507.043L289.998 508.607L289.04 510.944L289.573 511.549L289.417 512.691L290.659 513.413L291.337 513.352L292.468 513.849L292.654 512.885L293.093 513.006L294.02 514.913L293.273 516.889L295.521 517.447L295.799 517.153L295.786 516.529L294.884 515.87L295.367 514.624L294.516 514.29L294.154 513.624L295.943 514.048L300.195 513.788L300.945 514.064L301.78 513.504L302.431 513.722L302.698 513.261L303.557 513.305L303.883 512.744L304.632 512.563L305.934 511.66L308.01 511.179L311.744 509.411L319.881 503.346L320.59 503.463L320.855 502.546L323.37 500.203L323.879 500.204L324.046 499.685L326.085 497.977L326.764 497.916L326.82 497.359L329.702 494.615L329.87 494.096L333.305 490.172L336.316 485.224L336.497 482.703L339.097 483.76L338.115 488.628L332.749 495.503L333.297 496.036L332.142 498.713L331.715 501.198L332.206 503.44L333.434 505.521L333.589 507.005L332.441 508.748L328.726 512.51L327.864 513.991L329.996 517.375L331.758 522.5L337.067 528.16L338.338 531.043L337.718 532.8L333.337 537.245L331.962 539.795L330.901 547.377L331.069 551.28L330.612 553.587L329.664 555.447L327.745 557.225L326.159 559.491L316.38 564.602L315.746 565.278L314.936 567.085L314.102 572.067L313.436 572.751L312.081 573.33L307.432 573.814L307.024 576.31L306.5 577.211L305.28 578.619L303.966 579.542L300.319 580.744L298.81 580.482L298.347 579.758L298.317 575.801L297.892 574.321L296.961 573.941L295.576 574.341L294.303 575.423L291.747 579.403L291.516 581.09L292.436 583.287L292.645 585.552L291.301 588.093L289.999 588.997L288.522 589.371L280.507 589.237L278.414 590.164L272.507 594.606L270.456 595.691L268.891 595.986L267.349 595.089L264.623 590.931L262.847 589.148L261.125 588.146L258.748 587.809L257.193 588.271L254.466 589.874L252.7 592.035L251.91 593.853L252.131 596.099L256.525 600.477L256.634 602.041L255.492 603.359L253.101 602.585L251.619 601.402L249.588 598.72L247.006 597.218L245.408 596.878L243.963 597.565L243.323 599.31L243.78 600.781L244.301 601.406L244.793 603.648L242.813 607.052L242.147 609.532L242.573 611.012L244.265 611.835L244.747 612.572L244.49 614.994L245.927 616.902L246.194 618.424L244.441 621.022L241.342 623.909L240.765 626.467L242.471 628.371L243.067 629.789L242.536 633.097L244.147 633.874L244.984 633.771L246 635.112L245.673 637.655L246.064 639.839L247.238 641.138L252.604 644.259L257.222 649.357L258.183 649.916L260.74 650.358L262.903 649.955L267.62 647.098L270.238 647.71L271.663 647.011L274.025 644.285L275.591 643.99L280.383 644.366L285.262 641.737L287.718 642.121L288.633 643.403L289.07 644.863L288.843 651.243L289.519 652.708L292.623 656.63L292.96 658.032L292.989 662.175L285.684 664.599L283.039 666.383L276.565 667.977L266.9 668.974L255.74 668.351L238.813 665.527L235.037 665.983L228.34 670.127L223.522 674.908L215.833 684.396L207.985 690.979L204.338 695.637L202.814 694.617L191.433 692.07L188.95 690.626L187.607 689.389L187.044 684.828L185.453 682.08L185.636 678.864L185.032 675.94L184.357 674.475L183.171 673.196L174.922 668.398L170.378 664.094L165.31 660.691L161.69 659.174L156.645 658.357L154.093 657.033L152.749 655.796L149.814 651.812L146.977 649.411L142.407 646.994Z" stroke="#A15151" stroke-width="0.5"/>
<path class="outline" d="M-51.2436 824.858L-43.4798 818.789L-42.1095 817.309L-39.744 815.683L-39.4877 815.243L-38.8394 815.004L-36.9265 812.82L-35.6936 812.037L-34.8216 810.722L-34.3629 810.855L-34.015 810.441L-33.6564 810.515L-33.1906 809.714L-32.8124 809.479L-32.512 809.653L-32.1859 809.093L-32.0057 809.198L-30.4446 808.31L-29.8359 808.37L-29.3599 807.735L-23.996 805.148L-17.9728 800.505L-11.9133 795.615L0.789793 783.496L3.34514 785.599L4.24492 787.783L6.2913 789.563L12.4964 793.039L14.4815 796.444L16.6862 798.182L22.2503 800.963L25.5993 801.839L29.2864 800.982L37.1641 798.034L40.247 798.032L41.9689 799.034L43.4369 800.933L43.4585 804.858L44.4739 806.198L46.8503 806.536L47.6267 806.076L49.0722 806.033L51.7125 806.791L54.8583 809.076L56.9801 808.515L58.1284 806.771L58.4281 805.15L57.8483 802.83L55.0023 798.924L59.5972 786.832L59.8969 785.211L59.4056 782.969L57.3578 778.75L57.1365 776.504L57.7646 774.779L59.3609 772.68L60.6217 771.618L62.7599 768.172L65.0689 765.308L70.1285 763.428L74.8534 760.602L77.4286 758.616L79.5351 755.179L80.1463 751.917L82.0732 750.171L85.3596 744.981L85.5592 743.302L83.4959 739.985L83.5029 737.577L82.2049 735.616L80.938 731.852L78.8289 729.258L71.9846 724.071L69.4884 722.512L70.9658 721.308L71.2919 720.748L71.1895 720.233L71.6274 719.71L74.121 717.865L74.8694 717.684L75.2934 716.724L77.0744 715.643L77.9548 714.36L79.916 713.384L81.0362 711.919L82.169 711.077L82.6326 709.819L83.8676 709.492L84.9158 707.69L87.2885 705.131L88.3932 704.568L90.8683 702.524L91.5484 701.124L92.255 700.785L93.6555 699.483L93.7534 699.084L96.4767 696.89L97.5351 695.255L97.2347 695.08L97.4327 694.739L98.7773 693.994L100.48 691.528L102.709 690.091L103.561 689.086L105.54 687.665L106.232 686.245L106.473 686.707L106.843 686.761L107.761 684.723L109.318 682.922L109.896 682.802L110.282 681.955L115.442 676.355L115.71 675.894L115.427 675.274L115.673 674.667L117.31 674.708L117.608 674.426L120.494 670.986L121.468 670.186L122.26 668.825L123.493 668.041L129.458 661.516L130.239 660.175L132.163 657.971L131.603 657.645L131.743 657.405L133.366 657.009L134.062 656.503L135.163 655.026L135.774 653.56L137.651 651.623L137.246 650.799L138.321 650.057L138.841 650.038L140.778 648.458L141.148 648.513L142.407 646.994L146.977 649.411L149.814 651.812L152.749 655.796L154.093 657.033L156.645 658.357L161.69 659.175L165.31 660.691L170.378 664.094L174.922 668.398L183.171 673.196L184.356 674.475L185.032 675.94L185.636 678.864L185.453 682.08L187.044 684.828L187.607 689.389L188.95 690.626L191.433 692.07L202.814 694.617L204.338 695.637L200.566 700.463L196.8 701.409L185.489 700.216L181.498 701.78L173.828 706.536L167.077 717.267L161.932 729.844L159.044 732.183L154.91 732.565L146.17 736.673L131.732 747.167L128.371 751.563L125.795 756.361L126.401 766.146L125.992 771.134L121.883 784.232L119.276 789.683L115.706 793.287L109.816 796.962L107.541 799.953L107.05 803.285L108.418 809.226L107.992 819.08L106.42 824.409L102.137 829.93L95.868 834.35L94.3642 837.119L93.7556 839.686L91.5117 840.043L90.6842 844.92L80.0893 852.263L75.5964 861.923L76.7363 872.125L80.9684 883.001L78.8569 890.455L70.3166 898.135L51.2837 891.192L50.7155 891.477L42.0668 885.938L37.1051 882.168L33.8036 880.703L30.1078 881.206L21.8101 888.331L16.8067 888.502L4.44336 884.42L-2.35595 883.118L-13.4334 885.946L-17.2378 888.985L-18.0186 888.531L-19.534 888.695L-23.169 889.877L-29.4396 892.687L-32.3796 893.55L-33.875 893.725L-36.4236 892.993L-37.1107 891.548L-37.4606 887.727L-35.4364 878.534L-35.191 876.131L-35.4284 872.992L-36.3723 870.192L-40.3424 863.381L-41.0534 862.807L-44.6884 863.989L-46.2154 864.172L-47.7651 863.566L-50.761 861.207L-52.6008 860.592L-52.9526 861.888L-50.9218 864.57L-51.5072 867.097L-50.6331 870.017L-51.0454 870.956L-52.5004 871.476L-53.4195 871.076L-55.2959 869.234L-56.1164 869.078L-57.7189 871.603L-59.2623 872.045L-62.7519 870.766L-63.543 870.145L-64.6672 867.24L-66.4434 865.456L-70.1596 863L-71.0594 860.815L-70.7597 859.194L-70.1774 858.193L-68.7644 857.515L-66.4904 857.337L-63.2352 857.729L-61.7501 857.387L-60.3673 856.53L-59.7276 854.785L-60.0606 852.502L-62.5182 848.527L-62.2029 846.003L-61.2829 844.422L-59.2737 843.179L-57.6479 843.24L-56.7171 843.621L-53.9752 846.877L-52.5817 847.982L-50.7014 848.942L-49.2744 848.7L-46.8157 844.288L-44.3126 841.966L-43.2348 838.547L-42.5804 837.882L-38.2553 836.62L-37.1248 835.321L-37.1334 833.815L-38.0105 832.421L-42.0647 831.697L-44.3393 830.08L-44.9393 826.274L-46.7894 825.493L-48.2745 825.835L-49.9421 825.615L-51.2436 824.858Z" stroke="#A15151" stroke-width="0.5"/>
<path class="outline" d="M0.789789 783.496L3.28592 780.955L5.08327 779.616L6.89761 777.187L8.24077 776.629L7.95819 776.009L9.95496 774.142L11.0397 773.567L11.424 772.907L12.3485 772.239L13.1551 771.958L14.8796 769.638L16.5449 769.401L17.1389 768.379L16.9448 767.838L18.5999 767.434L19.2607 767.818L20.5176 767.638L22.557 766.574L24.484 764.827L25.3605 764.426L26.0228 763.471L25.9824 763.126L26.6912 763.244L26.6168 762.45L27.1151 762.285L26.9731 762.068L27.6392 761.383L31.0373 758.858L31.7114 757.884L32.26 757.908L32.9162 757.379L33.2276 755.738L33.8798 754.616L34.9667 754.498L35.2773 754.84L36.9061 753.375L38.757 752.174L38.8005 750.994L39.2849 750.391L39.5653 750.554L39.4394 751.231L39.8198 751.453L42.7793 748.806L45.4082 745.807L46.933 745.166L47.6876 744.56L47.8437 744.061L48.2637 743.984L51.3793 740.839L52.3692 739.137L55.2309 736.889L55.7527 735.531L57.14 735.588L57.5639 734.629L57.151 733.772L58.8536 731.306L59.432 731.187L59.8846 731.745L60.2627 731.509L64.2446 727.796L68.1321 723.277L69.4884 722.512L71.9846 724.071L78.8289 729.258L80.938 731.851L82.2049 735.616L83.5029 737.577L83.4959 739.985L85.5592 743.302L85.3596 744.981L82.0732 750.17L80.1463 751.917L79.5351 755.179L77.4286 758.616L74.8534 760.602L70.1285 763.427L65.0689 765.308L62.7599 768.172L60.6217 771.618L59.3609 772.68L57.7646 774.779L57.1365 776.504L57.3578 778.75L59.4056 782.969L59.8969 785.211L59.5972 786.832L55.0023 798.924L57.8483 802.83L58.4281 805.15L58.1284 806.771L56.9801 808.515L54.8583 809.076L51.7125 806.791L49.0722 806.032L47.6267 806.076L46.8503 806.535L44.4739 806.198L43.4585 804.857L43.4369 800.933L41.9689 799.034L40.247 798.032L37.1641 798.034L29.2864 800.982L25.5993 801.839L22.2503 800.963L16.6862 798.182L14.4815 796.444L12.4964 793.038L6.2913 789.563L4.24491 787.783L3.34514 785.599L0.789789 783.496Z" stroke="#A15151" stroke-width="0.5"/>
<path class="outline" d="M131.722 1149.38L119.598 1169.9L113.672 1177.28L98.5524 1190.19L71.8602 1206.04L63.1707 1211.81L55.6583 1216.2L49.1713 1223.26L48.1313 1234.12L51.475 1263.8L50.7941 1271.28L47.648 1280.65L44.3632 1287.13L36.0461 1296.04L29.6497 1302.15L4.59077 1314.83L-1.5624 1322.18L-4.53808 1329.19L-6.25684 1338.64L-11.075 1346.88L-20.2644 1348.9L-38.1886 1349.86L-59.2314 1364.85L-63.5673 1372.03L-65.657 1379.63L-72.1123 1386.67L-80.1056 1385.21L-88.8733 1388.45L-96.7615 1395L-106.281 1411.28L-117.75 1419.8L-135.21 1430.33L-142.192 1438.14L-150.089 1439.93L-171.717 1453.66L-176.358 1459.75L-205.223 1491.41L-211.751 1497.15L-220.5 1501.23L-224.994 1505.82L-226.116 1535.21L-227.904 1542.48L-231.765 1546.58L-244.372 1550.61L-250.557 1556.18L-253.988 1564.79L-269.034 1575.55L-286.044 1629.67L-335.044 1652.46L-358.84 1676.83L-375.787 1708.45L-397.79 1722.88L-403.664 1729.43L-406.099 1735.92L-411.747 1743.33L-431.876 1764.39L-439.633 1777.73L-443.556 1786.59L-447.96 1794.35L-455.711 1797.26L-464.51 1798.2L-473.296 1801.24L-481.321 1806.51L-490.182 1814L-490.735 1813.39L-492.235 1812.65L-492.583 1811.27L-493.344 1810.82L-494.265 1811.76L-494.735 1811.65L-495.544 1812.63L-496.351 1812.91L-496.765 1813.39L-497.626 1812.89L-498.121 1813.33L-499.2 1813.15L-500.023 1813.69L-501.258 1815.17L-502.958 1816.11L-503.719 1815.67L-503.905 1815.99L-505.665 1816.57L-507.349 1816.61L-508.29 1817.54L-510.4 1818.08L-511.355 1819.72L-512.53 1819.76L-514.796 1820.8L-515.792 1820.95L-516.374 1821.95L-518.909 1822.8L-520.735 1822.63L-523.575 1807.47L-523.124 1796.24L-520.923 1788.67L-515.608 1776.36L-506.099 1767.47L-498.199 1757.62L-495.441 1749.29L-495.35 1734.9L-484.035 1715.99L-461.698 1596.37L-457.515 1590.79L-450.718 1553.4L-431.55 1452.03L-423.205 1421.51L-438.127 1391.74L-431.892 1379L-413.028 1363.01L-417.791 1336.74L-404.131 1315.56L-389.945 1268.18L-383.2 1186.65L-369.35 1117.51L-342.853 1006.44L-320.537 1003.82L-297.47 999.5L-289.602 994.725L-283.381 983.846L-277.499 971.752L-268.606 963.42L-248.518 955.328L-194.361 941.918L-182.912 945.361L-176.692 941.717L-172.225 933.945L-172.889 924.26L-179.734 901.522L-163.52 892.811L-161.555 892.749L-160.292 892.143L-160.264 891.865L-160.774 891.407L-160.092 890.464L-160.322 890.169L-160.136 889.849L-158.183 889.163L-158.451 889.623L-159.894 890.124L-159.061 890.903L-159.079 891.348L-158.72 891.423L-148.365 885.736L-146.31 883.769L-144.556 883.61L-141.19 882.245L-139.521 881.126L-139.295 880.507L-137.453 879.783L-136.042 878.648L-135.364 878.587L-135.432 879.164L-135.051 879.385L-123.137 872.354L-121.226 871.509L-115.41 867.684L-112.782 866.667L-110.696 864.878L-103.017 860.475L-95.2444 855.082L-91.8337 853.18L-87.6894 850.017L-86.5265 849.354L-86.1763 849.397L-86.0784 848.998L-84.0808 847.775L-81.5475 845.631L-79.0018 844.11L-75.6036 841.585L-75.9926 839.858L-75.4552 837.598L-74.4467 836.095L-72.1315 834.28L-71.8311 834.454L-72.2853 835.235L-72.8055 835.254L-74.1664 836.258L-75.2728 838.16L-75.2775 841.024L-74.4966 841.479L-73.9903 841.023L-74.6253 839.903L-74.4274 839.563L-73.9188 839.564L-73.3467 838.396L-72.8685 838.219L-72.2443 837.376L-72.0463 837.035L-72.2986 836.594L-72.0307 836.133L-71.1698 836.634L-71.0572 837.316L-68.8547 838.597L-68.3284 838.153L-67.1133 837.815L-66.6653 837.459L-67.0177 836.959L-66.7717 836.352L-64.9913 833.475L-64.5629 833.43L-64.719 833.928L-64.4386 834.091L-64.3106 833.871L-63.2935 833.873L-56.2377 828.33L-51.2434 824.858L-49.9419 825.615L-48.2744 825.834L-46.7892 825.492L-44.9391 826.274L-44.3391 830.08L-42.0645 831.697L-38.0104 832.421L-37.1332 833.815L-37.1247 835.321L-38.2552 836.619L-42.5803 837.882L-43.2347 838.546L-44.3125 841.966L-46.8155 844.288L-49.2743 848.7L-50.7012 848.942L-52.5815 847.982L-53.9751 846.877L-56.7169 843.62L-57.6478 843.24L-59.2735 843.179L-61.2827 844.422L-62.2028 846.003L-62.518 848.526L-60.0604 852.501L-59.7274 854.785L-60.3671 856.53L-61.7499 857.387L-63.2351 857.729L-66.4902 857.337L-68.7642 857.514L-70.1772 858.193L-70.7595 859.194L-71.0593 860.815L-70.1595 863L-66.4433 865.456L-64.667 867.24L-63.5429 870.144L-62.7518 870.765L-59.2621 872.045L-57.7188 871.603L-56.1163 869.078L-55.2958 869.234L-53.4194 871.075L-52.5002 871.476L-51.0453 870.956L-50.6329 870.016L-51.507 867.096L-50.9216 864.57L-52.9524 861.888L-52.6006 860.592L-50.7608 861.207L-47.7649 863.565L-46.2153 864.172L-44.6882 863.988L-41.0533 862.807L-40.3423 863.381L-36.3721 870.192L-35.4282 872.992L-35.1909 876.131L-35.4362 878.534L-37.4605 887.727L-37.1105 891.548L-36.4234 892.993L-33.8749 893.725L-32.3795 893.549L-29.4394 892.687L-23.1688 889.876L-19.5338 888.695L-18.0185 888.531L-17.2376 888.985L-16.697 889.3L-15.8812 892.32L-15.577 896.865L-16.022 900.947L-17.4151 906.889L-17.2482 908.353L-16.4712 909.689L-13.0234 910.81L-11.4296 912.032L-10.4444 913.195L-9.96862 916.339L-10.8188 917.8L-14.8535 920.545L-15.5035 922.123L-16.3725 927.164L-17.1705 928.951L-18.8531 931.429L-20.9205 932.772L-22.1409 934.179L-25.1775 940.506L-27.3561 943.606L-28.1256 946.91L-29.7444 949.693L-32.1535 952.499L-32.4687 955.022L-28.9413 961.12L-25.9122 967.384L-22.7293 972.692L-21.9679 974.93L-21.6063 978.731L-17.0205 983.194L-16.2053 984.418L-12.0858 994.612L-22.067 999.472L-33.9265 1012.86L-41.9745 1030.15L-47.3321 1036.41L-61.868 1045.51L-75.2581 1050.93L-89.8034 1060.51L-93.5208 1069.06L-93.3016 1077.58L-90.4223 1085.39L-83.192 1092.68L-66.3148 1099.73L-49.7622 1104.54L-36.3334 1113.93L-17.1763 1126.79L-7.68704 1127.24L-3.54217 1131.13L4.67157 1134.19L11.4649 1137.39L20.6627 1140.65L27.4986 1140.55L43.5677 1136.1L57.7823 1131.42L71.8431 1132.96L88.1841 1131.26L106.643 1127.58L113.208 1128.83L135.815 1142.43L131.722 1149.38Z" stroke="#A15151" stroke-width="0.5"/>
<path class="outline" d="M105.788 990.287L104.865 990.768L87.2094 981.088L69.0074 978.567L40.5905 985.914L19.8936 984.273L11.2556 985.948L-5.89118 991.195L-12.086 994.612L-16.2054 984.418L-17.0206 983.194L-21.6064 978.731L-21.968 974.93L-22.7295 972.692L-25.9124 967.384L-28.9415 961.12L-32.4689 955.022L-32.1536 952.499L-29.7445 949.693L-28.1257 946.91L-27.3562 943.606L-25.1776 940.506L-22.1411 934.179L-20.9207 932.772L-18.8533 931.429L-17.1707 928.951L-16.3726 927.164L-15.5036 922.123L-14.8537 920.545L-10.8189 917.8L-9.96877 916.339L-10.4446 913.195L-11.4298 912.032L-13.0236 910.81L-16.4714 909.689L-17.2483 908.353L-17.4153 906.889L-16.0222 900.947L-15.5772 896.865L-15.8813 892.32L-16.6971 889.3L-17.2378 888.985L-13.4334 885.946L-2.35594 883.118L4.44337 884.42L16.8067 888.502L21.8101 888.331L30.1078 881.206L33.8036 880.703L37.1051 882.167L42.0668 885.938L50.7155 891.477L43.382 895.01L39.9648 907.519L44.9669 914.26L53.7057 921.165L64.3241 923.134L74.9108 919.86L83.7375 919.795L87.2583 931.249L92.2529 938.602L103.676 953.285L119.72 962.51L122.188 972.734L112.665 986.757L105.788 990.287Z" stroke="#A15151" stroke-width="0.5"/>
<path class="outline big" d="M1361.43 782L1350.39 789.75L1348.64 794.69L1348.42 807.33L1346.44 813.27L1341.55 818.55L1336.28 820.95L1304.22 822.75L1300.98 821.61L1294.72 816.91L1292.03 815.74L1288.79 816.54L1282.42 820.41L1280.12 821.15L1256.89 819.47L1243.66 818.51L1229.6 820.51L1217.47 820.18L1205.94 816.81L1196.66 809.24L1192.76 807.4L1188.09 806.1L1181.33 806.35L1187.03 813.68L1190.32 825.11L1191.79 838.74L1191.36 869.04L1188.37 878.12L1182.93 883.84L1174.37 890.08L1145.96 917.23L1103.81 928.27L1093.95 925.64V929.66L1103.6 945.23L1094.34 957.8L1064.9 974.02L1057.77 987.27L1049.73 1007.7L1041.04 1021.12L1031.96 1013.59L1019.47 1024.5L1012.98 1041.53L1010.47 1061.62L1010.17 1081.83L1008.71 1084.72L1008.72 1084.73L1009.35 1084.99L1023.05 1086.35L1058.33 1104.28L1067.96 1105.67L1069.86 1105.6L1077.52 1103.88L1090.64 1104.33L1093.03 1104.04L1096.82 1102.53L1103.49 1100.94L1110.57 1100.24L1114.55 1100.53L1117.43 1101.36L1124.1 1106.52L1128.22 1108.33L1138.79 1115.01L1141.84 1116.01L1145.71 1115.82L1148.92 1117.38L1152.87 1118.53H1154.27L1155.76 1118.25L1156.99 1117.55L1157.98 1116.42L1159.3 1113.27L1160.53 1111.35L1161.93 1111.05L1163.42 1111.21L1166.13 1112.17L1167.12 1112.72L1170.09 1115.51L1187.82 1124.2L1191.44 1124.9L1194.9 1125.11L1198.2 1124.05L1203.33 1126.74L1215.52 1125.69L1217 1125.3L1218.32 1124.58L1220.38 1122.36L1231.44 1103.51L1233.09 1097.84L1234.9 1081.26L1254.67 1056.07L1270.92 1039.12L1276.85 1018.25L1277.92 1016.09L1279.81 1013.42L1284.43 1008.6L1295.24 1000.02L1299.61 995.65L1302.24 992.45L1316.82 962.33L1317.34 960.72L1315.17 952.8L1325.33 939.7L1326.07 938.15L1326.4 936.72L1326.48 933.93L1326.65 932.66L1326.98 931.6L1327.55 930.56L1329.61 927.8L1353.28 909.45L1354.51 908.05L1361.18 905.35L1372.36 903.95L1372.55 903.93L1367.25 893.93L1376.14 884.43L1390.69 876.53L1401.07 868.33L1403.49 858.2L1402.83 848.7L1403.93 840.96L1411.78 836.06L1419.63 838.33L1425.28 842.93L1429.07 839.93L1431.16 819.58L1418.31 823.75L1405.13 824.02L1392.56 819.68L1381.85 810.04L1369.34 787.21L1361.43 782Z" stroke="#A15151" stroke-width="0.5"/>
<path class="outline" d="M1463.94 947.94L1460.09 945.39L1452.41 935.81L1443.4 931.88L1436.26 925.88L1430.99 917.56L1427.59 906.79V906.69L1420.29 904.1L1405.74 902.94L1390.2 903.65L1379.88 906.79L1378.45 907.24L1376.97 907.35L1375.48 907.24L1374.06 906.79L1372.55 903.93L1372.36 903.95L1361.18 905.35L1354.51 908.05L1353.28 909.45L1329.61 927.8L1327.55 930.56L1326.98 931.6L1326.65 932.66L1326.48 933.93L1326.4 936.72L1326.07 938.15L1325.33 939.7L1315.17 952.8L1317.34 960.72L1316.82 962.33L1302.24 992.45L1299.61 995.65L1295.24 1000.02L1284.43 1008.6L1279.81 1013.42L1277.92 1016.09L1276.85 1018.25L1270.92 1039.12L1254.67 1056.07L1234.9 1081.26L1233.09 1097.84L1231.44 1103.51L1220.38 1122.36L1218.32 1124.58L1217 1125.3L1215.52 1125.69L1203.33 1126.74L1199.02 1137.4L1198.14 1141.96L1196.22 1180.92L1172.42 1228.78L1157.57 1251.41L1151.39 1254.24L1127.4 1276.13L1121.47 1283.46L1121.06 1284.94L1118.75 1290.19L1109.75 1305.99L1075.21 1347.23L1092.78 1359.84L1095.09 1364.57L1091.63 1370.3L1090.47 1371.59L1089.07 1372.58L1087.43 1373.22L1085.86 1373.42L1084.3 1373.45L1078.26 1372.77L1074.31 1372.79L1059.73 1394.09L1067.96 1402.49L1068.05 1403.86L1067.63 1405.64L1063.27 1410.49L1060.55 1414.29L1058.49 1415.9L1053.3 1418.67L1022.64 1465.16L1019.1 1471.9L1012.98 1488.3L1005.65 1518.94L1004.25 1522.93L1002.85 1525.77L998.89 1531.36L996.67 1533.73L992.03 1537.63L993.46 1552.76L995.6 1561.03L996.51 1563.45L999.14 1569.26L1001.53 1572.65L1003.34 1586.3L1013.47 1589.82L1017.59 1588.18L1022.8 1581.47L1027.25 1574.25L1032.93 1567.24L1040.26 1559.75L1043.89 1557.23L1046.52 1556.11L1056.93 1559.59L1067.72 1566.05L1070.76 1570L1072.33 1574.59L1077.52 1585.71L1079.77 1588.47L1081.64 1589.99L1106.04 1593.14L1114.69 1595.48L1115.04 1595.57L1128.3 1587.62L1138.08 1581.78L1154.55 1567.81L1163 1547.49L1155.81 1534.55L1161.85 1526.1L1174.37 1522.04L1186.83 1522.2L1196.93 1517.54L1207.86 1510.29L1216.04 1500.62L1217.74 1488.8L1213.08 1481.59L1204.18 1474.97L1194.41 1470.07L1186.83 1467.96L1174.42 1460.99L1162.67 1458.78L1155.65 1454.38L1157.68 1440.74L1159.82 1438.57L1166.74 1435.93L1169.26 1433.45L1170.69 1427.32L1169.15 1415.74L1169.92 1410.39L1173.87 1404.7L1183.59 1395.74L1186.83 1388.46L1194.13 1377.5L1211.7 1362.42L1218.84 1348.79L1224.11 1341.87L1232.62 1338.32L1242.51 1335.73L1251.73 1331.74L1270.78 1320.01L1274.3 1322.06L1281.05 1330.6L1285.33 1333.33L1296.42 1333.07L1304.99 1327.89L1312.4 1321.84L1320.47 1318.79L1329.69 1320.57L1356.98 1334.04L1377.02 1338.83L1387.23 1337.18L1393.66 1328.72L1392.62 1315.58L1383.45 1309.91L1362.58 1306.34L1346.93 1294.1L1343.59 1290.2L1340.18 1284.08L1339.25 1281.77L1350.61 1258.64L1357.92 1247.19L1366.26 1236.86L1387.4 1218.25L1405.08 1195.71L1416.28 1190L1422.37 1190.53L1433.79 1194.8L1441.1 1194.44L1449.77 1190.08L1452.68 1184.15L1453.72 1176.61L1456.8 1167.54L1467.18 1154.37L1490.95 1133.95L1503.25 1113.24L1518.24 1096.64L1517.95 1096L1515.11 1089.74L1502.26 1076.96L1498.8 1067.71L1496.28 1055.62L1500.28 1047.31L1505.39 1040.22L1506.49 1031.86L1503.74 1026.86L1500.28 1026.03L1496.39 1026.33L1492.6 1024.67L1486.94 1018.47L1475.47 1002.28L1472.83 997.29L1471.4 992.14L1471.84 986.85L1473.54 983.51L1475.47 980.46L1476.89 976.02L1478.76 965.46L1479.2 958.32L1476.29 952.68L1467.83 946.57L1463.94 947.94Z" stroke="#A15151" stroke-width="0.5"/>
</g>
<defs>
<clipPath id="clip0">
<rect width="1920" height="1080" fill="white"/>
</clipPath>
</defs>
</svg>
