<svg width="1920" height="1080" viewBox="0 0 1920 1080" fill="none" xmlns="http://www.w3.org/2000/svg">
<g clip-path="url(#clip0)">
<rect width="1920" height="1080" fill="#FFE6DE"/>
<path d="M-137.973 1363.24L-154.128 1351.53L-164.662 1343.07L-175.572 1335.81L-183.114 1311.71L-202.198 1276.85L-202.479 1273.72L-204.702 1271.04L-192.709 1205.61L-181.729 1138.66L-132.837 1142.78L8.69718 1152.17L18.57 1162.02L45.5631 1168.39L57.9736 1166.1L66.4128 1163.44L98.4323 1268.97L100.406 1267.39L105.055 1266.02L106.385 1264.69L182.639 1360L176.778 1358.12L166.412 1356.94L159.506 1355.42L150.392 1355.31L-7.55373 1373.76L-12.0442 1375.16L-16.6024 1374.91L-27.1194 1379.13L-33.6005 1384.5L-43.6638 1391.36L-54.3355 1402.09L-66.5049 1417.41L-79.8486 1430.12L-84.2317 1417.34L-97.3572 1405.4L-107.998 1390.89L-117.529 1380.1L-126.683 1371.43L-137.973 1363.24Z" fill="#FFE6DE" stroke="#A15151" stroke-width="0.5"/>
<path d="M289.227 970.195L290.023 966.816L287.542 963.3L284.744 957.539L284.222 955.223L284.365 952.957L286.183 948.444L285.852 946.747L283.107 942.703L281.79 938.689L279.577 936.857L277.841 937.398L276.683 939.073L278.084 944.234L276.68 945.358L273.868 944.366L267.714 939.54L267.581 939.08L269.91 937.73L270.243 936.621L270.076 934.348L268.921 931.43L269.415 929.725L274.312 923.089L276.627 921.989L283.325 926.044L285.019 929.542L286.589 931.155L288.864 932.423L291.669 932.59L292.05 932.022L290.52 928.041L290.142 923.46L287.948 919.448L288.174 918.309L290.398 915.537L290.85 913.816L293.138 914.07L295.971 913.089L298.825 913.798L305.656 912.286L311.414 900.984L312.247 897.002L315.739 891.955L318.939 888.663L326.95 882.945L330.543 878.537L332.252 878.122L336.225 879.153L340.7 877.145L341.181 872.583L342.958 869.209L345.212 868.973L350.879 871.53L355.971 872.51L356.962 875.239L361.376 877.665L363.523 879.742L366.356 880.639L368.013 881.912L379.322 895.172L383.178 898.062L384.325 897.513L388.933 891.91L390.103 891.473L394.634 893.081L396.333 891.729L396.959 888.306L398.569 886.138L401.437 884.905L403.426 885.255L402.874 890.207L404.455 892.387L405.598 892.839L407.76 891.467L411.02 886.941L415.775 878.35L417.489 877.697L418.644 878.066L420.202 880.135L423.666 881.891L421.202 881.16L419.286 882.227L420.793 886.004L426.947 892.058L430.059 893.048L431.759 895.659L434.042 902.085L433.829 904.854L432.863 906.962L430.907 908.889L428.556 909.848L426.803 912.775L426.938 913.535L430.645 914.408L431.939 916.041L431.902 919.564L427.88 921.285L426.038 924.252L425.981 926.085L426.865 927.464L429.221 929.094L430.69 932.896L434.317 934.635L435.638 937.369L438.851 937.771L441.957 939.37L444.267 943.214L449.326 944.466L450.873 947.939L450.227 949.578L451.12 950.76L454.878 952.753L454.782 953.754L449.851 955.657L447.455 957.808L445.333 958.598L444.889 960.194L447.657 964.927L445.773 966L445.704 968.382L443.924 970.599L441.218 971.144L439.394 974.553L435.121 975.775L434.168 976.684L433.518 977.818L433.913 980.572L430.855 984.405L430.611 988.952L431.623 990.75L435.087 991.093L437.246 994.221L438.39 994.116L441.273 992.076L443.093 993.146L441.132 996.911L438.085 999.619L437.831 1001.35L438.477 1004.23L437.419 1005.87L435.155 1005.94L431.144 1003.7L426.511 1004.93L420.759 1004.33L418.445 1004.78L416.149 1003.7L415.049 1001.39L413.322 988.174L413.629 981.277L412.636 978.992L410.908 978.48L407.492 979.05L405.2 977.526L404.064 977.62L399.445 979.065L391.358 983.811L386.174 985.659L383.336 984.721L375.992 979.479L361.269 978.378L358.995 977.224L355.551 977.529L352.176 975.639L349.284 976.276L344.706 975.653L340.094 979.151L335.522 979.053L331.518 980.844L329.205 980.922L327.523 979.982L326.115 977.68L326.119 970.28L318.296 967.071L314.313 966.982L310.384 964.089L308.655 965.455L306.933 965.654L302.977 964.674L299.539 966.547L295.487 966.774L289.227 970.195Z" fill="#FFE6DE" stroke="#A15151" stroke-width="0.5"/>
<path d="M29.5951 643.306L34.6705 646.207L42.175 645.849L47.0463 647.359L48.6667 647.078L49.3023 644.779L48.6668 640.958L49.7337 630.542L49.3724 626.681L46.9573 623.571L47.1729 621.865L51.3149 618.604L55.1223 617.939L57.9447 618.363L61.5469 615.543L64.744 616.936L67.9968 615.919L72.4578 616.039L72.6401 613.842L71.4955 612.626L67.9637 610.815L65.5868 606.359L65.559 605.258L67.7467 601.396L69.0961 596.006L74.5741 590.245L75.303 587.668L75.2675 582.636L76.2113 580.324L78.9274 577.611L82.0622 578.248L85.4591 576.287L90.437 580.746L91.8456 581.17L96.1137 576.987L102.957 576.247L103.857 578.904L104.426 579.1L107.872 577.773L111.871 580.368L114 582.653L115.715 585.592L117.46 592.573L118.84 594.331L119.929 594.944L120.833 594.721L121.363 602.754L122.4 605.912L123.791 607.493L128.347 609.047L127.911 611.655L124.186 619.101L123.411 624.077L124.211 626.859L127.18 628.814L128.556 628.839L139.68 624.596L143.716 620.841L145.41 621.326L146.12 622.249L146.725 628.519L150.49 631.801L151.438 636.114L153.356 641.002L154.602 642.671L154.63 643.68L153.16 646.09L156.183 654.748L153.512 660.789L153.042 667.796L152.367 668.984L149.087 668.435L146.517 670.317L144.047 674.045L144.799 678.183L141.476 680.725L139.289 681.016L137.372 683.29L131.483 686.619L130.016 688.307L129.906 689.464L131.081 692.844L133.468 693.439L137.543 692.673L142.635 689.411L148.31 688.366L149.756 689.229L151.035 691.576L153.64 699.711L154.266 703.822L153.43 706.556L154.753 708.175L154.981 714.683L156.442 716.339L155.307 720.953L150.735 723.961L150.181 727.572L150.453 730.525L153.89 733.915L155.356 739.667L155.321 741.797L154.338 744.691L156.783 747.88L156.955 750.4L158.477 752.7L157.741 756.909L158.49 759.314L159.534 759.24L159.111 762.156L156.171 766.121L150.004 768.984L144.908 774.94L142.932 784.125L141.317 787.367L119.21 787.54L103.548 785.128L96.7853 785.003L75.877 792.815L73.5339 794.506L70.0417 799.554L68.3761 799.798L57.2506 797.344L49.639 796.537L43.9495 798.296L29.6671 799.335L16.6253 802.652L6.56619 803.714L0.883479 802.427L-7.65605 799.462L-18.3106 798.762L-22.2942 799.044L-34.7351 802.007L-40.679 804.175L-51.3481 811.629L-68.743 816.848L-87.38 819.396L-100.112 823L-113.207 825.55L-128.64 829.739L-137.361 830.87L-121.611 692.839L-113.651 692.679L-108.031 690.567L-102.499 690.673L-97.3425 689.509L-79.9205 687.362L-77.1026 687.838L-68.7547 693.104L-63.7431 693.257L-60.3236 691.406L-60.027 686.957L-58.4502 685.525L-54.6488 684.335L-50.9776 682.333L-48.9667 683.072L-43.1351 683.269L-40.1951 685.33L-35.6007 684.125L-31.3762 681.805L-25.3333 675.642L-22.9526 674.483L-19.8983 674.386L-15.4905 676.751L-6.92723 675.978L-2.86742 677.71L-0.139298 677.556L4.64439 675.535L10.9807 674.593L12.8664 672.683L16.4978 663.916L28.5009 644.716L28.8701 643.283L29.5951 643.306ZM97.3863 666.661L106.69 655.786L106.938 653.53L101.979 649.718L98.4377 649.982L94.9432 648.983L92.8257 649.906L86.7528 657.961L97.3863 666.661Z" fill="#FFE6DE" stroke="#A15151" stroke-width="0.5"/>
<path d="M289.227 970.196L295.488 966.775L299.539 966.548L302.977 964.674L306.934 965.655L308.656 965.456L310.384 964.09L314.313 966.982L318.296 967.072L326.119 970.28L326.115 977.68L327.523 979.982L329.205 980.923L331.519 980.844L335.523 979.054L340.095 979.151L344.706 975.653L349.284 976.276L352.176 975.639L355.551 977.53L358.996 977.224L361.269 978.379L375.992 979.479L383.336 984.722L386.174 985.659L391.358 983.812L399.445 979.066L404.065 977.62L405.2 977.527L407.493 979.051L410.908 978.48L412.636 978.993L413.63 981.278L413.322 988.174L415.049 1001.39L416.149 1003.71L418.445 1004.79L420.759 1004.34L426.511 1004.93L431.144 1003.7L435.155 1005.94L437.419 1005.87L438.477 1004.23L437.831 1001.35L438.085 999.619L441.132 996.912L443.093 993.147L444.727 994.495L446.694 994.269L448.709 992.222L449.366 989.456L450.75 988.056L451.862 989.73L452.31 992.973L455.845 994.432L457.888 996.5L460.134 994.024L461.801 993.501L466.633 995.128L468.652 996.507L470.182 996.432L473.379 998.868L477.033 999.437L477.68 1000.35L478.765 1000.46L479.321 1000.92L479.024 1004.42L480.936 1009.25L485.531 1015.3L488.824 1017.29L494.123 1019.22L496.473 1021.83L500.079 1032.98L503.422 1035.33L507.06 1036.22L508.929 1039.34L510.231 1047.26L511.096 1049.41L512.553 1050.47L515.461 1051.11L516.118 1052.96L513.741 1052.83L507.449 1057.66L498.047 1062.08L486.315 1070.76L483.081 1075.81L476.425 1078.64L470.164 1079.32L465.146 1081.94L463.496 1080.72L460.841 1074.3L458.835 1071.72L455.972 1073.18L448.062 1074.65L447.4 1076.42L450.249 1082.07L448.728 1085.06L443.789 1088.48L441.505 1094.1L438.061 1098.84L430.575 1105.38L426.964 1109.44L415.85 1118.87L414.76 1123.42L415.62 1130.05L412.435 1149.66L409.853 1154.83L408.428 1159.62L402.619 1166.79L402.011 1170.56L397.298 1183.96L395.666 1195.25L391.348 1203.59L392.852 1210.25L390.974 1219.01L388.694 1225.7L388.489 1229.48L385.1 1233.4L384.146 1236.75L374.3 1245.31L368.826 1251.2L362.13 1255.17L355.557 1257.91L345.932 1263.11L331.998 1264.32L327.446 1261.02L317.779 1256.33L315.911 1254.07L315.979 1252.34L320.381 1244.95L319.86 1243.31L314.737 1240.63L311.936 1240.87L310.732 1243.16L310.577 1251.26L308.908 1252.23L307.223 1251.73L296.001 1242.37L287.852 1233.08L282.962 1225.94L281.083 1220.1L279.539 1212.12L280.124 1201.17L282.816 1185.72L289.294 1173.26L297.851 1161.42L299.924 1157.44L299.587 1155.41L301.104 1148.81L300.776 1145.44L298.966 1140.32L296.62 1136.34L294.412 1129.47L290.564 1125.71L284.839 1122.35L280.945 1122.03L272.091 1122.89L267.745 1122.21L259.842 1123.92L258.361 1122.94L253.914 1115.13L253.278 1109.99L250.481 1100.19L247.576 1093.26L240.701 1082.8L233.512 1074.07L227.418 1068.57L209.71 1068.38L182.125 1071.3L188.222 1063.75L197.77 1049.84L205.184 1042.06L218.924 1024.87L230.759 1013.55L237.638 1009.94L252.658 1005.45L255.592 1002.1L265.82 985.155L270.704 979.532L279.942 976.342L289.227 970.196Z" fill="#FFE6DE" stroke="#A15151" stroke-width="0.5"/>
<path d="M168.834 1072.91L173.215 1073.44L182.124 1071.3L209.709 1068.38L227.418 1068.57L233.511 1074.07L240.701 1082.8L247.575 1093.26L250.481 1100.19L253.278 1109.99L253.913 1115.13L258.361 1122.94L259.841 1123.92L267.744 1122.21L272.091 1122.89L280.944 1122.03L284.839 1122.35L290.564 1125.71L294.412 1129.47L296.62 1136.34L298.966 1140.32L300.775 1145.44L301.103 1148.81L299.586 1155.41L299.923 1157.44L297.851 1161.42L289.294 1173.26L282.816 1185.72L280.123 1201.17L279.538 1212.12L281.083 1220.1L282.961 1225.94L287.851 1233.08L296.001 1242.37L307.222 1251.73L308.907 1252.23L310.576 1251.26L310.731 1243.16L311.936 1240.87L314.736 1240.63L319.86 1243.31L320.381 1244.95L315.979 1252.34L315.91 1254.07L317.778 1256.33L327.446 1261.02L331.997 1264.32L313.734 1266.7L307.363 1271.47L294.495 1287.01L286.155 1299.05L279.448 1305.65L262.269 1317.93L255.142 1333.78L247.481 1344.95L245.231 1343.82L239.53 1342.55L234.963 1340.43L221.172 1340.12L218.261 1341.15L215.934 1343.26L212.363 1350.61L205.777 1353.79L195.719 1359.85L192.77 1361L187.528 1361.95L185.228 1361.59L182.639 1360L106.384 1264.69L105.055 1266.02L100.406 1267.39L98.4321 1268.97L66.4126 1163.44L82.0254 1154.48L93.6477 1144.43L109.276 1134.57L133.367 1114.47L149.807 1098.27L156.209 1091.06L163.721 1081.53L168.834 1072.91Z" fill="#FFE6DE" stroke="#A15151" stroke-width="0.5"/>
<path d="M394.96 810.363L408.171 807.646L411.339 805.482L410.529 803.455L412.382 803.417L413.341 802.755L414.139 802.781L415.084 804.153L414.871 804.187L413.878 802.944L414.205 804.322L415.426 805.767L416.085 805.571L416.69 807.228L417.942 806.503L418.952 807.052L419.091 806.253L420.189 807.041L420.255 806.517L422.511 805.723L423.061 806.127L423.56 805.505L424.125 808.302L425.619 808.85L426.49 808.321L427.092 806.088L428.369 806.351L427.264 807.658L427.156 809.972L426.576 809.767L425.834 810.436L426.325 811.239L425.674 811.888L427.467 814.406L427.239 815.246L426.528 814.88L426.217 815.431L427.745 816.099L427.359 816.719L428.814 819.263L429.711 819.165L431.885 820.444L433.469 819.93L435.395 821.587L435.733 824.202L434.642 826.488L435.431 827.382L435.373 828.545L436.136 828.915L435.823 830.487L436.519 831.566L435.919 833.335L438.685 836.262L438.404 838.027L444.69 841.899L446.779 841.938L448.272 843.137L450.108 842.936L452.335 844.611L454.529 843.917L455.836 845.951L457.28 845.008L457.717 845.415L456.86 846.159L456.901 847.196L455.868 847.093L455.416 848.051L454.478 847.968L453.047 849.982L453.477 853.805L452.777 854.769L453.224 856.392L456.591 860.471L456.515 861.284L457.571 862.541L457.964 863.767L457.368 866.619L457.793 867.109L454.362 867.536L451.525 877.331L450.828 878.037L447.357 877.912L443.322 873.205L441.776 872.652L438.698 875.93L430.866 881.866L427.883 882.709L423.665 881.891L420.202 880.135L418.644 878.066L417.489 877.697L415.775 878.349L411.02 886.941L407.759 891.467L405.598 892.839L404.455 892.387L402.874 890.207L403.425 885.255L403.936 883.507L403.492 881.811L399.624 878.912L398.362 877.193L398.07 875.47L399.402 872.559L398.153 870.291L392.501 869.476L385.635 865.399L376.582 857.464L363.564 843.298L357.286 840.343L353.32 839.467L349.943 836.906L337.492 831.398L330.872 826.643L337.508 823.821L339.227 816.997L347.733 805.724L349.841 801.128L350.857 800.325L359.456 798.372L361.725 797.328L364.197 794.643L365.171 794.866L365.643 794.185L367.939 795.357L370.065 797.529L371.444 798.059L371.937 799.068L372.614 798.849L374.928 801.32L375.382 801.126L382.02 806.043L382.093 806.809L387.226 809.105L387.553 810.112L390.765 810.606L394.96 810.363Z" fill="#FFE6DE" stroke="#A15151" stroke-width="0.5"/>
<path d="M403.425 885.255L401.437 884.905L398.569 886.138L396.959 888.306L396.333 891.729L394.634 893.081L390.103 891.473L388.933 891.91L384.325 897.513L383.178 898.062L379.322 895.172L368.013 881.912L366.356 880.639L363.523 879.742L361.376 877.665L356.962 875.239L355.971 872.51L350.879 871.53L345.212 868.972L342.957 869.209L341.181 872.583L340.7 877.145L336.225 879.152L332.252 878.122L330.543 878.537L326.95 882.945L318.939 888.663L315.739 891.955L312.247 897.002L311.414 900.984L305.656 912.286L298.825 913.798L295.971 913.089L293.137 914.07L290.849 913.815L290.398 915.537L288.174 918.309L287.948 919.448L290.142 923.46L290.52 928.041L292.05 932.022L291.669 932.59L288.864 932.423L286.589 931.155L285.019 929.542L283.325 926.044L276.627 921.989L274.312 923.089L269.415 929.725L268.92 931.43L270.076 934.348L270.243 936.621L269.91 937.73L267.581 939.08L267.714 939.54L273.868 944.366L276.68 945.358L278.084 944.234L276.683 939.073L277.841 937.398L279.577 936.857L281.79 938.688L283.107 942.703L285.852 946.747L286.182 948.444L284.365 952.957L284.221 955.223L284.744 957.539L287.542 963.3L290.022 966.816L289.227 970.195L279.942 976.342L270.704 979.532L265.82 985.155L255.592 1002.1L252.657 1005.45L237.638 1009.94L230.758 1013.55L218.924 1024.87L205.183 1042.06L197.77 1049.84L188.222 1063.75L182.125 1071.3L173.215 1073.44L168.834 1072.91L159.154 1065.57L150.88 1058.06L147.44 1052.29L144.806 1044.26L143.19 1041.38L140.116 1038.09L133.993 1034.2L137.28 1024.08L140.239 1011.72L140.404 1008.9L139.667 1003.86L137.909 1002.04L135.651 996.51L132.834 994.156L131.178 991.19L130.432 987.02L130.831 985.294L132.189 984.599L144.369 985.09L158.815 982.248L166.256 986.118L172.226 986.723L176.477 982.954L181.535 982.307L183.424 981.275L185.773 977.189L191.275 962.984L193.779 959.376L194.761 948.742L193.562 945.437L187.754 940.46L184.518 938.998L184.053 936.727L185.462 935.365L189.743 935.732L190.841 935.292L195.637 929.245L195.676 926.114L196.281 924.665L200.886 922.241L200.814 920.546L198.882 918.642L201.186 917.068L202.696 914.653L200.919 912L200.52 909.484L198.621 906.844L198.507 903.74L202.161 901.575L207.299 902.126L209.515 900.129L210.758 896.03L208.541 892.558L213.159 890.813L214.43 889.229L213.545 885.301L215.985 881.195L216.217 868.713L217.621 867.497L220.596 869.121L224.284 869.068L226.934 870.171L231.777 870.393L236.757 872.138L239.776 871.157L241.441 869.778L242.624 868.234L242.952 864.256L245.102 861.183L244.893 857.294L248.451 853.323L248.926 851.249L250.456 850.431L250.341 847.027L251.813 844.637L252.89 840.907L253.095 837.035L255.403 833.232L258.31 831.696L258.851 830.791L259.483 826.201L260.235 824.963L261.764 823.753L264.7 825.031L266.971 823.43L268.376 826.083L269.512 826.753L271.43 825.986L272.223 824.836L272.434 822.811L270.763 819.33L270.907 815.372L269.842 813.755L267.785 812.402L267.711 810.408L265.468 808.497L265.553 806.537L264.734 805.471L264.722 804.327L267.696 803.402L268.886 801.92L271.47 802.246L272.54 801.839L272.973 800.141L272.046 796.29L272.738 795.265L276.128 796.906L279.008 794.939L279.457 797.996L281.749 798.384L284.021 798.589L289.107 797.165L296.402 799.689L300.769 792.461L305.797 787.865L307.472 787.423L309.737 788.217L311.3 789.676L311.416 790.83L308.58 793.762L308.308 796.557L307.013 798.866L307.256 799.954L305.64 802.247L305.947 807.311L307.963 809.134L309.954 812.517L317.293 816.77L330.872 826.643L337.493 831.398L349.943 836.906L353.32 839.467L357.286 840.343L363.564 843.298L376.582 857.464L385.635 865.399L392.501 869.476L398.153 870.291L399.402 872.559L398.07 875.47L398.362 877.193L399.624 878.912L403.492 881.811L403.936 883.507L403.425 885.255Z" fill="#FFE6DE" stroke="#A15151" stroke-width="0.5"/>
<path d="M-176.101 1103.58L-163.203 1021.44L-147.122 911.671L-137.315 830.906L-128.595 829.775L-113.141 825.584L-100.046 823.034L-87.3144 819.43L-68.6774 816.882L-51.2939 811.654L-40.6248 804.2L-34.6718 802.02L-22.2309 799.057L-18.2474 798.775L-7.59279 799.476L0.946761 802.441L6.62041 803.738L16.6795 802.677L29.7236 799.38L43.9946 798.332L49.6932 796.562L57.3048 797.368L68.4303 799.823L70.0959 799.578L73.6086 794.529L75.9402 792.829L96.8486 785.016L103.612 785.142L119.273 787.553L141.382 787.401L142.998 784.159L144.962 774.965L150.058 769.009L156.225 766.146L159.165 762.18L159.577 759.256L163.361 757.438L165.57 757.815L171.035 760.601L171.919 762.166L172.442 765.246L174.669 766.642L179.191 763.835L189.553 766.662L190.756 767.944L192.098 773.318L194.211 773.861L199.096 771.158L201.904 771.831L207.47 769.322L212.232 770.111L214.548 771.374L217.175 767.66L217.257 765.587L221.003 763.329L221.188 760.78L223.882 759.371L226.12 759.641L227.368 761.517L225.481 768.782L225.414 771.277L226.126 772.499L229.015 773.813L232.155 778.825L231.365 779.624L227.923 779.671L226.588 781.705L230.806 786.486L231.997 785.488L232.617 782.005L234.627 780.195L240.609 778.187L244.529 777.706L245.652 778.718L250.045 778.877L251.619 777.517L251.214 775.426L247.661 771.625L247.352 767.304L248.692 765.124L251.673 762.661L252.411 759.98L256.335 758.497L258.081 754.467L263.035 750.89L264.576 747.718L267.159 750.386L270.722 758.788L272.947 766.191L275.066 769.324L274.885 771.634L276.545 775.106L275.682 778.337L276.935 781.017L277.216 787.529L281.484 790.694L282.921 793.075L281.749 798.384L279.457 797.996L279.008 794.939L276.128 796.906L272.738 795.265L272.046 796.29L272.973 800.141L272.54 801.839L271.47 802.246L268.886 801.92L267.696 803.402L264.722 804.327L264.734 805.471L265.553 806.537L265.468 808.497L267.711 810.408L267.785 812.402L269.842 813.755L270.907 815.372L270.763 819.33L272.434 822.811L272.223 824.836L271.43 825.986L269.512 826.753L268.376 826.083L266.971 823.43L264.7 825.031L261.764 823.753L260.235 824.963L259.483 826.201L258.851 830.791L258.31 831.696L255.403 833.232L253.095 837.035L252.89 840.907L251.813 844.637L250.341 847.027L250.456 850.431L248.926 851.249L248.451 853.323L244.893 857.294L245.102 861.183L242.952 864.256L242.624 868.234L241.441 869.778L239.776 871.157L236.757 872.138L231.777 870.393L226.934 870.171L224.284 869.068L220.596 869.121L217.621 867.497L216.217 868.714L215.985 881.195L213.545 885.301L214.43 889.229L213.159 890.813L208.541 892.558L210.758 896.03L209.515 900.129L207.299 902.126L202.161 901.575L198.507 903.74L198.621 906.844L200.52 909.484L200.919 912L202.696 914.653L201.186 917.068L198.882 918.642L200.814 920.546L200.886 922.241L196.281 924.665L195.676 926.114L195.637 929.245L190.841 935.292L189.743 935.732L185.462 935.365L184.053 936.727L184.518 938.998L187.754 940.46L193.562 945.437L194.761 948.742L193.779 959.376L191.275 962.984L185.773 977.189L183.424 981.275L181.535 982.307L176.477 982.954L172.226 986.723L166.256 986.118L158.815 982.248L144.369 985.09L132.189 984.599L130.831 985.294L130.432 987.02L131.178 991.19L132.834 994.156L135.651 996.51L137.909 1002.04L139.667 1003.86L140.404 1008.9L140.239 1011.72L137.28 1024.08L133.993 1034.2L140.116 1038.09L143.19 1041.38L144.806 1044.26L147.44 1052.29L150.88 1058.06L159.154 1065.57L168.834 1072.91L163.721 1081.53L156.209 1091.06L149.807 1098.27L133.368 1114.47L109.276 1134.57L93.6478 1144.43L82.0255 1154.48L66.4127 1163.44L57.9735 1166.1L45.563 1168.39L18.5699 1162.02L8.69706 1152.17L-132.837 1142.78L-181.729 1138.66L-176.101 1103.58Z" fill="#FFE6DE" stroke="#A15151" stroke-width="0.5"/>
<path d="M293.259 737.681L300.502 742.377L315.422 746.593L320.519 748.656L322.316 747.344L324.012 747.943L322.329 747.56L321.059 748.679L321.698 748.485L322.065 748.259L322.245 748.962L322.785 748.521L322.68 749.255L323.317 748.948L323.159 751.927L327.834 755.419L330.436 756.186L329.664 756.384L332.666 759.203L332.659 762.062L333.346 763.524L338.337 766.507L340.6 767.002L342.275 768.346L343.701 770.718L347.794 773.128L347.618 773.973L348.669 775.374L347.979 776.606L350.945 780.976L350.52 781.807L350.919 783.002L353.509 784.411L353.873 786.135L353.289 789.182L353.75 789.998L358.732 793.085L364.165 794.636L361.694 797.321L359.424 798.365L350.825 800.319L349.809 801.121L347.69 805.709L339.184 816.981L337.477 823.814L330.829 826.627L317.241 816.765L309.913 812.522L307.922 809.138L305.906 807.316L305.599 802.251L307.227 799.968L306.984 798.88L308.278 796.571L308.539 793.766L311.387 790.843L311.268 789.669L309.705 788.21L307.429 787.407L305.765 787.858L300.726 792.445L296.358 799.673L289.055 797.161L283.969 798.585L281.685 798.371L282.858 793.062L281.421 790.68L277.152 787.516L276.863 781.015L275.618 778.324L276.471 775.083L274.811 771.611L274.993 769.321L272.863 766.18L270.638 758.777L267.064 750.366L264.492 747.706L266.118 743.896L268.221 741.993L270.478 738.578L273.664 738.084L275.897 735.765L277.028 735.724L276.746 733.247L277.287 733.476L277.525 732.068L293.259 737.681Z" fill="#FFE6DE" stroke="#A15151" stroke-width="0.5"/>
<path d="M94.9431 648.982L98.4489 649.991L101.979 649.718L106.938 653.529L106.701 655.795L97.3862 666.661L86.764 657.969L92.8369 649.915L94.9431 648.982Z" fill="#FFE6DE" stroke="#A15151" stroke-width="0.5"/>
<path d="M107.892 577.77L104.446 579.097L103.887 578.89L102.975 576.225L96.132 576.964L91.873 581.136L90.4439 580.715L85.4661 576.255L80.3567 570.313L79.5076 570.004L75.4503 571.119L73.7317 570.41L70.0055 562.212L63.4266 555.667L56.3553 554.234L52.7664 554.256L49.8348 552.554L49.4584 551.285L53.0133 551.236L55.5932 547.187L54.7518 546.195L51.9341 545.627L48.4851 543.064L47.9907 537.328L50.1314 540.572L55.6136 541.158L65.211 547.278L67.5637 548.217L71.4756 551.896L74.2604 553.2L74.7452 554.799L72.3568 556.546L71.3768 558.811L72.2526 559.551L75.6304 559.769L76.1618 563.487L79.4267 566.535L84.7211 566.915L88.2662 564.328L89.8848 565.255L90.5943 568.056L92.2153 570.417L97.1983 572.947L104.118 572.622L105.278 575.673L107.892 577.77Z" fill="#FFE6DE" stroke="#A15151" stroke-width="0.5"/>
<path d="M-57.724 538.099L-48.9749 537.233L-25.9424 531.664L-24.8238 527.558L-20.0932 523.17L-18.1271 520.488L-17.0263 517.725L-12.3357 520.317L-7.56372 521.58L-0.246733 520.922L4.03591 525.159L5.86069 526.084L8.34767 525.047L10.6224 522.074L13.7169 520.837L14.3004 523.054L15.4614 523.948L17.0138 523.706L18.0988 522.4L19.9348 521.827L22.4055 522.619L23.9987 522.372L25.198 520.322L27.2762 518.474L30.7653 517.07L32.2453 515.225L33.7688 511.519L35.8412 510.466L36.7767 510.621L37.4741 509.451L38.3213 509.554L39.3408 511.135L40.5858 517.882L43.2992 524.561L43.7926 527.933L47.9905 537.328L48.4849 543.063L51.934 545.626L54.7517 546.195L55.593 547.186L53.0131 551.236L49.4582 551.285L49.8347 552.554L52.7662 554.256L56.3551 554.234L63.4265 555.667L70.0054 562.211L73.7315 570.41L75.4501 571.119L79.5074 570.004L80.3566 570.313L85.4659 576.255L82.0598 578.228L78.9364 577.6L76.2089 580.303L75.2652 582.615L75.3007 587.647L74.5718 590.225L69.0938 595.985L67.7444 601.375L65.5567 605.237L65.5936 606.327L67.9705 610.783L71.4909 612.585L72.6265 613.812L72.4442 616.01L67.9854 615.91L64.7417 616.916L61.5446 615.522L57.9424 618.342L55.1313 617.928L51.3149 618.604L47.1819 621.854L46.9572 623.571L49.3724 626.681L49.7336 630.542L48.6667 640.958L49.3022 644.779L48.6666 647.078L47.0462 647.359L42.1863 645.858L34.6704 646.207L29.595 643.306L29.4764 640.812L30.0786 639.621L34.2033 635.825L34.3197 630.766L32.6709 627.304L30.3319 626.301L28.2146 624.025L22.7524 622.209L18.8979 619.618L17.3179 620.08L16.2102 622.967L14.7629 624.168L10.3399 621.382L6.33578 620.252L7.14506 618.502L13.1226 612.026L15.8042 608.151L16.9423 604.693L16.725 596.967L17.3466 591.904L16.2432 590.405L13.673 589.458L11.3678 585.562L5.54034 582.579L-0.101899 581.474L-1.82998 578.041L-7.11765 574.709L-12.036 572.864L-12.6172 572.082L-12.1868 570.641L-12.6364 569.834L-16.5429 567.053L-18.17 567.272L-22.2481 570.175L-26.2667 574.186L-29.058 574.141L-31.2202 571.644L-31.2403 566.94L-30.2156 563.484L-30.8512 562.769L-33.9294 562.178L-36.3824 558.628L-37.949 559.306L-39.7281 561.152L-42.4326 565.195L-45.4489 565.639L-46.9048 567.986L-48.7928 568.461L-49.9296 568.07L-50.966 567.182L-51.5533 564.46L-52.5075 563.192L-59.3296 563.28L-60.745 562.795L-66.438 556.236L-71.4474 553.184L-76.1545 547.9L-74.9296 547.022L-70.9812 545.95L-63.4962 539.01L-57.724 538.099Z" fill="#FFE6DE" stroke="#A15151" stroke-width="0.5"/>
<path d="M29.5952 643.307L28.988 643.322L28.6097 644.766L16.6158 663.955L12.9843 672.722L11.0873 674.623L4.75101 675.565L-0.0326747 677.585L-2.76081 677.74L-6.84103 676.01L-15.4043 676.783L-19.8008 674.427L-22.8551 674.524L-25.2359 675.683L-31.2786 681.846L-35.5031 684.166L-40.1067 685.383L-43.058 683.312L-48.8987 683.127L-50.9005 682.376L-54.5716 684.378L-58.3617 685.578L-59.9385 687.009L-60.2556 691.461L-63.666 693.3L-68.6866 693.159L-77.0346 687.892L-79.8638 687.408L-97.2767 689.543L-102.442 690.718L-107.975 690.612L-113.595 692.725L-121.554 692.885L-111.359 600.974L-110.979 589.002L-111.77 580.369L-110.173 577.892L-99.5316 570.472L-98.2099 566.901L-94.4792 566.007L-92.1175 563.922L-76.1542 547.9L-71.4472 553.184L-66.4378 556.236L-60.7448 562.795L-59.3294 563.28L-52.5073 563.193L-51.5531 564.461L-50.9657 567.183L-49.9294 568.07L-48.7926 568.462L-46.9046 567.986L-45.4487 565.639L-42.4324 565.195L-39.7278 561.152L-37.9488 559.306L-36.3822 558.629L-33.9292 562.178L-30.851 562.77L-30.2154 563.484L-31.2401 566.94L-31.22 571.644L-29.0577 574.142L-26.2664 574.187L-22.2479 570.176L-18.1698 567.273L-16.5427 567.053L-12.6362 569.834L-12.1866 570.642L-12.6169 572.082L-12.0358 572.865L-7.11742 574.709L-1.82975 578.041L-0.101664 581.474L5.54057 582.579L11.3681 585.563L13.6733 589.459L16.2434 590.405L17.3468 591.904L16.7252 596.967L16.9425 604.694L15.8045 608.152L13.1229 612.026L7.14529 618.502L6.33602 620.252L10.3401 621.382L14.7632 624.169L16.2105 622.968L17.3182 620.081L18.8981 619.618L22.7527 622.209L28.2149 624.026L30.3322 626.301L32.6711 627.304L34.3199 630.766L34.2036 635.825L30.0788 639.621L29.4766 640.812L29.5952 643.307Z" fill="#FFE6DE" stroke="#A15151" stroke-width="0.5"/>
<path d="M995.229 93.4534L993.098 92.0597L986.287 90.7213L972.002 79.7941L941.052 52.3483L939.646 51.7691L937.66 51.5309L906.179 56.1609L892.996 65.9142L866.88 81.6991L860.874 84.7518L841.194 122.381L813.934 145.983L797.609 147.558L788.333 131.634L776.24 116.246L768.277 103.381L763.932 92.0023L760.214 84.455L758.537 73.2449L759.839 68.8694L759.517 64.1767L778.137 -93.7492L780.36 -102.59L783.441 -108.955L786.985 -118.767L790.167 -124.034L792.318 -126.184L793.197 -128.338L793.491 -133.657L793.056 -136.792L789.484 -147.981L787.918 -155.124L781.597 -160.299L780.081 -163.053L779.752 -166.123L783.252 -179.466L786.373 -183.418L788.922 -188.671L790.549 -190.597L792.363 -189.564L793.373 -187.721L801.689 -179.908L807.809 -175.441L814.684 -168.419L822.297 -163.827L830.534 -154.887L834.395 -151.623L841.728 -148.503L851.131 -142.601L859.349 -139.453L864.223 -136.682L870.763 -135.409L876.348 -131.463L881.56 -126.769L885.209 -124.699L890.057 -122.955L894.34 -122.316L896.813 -120.931L904.631 -118.391L913.107 -114.084L919.478 -113.028L922.504 -111.925L934.545 -101.662L939.763 -99.1579L943.32 -98.3404L953.141 -92.8L958.758 -91.1768L963.863 -87.0228L968.489 -85.3272L971.954 -80.634L971.503 -78.1885L972.556 -76.0303L978.17 -73.963L981.67 -70.289L983.83 -66.731L986.521 -59.6535L994.154 -44.8961L998.606 -38.3426L999.831 -33.0097L998.749 -30.8087L998.838 -29.7016L1000.64 -27.7596L1005.68 -25.4647L1025.93 0.486731L1031.77 6.34589L1044.33 14.5753L1050.73 22.4996L1053.94 25.4763L1078.92 45.3414L1085.08 48.0348L1090.3 51.4177L1097.97 54.2908L1102.59 53.6593L1106.06 54.011L1115.51 56.6095L1122.16 55.5189L1123.47 56.0446L1123.85 57.0537L1122.54 58.2139L1117.94 59.2196L1117.2 60.1611L1119.95 62.8412L1121.13 67.0517L1124.21 68.1618L1122.52 71.723L1123.09 73.7793L1122 75.7832L1122.73 79.2556L1122.15 81.1056L1119.56 82.7148L1116.68 82.2194L1114.29 83.1923L1112.91 84.5917L1108.39 92.7611L1103.84 96.2034L1103.35 97.2683L1103.67 99.7585L1101.89 101.8L1074.54 98.4799L1058.72 97.6782L1050.4 96.5024L1006.8 94.7671L1000.37 93.4975L995.229 93.4534Z" fill="#FFE6DE" stroke="#A15151" stroke-width="0.5"/>
<path d="M719.087 188.616L703.947 201.618L693.284 209.909L683.689 218.839L658.502 220.597L620.166 231.09L617.059 230.639L613.94 232.182L553.064 205.363L490.475 179.178L505.8 132.568L547.709 -2.94488L559.584 -10.2668L572.033 -35.0511L572.67 -47.6567L572.037 -56.4822L682.114 -63.1947L681.035 -65.4801L680.783 -70.3191L679.795 -71.9212L790.167 -124.034L786.986 -118.767L783.442 -108.955L780.36 -102.59L778.137 -93.7493L759.517 64.1766L759.839 68.8693L758.537 73.2448L760.215 84.455L763.933 92.0022L768.277 103.381L776.24 116.246L788.333 131.634L797.609 147.558L784.161 148.863L769.5 158.865L752.92 165.857L740.214 172.63L729.664 179.529L719.087 188.616Z" fill="#FFE6DE" stroke="#A15151" stroke-width="0.5"/>
<path d="M57.5183 -141.107L61.5157 -145.372L62.9051 -152.756L65.5015 -157.145L65.6036 -158.786L63.5145 -159.937L59.6503 -160.204L49.7643 -163.653L45.9243 -164.196L42.3396 -162.567L40.7302 -163.171L38.517 -167.956L38.7518 -171.814L39.8172 -174.462L37.908 -178.619L40.0041 -181.406L39.768 -184.806L40.9177 -189.118L38.8222 -189.804L37.3741 -188.972L34.7944 -185.956L29.9094 -184.676L28.8318 -184.904L25.5813 -187.926L20.6499 -190.487L16.3147 -197.15L13.9762 -198.456L9.07257 -199.586L7.04208 -201.04L5.03224 -204.31L6.37764 -207.212L5.25602 -210.971L10.747 -214.781L11.4852 -216.053L8.40437 -221.174L9.26946 -228.003L12.0624 -228.263L12.3845 -228.771L11.8914 -232.431L15.3427 -235.72L18.0582 -237.262L21.3145 -238.25L28.5099 -238.332L30.5395 -239.267L31.3884 -240.184L31.3809 -241.115L39.3179 -239.77L42.63 -240.048L44.4904 -241.035L47.0575 -245.108L49.4927 -244.079L55.8742 -238.732L60.5359 -236.825L63.4269 -236.959L66.0166 -239.395L66.3591 -240.728L64.8075 -252.532L62.0891 -257.328L62.9534 -258.864L64.0159 -259.341L70.2556 -258.477L74.3202 -261.38L78.7354 -261.303L83.9345 -262.037L85.8471 -262.863L86.8344 -262.657L88.8394 -260.669L97.9614 -261.605L103.22 -257.607L109.927 -255.527L110.927 -254.596L109.634 -251.532L110.869 -248.596L113.923 -245.33L118.124 -245.104L119.827 -241.282L119.604 -239.087L121.372 -236.695L123.246 -230.195L124.549 -228.378L125.65 -228.003L129.21 -228.363L130.341 -230.548L130.539 -234.69L128.545 -240.398L128.842 -246.16L130.017 -247.368L132.596 -248.068L141.114 -248.718L145.258 -248.376L147.724 -246.93L149.606 -247.842L155.989 -246.557L157.939 -247.595L162.164 -245.422L164.032 -240.277L167.417 -238.903L170.352 -238.483L174.446 -241.042L180.382 -241.136L182.445 -240.609L185.033 -238.982L188.702 -240.622L191.193 -240.207L193.782 -241.154L197.706 -239.464L200.219 -239.635L200.39 -240.668L203.128 -239.581L206.305 -235.803L207.662 -229.14L212.276 -222.804L220.754 -218.755L223.533 -216.433L218.583 -194.887L212.61 -180.209L210.922 -173.659L213.68 -151.51L214.783 -148.839L218.885 -144.273L218.737 -142.596L213.773 -132.341L211.225 -125.124L211.619 -119.181L209.322 -105.047L209.53 -91.591L208.233 -81.5596L205.666 -76.3292L200.804 -68.7084L197.656 -58.5056L197.007 -54.565L197.009 -41.7761L197.742 -35.4916L202.523 -23.3865L203.572 -5.25585L201.736 13.4646L202.293 26.685L201.741 40.0146L202.242 55.9985L201.324 64.7436L70.6917 17.4597L72.3789 9.67921L71.6254 3.72298L73.0094 -1.63488L73.0713 -6.9204L75.0172 -24.366L76.1323 -26.9971L83.1888 -33.8987L84.4977 -38.7387L83.4893 -42.4937L79.2296 -43.8126L78.2018 -45.6781L77.9238 -49.6519L76.8264 -53.6868L78.0113 -55.4719L79.5531 -61.0994L82.2395 -63.4821L82.1309 -68.2308L80.8517 -72.8778L76.2557 -80.1834L75.6797 -82.7677L76.2922 -85.7616L79.6138 -89.5019L80.8444 -98.0115L83.4699 -101.56L83.9514 -104.25L83.0934 -109.371L83.6441 -115.753L82.2232 -118.03L74.535 -123.593L58.6365 -139.716L57.3273 -140.407L57.5183 -141.107ZM95.9359 -201.647L87.5107 -213.216L85.3732 -213.98L80.5171 -210.039L79.9541 -206.532L78.1722 -203.364L78.5803 -201.09L85.0096 -193.317L95.9359 -201.647Z" fill="#FFE6DE" stroke="#A15151" stroke-width="0.5"/>
<path d="M507.692 -177.081L509.213 -181.222L509.202 -190.383L512.749 -217.895L517.029 -235.079L523.794 -239.732L533.949 -244.706L545.721 -248.97L553.131 -250.193L563.309 -250.645L568.459 -250.073L577.086 -252.591L578.385 -253.804L578.549 -261.888L580.217 -265.96L581.434 -274.771L582.643 -278.486L587.244 -283.276L591.79 -286.15L598.983 -286.707L603.403 -288.066L608.799 -288.642L612.153 -288.181L618.218 -285.178L620.278 -285.034L623.663 -282.098L633.206 -271.03L643.821 -261.844L658.232 -255.647L668.751 -252.541L676.865 -252.198L682.983 -252.673L691.063 -255.776L701.99 -261.552L713.692 -270.302L714.566 -271.826L714.011 -273.674L706.17 -275.699L704.222 -277.401L704.632 -280.182L708.425 -284.546L710.146 -284.672L716.312 -278.679L717.98 -278.212L720.613 -279.505L727.413 -287.824L731.676 -291.488L729.766 -273.17L732.925 -265.868L745.072 -249.75L754.852 -238.849L759.716 -230.796L767.679 -211.242L781.456 -200.637L790.549 -190.597L788.922 -188.671L786.373 -183.418L783.252 -179.466L779.752 -166.123L780.081 -163.053L781.597 -160.299L787.918 -155.124L789.484 -147.981L793.056 -136.792L793.491 -133.657L793.198 -128.338L792.318 -126.184L790.167 -124.034L679.794 -71.9212L680.783 -70.319L681.035 -65.4801L682.114 -63.1946L572.037 -56.4821L566.94 -73.7443L559.849 -87.3793L553.881 -104.864L539.904 -132.956L527.953 -152.699L522.418 -160.598L514.894 -170.111L507.692 -177.081Z" fill="#FFE6DE" stroke="#A15151" stroke-width="0.5"/>
<path d="M457.647 165.578L380.73 134.012L277.668 92.9501L201.369 64.7078L202.288 55.9628L201.789 39.9585L202.341 26.6289L201.784 13.4086L203.62 -5.31197L202.56 -23.4337L197.779 -35.5388L197.037 -41.8348L197.035 -54.6237L197.683 -58.5642L200.832 -68.767L205.694 -76.3879L208.27 -81.6069L209.567 -91.6382L209.379 -105.091L211.665 -119.217L211.262 -125.171L213.809 -132.389L218.774 -142.643L218.921 -144.32L214.822 -148.907L213.708 -151.569L210.95 -173.718L212.638 -180.268L218.61 -194.945L223.582 -216.489L220.802 -218.811L212.313 -222.852L207.699 -229.188L206.341 -235.85L203.165 -239.628L200.415 -240.707L199.523 -244.809L200.401 -246.87L204.377 -251.542L206.103 -252.039L209.221 -251.835L211.095 -253.678L209.412 -258.727L214.561 -268.152L216.087 -269.026L221.626 -269.088L222.643 -271.018L221.145 -276.395L222.449 -278.972L221.298 -284.967L223.168 -289.417L224.933 -291.377L221.928 -294.793L219.93 -295.353L218.601 -299.52L216.165 -300.29L215.417 -303.237L216.199 -305.352L218.312 -306.132L224.943 -302.614L227.355 -301.971L228.708 -302.38L230.656 -304.886L236.258 -306.78L236.852 -305.827L236.101 -302.468L237.771 -300.698L243.399 -303.695L242.704 -305.084L239.458 -306.493L238.163 -308.868L237.596 -315.152L238.035 -319.078L239.28 -319.935L240.451 -324.172L239.493 -326.018L237.365 -326.109L232.845 -323.532L228.57 -324.232L226.759 -326.041L225.054 -329.511L222.616 -330.85L222.082 -335.011L218.566 -337.643L216.233 -343.29L213.504 -345.523L216.698 -347.419L225.697 -348.939L233.414 -349.389L236.952 -350.725L239.158 -350.015L242.919 -350.826L245.863 -349.237L248.761 -349.836L255.161 -348.601L259.228 -352.02L261.877 -352.867L266.77 -350.497L265.861 -348.357L262.783 -348.629L264.03 -345.371L261.649 -342.454L262.486 -341.543L266.447 -341.554L267.999 -340.739L268.146 -339.604L267.231 -337.165L268.398 -335.665L268.608 -332.557L269.724 -332.304L270.951 -332.853L272.838 -332.317L275.216 -334.056L277.173 -333.667L278.966 -335.355L280.786 -336.016L284.603 -334.96L288.376 -335.78L290.297 -335.105L291.232 -334.068L291.534 -332.024L290.619 -331.074L287.713 -330.321L288.745 -327.742L286.822 -325.181L287.644 -323.413L288.675 -322.395L292.993 -320.717L293.749 -319.982L294.57 -316.798L297.736 -313.673L301.455 -312.576L304.834 -310.665L306.818 -308.679L310.156 -308.003L310.597 -306.325L312.505 -305.383L315.544 -301.002L319.376 -300.305L321.868 -297.501L325.662 -296.261L326.889 -294.754L327.846 -292.814L328.101 -289.65L325.25 -285.209L323.912 -280.549L322.226 -278.227L321.424 -274.626L319.155 -272.109L320.013 -270.461L332.102 -267.345L335.531 -264.021L339.557 -263.972L340.804 -262.369L341.432 -257.472L345.323 -258.825L349.023 -256.667L350.453 -254.048L348.726 -249.178L349.987 -245.122L353.033 -244.513L356.041 -245.75L358.58 -245.556L361.573 -246.67L363.573 -244.641L364.57 -242.035L366.87 -243.474L368.535 -243.152L369.827 -238.111L371.097 -237.187L374.134 -236.424L378.906 -230.358L379.08 -229.188L377.732 -225.108L378.73 -223.422L381.047 -223.349L383.219 -226.158L389.406 -230.656L392.899 -231.056L403.016 -227.639L405.946 -224.368L418.49 -215.726L421.921 -212.495L422.489 -210.418L421.947 -205.348L424.628 -200.339L422.658 -194.672L417.17 -188.329L416.59 -173.617L413.291 -161.883L413.654 -160.4L415.24 -159.612L419.469 -159.372L422.738 -160.297L425.681 -162.493L431.585 -163.408L433.762 -164.696L438.834 -164.248L441.544 -163.433L452.88 -157.692L461.966 -152.151L467.169 -157.206L471.077 -159.436L474.25 -160.342L482.671 -161.045L489.084 -163.055L498.31 -169.364L507.692 -177.081L514.894 -170.111L522.418 -160.598L527.953 -152.7L539.904 -132.956L553.881 -104.864L559.849 -87.3794L566.94 -73.7445L572.037 -56.4822L572.669 -47.6568L572.032 -35.0512L559.584 -10.2669L547.709 -2.94495L505.8 132.568L490.475 179.178L457.647 165.578Z" fill="#FFE6DE" stroke="#A15151" stroke-width="0.5"/>
<path d="M57.5185 -141.107L57.3925 -140.512L58.7105 -139.81L74.6001 -123.699L82.2883 -118.136L83.6978 -115.85L83.147 -109.468L84.005 -104.346L83.5236 -101.657L80.8955 -98.088L79.6649 -89.5784L76.3548 -85.847L75.7423 -82.8531L76.3182 -80.2688L80.9142 -72.9632L82.1934 -68.3161L82.311 -63.556L79.6131 -61.1644L78.0802 -55.5254L76.8864 -53.7519L77.9838 -49.7169L78.2732 -45.752L79.301 -43.8866L83.5582 -42.5473L84.5577 -38.8037L83.2578 -33.9523L76.2012 -27.0507L75.0746 -24.4106L73.1198 -6.9765L73.0668 -1.67954L71.6828 3.67833L72.4364 9.63455L70.7491 17.415L-16.3033 -13.7861L-27.8613 -16.9283L-36.4434 -18.1577L-38.4827 -20.2842L-43.2369 -32.355L-46.4048 -34.4677L-46.4106 -38.3039L-47.8924 -41.0844L-59.7824 -60.3238L-53.5521 -63.6793L-49.4225 -67.8458L-41.7238 -71.8653L-40.9245 -73.1299L-39.4296 -79.7868L-37.9751 -80.4215L-35.1911 -80.3626L-34.0878 -81.1653L-33.4438 -82.1805L-33.4689 -84.1273L-35.4154 -86.0871L-35.1489 -89.1243L-38.4553 -92.6914L-39.8393 -94.8496L-40.1355 -96.5305L-36.1144 -98.0949L-34.8263 -100.952L-33.9839 -101.405L-30.8592 -99.6082L-26.2787 -98.5386L-23.3481 -100.064L-22.658 -102.769L-25.6295 -107.607L-27.5094 -112.246L-27.3463 -113.88L-23.7359 -117.036L-22.8465 -117.287L-21.5449 -116.535L-20.6491 -116.919L-17.7154 -121.276L-13.2499 -125.649L-9.51019 -126.535L-7.12865 -131.768L-2.87667 -136.746L1.44715 -138.086L2.96293 -140.368L4.67697 -141.094L9.45839 -139.317L17.0251 -137.739L20.1256 -135.831L23.2742 -132.325L28.1896 -125.011L29.7047 -123.818L31.731 -127.452L35.4661 -131.109L34.633 -132.795L32.0808 -134.542L31.9972 -136.185L35.4102 -139.335L38.4419 -144.229L41.1461 -145.761L42.6631 -147.805L46.413 -148.607L51.3077 -147.322L54.0451 -142.431L55.0641 -141.569L57.5185 -141.107Z" fill="#FFE6DE" stroke="#A15151" stroke-width="0.5"/>
<path d="M1720.88 600.896L1719.02 595.698L1718.58 584.105L1716.3 578.146L1713.77 577.83L1707.62 567.527L1708.28 564.981L1702.23 560.675L1698.08 559.857L1703.46 557.273L1701.98 553.652L1703.6 550.931L1703.33 543.632L1699.14 541.635L1695.65 533.643L1692.28 530.804L1688.97 524.059L1688.94 518.454L1687.56 517.606L1686.72 519.412L1685.63 518.166L1686.24 512.27L1682.92 514.416L1681.02 513.609L1680.22 512.696L1682.36 511.188L1680.7 507.021L1679.04 510.207L1677.09 509.632L1676.78 504.044L1678.62 502.644L1675.63 495.821L1673.22 494.606L1674.6 491.027L1673.86 488.448L1678.32 483.985L1674.17 478.799L1675.4 476.494L1669.8 478.347L1668.46 474.654L1664.6 476.012L1664.84 472.899L1661.77 472.692L1662.29 469.979L1659.95 469.71L1659.11 466.387L1660.99 458.603L1658.11 458.636L1654.62 448.016L1656.39 442.93L1653.28 442.098L1644.93 427.422L1644.06 423.279L1635.93 412.455L1626.08 405.392L1624.9 402.657L1621.09 402.984L1618.86 405.794L1615.84 406.698L1607.32 404.725L1601.39 391.599L1598.22 387.208L1595.61 386.993L1593.87 380.686L1596.43 381.381L1598.44 384.506L1597.92 381.105L1590.6 375.455L1590.17 369.327L1587.26 366.979L1592.55 364.556L1598.56 358.113L1602.98 356.205L1602.62 351.081L1606.4 346.344L1608.67 345.944L1611.01 349.684L1613.89 350.3L1625.52 341.975L1627.14 336.82L1632.91 333.431L1637.59 332.671L1647.19 334.949L1649.23 337.371L1652.37 337.045L1656.11 333.571L1657.25 329.664L1655.24 327.868L1657.08 326.467L1656.11 322.023L1652.01 317.604L1651.95 314.598L1656.77 308.689L1669.5 308.866L1672.03 314.742L1670.82 318.725L1673.66 323.942L1670.91 328.21L1672.42 334.645L1676.28 335.428L1679.03 338.699L1683.56 338.818L1684.24 335.957L1688.73 333.517L1692.03 336.141L1694.17 334.73L1699.07 338.18L1708.45 335.315L1708.97 334.043L1705.68 330.216L1713.45 324.197L1720.64 315.421L1719.85 311.731L1723.84 309.958L1724.42 313.364L1728.95 309.152L1730.49 310.554L1732.39 308.383L1735.12 310.863L1738.73 311.387L1742.99 310.111L1745.11 306.813L1745.82 321.091L1757.25 326L1755.77 328.948L1757.88 330.577L1756.33 338.275L1758.37 344.116L1764.25 340.97L1768.13 336.333L1777.78 335.661L1781.65 338.131L1783.54 348.382L1788.28 354.652L1794.3 358.824L1791.39 362.038L1790.99 369.704L1794.65 369.897L1800.84 373.287L1807.4 371.595L1815.12 374.006L1822.52 379.967L1828.35 381.256L1831.37 387.018L1829.01 385.571L1824.77 387.973L1827.43 393.628L1824.18 394.294L1825.9 397.444L1831.81 400.873L1835.74 407.223L1832.27 410.711L1833.65 414.134L1836.9 414.648L1835.32 416.95L1836.9 418.522L1834.98 420.858L1839.45 422.3L1842.43 419.576L1846.89 425.788L1857.6 428.849L1857.77 433.031L1860.09 436.19L1857.43 440.373L1858.82 446.476L1862.4 451.629L1866.22 451.884L1868.67 454.277L1867.47 461.388L1864.17 466.751L1859.8 470.33L1861.28 473.608L1860.25 481.459L1861.87 485.441L1855.61 498.439L1860.12 507.061L1861.01 513.584L1879.42 523.237L1881.81 533.067L1885.12 535.938L1888.62 543.229L1886.42 548.508L1889.43 553.173L1888.9 561.269L1891.1 575.077L1893.36 576.126L1897.48 574.833L1900.57 580.712L1903.56 581.115L1907.47 577.545L1915.02 576.811L1923.15 572.788L1926.77 576.23L1923 578.527L1924.02 586.919L1927.51 588.552L1933.94 586.402L1935.56 587.95L1941.48 586.856L1942.91 598.347L1940 595.753L1935.75 595.386L1938.67 603.638L1942.38 601.03L1947.53 600.754L1942.62 608.136L1942.35 613.296L1932.58 620.952L1930.37 620.671L1928.77 617.173L1922.54 620.906L1916.31 620.668L1908.95 626.217L1909.97 630.086L1903.63 629.075L1900.61 631.174L1896.41 636.993L1896.86 640.471L1891.33 644.068L1889.92 647.476L1892.15 659.574L1884.19 669.474L1885.11 673.249L1880.34 672.37L1876.76 673.577L1874.7 668.789L1870.64 667.774L1869.48 669.598L1854.86 676.364L1856.07 686.929L1848.42 690.995L1848.8 699.925L1844.38 708.791L1844.78 714.629L1843.48 717.578L1839.15 712.832L1834.65 710.914L1831.73 704.999L1821.32 701.778L1821.51 698.107L1819.22 695.477L1816.02 694.58L1813.86 691.386L1813.27 686.196L1811.14 684.829L1812.93 682.012L1812.48 679.184L1810.2 670.888L1806.69 665.105L1805.75 656.919L1803.17 654.299L1805.1 650.268L1802.53 632.785L1804.66 625.604L1802.93 616.311L1803.74 611.042L1799.48 606.01L1785.5 598.771L1781.71 594.469L1770.96 591.716L1756.71 592.22L1720.88 600.896Z" fill="#FFE6DE" stroke="#A15151" stroke-width="0.5"/>
<path d="M1923.13 572.834L1915.01 576.857L1907.44 577.598L1903.53 581.168L1900.53 580.75L1897.47 574.878L1893.33 576.179L1891.07 575.13L1888.87 561.322L1889.4 553.227L1886.39 548.562L1888.6 543.297L1885.1 536.006L1881.79 533.135L1879.4 523.305L1860.99 513.652L1860.1 507.129L1855.59 498.507L1861.85 485.509L1860.22 481.535L1861.25 473.661L1859.78 470.398L1864.15 466.819L1867.45 461.456L1868.65 454.345L1866.18 451.945L1862.37 451.682L1858.77 446.537L1857.39 440.434L1860.06 436.265L1857.75 433.099L1857.58 428.917L1869.72 425.328L1869.23 421.076L1867.26 418.92L1869.39 417.755L1869.1 416.094L1864.51 408.997L1863.43 401.04L1864.66 399.631L1860.69 390.453L1862 381.554L1865.24 378.134L1864.63 375.334L1869.85 369.665L1868.74 363.62L1870.02 359.544L1877.66 347.483L1889.91 342.107L1896.85 340.723L1898.86 337.331L1903.09 336.378L1905.04 332.428L1910.59 331.704L1914.33 335.269L1927.63 360.567L1933.92 379.862L1962.92 405.307L1969.06 408.176L1976.58 409.041L1975.63 409.522L1978.63 413.053L1984.55 414.75L1988.58 411.661L1988.14 415.722L1993.89 415.231L2004.65 412.146L2017.85 403.728L2020.29 393.64L2023.95 386.787L2027.97 388.871L2029.93 400.725L2034.25 412.085L2038.72 414.475L2041.04 421.702L2045.85 426.036L2044.58 426.879L2040.66 425.194L2036.45 428.625L2036.74 429.914L2033.85 430.231L2023.91 442.895L2018 452.783L2012.18 473.574L2015.14 477.584L2016.3 484.247L2020.26 484.886L2022.32 492.861L2025.74 493.429L2030.46 504.857L2037.54 509.664L2040.42 514.954L2043.66 514.729L2045.25 517.189L2048.14 518.104L2051.58 527.852L2053.34 528.874L2056.5 527.95L2059.58 532.486L2059.59 544.997L2063.14 558.467L2053.19 565.173L2048.2 566.049L2043.66 572.396L2040.96 569.213L2036.59 567.26L2033.81 569.663L2029.34 569.759L2028.74 566.765L2024.86 563.406L2018.81 562.236L2017.83 560.337L2013.62 560.543L2011.74 557.973L2009.17 557.794L2007.72 554.351L1997.06 557.873L1995.21 556.452L1992.6 561.649L1994.26 567.145L1990.54 568.678L1990.38 571.841L1983.47 569.999L1982.86 566.191L1977.01 568.634L1972.74 567.977L1964.86 561.444L1960.97 564.05L1953.32 565.384L1944.92 562.153L1941.19 558.924L1935.91 559.519L1932.94 556.614L1927.82 560.196L1929.65 567.635L1923.13 572.834Z" fill="#FFE6DE" stroke="#A15151" stroke-width="0.5"/>
<path d="M1656.79 308.733L1653.19 302.984L1648.83 299.545L1651.43 296.342L1651.98 282.333L1658.98 279.223L1669.6 270.857L1664.05 263.34L1659.73 263.811L1658 262.968L1656.68 259.013L1648.22 257.561L1647.47 255.631L1648.33 252.981L1660.62 251.799L1664.29 245.677L1663.68 243.675L1652.58 239.172L1652.87 232.369L1657.64 229.374L1658.06 221.588L1661.8 219.36L1659.2 215.912L1659.52 213.743L1663.11 213.424L1656.82 201.655L1658.19 195.53L1648.4 178.755L1652.96 175.834L1663.03 163.74L1662.38 158.627L1658.95 155.328L1661.88 154.188L1668.35 155.53L1677.68 161.677L1680.43 165.403L1676.89 181.196L1680.11 205.86L1682.01 207.563L1684.96 216.537L1687.3 217.956L1687.99 222.993L1690.12 223.472L1695.06 232.407L1703.63 240.753L1714.54 246.247L1723.32 246.882L1730.13 245.659L1732.08 242.112L1731.95 244.215L1733.08 244.093L1733.77 243.031L1738.09 241.881L1737.09 240.825L1739.53 242.084L1748.59 236.692L1757.32 233.992L1761.98 229.806L1782.34 233.575L1792.48 230.945L1794.42 239.918L1801.59 251.567L1820.5 258.313L1827.59 263.149L1832.64 262.585L1838.29 271.533L1852.83 285.046L1860.53 287.159L1867.28 294.463L1879.58 299.484L1884.6 308.491L1894.69 313.865L1896.74 317.421L1897.61 315.159L1897.84 321.645L1896.45 321.298L1896.7 322.969L1899.82 329.265L1905.04 332.428L1903.09 336.378L1898.86 337.331L1896.85 340.723L1889.91 342.107L1877.66 347.483L1870.02 359.544L1868.74 363.62L1869.85 369.665L1864.63 375.334L1865.24 378.134L1862 381.554L1860.69 390.453L1864.66 399.631L1863.43 401.04L1864.51 408.997L1869.1 416.094L1869.39 417.755L1867.26 418.92L1869.23 421.076L1869.72 425.328L1857.58 428.917L1846.87 425.856L1842.38 419.637L1839.4 422.361L1834.95 420.912L1836.87 418.575L1835.29 417.003L1836.87 414.701L1833.64 414.179L1832.25 410.756L1835.73 407.268L1831.78 400.926L1825.86 397.482L1824.16 394.347L1827.41 393.659L1824.75 388.003L1828.99 385.601L1831.35 387.049L1828.33 381.287L1822.5 379.997L1815.09 374.037L1807.4 371.618L1800.83 373.309L1794.64 369.92L1790.98 369.726L1791.39 362.06L1794.28 358.832L1788.27 354.659L1783.53 348.39L1781.64 338.154L1777.75 335.692L1768.11 336.364L1764.24 341.015L1758.36 344.161L1756.32 338.32L1757.86 330.622L1755.77 328.97L1757.25 326.037L1745.82 321.128L1745.11 306.85L1742.98 310.156L1738.72 311.432L1735.12 310.9L1732.39 308.42L1730.49 310.592L1728.94 309.198L1724.41 313.409L1723.83 310.003L1719.84 311.777L1720.64 315.459L1713.45 324.234L1705.68 330.253L1708.98 334.08L1708.45 335.352L1699.08 338.232L1694.18 334.782L1692.04 336.193L1688.75 333.56L1684.27 336.001L1683.6 338.853L1679.05 338.743L1676.3 335.472L1672.44 334.689L1670.93 328.254L1673.68 323.985L1670.84 318.769L1672.05 314.786L1669.52 308.909L1656.79 308.733Z" fill="#FFE6DE" stroke="#A15151" stroke-width="0.5"/>
<path d="M1175 76.8576L1183.45 77.8248L1187.53 75.1443L1190.2 76.5819L1196.83 72.0808L1198.29 73.3137L1200.88 71.8128L1202.01 73.1318L1205.67 73.0192L1212.54 82.9398L1215.94 83.0826L1219.89 89.88L1225.05 90.7525L1225.54 93.124L1229.04 93.6144L1237.14 103.47L1257.85 113.012L1262.09 110.856L1263.93 113.33L1266.42 113.326L1277.82 110.062L1280.64 113.45L1292.52 117.313L1299.47 124.051L1338.13 137.043L1353.79 150.532L1365.07 156.969L1375.19 165.418L1400.27 178.585L1435.48 187.548L1440.9 184.597L1446.37 184.944L1449.77 182.601L1457.89 183.595L1471.89 201.649L1471.73 209.03L1475.98 212.928L1477.41 216.671L1485.87 221.848L1494.21 224.357L1507.97 223.474L1512.61 224.977L1526.99 225.483L1541.28 217.364L1545.64 217.234L1550.7 214.423L1560.86 202.983L1564.74 201.668L1567.32 198.272L1566.2 195.101L1575.21 182.544L1574.78 178.312L1573.37 177.599L1574.76 176.14L1575.6 179.007L1576.68 176.424L1574.89 174.359L1576.75 173.197L1576.21 171.991L1581.86 167.472L1591.1 148.936L1590.97 144.028L1595.01 133.13L1594.71 128.132L1601.11 112.374L1605.01 108.222L1604.59 103.586L1607.27 103.418L1609.21 101.223L1613.5 91.4809L1617.05 94.0148L1617.99 93.1982L1619.47 89.3545L1622.76 87.4108L1623.34 84.509L1621.72 83.6102L1623.6 81.6334L1626.48 81.1672L1627.07 83.9237L1624.75 84.4449L1624.55 87.0795L1629.29 89.2138L1627.43 96.1314L1629.81 107.597L1628.53 114.905L1629.98 118.236L1632.52 119.342L1633.37 125.889L1636.05 127.356L1634.56 129.512L1636.43 132.277L1635.74 133.547L1638.73 135.735L1639.34 138.08L1642.54 137.08L1643.06 140.272L1658.04 155.464L1658.89 155.248L1662.32 158.547L1662.99 163.652L1652.91 175.746L1648.36 178.681L1658.15 195.457L1656.78 201.582L1663.07 213.351L1659.5 213.662L1659.18 215.831L1661.77 219.278L1658.03 221.507L1657.61 229.292L1652.84 232.288L1652.56 239.091L1663.64 243.579L1664.26 245.581L1660.58 251.703L1648.29 252.885L1647.44 255.535L1648.18 257.465L1656.65 258.917L1657.95 262.88L1659.68 263.723L1664.02 263.244L1669.56 270.769L1658.93 279.135L1651.93 282.245L1651.39 296.253L1648.78 299.457L1653.14 302.896L1656.74 308.631L1651.92 314.539L1651.98 317.545L1656.07 321.964L1657.05 326.409L1655.21 327.809L1657.21 329.605L1656.07 333.512L1652.34 336.986L1649.2 337.312L1647.16 334.89L1637.56 332.612L1632.88 333.372L1627.11 336.761L1625.49 341.916L1613.86 350.242L1610.98 349.625L1608.64 345.885L1606.37 346.285L1602.59 351.023L1602.94 356.146L1598.53 358.054L1592.52 364.497L1587.23 366.921L1583.33 373.014L1582.19 372.8L1579.59 369.143L1562.41 358.417L1556.97 352.53L1551.71 352.012L1550.81 347.676L1543.12 339.785L1539.1 340.433L1536.24 337.412L1532.68 338.648L1534.88 342.028L1534.12 345.667L1529.91 349.405L1526.92 349.039L1525.3 347.184L1525.73 345.072L1521.82 343.573L1521.96 341.709L1517.93 339.08L1507.84 334.58L1504.59 334.961L1501.81 331.311L1498.02 330.488L1496.11 328.106L1493.01 328.296L1491.18 325.508L1485.42 322.738L1482.7 318.749L1479.28 317.137L1476.67 310.009L1471.92 304.941L1470.72 299.19L1463.24 286.91L1453.44 277.487L1447.94 275.619L1446.75 271.405L1444.42 270.792L1440.24 265.563L1437.8 265.999L1435 260.177L1430.26 256.945L1426.87 256.511L1425.23 251.38L1421.11 247.261L1414.51 245.043L1408.86 238.222L1399.03 233.982L1399.01 231.713L1393.79 227.602L1388.43 226.893L1387.5 224.418L1382.18 221.445L1375.8 219.995L1374.94 216.532L1361.92 204.989L1348.6 204.431L1344.22 201.747L1339.35 202.648L1333.74 198.596L1326.83 200.86L1324.24 199.898L1322.83 196.975L1323.72 192.809L1320.98 187.992L1317.77 187.462L1319.5 183.938L1315.54 182.71L1317.04 181.195L1315.35 177.992L1310.42 174.618L1304.75 174.263L1302.44 169.461L1299.31 169.077L1300.02 167.701L1298.41 166.302L1294.41 165.307L1295.59 163.922L1294.01 160.453L1284.22 156.532L1280.22 152.991L1272.84 153.629L1273.09 150.075L1266.06 147.878L1259.91 150.885L1257.46 147.394L1256.12 147.725L1253.98 143.231L1250.08 143.113L1245.67 139.489L1242.15 135.499L1243.5 133.817L1240.78 130.038L1236.63 129.921L1235.56 127.614L1233.16 128.22L1232.22 126.491L1224.75 123.512L1221.31 117.973L1222.55 116.101L1221.49 114.04L1214.01 108.919L1212.48 104.777L1205.04 101.968L1201.33 103.531L1199.74 101.511L1202.12 98.8301L1199.97 94.8887L1195.14 93.8327L1193.66 91.4657L1192.68 92.5525L1188.92 90.668L1187.51 91.5308L1182.78 87.5526L1175 76.8576Z" fill="#FFE6DE" stroke="#A15151" stroke-width="0.5"/>
<path d="M1844.89 720.836L1843.48 717.578L1844.78 714.629L1844.38 708.79L1848.8 699.925L1848.42 690.995L1856.07 686.929L1854.86 676.363L1869.48 669.598L1870.61 667.79L1874.67 668.805L1876.73 673.593L1880.31 672.386L1885.08 673.265L1884.16 669.489L1892.13 659.59L1889.89 647.492L1891.3 644.084L1896.83 640.487L1896.38 637.009L1900.58 631.189L1903.6 629.091L1909.94 630.102L1908.92 626.233L1916.28 620.684L1922.51 620.922L1928.74 617.189L1930.34 620.687L1932.55 620.968L1942.32 613.312L1942.59 608.152L1947.5 600.769L1942.35 601.046L1938.64 603.653L1935.72 595.402L1939.97 595.769L1942.88 598.362L1941.45 586.871L1935.53 587.966L1933.91 586.417L1927.48 588.567L1923.99 586.935L1922.98 578.542L1926.74 576.246L1923.12 572.804L1929.64 567.62L1927.81 560.167L1932.91 556.592L1935.88 559.497L1941.16 558.903L1944.9 562.124L1953.29 565.363L1960.94 564.028L1964.82 561.422L1972.71 567.956L1976.98 568.613L1982.82 566.178L1983.43 569.963L1990.35 571.82L1990.5 568.665L1994.23 567.123L1992.57 561.627L1995.16 556.439L1997.02 557.859L2007.67 554.338L2009.12 557.766L2011.7 557.96L2013.56 560.515L2017.78 560.308L2018.76 562.208L2024.81 563.378L2028.69 566.736L2029.29 569.731L2033.76 569.635L2036.53 567.232L2040.9 569.185L2043.61 572.382L2048.15 566.036L2053.15 565.16L2063.09 558.453L2063.03 565.935L2065.99 574.805L2063.65 586.51L2065.37 593.661L2064.13 604.521L2065.89 606.333L2066.14 610.773L2069.09 613.537L2067.78 621.944L2073.98 628.804L2072.38 633.496L2073.75 635.919L2071.21 641.084L2069.25 654.171L2071.74 659.862L2070.05 661.182L2069.66 665.765L2066.07 672.332L2068.54 674.119L2069.7 678.065L2062.93 678.466L2055.41 685.334L2054.56 689.328L2041.98 696.328L2040.49 700.463L2039.4 699.575L2038.58 701.067L2036.07 700.893L2032.74 703.943L2030.76 708.402L2033.24 713.317L2031.03 713.476L2030.13 715.806L2032.84 717.22L2030.42 719.185L2033.19 723.732L2027.19 729.98L2026.86 734.247L2023.77 736.422L2020.01 746.37L2018.74 747.459L2013.42 745.532L2006.58 749.159L1998.62 759.895L1999.52 764.567L1995.63 766.628L1995.07 763.609L1991.25 763.257L1989.03 766.612L1982.96 767.772L1979.91 770.722L1976.1 771.504L1969.77 783.84L1971.43 786.015L1969.14 786.804L1964.92 794.266L1965.31 796.298L1962.56 796.595L1960.53 800.742L1957.37 801.509L1950.86 807.335L1945.22 808.069L1941.26 810.469L1938.9 810.006L1935.99 811.779L1934.8 810.246L1931.14 809.843L1934.22 799.524L1935.69 799.772L1937.51 796.901L1940.05 774.911L1943.04 766.976L1941.81 757.747L1938.12 748.723L1928.95 738.652L1917.94 732.168L1904.77 727.409L1883.3 725.835L1863.97 727.965L1863.34 726.464L1856.4 723.936L1844.43 725.077L1842.68 723.638L1844.89 720.836Z" fill="#FFE6DE" stroke="#A15151" stroke-width="0.5"/>
<path d="M1661.9 634.879L1661.48 625.615L1659.33 619.128L1662.92 603.214L1661.2 602.401L1657.64 590.835L1655.05 589.171L1656.09 579.96L1654.25 572.91L1647.98 560.177L1642.41 557.4L1637.72 557.272L1639.13 554.416L1635.87 549.64L1637.19 546.832L1634.46 532.363L1632.03 526.431L1625.89 523.958L1623.79 520.089L1622.26 501.794L1618.79 497.966L1616.23 497.727L1615.43 489.558L1610.93 485.4L1611.02 478.343L1607.2 471.78L1605.37 467.663L1604.88 459.192L1600.83 454.638L1600.3 450.006L1596.81 448.47L1597.66 445.574L1596.22 444.915L1593.61 436.556L1591.6 435.655L1592.35 433.367L1590.07 428.982L1586.22 426.37L1582.96 418.951L1579.91 416.146L1580.52 412.586L1578.37 408.287L1574.87 405.863L1574.89 404.22L1572.68 403.976L1568.41 397.354L1560.89 391.764L1560.5 388.254L1553.73 378.621L1541.72 367.23L1538.69 366.545L1540.02 363.087L1532.75 355.173L1533.52 353.25L1529.99 349.454L1534.21 345.717L1534.96 342.077L1532.76 338.698L1536.32 337.461L1539.18 340.482L1543.2 339.834L1550.89 347.726L1551.79 352.061L1557.05 352.58L1562.5 358.466L1579.67 369.192L1582.27 372.849L1583.41 373.063L1587.32 366.97L1590.23 369.317L1590.66 375.446L1597.97 381.096L1598.49 384.497L1596.48 381.371L1593.92 380.677L1595.66 386.984L1598.27 387.199L1601.44 391.59L1607.37 404.716L1615.89 406.688L1618.91 405.784L1621.14 402.974L1624.95 402.647L1626.14 405.383L1635.98 412.445L1644.12 423.27L1644.98 427.412L1653.33 442.089L1656.45 442.921L1654.67 448.006L1658.16 458.627L1661.04 458.594L1659.17 466.378L1660.01 469.7L1662.34 469.97L1661.82 472.683L1664.89 472.889L1664.65 476.003L1668.51 474.644L1669.85 478.337L1675.46 476.485L1674.22 478.79L1678.37 483.975L1673.91 488.438L1674.65 491.018L1673.27 494.596L1675.68 495.811L1678.67 502.635L1676.83 504.035L1677.14 509.623L1679.09 510.197L1680.75 507.011L1682.41 511.179L1680.27 512.687L1681.07 513.599L1682.97 514.406L1686.29 512.26L1685.68 518.157L1686.78 519.402L1687.62 517.596L1688.99 518.444L1689.02 524.049L1691.1 526.201L1690.98 528.304L1695.7 533.633L1699.2 541.626L1703.38 543.622L1703.65 550.921L1702.03 553.642L1703.51 557.264L1698.14 559.847L1702.29 560.666L1708.33 564.971L1707.67 567.518L1713.83 577.821L1716.35 578.136L1718.63 584.096L1719.07 595.689L1720.93 600.887L1703.13 608.942L1697.07 614.521L1687.03 619.797L1684.85 621.934L1685.74 625.135L1682.4 628.7L1661.49 640.783L1661.9 634.879Z" fill="#FFE6DE" stroke="#A15151" stroke-width="0.5"/>
</g>
<defs>
<clipPath id="clip0">
<rect width="1920" height="1080" fill="white"/>
</clipPath>
</defs>
</svg>
