<svg width="387" height="230" viewBox="0 0 387 230" fill="none" xmlns="http://www.w3.org/2000/svg">
<path d="M111.752 88.0414L113.826 88.3649L117.778 90.3249L120.182 90.6484L120.747 89.8619L125.308 89.6779L126.037 90.363L128.574 89.1261L129.602 87.8891L129.488 90.1537L130.966 90.3186L131.581 91.3525L134.068 92.5894L135.495 91.5555L138.8 91.841L140.36 91.232L143.214 91.3525L145.092 92.3611L145.625 92.0566L145.174 91.4477L145.79 91.3081L147.648 92.5831L147.534 91.0861L148.149 90.5977L148.6 90.4962L148.714 91.4857L150.408 91.6887L149.646 90.5533L150.192 90.0078L152.114 90.9212L152.247 91.7902L155.07 92.0312L155.913 91.4477L156.859 92.5577L157.854 92.7797L158.533 95.0823L161.02 94.6383L161.565 95.4693L161.965 93.2618L163.443 93.4838L163.69 91.9488L164.686 92.5958L165.314 91.6063L166.126 92.2723L166.64 91.5428L167.902 91.8663L170.16 93.9088L170.674 92.9383L174.854 93.7059L176.231 95.2219L177.074 94.3338L183.494 94.2133L185.035 94.6764L190.129 93.9279L194.277 91.9234L195.406 92.0249L195.99 90.6928L195.457 89.4369L195.704 88.2634L197.912 85.7769L203.373 86.1828L205.416 85.9228L205.961 85.0918L208.384 85.6563L207.687 86.3858L206.278 86.4873L207.509 86.9313L210.725 85.5168L212.85 86.4873L214.163 85.9418L214.011 88.1492L215.07 91.3272L214.905 93.1476L216.681 93.9596L217.576 96.0845L217.297 96.9155L215.622 97.017L214.892 97.867L215.559 103.265L216.986 104.743L217.068 107.287L216.472 108.987L213.966 111.778L212.787 112.019L212.323 113.129L212.806 115.006L213.903 116.097L214.867 115.755L215 116.624L216.662 117.106L218.882 116.541L219.897 117.068L220.995 119.751L218.622 123.969L216.199 123.747L215.089 122.618H212.831L211.905 120.924L209.482 120.258L208.518 121.407L206.925 121.73L206.063 123.221L206.894 123.969V125.91L205.416 126.538L205.498 127.509L203.456 128.517L202.707 132.171L203.037 132.577L204.915 132.171L205.511 135.863L207.135 139.859L208.511 140.265L208.378 141.92L207.135 141.495L207.718 143.773L206.97 144.033L207.35 145.06L206.025 145.523L205.194 146.633L204.845 148.289L205.562 149.596L200.665 147.236L196.948 150.16L196.231 149.133L195.305 149.539L193.015 147.623L190.693 147.242L190.674 149.78L191.518 151.917L189.989 155.26L188.46 156.104L184.693 154.873L181.737 155.317L179.25 156.567L178.705 155.013L176.218 153.484L175.489 154.67L173.23 156.123L172.602 158.622L170.395 160.76L167.058 162.149L165.568 163.862L163.094 163.823L164.007 163.297L163.976 161.445L161.603 161.305L161.971 160.1H160.607L158.387 161.451L155.552 161.61L155.019 159.815L153.624 159.656L152.862 160.646L152.38 159.7L151.568 159.941L151.137 158.876L149.843 160.106L150.211 161.597L147.325 161.959L144.356 164.978L142.929 164.274L141.451 164.477L140.538 162.828L138.248 162.181L135.875 162.441L135.095 163.671L133.852 164.052L131.695 162.358L130.503 160.284L130.103 158.172L128.739 158.07L126.303 156.3L124.68 156.117L121.476 151.664L117.778 151.6L115.438 150.712L108.866 155.108L105.149 154.118L103.588 154.702L100.518 154.543L99.1546 152.85L97.0487 153.008L94.4416 151.359L89.4305 149.583L88.6693 150.148L88.3521 151.759L85.8275 151.721L85.1488 152.647L85.6309 154.6L84.5018 157.258L84.3686 160.703L82.5608 161.286L82.4783 159.612L79.4907 158.425L78.3109 159.294L77.8605 161.832L77.0486 162.092L76.3381 164.267L72.2404 162.656L73.6359 162.155L74.5303 160.804L71.2445 160.278L71.4412 161.99L70.5975 163.76L69.0244 160.779L67.3498 159.751L66.5696 155.095L67.0644 154.41L68.5233 154.512L68.4091 151.752L69.6207 149.716L69.1069 146.247L67.6289 145.885L69.1196 143.95L68.9673 142.561L67.7875 140.1L66.5442 139.618L66.3476 137.119L65.4659 136.028L61.0193 134.575L59.1608 130.116L57.7336 129.735L58.8944 128.302L59.1417 126.887L61.1145 127.071L62.1928 125.898L61.7932 125.181L62.1928 119.066L58.444 117.55L58.4757 114.258L55.4246 112.761L53.2679 109.672L51.2445 108.746L50.496 107.775L52.8683 107.191L54.3273 106.037L56.8328 106.138L59.8014 103.246L60.994 103.975L62.288 103.69L63.1697 102.783L64.6286 102.643L66.4681 103.392L67.3118 102.929L67.9271 104.039L68.9547 104.4L72.1389 105.149L74.7079 105.028L77.6131 106.202L78.9579 105.815L79.9538 107.191L86.2589 109.513L88.2697 111.53L91.6887 112.64L93.2998 113.871L95.7546 113.363L100.715 110.008L102.84 109.526L105.713 106.437L108.137 101.584L111.752 88.0414Z" fill="#FF9372" stroke="white" stroke-width="0.5"/>
<path d="M84.3559 160.69L84.4891 157.245L85.6182 154.581L85.1361 152.628L85.8212 151.701L88.3394 151.746L88.6566 150.128L89.4178 149.564L94.4289 151.34L97.0359 152.989L99.1419 152.831L100.499 154.524L103.569 154.683L105.13 154.099L108.847 155.089L115.419 150.693L117.759 151.581L121.457 151.644L124.661 156.097L126.284 156.275L128.727 158.051L130.084 158.153L130.484 160.265L131.676 162.339L133.833 164.033L135.082 163.646L135.863 162.421L138.235 162.155L140.525 162.802L141.432 164.451L142.91 164.255L144.337 164.959L143.329 169.665L144.838 170.274L145.917 170.008V170.934L146.526 171.137L149.729 170.896L152.583 171.981L152.831 172.647L156.618 172.989L159.351 175.044L159.903 176.751L160.95 177.055L161.895 179.827L164.115 180.557L165.244 181.724L167.883 186.469L167.452 191.537L166.652 194.106L167.42 195.393L166.97 196.979L167.934 198.349L167.166 200.335L165.295 200.937L154.429 200.779L146.843 199.371L133.072 204.432L130.997 205.961L129.342 208.314L129.354 207.909L127.629 208.27L125.986 209.938L126.284 211.848L125.009 210.96L124.128 212.97L123.202 217.125L123.614 223.062L126.538 225.714L128.162 228.181L126.735 229.146L122.421 227.642L117.842 227.021L116.23 228.08L113.395 227.541L111.073 228.359L111.023 227.782L112.298 226.78L111.917 224.75L111.435 224.61L111.854 223.589L109.431 217.969L107.204 214.195L101.318 208.473L99.44 208.733L97.0042 207.909L96.0718 209.114L93.0334 208.353L92.2215 209.393L87.5465 208.892L84.654 210.382H82.3641L81.8503 211.505L80.7403 211.588L79.9093 212.387L76.0273 211.765L75.3676 212.165L75.1012 213.389L73.027 213.592L68.8468 211.321L63.7025 210.059L63.2711 205.517L63.8864 203.69L62.5924 201.02L64.1465 200.696L65.5927 199.593L65.2946 198.229L66.0748 196.719L67.1849 197.062L69.0117 196.377L70.5024 194.569L71.3143 194.588L72.012 193.142L73.2109 192.983L73.7374 192.158L75.1519 192.298L75.9131 188.099L76.725 187.737L75.4627 185.923L73.3251 185.479L73.49 183.957L72.4624 183.329L74.3337 181.356L75.7165 181.844L75.9639 179.447L76.9597 178.14L80.5754 176.694L80.4104 174.924L81.3556 172.127L83.9626 169.906L85.7197 169.247L86.4809 167.376L87.9905 166.912L87.7241 164.553L84.9078 163.811L84.3559 160.69Z" fill="#FF9372" stroke="white" stroke-width="0.5"/>
<path d="M220.975 119.751L223.551 119.592L225.492 118.761L226.088 120.214L230.668 122.942L230.433 125.847L231.296 130.915L234.816 130.426L235.444 128.898L236.041 128.473L237.601 128.752L239.624 126.189L240.405 126.291L241.134 127.058L239.295 131.378L240.671 133.719L241.451 133.877L244.972 130.991L247.192 132.323L247.325 134.461L249.85 136.015L249.913 137.67L251.537 137.429L252.203 137.93L251.658 139.186L256.732 139.224L258.527 140.798L265.911 140.576L266.057 142.631L268.264 148.194L270.091 148.904L271.816 148.359L271.664 149.545L270.04 151.46L266.291 153.459L264.547 153.7L259.916 149.646L251.093 146.24L250.18 146.564L246.646 145.917L245.746 146.443L243.938 145.758L243.392 146.38L239.51 146.405L235.165 147.75L231.347 150.395L229.539 153.211L228.708 155.71L229.539 157.004L228.86 156.579L228.695 156.979L228.924 157.404L228.524 159.053L229.057 158.914L228.194 159.497L228.346 163.506L227.661 166.913L228.213 169.228L223.253 175.343L222.289 179.206L218.939 178.222L213.744 178.502L208.054 183.589L205.149 185.079L204.42 186.868L200.405 187.128L193.249 189.526L191.143 191.714L187.477 192.641L183.563 195.837L179.643 195.876L176.015 198.267L174.455 198.305L175.051 199.009L172.843 197.905L173.211 197.506L172.609 197.284L169.938 197.182L167.934 198.349L166.97 196.979L167.42 195.393L166.652 194.106L167.452 191.537L167.883 186.469L165.244 181.724L164.115 180.557L161.895 179.827L160.95 177.055L159.903 176.751L159.351 175.044L156.617 172.989L152.831 172.647L152.583 171.981L149.729 170.896L146.525 171.137L145.917 170.934V170.008L144.838 170.274L143.328 169.665L144.337 164.959L147.306 161.939L150.198 161.572L149.83 160.081L151.124 158.857L151.556 159.922L152.368 159.681L152.85 160.626L153.611 159.643L155.006 159.802L155.539 161.597L158.375 161.432L160.601 160.081H161.958L161.597 161.292L163.969 161.432L164.001 163.284L163.088 163.811L165.561 163.849L167.052 162.136L170.389 160.747L172.596 158.616L173.224 156.116L175.482 154.664L176.212 153.478L178.698 155.006L179.25 156.56L181.737 155.311L184.692 154.867L188.454 156.097L189.983 155.247L191.511 151.905L190.661 149.767L190.68 147.23L193.002 147.61L195.292 149.526L196.224 149.126L196.935 150.154L200.652 147.23L205.549 149.589L204.832 148.276L205.181 146.621L206.012 145.517L207.338 145.054L206.957 144.026L207.706 143.76L207.122 141.483L208.365 141.908L208.498 140.252L207.122 139.852L205.498 135.856L204.902 132.165L203.024 132.57L202.694 132.165L203.437 128.511L205.479 127.502L205.397 126.532L206.875 125.91V123.969L206.044 123.227L206.906 121.73L208.498 121.406L209.463 120.258L211.886 120.924L212.812 122.618H215.07L216.18 123.747L218.603 123.969L220.975 119.751Z" fill="#FF9372" stroke="white" stroke-width="0.5"/>
<path d="M386 1L384.141 3.64511L384.294 5.49732L383.329 6.1253L383.628 9.15734L382.949 9.42376L382.981 10.5592L382.334 10.6987L381.706 11.942L377.145 12.4304L376.479 13.5405L373.491 13.6229L372.261 15.1897L371.379 14.9233L370.58 16.0016L365.816 16.9151L358.864 22.0975L358.813 23.9053L357.652 24.0702L357.202 24.9011L356.219 29.3033L354.576 29.6268L351.125 32.8936L347.611 33.9909L336.244 44.5397L328.892 47.318L324.693 49.9123L320.031 51.7582L311.074 57.7398L301.68 67.8699V70.2169L300.57 71.9803L300.735 73.5407L298.927 76.0717L290.351 77.4672L287.915 76.0717L285.841 76.7821L284.331 76.5791L281.065 78.463L278.711 80.791L276.504 85.5484L275.159 86.8234L272.374 91.5364L272.489 97.7844L271.74 99.2624L271.759 101.463L273.732 106.938L273.465 108.473L274.131 109.951L275.394 110.154L277.95 115.444L279.441 116.072L279.935 115.729L280.17 116.459L279.06 116.218L279.726 117.049L280.741 116.827L280.792 117.658L281.293 117.696L281.775 120.404L286.285 126.862L287.947 127.712L290.852 131.042L292.577 131.847L296.675 136.852L297.354 138.907L298.978 139.611L298.546 140.538L298.927 141.584L301.401 144.787L299.91 145.511L300.012 145.974L301.027 147.166L301.077 148.619L301.94 149.342L302.536 148.961L302.853 149.951L302.486 150.997L301.458 150.693L301.705 149.824L300.862 149.278L299.289 150.471L297.316 148.593L293.053 147.306L290.846 145.549L289.469 145.428L288.638 146.075L286.298 145.168L285.321 145.796L284.87 144.908L283.608 145.028L283.31 144.565L282.035 145.168L281.141 144.946L280.893 146.196L279.732 145.79L271.937 148.029L271.854 148.352L270.129 148.898L268.302 148.194L266.095 142.631L265.942 140.576L258.559 140.798L256.764 139.224L251.689 139.186L252.235 137.937L251.569 137.436L249.945 137.677L249.881 136.021L247.357 134.467L247.224 132.329L245.004 130.997L241.489 133.883L240.709 133.725L239.333 131.384L241.172 127.065L240.443 126.297L239.663 126.196L237.639 128.758L236.079 128.473L235.482 128.898L234.854 130.433L231.334 130.915L230.471 125.847L230.706 122.941L226.126 120.214L225.53 118.761L223.589 119.592L221.02 119.751L219.923 117.068L218.908 116.541L216.687 117.106L215.026 116.624L214.892 115.755L213.928 116.097L212.831 115.006L212.349 113.129L212.812 112.019L213.992 111.777L216.497 108.986L217.093 107.286L217.011 104.743L215.584 103.265L214.918 97.8669L215.647 97.0169L217.322 96.9154L217.601 96.0844L216.707 93.9595L214.93 93.1475L215.095 91.327L214.036 88.1491L214.188 85.9417L212.863 83.5313L213.142 83.1887L214.835 82.9857L221.54 79.1989L224.496 78.4504L225.625 76.7884L227.236 77.2769L231.27 76.1414L231.784 74.6825L233.313 74.2765L233.548 72.862L232.019 72.9825L230.941 72.0691L230.459 69.9822L231.125 69.0498L232.038 68.8468L232.666 69.3732L233.878 68.3393L234.474 68.7262L236.085 67.8572L239.421 65.3073L239.885 64.1528L241.61 63.8864L242.574 62.77L243.716 62.567L244.217 61.495L245.479 61.3935L247.452 59.9726L249.279 59.7887L250.44 58.9387L253.294 59.3637L255.85 58.6977L257.988 59.3447L263.45 59.0783L268.378 57.5178L270.002 56.0208L271.626 56.3887L272.254 55.7227L274.759 55.2787L275.058 54.3843L277.512 54.5048L279.453 53.5089L280.215 52.456L282.225 52.8429L284.35 52.2149L286.291 50.4135L289.596 49.7664L292.799 47.2545L293.561 47.6605L295.882 46.6646L297.094 45.0027L298.09 45.1423L300.05 43.9053L301.693 42.0404L303.006 42.383L309.228 40.1311L311.835 35.7861L313.529 34.8092L314.113 33.0204L316.485 31.885L316.986 29.1638L317.779 28.4724L319.01 28.5358L320.24 29.5888L322.346 29.5507L323.107 28.5739L323.97 29.7917L325.099 28.6944L325.334 29.4682L326.71 29.4873L328.734 28.4533L329.882 26.6265L331.905 26.728L332.603 25.7511L332.933 26.2396L333.694 25.9541L334.753 24.7997L335.001 25.4467L336.447 25.5481L339.536 22.9918L341.445 22.3004L342.574 19.7188L343.716 20.4482L345.727 18.5009L345.841 15.9002L347.452 15.7162L347.586 15.2087L349.476 15.3102L350.224 14.0289L352.235 13.217L354.208 12.7666L354.525 13.5215L356.282 13.2994L357.075 11.9357L358.039 11.9991L358.274 11.0857H359.022L361.376 9.13197L363.85 8.99242L364.249 9.74726L365.131 9.76629L368.201 8.19952L369.863 8.44056L372.153 6.46783L372.305 4.94546L373.269 4.78054L373.732 6.06187H375.439L376.669 4.64099L377.728 4.57756L377.544 4.05107L378.858 3.13766L378.826 2.50968L381.014 1.65335L386 1Z" fill="#FF9372" stroke="white" stroke-width="0.5"/>
<path d="M49.1512 107.655L50.4959 107.775L51.2444 108.746L53.2679 109.672L55.4246 112.761L58.4757 114.258L58.4439 117.55L62.1928 119.066L61.7931 125.181L62.1928 125.885L61.1144 127.058L59.1417 126.874L58.8943 128.289L57.7335 129.722L59.1607 130.103L61.0193 134.562L65.4659 136.015L66.3476 137.106L66.5442 139.605L67.7875 140.087L68.9673 142.548L69.1195 143.938L67.6289 145.872L69.1068 146.234L69.6206 149.704L68.4091 151.74L68.5233 154.499L67.0643 154.397L66.5696 155.083L67.3498 159.738L69.0244 160.766L70.5975 163.747L71.4411 161.978L71.2445 160.265L74.5303 160.791L73.6359 162.143L72.2404 162.644L76.3381 164.255L77.0485 162.079L77.8605 161.819L78.3108 159.282L79.4906 158.413L82.4783 159.599L82.5608 161.274L84.3686 160.69L84.9141 163.811L87.7368 164.553L88.0032 166.906L86.4935 167.369L85.7324 169.241L83.9753 169.907L81.3682 172.12L80.4231 174.918L80.588 176.687L76.9724 178.134L75.9765 179.44L75.7291 181.832L74.3527 181.35L72.4751 183.322L73.5027 183.944L73.3378 185.473L75.4754 185.917L76.7377 187.725L75.9258 188.086L75.1646 192.285L73.7564 192.146L73.2236 192.97L72.0311 193.129L71.3333 194.575L70.5214 194.556L69.0307 196.364L67.2039 197.049L66.0938 196.707L65.3136 198.216L65.6117 199.58L64.1655 200.684L62.6051 201.007L63.8991 203.678L63.2838 205.505L63.7151 210.046L61.2286 208.663L57.7272 208.042L54.2447 205.13L51.5425 204.407L48.1426 202.016L47.2165 202.276L45.6878 201.553L44.2289 202.035L41.6599 200.068L38.2409 200.893L36.9659 199.504L35.9066 199.523L34.6443 197.734L30.629 194.702L28.2757 194.499L28.1425 193.694L26.6836 192.729L25.1422 190.338L24.0956 190.839L22.5669 190.509L23.6642 188.175L22.7381 184.413L21.5583 183.405L21.5075 177.931L20.3975 176.681L20.8922 176.478L20.5434 175.933L21.0572 175.127L20.6449 173.459L19.5158 171.987L17.4225 171.924L17.7714 171.156L17.1561 170.433L16.1919 171.08L15.9763 169.913L13.9528 170.014L12.9569 166.875L11.5931 165.986L11.4282 164.559L8.78944 161.496L8.65623 160.874L10.2674 159.447L10.2991 156.503L8.16146 151.892L6.43611 151.346L6.45514 149.672L7.5652 150.033L8.37713 148.822L7.66035 147.471L8.37713 145.232L7.94579 143.678L8.37713 142.263L5.40852 137.905L4.38092 138.064L4.53316 137.157L2.80781 134.391L2.05931 134.15L2.45893 133.18L1.44402 131.746L1.76118 130.553L1 127.318L1.78021 125.301L1.69775 123.544L2.28132 122.84L2.21789 121.546L2.94736 121.426L3.7466 120.277L6.63275 123.183L6.28388 123.627L6.91185 124.756L13.7942 129.602L15.9002 132.044L19.205 133.313L22.8904 133.719L27.9205 132.488L32.088 129.989L36.0715 126.456L40.4991 119.573L43.3027 112.729L43.918 112.793L46.024 110.934L47.8191 106.728L48.6183 106.405L49.1512 107.655Z" fill="#FF9372" stroke="white" stroke-width="0.5"/>
<path d="M111.124 62.1675L114.296 63.7089L116.852 64.1719L121.514 68.2633L122.098 67.8383L126.608 68.7517L127.635 68.1872L130.522 70.2106L133.211 70.8767L138.603 71.0987L140.544 69.7413L141.438 68.1999L142.136 69.1894L144.324 68.9674L145.022 69.9189L150.35 71.6379L152.774 71.9043L154.715 70.3058H156.389L162.777 73.1222L164.686 72.6591L165.232 71.8472L168.105 73.0651L170.312 72.3166L172.653 73.6296L175.539 73.5472L177.246 73.6867L180.163 75.0632L182.422 74.5367L184.065 75.2027L185.213 74.3147L186.025 75.1266L186.507 74.7651L189.773 75.4121L190.439 74.9046L191.067 75.5706L192.945 75.6087L194.518 74.7968L197.588 75.0568L199.079 74.5494L200.157 75.3994L201.984 75.4628L203.43 74.7333L203.976 75.0378L204.458 74.3464L207.446 74.1244L210.681 72.6274L211.924 73.1349L216.37 72.6274L222.358 70.6864L223.139 69.7983L224.052 70.8703L228.016 69.8808L228.518 70.4897L230.427 70.0013L230.909 72.0882L231.987 73.0017L233.516 72.8811L233.281 74.2957L231.753 74.7016L231.239 76.1606L227.205 77.296L225.593 76.8076L224.464 78.4695L221.508 79.218L214.804 83.0049L213.11 83.2078L212.831 83.5504L214.157 85.9608L212.844 86.5063L210.719 85.5358L207.503 86.9503L206.272 86.5063L207.68 86.4048L208.378 85.6754L205.955 85.1108L205.409 85.9418L203.367 86.2018L197.905 85.7959L195.698 88.2824L195.451 89.4559L195.983 90.7118L195.4 92.0439L194.271 91.9424L190.122 93.9469L185.029 94.6954L183.487 94.2323L177.068 94.3528L176.224 95.2409L174.848 93.7249L170.668 92.9573L170.154 93.9278L167.896 91.8853L166.633 91.5618L166.12 92.2913L165.308 91.6253L164.68 92.6148L163.684 91.9678L163.436 93.5028L161.958 93.2808L161.559 95.4883L161.013 94.6573L158.527 95.1013L157.848 92.7987L156.852 92.5767L155.907 91.4667L155.063 92.0503L152.241 91.8092L152.108 90.9402L150.186 90.0268L149.64 90.5723L150.401 91.7077L148.708 91.5047L148.593 90.5152L148.143 90.6167L147.528 91.1051L147.642 92.6021L145.783 91.3271L145.168 91.4667L145.618 92.0756L145.086 92.3801L143.208 91.3715L142.111 91.676L141.432 91.251L138.793 91.86L135.488 91.5745L134.061 92.6085L131.575 91.3715L130.959 90.3376L129.481 90.1727L129.596 87.9082L128.568 89.1451L126.031 90.382L125.301 89.6969L120.74 89.8809L120.176 90.6674L117.772 90.3439L113.82 88.3839L111.746 88.0604L112.291 80.6515L111.53 77.6132L111.594 73.2998L111.276 72.1834L110.046 71.8979L109.462 70.1345L109.228 60.9559L111.124 62.1675Z" fill="#FF9372" stroke="white" stroke-width="0.5"/>
</svg>
