<svg width="202" height="227" viewBox="0 0 202 227" fill="none" xmlns="http://www.w3.org/2000/svg">
<path d="M51.2603 68.8771L50.7672 68.7895L50.2942 68.4566L50.0665 68.0812L50.0289 67.5656L50.1641 67.1727L50.3718 66.8398L50.4444 66.487L50.2792 66.1115L49.8863 65.6861L48.9578 65.3707L48.8026 66.5145L48.5723 66.995L48.1794 67.4005L47.5787 67.6833L46.8504 68.1187L46.3149 68.5417L44.5905 70.8643L44.8557 72.2658L45.091 72.5486L45.4639 72.899L45.7793 73.0367L46.6777 73.5722L47.7364 74.9663L48.8451 75.9924L50.3968 77.8895L51.2878 78.5327L51.896 78.7229L52.7945 78.2073L53.3626 78.0872L54.1034 78.0221L56.3634 77.2988L59.3292 77.3189L60.2777 77.1412L60.8734 76.7733L61.7518 75.7021L62.2999 75.2241L63.281 75.0113L68.1539 75.4393L69.1199 75.8723L70.0685 76.6757L72.6839 79.5563L74.0078 81.2832L74.0854 82.1392L73.6624 82.8024L72.371 83.6133L71.3349 84.4642L70.982 84.9473L70.9194 85.4553L71.2072 86.0485L72.4486 87.4725L74.5134 89.4022L76.5156 90.7787L77.5868 91.1841L78.4502 91.1566L80.6376 89.8026L81.426 89.5874L82.2819 89.7876L95.1811 103.01L95.3238 103.087L95.3463 103.097L104.987 100.204L116.397 96.7803L127.807 93.349L130.507 92.5381L130.482 92.5281L130.415 92.5031L73.242 72.6162L71.6202 71.6727L70.1536 70.2861L69.3477 69.8607L66.86 69.5904L66.009 69.678L65.4159 69.9458L64.9303 70.3212L64.3372 70.594L63.6464 70.6115L62.9356 70.4013L62.1297 69.8106L60.2702 68.8896L58.4082 68.7094L57.8325 68.7845L57.3545 68.8996L56.3984 69.29L55.7602 69.3426L55.0545 69.1524L53.9332 68.2964L53.3551 67.936L52.8946 67.876L52.2664 68.5017L51.8034 68.7594L51.2603 68.8771Z" fill="#FF9372" stroke="white" stroke-width="0.5"/>
<path d="M34.9799 108.336L34.3442 108.328L33.4733 108.155L28.8557 106.606L25.3693 106.464L24.3858 106.731L24.3733 107.272L24.188 108.496L23.3696 110.666L22.5137 112.217L22.8541 112.608L22.779 113.772L22.1308 114.903L21.5551 116.214L21.8079 117.688L22.2459 119.072L22.7364 120.154L23.4222 121.498L23.7451 122.969L23.5273 124.501L21.3649 128.791L21.0696 130.365L21.0746 132.049L20.5616 133.025L19.3177 134.229L19.6731 134.472L21.9756 136.094L22.6163 136.269L23.4372 136.329L23.9528 136.014L24.2531 135.483L24.5459 133.301L25.0115 131.909L25.2117 130.815L25.497 130.395L25.9325 130.255L26.5181 130.28L27.334 130.162L27.9197 130.202L28.4402 130.357L28.9558 130.818L29.5965 131.241L30.2572 131.499L34.1865 131.694L41.5697 134.65L41.875 134.922L42.0051 135.25L42.1979 135.631L42.6283 136.046L43.2065 136.462L44.8758 137.237L45.3563 137.525L45.7142 137.918L46.1923 138.726L46.5577 139.134L48.5098 140.589L50.482 142.578L55.8779 132.492L58.2255 124.981L57.1468 121.986L56.376 116.7L42.4406 116.362L41.9826 115.951L41.8199 115.306L41.9326 114.257L42.1053 113.494L42.4757 112.42L42.5608 111.935L42.4406 111.226L42.1253 110.2L41.004 108.22L38.9468 107.745L37.9757 107.725L36.4015 107.878L34.9799 108.336Z" fill="#FF9372" stroke="white" stroke-width="0.5"/>
<path d="M41.004 108.22L41.5046 107.742L41.7824 107.525L42.1328 107.157L42.333 106.806L43.1214 104.364L43.4267 103.775L44.0624 102.849L44.205 102.507L44.12 102.176L43.7571 101.821L43.4843 101.485L43.4417 101.057L43.5994 100.667L43.6344 100.151L43.3566 99.4682L41.3544 97.3009L41.0115 96.4524L40.6561 95.0584L40.5836 94.5328L40.6486 94.0648L40.8764 93.6493L41.6698 92.6958L41.9401 92.1977L42.0402 91.6897L41.9325 87.7679L41.6047 87.4575L41.2968 87.4075L40.7187 87.6477L40.0104 87.8254L37.6829 87.8329L35.951 88.2859L35.3603 88.6388L34.129 88.7489L33.5583 88.9241L33.0002 89.297L32.7224 89.6625L32.1843 91.1191L31.4285 92.4981L30.8504 93.0612L30.2071 93.3665L27.0387 93.1888L26.473 93.1188L25.4444 95.5139L24.7111 99.4382L24.4583 103.443L24.4733 103.53L24.4783 103.58L24.4583 103.598L24.4308 103.578L24.4508 103.595L24.3857 106.731L25.3693 106.463L28.8557 106.606L33.4732 108.155L34.3442 108.328L34.9799 108.335L36.4015 107.877L37.9757 107.725L38.9468 107.745L41.004 108.22Z" fill="#FF9372" stroke="white" stroke-width="0.5"/>
<path d="M32.6023 66.0691L29.3987 65.6812L29.1034 65.7137L28.9007 66.5821L29.0959 67.2279V67.6333L28.7205 67.826L28.5103 68.0713V68.3666L28.753 68.7145L27.9822 70.0409L27.9521 70.6691L28.4377 71.3449L27.6618 71.9831L27.4116 72.9191L27.4966 75.4269L27.9972 76.7008L28.0948 77.2789L28.1248 78.0197L28.1999 78.4702L28.4727 79.0709L28.4377 79.5039L28.23 79.7541L27.9096 79.8467L27.6243 80.0044L27.4966 80.4449L28.6204 84.7872L28.1248 85.4629V85.8659L29.0959 88.7891L27.6293 90.4284L26.473 93.1188L27.0386 93.1889L30.2071 93.3666L30.8503 93.0613L31.4285 92.4982L32.1843 91.1191L32.7224 89.6625L33.0002 89.2971L33.5583 88.9242L34.1289 88.749L35.3603 88.6389L35.9509 88.286L36.0385 87.3175L36.1462 86.7443L36.7293 85.085L36.6517 84.6245L36.3889 84.3342L35.3303 84.159L34.7221 83.9763L34.2291 83.726L33.9087 83.3481L33.8086 82.85L34.1289 82.2519L34.8222 81.6287L37.5027 80.2497L38.6539 79.4088L40.7262 76.946L41.412 76.3779L43.1639 75.8398L43.8847 75.4319L45.3213 74.0178L46.6777 73.5723L45.7793 73.0367L45.4639 72.8991L45.091 72.5487L44.8557 72.2659L44.5905 70.8644L42.8986 69.598L42.5532 69.14L42.0326 68.6094L41.3894 68.3341L40.4834 68.1614L36.4815 68.2615L35.8659 68.2039L35.3953 68.0262L35.3303 67.5732L34.1289 67.328L33.3506 67.0076L32.6023 66.0691Z" fill="#FF9372" stroke="white" stroke-width="0.5"/>
<path d="M50.1791 57.2394L48.6524 57.1744L47.2208 56.7589L46.6077 56.9466L45.0259 57.6249L44.0499 58.1655L43.5493 58.3807L42.8335 58.8587L42.1052 59.587L41.3269 60.8184L41.004 61.7144L40.8764 62.4727L40.9114 62.9908L40.8038 63.4763L40.3908 63.9518L37.2524 65.3784L35.3303 67.5733L35.3953 68.0263L35.8659 68.204L36.4815 68.2616L40.4834 68.1615L41.3894 68.3341L42.0326 68.6095L42.5532 69.14L42.8986 69.598L44.5904 70.8644L46.3148 68.5419L46.8504 68.1189L47.5787 67.6834L48.1794 67.4006L48.5723 66.9952L48.8026 66.5146L48.9578 65.3709L48.4797 64.2572L47.8741 63.2385L47.5562 62.9507L47.1783 62.6954L46.9581 62.325L46.9931 61.7869L47.4361 60.9385L49.5309 58.5659L50.1791 57.2394Z" fill="#FF9372" stroke="white" stroke-width="0.5"/>
<path d="M45.0259 57.6248L44.0349 56.2207L43.1289 55.4824L42.8986 55.0344L42.6984 54.3211L42.3906 54.1835L42.0627 54.3962L41.7323 54.8592L41.1842 55.1821L40.4334 55.2947L39.0969 55.2196L38.3386 55.3698L36.937 56.1431L35.8308 56.461L34.6721 56.3809L33.8712 56.4435L33.2155 56.7263L32.765 57.2994L32.4421 58.1428L31.7338 61.5541L31.8139 62.385L32.0917 63.266L32.7299 64.7351L32.845 65.2081L32.8075 65.526L32.6023 66.069L33.3506 67.0076L34.129 67.3279L35.3303 67.5732L37.2524 65.3783L40.3909 63.9517L40.8038 63.4762L40.9114 62.9907L40.8764 62.4726L41.004 61.7143L41.3269 60.8183L42.1052 59.5869L42.8335 58.8586L43.5493 58.3806L44.0499 58.1654L45.0259 57.6248Z" fill="#FF9372" stroke="white" stroke-width="0.5"/>
<path d="M46.0445 38.3186L45.8167 38.241L45.0209 37.4301L44.5829 37.1749L39.6349 36.0161L39.2095 35.4755V35.473L39.2145 35.4655V35.463L39.0193 35.3128L38.7815 35.2703L38.5112 35.3303L38.2234 35.473L38.2159 35.4755L37.42 35.6807L34.8872 37.285L33.3605 38.6565L32.6222 39.0419L31.5335 38.9118L31.5285 38.9093L30.6801 39.5224L29.9843 40.4485L29.5764 40.8139L29.2485 40.9515L29.1484 41.1342L29.1234 41.5822L29.3086 41.9776L29.699 42.2079V42.5483H29.3812V42.9587L29.6439 43.4493L29.7866 44.8583L30.0419 45.5341L29.8517 45.8319L29.7866 45.8619L29.7616 45.7343L29.699 45.5341L29.5914 45.7293L29.3812 46.3149L29.0958 45.942L29.2535 47.0858L29.3812 47.4361H28.753V47.8066L28.9957 47.779L29.1859 47.7865L29.5138 48.2746L29.6089 48.5048L30.0419 48.9578V49.2982L29.6289 49.4233L29.3536 49.7137L29.1809 50.0841L29.0958 50.4495L29.266 50.5721L29.3711 50.6722L29.4963 50.7473L29.699 50.7898V51.1953L29.4087 51.393L29.0958 51.5357L29.3812 51.9061L28.753 52.3165L28.8531 52.4116L28.9482 52.3941L29.0233 52.4291L29.0958 52.6844H28.753V53.0248L29.0383 53.3101L29.0808 53.5304L28.8856 53.683L28.4376 53.7681L28.6428 54.3713L28.753 54.549L28.9757 54.7867L29.1659 55.1246L29.3061 55.5426L29.3812 56.0406H29.0958V55.6652H28.753V56.0406L29.0007 56.5712L28.9632 58.2055L29.3812 59.0164L29.1759 59.6496L29.1609 60.6882L29.3336 61.7269L29.699 62.3626L29.4713 62.4927L29.2961 62.6404L29.1709 62.8406L29.0958 63.1434H29.699L29.1034 65.7138L29.3987 65.6812L32.6022 66.0691L32.8074 65.5261L32.845 65.2082L32.7298 64.7352L32.0916 63.2661L31.8138 62.3851L31.7337 61.5542L32.442 58.1429L32.7649 57.2995L33.2154 56.7264L33.8711 56.4436L34.672 56.381L35.8308 56.4611L36.937 56.1432L38.3385 55.3699L39.0968 55.2197L40.4333 55.2948L41.1841 55.1822L41.7322 54.8593L42.0626 54.3963L42.3905 54.1836L42.6983 54.3212L42.8985 55.0345L43.1288 55.4825L44.0348 56.2208L45.0259 57.6249L46.6076 56.9466L47.2208 56.7589L48.6524 57.1744L50.179 57.2394L50.5394 56.7639L50.5995 56.3459L50.4568 55.5376L50.2216 54.9945L49.9788 54.5565L49.9213 54.111L50.0789 53.668L50.7397 53.1224L51.3103 53.0248L51.8309 53.2075L52.6743 53.8707L53.0747 53.9558L53.4051 53.8407L53.7254 52.4241L53.1598 47.9467L52.6042 47.9267L52.439 47.8891L52.429 47.6539L52.1712 47.0182L50.0964 43.8522L49.6635 42.9387L49.6284 41.9101L49.7686 40.979L49.5534 40.3584L48.4772 40.2733L47.8114 40.3984L47.3309 40.2282L46.9255 39.8453L46.5075 39.3222L46.6777 39.3498L46.8253 39.1245L46.8879 38.7691L46.8153 38.4062L46.6401 38.3111L46.0445 38.3186Z" fill="#FF9372" stroke="white" stroke-width="0.5"/>
<path d="M50.1441 226.433L51.4055 226.385L52.5868 225.902L57.5823 221.768L62.4526 217.728L67.8085 213.286L71.3574 210.338L74.3157 205.32L77.1838 200.442L79.3036 196.84L81.849 192.501L82.9502 191.312L84.2141 190.676L88.2085 189.843L92.308 188.992L98.9327 187.608L105.505 186.234L111.669 184.947L117.095 183.819L118.086 182.935L120.134 177.927L121.655 174.218L123.312 170.179L124.664 166.87L125.264 165.904L126.33 165.01L131.333 162.192L136.897 159.059L140.268 157.164L140.576 156.974L140.621 156.957L140.639 156.937L140.624 156.899L138.344 154.216L133.296 148.267L128.235 142.313L123.179 136.346L118.129 130.372L117.981 130.202L117.839 130.029L117.691 129.857L117.548 129.687L111.557 123.182L105.653 116.772L56.3759 116.7L57.1468 121.986L58.2255 124.981L55.8779 132.492L50.4819 142.578L46.9781 148.505L45.2987 149.131L44.0624 148.645L43.5768 148.605L43.0838 148.713L42.5107 149.113L42.0552 149.563L41.4045 149.976L38.1384 150.762L33.8361 151.345L32.2694 151.203L27.6919 151.348L25.8123 151.065L23.9678 151.07L23.7025 154.411L22.7589 158.646L20.7167 165.153L20.8093 171.157L20.4364 172.709L17.7434 178.045L17.2153 180.69L17.1077 182.089L17.323 183.088L17.5657 183.608L17.9211 184.222L18.3441 184.775L18.9072 185.298L19.5379 185.671L20.2937 185.921L21.0295 185.954L21.7153 185.866L22.3109 185.648L22.9041 185.528L24.0879 185.493L25.4619 185.763L26.3179 186.084L27.2214 186.587L28.1123 187.37L28.9407 188.261L29.6265 189.33L32.0492 194.826L35.0349 207.027L37.315 223.763L37.4201 224.216L37.4251 224.231L40.048 224.686L45.3563 225.605L50.1441 226.433Z" fill="#FF9372" stroke="white" stroke-width="0.5"/>
<path d="M50.482 142.578L48.5098 140.588L46.5576 139.134L46.1922 138.726L45.7142 137.918L45.3563 137.525L44.8758 137.237L43.2065 136.461L42.6283 136.046L42.1978 135.63L42.0051 135.25L41.875 134.922L41.5697 134.649L34.1865 131.694L30.2572 131.498L29.5965 131.241L28.9558 130.818L28.4402 130.357L27.9196 130.202L27.334 130.162L26.5181 130.28L25.9325 130.255L25.497 130.395L25.2117 130.815L25.0114 131.909L24.5459 133.3L24.2531 135.483L23.9528 136.013L23.4372 136.329L22.6163 136.269L21.9756 136.094L19.6731 134.472L19.3177 134.229L18.7571 134.772L18.1714 135.986L18.0488 137.202L18.0713 138.401L17.9136 139.587L17.6483 140.098L16.8675 140.801L16.5096 141.224L16.2068 141.872L16.0491 142.476L15.8389 143.83L15.486 145.101L16.1767 145.632L19.3202 147.894L20.031 148.267L20.6291 148.812L21.1797 149.771L21.7428 150.509L22.3961 150.832L22.9166 151.025L23.9678 151.07L25.8123 151.065L27.6919 151.348L32.2694 151.203L33.8361 151.345L38.1384 150.762L41.4045 149.976L42.0552 149.563L42.5107 149.113L43.0838 148.712L43.5769 148.605L44.0624 148.645L45.2988 149.13L46.9781 148.505L50.482 142.578Z" fill="#FF9372" stroke="white" stroke-width="0.5"/>
<path d="M51.896 78.7231L51.2878 78.5328L50.3968 77.8896L48.8451 75.9926L47.7364 74.9664L46.6777 73.5724L45.3213 74.0179L43.8847 75.4319L43.1639 75.8399L41.412 76.378L40.7262 76.9461L38.6539 79.4088L37.5027 80.2497L34.8222 81.6288L34.1289 82.2519L33.8086 82.8501L33.9087 83.3481L34.2291 83.7261L34.7221 83.9763L35.3303 84.159L36.3889 84.3342L36.6517 84.6245L36.7293 85.0851L36.1462 86.7444L36.0385 87.3175L35.9509 88.2861L37.6829 87.8331L40.0104 87.8256L40.7187 87.6479L41.2968 87.4076L41.6047 87.4577L41.9325 87.768L42.0401 91.6898L41.94 92.1979L41.6697 92.6959L40.8764 93.6495L40.6486 94.0649L40.5835 94.5329L40.6561 95.0585L41.0115 96.4526L41.3544 97.301L43.3566 99.4684L43.6344 100.152L43.5994 100.667L43.4417 101.058L43.4842 101.486L43.757 101.821L44.1199 102.176L44.205 102.507L44.0624 102.85L43.4267 103.776L43.1213 104.364L42.333 106.806L42.1327 107.157L41.7824 107.525L41.5046 107.742L41.004 108.221L42.1252 110.2L42.4406 111.226L42.5607 111.935L42.4756 112.42L42.1052 113.494L41.9325 114.257L41.8199 115.306L41.9826 115.952L42.4406 116.362L56.3759 116.7L105.653 116.772L105.563 116.675L99.5709 110.155L93.5768 103.628L95.3463 103.097L95.3238 103.087L95.1811 103.01L82.2819 89.7877L81.426 89.5875L80.6376 89.8027L78.4502 91.1567L77.5868 91.1843L76.5156 90.7788L74.5134 89.4023L72.4486 87.4727L71.2072 86.0486L70.9194 85.4555L70.982 84.9474L71.3349 84.4644L72.371 83.6134L73.6624 82.8025L74.0854 82.1393L74.0078 81.2834L72.6839 79.5565L70.0685 76.6758L69.1199 75.8724L68.1539 75.4394L63.281 75.0115L62.2999 75.2242L61.7518 75.7022L60.8734 76.7734L60.2777 77.1413L59.3292 77.319L56.3634 77.299L54.1034 78.0223L53.3626 78.0874L52.7945 78.2075L51.896 78.7231Z" fill="#FF9372" stroke="white" stroke-width="0.5"/>
<path d="M177.166 1L165.886 8.02273L156.038 14.2446L152.129 16.7123L144.11 21.7653V21.7678L138.243 25.552L130.352 30.6426L122.461 35.7207L118.221 38.4437L114.565 40.7938L106.681 45.8619L101.583 49.1304V49.1329H101.576V49.1355L94.5254 53.743L87.1222 58.8286L86.5341 59.0313L85.8859 59.0063L82.9452 58.228L81.944 58.1979L81.1457 58.6709L79.4838 57.4071L73.1819 56.6362L71.5026 56.431L70.7542 55.9605L68.1589 55.6977L67.2504 55.4199L66.5696 55.0319L62.5252 51.1852L59.5544 49.1304L58.0553 47.6163L57.5547 47.341L57.317 47.4186L56.7939 47.8941L56.5636 48.0042L56.2883 47.9542L55.8128 47.7664L55.5225 47.7364L53.8181 47.9667L53.1599 47.9466L53.7255 52.4241L53.4052 53.8406L53.0748 53.9558L52.6744 53.8707L51.8309 53.2074L51.3104 53.0247L50.7397 53.1223L50.079 53.6679L49.9213 54.1109L49.9789 54.5564L50.2217 54.9944L50.4569 55.5375L50.5996 56.3459L50.5395 56.7638L50.1791 57.2394L49.5309 58.5658L47.4361 60.9384L46.9931 61.7869L46.9581 62.325L47.1783 62.6954L47.5562 62.9506L47.8741 63.2385L48.4797 64.2571L48.9578 65.3708L49.8863 65.6862L50.2792 66.1116L50.4444 66.487L50.3718 66.8399L50.1641 67.1728L50.0289 67.5657L50.0665 68.0813L50.2942 68.4567L50.7673 68.7896L51.2603 68.8772L51.8034 68.7595L52.2664 68.5018L52.8946 67.8761L53.3551 67.9361L53.9332 68.2965L55.0545 69.1525L55.7603 69.3427L56.3984 69.2901L57.3545 68.8997L57.8325 68.7846L58.4082 68.7095L60.2702 68.8897L62.1298 69.8107L62.9356 70.4013L63.6464 70.6116L64.3372 70.5941L64.9303 70.3213L65.4159 69.9458L66.009 69.678L66.86 69.5905L69.3477 69.8608L70.1536 70.2862L71.6202 71.6727L73.242 72.6163L130.415 92.5032L130.482 92.5282L130.507 92.5382L139.215 89.9203L140.876 89.4373L149.573 86.917L159.925 83.9112L170.274 80.9004L180.633 77.8896L185.863 76.3679L185.868 76.3704V76.3604L187.463 75.6847L192.931 70.4714L193.827 69.7932L194.293 69.6405L194.283 69.2225L199.824 64.4873L201 62.7654L200.036 59.0914L199.356 57.4171L198.41 56.8615L189.685 59.2791L189.22 59.0163L188.877 58.1979L186.629 50.3568L186.567 50.2692L186.549 50.2016L186.567 50.1616L186.629 50.1416L190.186 49.0203L187.09 37.5953L184.915 29.5564L182.818 21.7653L181.221 15.9189L179.309 8.86115L177.166 1Z" fill="#FF9372" stroke="white" stroke-width="0.5"/>
<path d="M23.9678 151.07L22.9166 151.025L22.396 150.832L21.7428 150.51L21.1797 149.771L20.6291 148.813L20.0309 148.267L19.3202 147.894L16.1767 145.632L15.4859 145.101L15.4834 145.111L12.788 150.61L10.7983 157.157L10.5805 158.431L9.77966 160.603V161.887L10.0074 162.435L10.6706 163.516L10.7983 164.275L10.6982 165.018L10.4454 165.591L10.1376 166.139L9.85975 166.807L9.42677 169.586L9.09891 170.502L9.07889 172.026L10.0224 175.284V176.964L9.2741 178.756L7.30443 181.719L6.77135 183.816L6.74382 184.457L6.57113 184.927L6.34338 185.338L6.16318 185.798L5.82531 187.603L5.78276 190.829L5.58755 191.908L3.4502 197.704L3.10732 199.025L2.86455 202.006L2.42657 203.328L1.81089 204.329L1.48303 205.49L1.28531 206.932L1.50055 206.902L1.56312 206.979V207.119L1.60066 207.292H2.23135L3.18741 208.261L3.23246 209.101L2.23135 211.269L1.90349 212.653L1.60066 217.468L1 217.894V217.896L6.11062 218.792L11.5791 219.746L18.742 220.987L25.1441 222.101L31.9791 223.282L37.4251 224.231L37.4201 224.216L37.3149 223.763L35.0349 207.027L32.0492 194.826L29.6265 189.33L28.9407 188.261L28.1123 187.37L27.2213 186.587L26.3179 186.084L25.4619 185.763L24.0879 185.493L22.9041 185.528L22.3109 185.648L21.7153 185.866L21.0295 185.954L20.2937 185.921L19.5379 185.671L18.9072 185.298L18.3441 184.775L17.9211 184.222L17.5657 183.608L17.323 183.088L17.1077 182.089L17.2153 180.69L17.7434 178.045L20.4364 172.709L20.8093 171.157L20.7167 165.153L22.7589 158.646L23.7025 154.411L23.9678 151.07Z" fill="#FF9372" stroke="white" stroke-width="0.5"/>
</svg>
