<svg width="174" height="226" viewBox="0 0 174 226" fill="none" xmlns="http://www.w3.org/2000/svg">
<path d="M59.7573 163.504L60.4373 159.62L60.3297 159.258L60.2243 158.748L59.7939 158.544L59.2128 158.344L58.8534 158.122L58.3219 157.614L58.1626 157.16L58.197 156.771L58.4273 155.934L58.5349 154.778L58.5866 152.012L58.2508 150.945L57.7903 150.267L57.276 150.172L56.9037 150.276L56.5486 150.48L56.2667 150.732L55.9998 150.863L55.7157 150.913L55.4338 150.921L54.4051 151.126L53.8564 151.147L53.6239 151.201L53.413 151.317L53.271 151.496L53.1634 151.7L53.0214 151.87L52.8105 151.967L52.3069 152.105L52.1649 152.264L51.9346 152.675L51.7753 152.828L51.2266 153.211L50.9963 153.289L50.482 153.338L49.7201 153.53L49.1003 153.495L48.8163 153.523L48.3902 153.693L48.1771 153.807L46.8429 154.3L46.0272 154.487L44.8931 154.427L44.5918 154.474L44.4153 154.619L44.2905 154.821L44.1141 155.006L43.6707 154.963L42.4118 155.002L39.6055 154.481L36.6637 152.949L33.2893 152.804L32.7233 152.566L32.719 152.563L31.0512 157.113L30.8101 158.882L29.5253 162.938L26.5383 166.085L20.5944 170.664L21.0592 172.382L20.334 174.075L18.2508 177.209L17.8225 179.113L17.7472 182.802L17.4674 184.605L15.3089 190.586L13.5895 193.129L11.1426 194.961L13.5227 198.432L13.0213 202.51L9.57805 209.976L9.16916 209.098L8.79686 208.919L8.1082 209.046L8.79686 209.976L8.01567 211.131L7.30764 212.687L6.48987 214.047L3.95906 215.115L2.73024 216.316L1.70802 217.852L1 219.38L1.09469 219.798V220.142L1.2604 220.308L1.78119 220.23L1.64346 220.831V221.052L10.7918 221.739L11.2889 221.528L12.5543 220.544L13.2968 220.262L13.9833 220.312L15.6016 220.732L16.4172 220.792L20.6482 219.391H22.0405L22.6324 219.662V219.656L22.7916 218.679L22.8798 217.12L22.8282 216.768L22.7744 216.038L22.8088 215.735L22.9681 215.095L23.0047 214.467L23.0391 214.161L24.4401 210.428L24.7586 209.93L25.3805 209.859L26.2478 210.051H26.5319L26.7621 209.943L26.9558 209.814L27.4895 209.298L27.7714 208.854L27.9737 208.327L28.062 206.941L28.1674 206.59L28.6473 206.474L29.7104 206.468L30.0289 206.401L30.384 206.242L31.5009 205.547L31.6602 205.344L31.5009 204.858L31.2513 204.626L30.95 204.438L30.6487 204.322L30.3646 204.169L30.1537 203.937L30.1882 203.629L30.4012 203.294L31.0382 202.895L31.5009 202.691L32.2434 202.428L32.7943 202.004L33.4313 201.327L36.5927 197.311L37.1242 196.788L37.4965 196.121L37.7096 195.402L37.6924 193.177L37.602 192.626L37.6924 191.862L38.7899 190.325L37.0188 190.663L36.5044 191.048L36.0439 191.126L35.2993 191.091L32.28 190.525L30.0634 189.805L28.275 187.896L28.7894 185.733L28.5053 184.855L28.2212 184.579L27.9199 184.364L26.6911 183.667L26.3898 183.617L26.0885 183.66L24.8124 183.602L24.4939 183.546L24.1732 183.413L23.8719 183.234L23.6244 183.041L23.519 182.903L23.7493 182.761L24.8296 182.711L25.2557 182.509L25.5914 182.111L25.9637 181.259L26.1058 180.772L26.1596 180.381L26.1423 180.2L26.1768 179.619L26.2478 179.303L26.5491 178.963L27.0978 178.644L28.2556 178.317L28.841 178.377L29.2499 178.579L29.4264 178.885L29.6394 179.49L29.7814 179.77L30.0289 180.019L30.5605 180.441L30.7563 180.673L30.879 180.914L31.1458 181.319L31.3933 181.47L31.6408 181.397L31.8366 181.041L31.6946 179.875L31.8732 179.21L33.9284 175.45L34.0231 175.136L34.0576 174.796L34.0339 174.51L33.8574 174.286L33.6099 174.256L33.0074 174.426L32.7771 174.355L32.7233 174.138L32.8825 173.703L33.8101 172.194L34.0705 171.643L34.3588 171.226L34.6795 170.991L35.9729 170.877L36.6981 170.744L36.9994 170.587L37.2663 170.311L37.3717 169.653L37.249 169.27L36.9822 169.016L36.6981 168.874L36.5216 168.697L37.6213 168.039L42.571 166.898L43.4405 167.09L44.1657 167.079L44.5208 167.004L45.1772 166.784L46.4533 166.059L46.7718 165.934L47.1312 165.857L47.7876 165.846L48.0889 165.792L48.4074 165.665L48.6915 165.43L48.9045 165.177L49.152 164.837L49.1714 164.809L49.4727 164.667H49.7201L49.9332 164.75L50.0214 164.8L50.0559 164.83V164.837L50.0752 164.858L49.9848 166.02L49.4361 169.412L49.4188 169.78L49.7912 178.666L49.5609 180.503L49.9138 181.618L51.6871 185.576L52.9633 181.926L53.5357 181.007L54.0156 180.869L54.2459 180.766L54.6354 180.534L54.8485 180.454L55.0959 180.445L55.3434 180.503L55.5565 180.611L55.8406 180.716L56.1956 180.759L56.8499 180.66L57.2222 180.441L57.5062 180.086L57.6311 179.81L58.126 178.347L60.0994 176.46L60.773 176.189L61.2336 175.762L62.1912 173.978L61.8017 171.041L61.2874 170.311L60.7214 169.061L60.5256 168.54L60.065 166.76L59.7573 163.504Z" fill="#FF9372" stroke="white" stroke-width="0.5"/>
<path d="M29.0712 225.612L35.5231 223.927L40.9936 221.571L44.5036 221.274L45.0695 219.197L47.1979 215.373L48.1771 213.081L48.7926 209.601L49.0637 202.865L49.9504 199.85L50.9898 197.989L51.6634 196.121L52.4317 194.823L53.766 194.672L54.4288 195.484L56.4969 198.763L57.9495 199.837L57.9603 199.833L57.984 199.85L58.6468 200.418L58.6511 200.388L58.7286 199.85V199.844V199.837L58.3756 197.324L59.3914 196.293L61.0313 195.929L62.8411 195.531L65.1223 193.695L69.4694 189.127L71.4902 188.571L73.0031 188.423L74.6343 187.962L76.2161 187.259L77.5762 186.394L79.442 184.306L81.7232 179.727L83.4835 177.62L86.2295 175.973L86.1542 175.954L84.2927 175.45L79.0417 174.772L78.6393 174.445L78.1551 173.851L77.0382 171.458L76.7003 170.471L76.0461 169.621L73.724 168.23L71.4837 167.481L70.9177 167.722L70.1366 168.265L68.5591 169.877L67.3368 171.385L66.3791 172.939L65.2579 174.383L64.3712 174.736L62.1912 173.978L61.2335 175.762L60.773 176.189L60.0994 176.46L58.126 178.347L57.631 179.81L57.5062 180.086L57.2221 180.441L56.8498 180.66L56.1956 180.759L55.8405 180.716L55.5565 180.611L55.3434 180.503L55.0959 180.445L54.8484 180.454L54.6354 180.534L54.2459 180.766L54.0156 180.869L53.5357 181.007L52.9632 181.926L51.6871 185.576L49.9138 181.618L49.5609 180.503L49.7911 178.666L49.4188 169.78L49.436 169.412L49.9848 166.02L50.0752 164.858L50.0558 164.837V164.83L50.0214 164.8L49.9332 164.75L49.7201 164.667H49.4726L49.1713 164.809L49.152 164.837L48.9045 165.177L48.6914 165.43L48.4074 165.665L48.0889 165.792L47.7876 165.846L47.1312 165.857L46.7718 165.934L46.4533 166.059L45.1771 166.784L44.5208 167.004L44.1657 167.079L43.4404 167.09L42.571 166.898L37.6213 168.039L36.5216 168.697L36.6981 168.874L36.9822 169.016L37.249 169.27L37.3717 169.653L37.2662 170.311L36.9994 170.587L36.6981 170.744L35.9728 170.877L34.6795 170.991L34.3588 171.226L34.0704 171.643L33.81 172.194L32.8825 173.703L32.7233 174.138L32.7771 174.355L33.0073 174.426L33.6099 174.256L33.8574 174.286L34.0339 174.51L34.0575 174.796L34.0231 175.136L33.9284 175.45L31.8732 179.21L31.6946 179.875L31.8366 181.041L31.6408 181.396L31.3933 181.47L31.1458 181.319L30.879 180.914L30.7563 180.673L30.5605 180.441L30.0289 180.019L29.7814 179.77L29.6394 179.49L29.4263 178.885L29.2499 178.579L28.841 178.377L28.2556 178.317L27.0978 178.644L26.549 178.963L26.2478 179.303L26.1767 179.619L26.1423 180.2L26.1595 180.381L26.1057 180.772L25.9637 181.259L25.5914 182.111L25.2557 182.509L24.8296 182.711L23.7492 182.761L23.519 182.903L23.6244 183.041L23.8719 183.234L24.1732 183.413L24.4938 183.546L24.8123 183.602L26.0885 183.66L26.3898 183.617L26.6911 183.667L27.9199 184.364L28.2212 184.579L28.5053 184.855L28.7893 185.733L28.275 187.896L30.0633 189.805L32.2799 190.525L35.2993 191.091L36.0439 191.126L36.5044 191.048L37.0187 190.663L38.7899 190.325L37.6923 191.862L37.6019 192.626L37.6923 193.177L37.7095 195.402L37.4965 196.121L37.1242 196.788L36.5926 197.311L33.4313 201.327L32.7943 202.004L32.2434 202.428L31.5009 202.691L31.0382 202.895L30.4012 203.294L30.1882 203.629L30.1537 203.937L30.3646 204.169L30.6487 204.322L30.95 204.438L31.2513 204.626L31.5009 204.858L31.6602 205.344L31.5009 205.547L30.384 206.242L30.0289 206.401L29.7104 206.468L28.6473 206.474L28.1674 206.59L28.0619 206.941L27.9737 208.327L27.7714 208.854L27.4895 209.298L26.9558 209.814L26.7621 209.943L26.5318 210.051H26.2478L25.3805 209.859L24.7585 209.93L24.44 210.428L23.0391 214.161L23.0046 214.467L22.968 215.095L22.8088 215.735L22.7744 216.038L22.8282 216.767L22.8798 217.12L22.7916 218.679L22.6323 219.656V219.662L23.293 219.965L24.5692 221.003L25.7033 222.389L26.4952 224.007L27.5584 225.397L29.0712 225.612Z" fill="#FF9372" stroke="white" stroke-width="0.5"/>
<path d="M76.0978 70.5447L74.0253 70.2455L66.4329 66.3869L63.4846 66.0942L63.349 66.0383L63.3469 66.0361L63.2974 66.1287L61.6791 67.3101L61.3175 68.3238V73.0475L61.6791 74.9972L63.2974 78.0338L63.6611 79.6521L63.1597 83.9368L61.2895 89.9862L61.3175 93.3542L61.6791 93.8707L62.2945 94.2623L62.8239 94.9144L62.8799 96.1712L62.4043 96.7372L60.5083 96.7652L59.753 97.0342L58.9266 98.4029L57.5493 101.702L56.5723 102.858L57.2889 102.924L57.4567 103.133L57.418 103.703L56.824 104.831L55.7351 107.573L55.0099 108.498L53.3442 109.092L52.2725 109.019L52.2553 109.645L50.9253 113.73L49.6663 113.844L49.3651 114.186L48.9411 114.819L48.5322 115.075L47.0086 115.131L44.8307 114.67L44.6349 120.38L44.1786 123.102L39.6679 134.176L39.7411 135.825L37.815 137.067L36.4765 142.707L34.6989 144.261L35.4155 145.199L32.719 152.563L32.7233 152.566L33.2893 152.804L36.6637 152.949L39.6055 154.481L42.4118 155.002L43.6707 154.963L44.1141 155.006L44.2905 154.821L44.4154 154.619L44.5918 154.474L44.8931 154.427L46.0272 154.487L46.8429 154.3L48.1771 153.807L48.3902 153.693L48.8163 153.523L49.1004 153.495L49.7201 153.53L50.482 153.338L50.9963 153.289L51.2266 153.211L51.7753 152.828L51.9346 152.675L52.1649 152.264L52.3069 152.105L52.8105 151.967L53.0214 151.87L53.1634 151.7L53.271 151.496L53.4131 151.317L53.624 151.201L53.8564 151.147L54.4051 151.126L55.4338 150.921L55.7157 150.913L55.9998 150.863L56.2667 150.732L56.5486 150.48L56.9037 150.276L57.276 150.172L57.7903 150.267L58.2508 150.945L58.5866 152.012L58.5349 154.778L58.4273 155.933L58.197 156.771L58.1626 157.16L58.3219 157.614L58.8534 158.122L59.2128 158.344L59.7939 158.544L60.2243 158.748L60.3297 159.258L60.4373 159.62L59.7573 163.504L60.7558 162.665L61.2336 162.155L62.0858 160.952L62.3871 160.341L62.6884 159.482L64.2658 152.888L65.5829 149.359L66.3447 147.909L72.9429 137.904L74.0598 137.308L74.5031 136.961L75.0884 136.143L76.0267 135.1L76.1171 134.716L76.0978 134.422L74.3266 132.614L77.4643 128.03L78.3144 128.026L79.6142 128.172L79.9499 128.166L80.2878 128.123L80.6407 127.985L80.942 127.772L81.1916 127.494L81.9362 126.261L81.4391 125.243L77.658 122.529L85.0911 113.654L87.028 110.254L87.5251 109.124L87.6133 108.806L88.8895 107.228L94.0523 102.518L95.3822 101.909L98.578 97.0385L103.7 86.7388L104.113 78.3544L104.302 77.3731L105.23 75.079L104.126 74.5001L103.416 74.7282L102.671 74.683L101.892 74.5324L98.0766 72.6623L97.4374 72.0619L97.2244 71.9435L96.6412 71.7369L96.3205 71.7025L96.0192 71.767L95.7545 72.1802L95.4705 72.8581L95.2574 73.1013L94.9927 73.2519L94.6721 73.3122H94.3708L93.5207 73.0647L92.8299 72.729L91.9971 72.7699L91.3407 72.5547L89.066 71.1171L88.1793 70.7276L86.7439 69.6171L86.1241 69.4385L85.2676 69.3761L83.744 69.5267L82.3086 69.8689L81.4929 70.1939L80.9786 70.2563L78.1551 70.1595L76.5066 70.5296L76.0978 70.5447Z" fill="#FF9372" stroke="white" stroke-width="0.5"/>
<path d="M52.2725 109.019L50.6455 108.901L49.5372 109.523H48.7561L48.0588 108.901L46.746 108.33L45.2396 108.083L44.0108 108.498L43.3975 109.585L43.7784 110.717L44.4864 112.04L44.8587 113.665L44.8307 114.668V114.67L47.0086 115.131L48.5322 115.075L48.9411 114.819L49.3651 114.186L49.6664 113.844L50.9253 113.73L52.2553 109.645L52.2725 109.019Z" fill="#FF9372" stroke="white" stroke-width="0.5"/>
<path d="M139.254 0.889404L136.878 2.55724L136.501 3.62035L136.454 6.34053L136.028 7.61885L134.976 8.75513L133.841 9.27162L126.942 9.65899L126.245 9.41365L124.898 8.40219L124.319 8.1504L123.621 8.32257L122.251 9.15541L121.756 9.31466L116.756 8.95312L113.909 8.74652L110.883 9.17693L108.273 9.10591L105.792 8.38067L103.795 6.75157L102.955 6.3556L101.95 6.07583L100.496 6.12963L101.722 7.70708L102.43 10.1669L102.747 13.1001L102.654 19.6208L102.011 21.5749L100.84 22.8058L98.9977 24.1487L92.8837 29.9915L83.8129 32.3674L81.6909 31.8014V32.6665L83.7677 36.0172L81.7749 38.7224L75.4393 42.213L73.9049 45.0644L72.1746 49.4611L70.3045 52.3491L68.3504 50.7286L65.6625 53.0765L64.2658 56.7414L63.7257 61.0649L63.6611 65.4142L63.3469 66.0361L63.3491 66.0383L63.4847 66.0942L66.433 66.3869L74.0254 70.2455L76.0978 70.5446L76.5067 70.5296L78.1551 70.1594L80.9786 70.2563L81.493 70.1938L82.3086 69.8689L83.744 69.5267L85.2677 69.3761L86.1242 69.4385L86.7439 69.6171L88.1794 70.7276L89.066 71.1171L91.3407 72.5546L91.9971 72.7699L92.8299 72.729L93.5207 73.0647L94.3708 73.3122H94.6721L94.9927 73.2519L95.2574 73.1013L95.4705 72.8581L95.7546 72.1802L96.0193 71.767L96.3205 71.7024L96.6412 71.7369L97.2244 71.9435L97.4375 72.0618L98.0766 72.6622L101.892 74.5324L102.671 74.683L103.416 74.7282L104.126 74.5001L105.23 75.079L107.853 74.853L108.172 74.7691L108.456 74.6141L108.899 74.1364L111.279 70.0798L111.634 68.8596L112.024 65.2915L116.279 59.8705L119.776 56.2228L121.052 51.7315L121.282 51.2666L121.689 50.692L122.683 49.6547L125.009 47.8083L125.95 46.8678L126.516 46.1792L129.654 39.6972L129.765 39.3507L129.298 37.6463L131.485 34.8271L131.644 34.4936L131.715 34.1858L131.732 33.5854L131.769 33.3121L131.84 33.084L131.963 32.8602L132.406 32.2662L137.5 28.3172L137.765 28.0159L139.2 27.4349L141.606 27.1336L141.647 27.1293L140.506 24.9772L142.419 22.9328L145.551 21.2327L147.785 19.468L148.305 17.288L148.163 15.2435L148.4 13.5779L150.089 12.5234L151.779 13.0119L152.995 14.0018L153.81 13.3562L154.26 8.97679L151.495 9.87419L148.658 9.9323L145.953 8.99831L143.648 6.92374L140.956 2.01062L139.254 0.889404Z" fill="#FF9372" stroke="white" stroke-width="0.5"/>
<path d="M161.314 36.6005L160.486 36.0517L158.833 33.99L156.894 33.1443L155.358 31.8531L154.223 30.0625L153.492 27.7448V27.7233L151.921 27.1659L148.79 26.9163L145.445 27.0691L143.224 27.7448L142.917 27.8416L142.598 27.8653L142.277 27.8416L141.972 27.7448L141.647 27.1293L141.606 27.1336L139.2 27.4349L137.765 28.016L137.5 28.3172L132.406 32.2662L131.963 32.8602L131.84 33.084L131.769 33.3121L131.732 33.5854L131.715 34.1859L131.644 34.4936L131.485 34.8272L129.298 37.6464L129.765 39.3508L129.654 39.6973L126.516 46.1792L125.95 46.8679L125.009 47.8083L122.683 49.6548L121.689 50.692L121.282 51.2666L121.052 51.7315L119.776 56.2228L116.279 59.8705L112.024 65.2915L111.635 68.8596L111.279 70.0798L108.899 74.1364L108.456 74.6142L108.172 74.7691L107.853 74.8531L105.23 75.079L104.302 77.3731L104.113 78.3544L103.7 86.7388L98.5781 97.0385L95.3823 101.909L94.0523 102.518L88.8896 107.228L87.6134 108.806L87.5252 109.124L87.028 110.254L85.0912 113.654L77.658 122.529L81.4392 125.243L81.9363 126.261L81.1917 127.494L80.9421 127.772L80.6408 127.985L80.2878 128.123L79.95 128.166L79.6142 128.172L78.3144 128.026L77.4643 128.03L74.3267 132.614L76.0978 134.422L76.1172 134.716L76.0268 135.1L75.0885 136.143L74.5031 136.961L74.0598 137.308L72.9429 137.904L66.3447 147.909L65.5829 149.359L64.2659 152.888L62.6884 159.482L62.3871 160.341L62.0858 160.952L61.2336 162.155L60.7559 162.665L59.7573 163.504L60.0651 166.76L60.5256 168.54L60.7214 169.061L61.2874 170.311L61.8018 171.041L62.1913 173.978L64.3713 174.736L65.2579 174.383L66.3792 172.939L67.3368 171.385L68.5592 169.877L70.1366 168.265L70.9178 167.722L71.4838 167.481L73.7241 168.23L76.0462 169.62L76.7004 170.471L77.0382 171.458L78.1552 173.851L78.6394 174.445L79.0418 174.772L84.2928 175.45L86.1543 175.954L86.2296 175.973L89.0832 174.262L91.1879 173.006L94.7323 169.999L96.5508 165.626L95.0035 162.842L96.3033 161.023L98.9977 160.149L101.679 160.184L103.853 159.181L106.205 157.621L107.965 155.54L108.331 152.996L107.328 151.444L105.413 150.02L103.31 148.965L101.679 148.511L99.0085 147.011L96.4798 146.536L94.9691 145.589L95.4059 142.653L95.8665 142.186L97.3557 141.618L97.898 141.084L98.2058 139.765L97.8743 137.273L98.04 136.122L98.8901 134.897L100.982 132.969L101.679 131.402L103.25 129.044L107.031 125.798L108.568 122.865L109.702 121.376L111.533 120.612L113.662 120.055L115.646 119.196L119.746 116.672L120.503 117.113L121.956 118.951L122.877 119.538L125.263 119.482L127.108 118.367L128.702 117.065L130.439 116.409L132.423 116.792L138.296 119.691L142.609 120.722L144.806 120.367L146.19 118.546L145.966 115.718L143.993 114.498L139.501 113.73L136.133 111.096L135.415 110.256L134.681 108.939L134.481 108.442L136.925 103.464L138.498 101L140.293 98.7773L144.843 94.7724L148.648 89.9217L151.058 88.6928L152.368 88.8069L154.826 89.7258L156.399 89.6484L158.265 88.7101L158.891 87.4339L159.115 85.8113L159.778 83.8594L162.012 81.0251L167.127 76.6306L169.774 72.1738L173 68.6014L172.938 68.4636L172.326 67.1164L169.561 64.3661L168.816 62.3755L168.274 59.7737L169.135 57.9853L170.235 56.4595L170.471 54.6604L169.88 53.5844L169.135 53.4058L168.298 53.4703L167.482 53.1131L166.264 51.7788L163.796 48.2947L163.228 47.2208L162.92 46.1125L163.015 44.9741L163.38 44.2553L163.796 43.5989L164.101 42.6434L164.504 40.3708L164.598 38.8343L163.972 37.6205L162.152 36.3056L161.314 36.6005Z" fill="#FF9372" stroke="white" stroke-width="0.5"/>
</svg>
