<svg width="33" height="75" viewBox="0 0 33 75" fill="none" xmlns="http://www.w3.org/2000/svg">
<path d="M0.28125 59.9531C0.28125 63.0469 0.84375 65.1719 1.96875 66.3281L7.125 71.625C8.9375 73.5 10.625 74.4375 12.1875 74.4375C14.0625 74.4375 15.8281 73.5938 17.4844 71.9062L29.7188 59.4375C31.7188 57.4062 32.7188 56.0312 32.7188 55.3125C32.7188 54 31.9375 52.5938 30.375 51.0938L21.5625 42.5625L23.7188 46.4062C24.7812 48.4062 25.3125 49.75 25.3125 50.4375C25.3125 51.3438 24.4219 52.6875 22.6406 54.4688L13.125 64.0312C11 66.1562 9.59375 67.2188 8.90625 67.2188C8.40625 67.2188 7.375 66.1562 5.8125 64.0312C5.40625 63.4688 5.20312 62.1094 5.20312 59.9531V21.6094C5.20312 19.6406 7 15.4688 10.5938 9.09375C8.46875 9.09375 5.03125 6.34375 0.28125 0.84375V59.9531Z" fill="white"/>
</svg>
