<svg width="568" height="947" viewBox="0 0 568 947" fill="none" xmlns="http://www.w3.org/2000/svg">
<g clip-path="url(#clip0)">
<rect width="569" height="949.522" fill="#FFE6DE"/>
<path d="M111.634 426.087L110.7 427.273L108.778 439.139L110.736 442.607L110.731 444.546L107.909 447.256L110.034 456.607L106.559 466.044L101.534 469.214L101.434 481.173L104.953 484.569L101.763 488.595L103.38 492.963L100.496 497.755L100.082 514.247L92.3831 523.166L85.1032 513.175L84.2624 510.906L84.5078 507.118L81.7138 504.434L80.8898 503.997L78.6161 503.431L75.1009 503.157L73.2878 503.29L69.6859 504.054L68.0227 503.936L66.5361 503.166L63.1153 500.044L62.5411 498.871L62.5288 498.179L63.2155 497.097L64.3172 496.185L64.5782 495.395L64.262 493.994L63.6358 492.938L61.9636 492.045L61.4521 491.251L61.4139 489.865L62.3107 484.074L66.4496 485.826L69.4942 486.677L70.8411 485.872L71.5055 484.898L71.999 483.593L72.3175 482.182L72.1622 478.087L73.6735 473.477L74.3111 472.497L76.5355 470.297L77.1353 469.296L77.2499 468.603L77.305 467.925L76.1011 463.937L76.0257 462.937L76.0863 462.233L77.1451 458.865L77.2339 457.477L76.7263 455.503L76.6799 454.635L77.0048 454.013L79.0745 452.907L81.3465 449.929L81.9058 448.92L82.1855 447.698L82.1132 447.092L81.7783 446.602L78.9924 444.903L75.9555 440.735L75.8682 439.929L76.0249 439.441L76.5696 439.118L77.1881 439.118L79.6102 439.715L81.319 439.406L81.7054 438.895L81.9009 438.218L81.6041 437.201L81.0157 436.166L80.559 435.721L80.6832 435.732L80.3348 434.761L80.0724 432.415L80.0732 431.318L80.8669 428.008L81.0894 426.381L80.983 425.122L80.183 421.836L80.3071 420.891L81.0176 419.42L82.3367 417.793L83.3579 417.273L85.1789 417.169L87.8589 417.538L91.2601 417.409L92.7534 416.985L93.383 415.975L93.4678 414.812L92.4635 411.835L92.3377 410.192L94.1696 405.732L94.4072 404.305L94.3468 402.071L94.5534 400.384L95.217 398.594L96.8292 395.748L97.1096 393.908L96.883 392.891L96.5379 392.314L95.7868 391.864L94.57 391.628L92.6728 391.828L92.036 391.711L91.7698 391.501L91.5754 391.011L91.7285 390.199L92.6445 389.164L95.1236 387.776L97.2219 385.916L102.184 378.614L106.303 381.964L107.542 383.527L109.445 388.559L110.07 394.269L110.771 395.848L111.429 396.476L112.09 396.682L112.904 396.484L116.408 394.421L117.989 393.776L118.621 393.71L124.53 394.785L128.754 395.303L125.925 398.869L123.026 405.373L120.866 412.521L119.348 415.386L115.157 419.149L113.404 423.837L111.634 426.087Z" stroke="#A15151" stroke-width="0.297283"/>
<path d="M110.761 330.998L109.638 331.399L107.227 334.095L106.245 334.427L104.186 334.664L103.006 335.546L100.711 336.311L98.7576 338.356L98.1728 338.601L97.3222 338.566L96.7914 338.345L95.2246 336.939L94.3728 336.638L93.1365 336.974L91.4064 338.206L90.3507 338.622L87.1728 338.418L86.3266 338.567L85.9279 338.864L85.4863 339.575L84.7755 342.072L83.0122 344.901L82.7984 346.418L82.764 348.703L82.3356 350.442L81.5676 351.578L79.5681 353.641L77.9876 356.128L74.7735 353.231L73.2769 351.348L71.2423 348.117L70.8364 347.766L70.1774 347.757L68.658 349.469L67.6658 350.122L66.5327 350.367L65.0723 350.221L62.1808 349.514L59.2723 348.001L56.7652 347.612L54.8541 345.967L53.69 345.474L51.1294 345.003L47.9817 345.199L46.2729 345.03L45.0962 344.394L44.6074 343.9L44.284 343.285L44.2022 342.453L45.4185 338.935L45.4775 337.555L45.2862 336.981L43.2604 335.552L41.1588 333.671L39.054 332.352L37.3368 329.355L36.5941 328.865L34.5433 328.035L34.1846 327.455L34.2028 327.093L35.312 324.847L35.7729 322.607L36.6409 320.986L37.0442 317.934L37.6237 315.733L39.6581 312.749L39.7802 312.156L39.612 311.334L39.2612 310.783L38.5292 310.309L37.2834 309.94L35.316 309.662L33.5834 309.882L30.8004 311.038L29.3729 311.279L28.6076 310.967L27.8208 309.666L27.7093 308.841L27.9342 308.227L28.3718 307.74L28.9784 307.458L31.6651 307.111L33.0056 306.473L33.974 305.252L34.4222 303.825L34.5332 302.33L34.3702 301.551L33.5945 300.196L32.3756 299.355L30.9117 298.885L30.2178 298.84L32.1295 296.52L34.1715 295.548L44.247 293.938L50.6554 292.178L55.9141 289.787L59.2616 287.664L60.4153 286.158L65.6719 282.206L67.0406 281.841L69.3627 281.968L72.2122 284.382L75.4812 289.54L78.5037 292.89L81.7873 295.45L83.5354 296.316L86.2439 296.888L98.0457 297.138L102.494 298.138L104.364 299.029L107.55 302.609L110.01 309.78L109.528 315.812L108.118 321.23L108.65 325.473L109.857 327.943L109.504 329.319L110.761 330.998Z" stroke="#A15151" stroke-width="0.297283"/>
<path d="M38.5616 361.455L34.6346 361.406L30.5268 361.826L28.1131 361.666L26.6713 362.523L24.9857 364.018L22.6053 365.609L22.1888 366.676L21.489 367.685L18.2782 368.05L16.4866 369.65L15.4757 369.78L13.3397 369.227L9.04516 364.885L7.91749 362.234L7.07276 361.146L5.77566 357.884L1.26109 348.462L1.81889 348.212L3.00425 346.346L3.52476 338.284L5.29979 330.958L8.72345 326.826L10.6773 325.19L17.2786 323.722L19.2221 322.477L21.6098 315.727L24.7882 310.532L27.3273 303.729L29.1383 300.123L30.2177 298.84L30.9116 298.885L32.3756 299.355L33.5944 300.196L34.3701 301.551L34.5332 302.33L34.4222 303.825L33.974 305.252L33.0056 306.473L31.6651 307.111L28.9784 307.458L28.3718 307.74L27.9342 308.227L27.7093 308.841L27.8208 309.666L28.6076 310.967L29.3729 311.279L30.8004 311.038L33.5834 309.882L35.316 309.662L37.2834 309.94L38.5292 310.309L39.2612 310.783L39.612 311.334L39.7802 312.156L39.6581 312.749L37.6237 315.733L37.0442 317.934L36.6409 320.986L35.7729 322.607L35.312 324.847L34.2028 327.093L34.1846 327.455L34.5433 328.035L36.5941 328.865L37.3368 329.355L39.054 332.352L41.1588 333.671L43.2604 335.552L45.2862 336.981L45.4775 337.555L45.4184 338.935L44.2022 342.453L41.9519 341.09L40.493 339.707L38.2132 338.281L37.5905 340.965L37.562 343.153L38.016 344.09L40.5631 346.47L40.9702 347.088L41.348 348.6L41.0736 350.822L40.588 352.156L39.9465 352.882L37.7875 353.534L37.1651 354.235L36.7636 355.503L36.8216 356.724L38.0667 358.667L38.5616 361.455Z" stroke="#A15151" stroke-width="0.297283"/>
<path d="M136.535 341.857L135.077 346.689L136.351 349.173L136.587 350.895L135.082 354.859L133.946 356.622L133.332 358.787L134.131 364.056L132.346 366.993L131.889 368.938L132.667 373.218L130.587 379.089L130.683 383.2L130.013 387.618L130.2 389.92L129.798 393.1L128.754 395.303L124.53 394.785L118.621 393.71L117.989 393.776L116.408 394.421L112.904 396.484L112.09 396.682L111.429 396.476L110.771 395.848L110.069 394.269L109.445 388.559L107.542 383.527L106.303 381.964L102.184 378.614L101.909 376.603L101.746 372.955L101.322 370.028L100.92 368.427L100.321 367.446L98.888 366.687L96.6464 366.169L93.4388 366.929L90.1899 366.865L87.1838 367.329L85.6302 366.953L84.9109 366.144L84.264 363.958L83.6364 362.704L82.9166 361.965L80.3726 359.979L78.7971 357.729L77.9876 356.128L79.5681 353.641L81.5676 351.578L82.3356 350.442L82.764 348.703L82.7984 346.418L83.0122 344.901L84.7755 342.072L85.4864 339.575L85.9279 338.864L86.3266 338.567L87.1728 338.418L90.3507 338.622L91.4064 338.206L93.1365 336.974L94.3728 336.638L95.2246 336.939L96.7914 338.345L97.3222 338.566L98.1728 338.601L98.7576 338.356L100.711 336.311L103.006 335.546L104.186 334.664L106.245 334.427L107.227 334.095L109.638 331.399L110.761 330.998L113.605 332.075L117.293 331.78L122.534 333.098L125.264 334.588L131.459 339.195L136.535 341.857Z" stroke="#A15151" stroke-width="0.297283"/>
<path d="M33.3856 415.634L38.2292 411.64L40.8012 410.074L46.6883 408.319L50.2606 408.52L51.2691 408.334L51.9138 408.002L52.783 407.127L53.3669 406.066L53.8651 403.919L53.8421 403.211L53.281 401.633L51.9312 400.062L50.7767 399.318L48.397 398.378L46.4033 396.997L45.2281 396.559L43.9677 396.398L43.3488 396.467L41.3489 397.166L40.3411 397.212L38.5371 396.686L36.8069 395.528L36.0721 394.59L35.4476 393.252L35.0357 391.564L34.4383 387.293L34.0975 386.422L33.3464 385.494L34.1795 383.837L36.5903 381.142L38.3541 378.243L40.428 373.017L40.9266 371.278L41.274 368.565L40.5712 364.329L39.847 362.929L38.5615 361.455L38.0667 358.667L36.8216 356.724L36.7636 355.503L37.165 354.235L37.7875 353.534L39.9465 352.882L40.588 352.156L41.0735 350.822L41.348 348.6L40.9702 347.088L40.5631 346.47L38.0159 344.09L37.562 343.153L37.5905 340.965L38.2132 338.281L40.4929 339.707L41.9518 341.09L44.2022 342.453L44.284 343.285L44.6073 343.9L45.0962 344.394L46.2729 345.03L47.9817 345.199L51.1294 345.003L53.69 345.474L54.854 345.967L56.7652 347.612L59.2722 348.001L62.1808 349.514L65.0723 350.221L66.5327 350.367L67.6657 350.122L68.6579 349.469L70.1774 347.757L70.8363 347.766L71.2422 348.117L73.2769 351.348L74.7735 353.231L77.9876 356.128L78.797 357.729L80.3726 359.979L82.9166 361.965L83.6363 362.704L84.264 363.958L84.9108 366.144L85.6301 366.953L87.1838 367.329L90.1899 366.865L93.4387 366.929L96.6463 366.169L98.8879 366.687L100.321 367.446L100.92 368.427L101.322 370.028L101.746 372.955L101.909 376.603L102.184 378.614L97.2218 385.916L95.1236 387.776L92.6444 389.164L91.7284 390.199L91.5753 391.011L91.7697 391.501L92.036 391.711L92.6727 391.828L94.5699 391.628L95.7867 391.864L96.5378 392.314L96.883 392.891L97.1096 393.908L96.8292 395.748L95.2169 398.594L94.5533 400.384L94.3467 402.071L94.4071 404.305L94.1695 405.732L92.3376 410.192L92.4635 411.835L93.4678 414.812L93.3829 415.975L92.7533 416.985L91.26 417.409L87.8588 417.538L85.1788 417.169L83.3578 417.272L82.3366 417.793L81.0175 419.42L80.307 420.891L80.1829 421.836L80.9829 425.122L81.0893 426.381L80.8668 428.008L80.0731 431.318L80.0724 432.415L80.3347 434.761L80.6831 435.732L80.5589 435.721L79.1668 435.448L76.6506 434.283L75.3977 434.222L72.4326 436.059L71.8025 436.182L71.188 435.957L69.9862 434.487L69.066 432.399L68.914 431.566L69.0222 428.65L68.7821 427.63L68.5278 427.226L67.0225 425.932L60.5646 422.058L59.1621 421.699L56.9923 421.857L56.008 421.584L55.1586 420.861L53.9083 419.352L53.2136 418.97L50.8788 418.7L48.6158 418.15L45.6795 417.729L44.9344 417.182L43.6457 415.313L42.9347 414.942L37.607 416.166L36.0137 416.119L33.3856 415.634Z" stroke="#A15151" stroke-width="0.297283"/>
<path d="M33.3465 385.494L29.089 385.138L27.7215 384.814L26.0531 384.175L23.6314 383.03L20.2824 380.583L17.9015 379.376L15.6709 377.848L15.1699 377.619L14.449 377.569L13.6853 377.932L13.3592 378.287L11.9533 381.428L11.4741 382.117L7.51921 386.575L6.47229 388.314L5.68244 389.01L1.80121 390.924L0.334501 391.424L-0.738663 391.583L-4.3843 391.465L-9.37326 392.477L-10.7578 393.261L-12.6244 394.747L-14.0336 395.103L-13.6738 394.038L-11.0496 390.853L-9.71902 388.145L-9.28042 384.58L-9.4427 376.419L-10.1558 373.531L-12.3484 368.13L-11.8039 364.938L-10.7412 361.824L-4.58858 353.178L-0.439301 349.209L1.26109 348.462L5.77567 357.884L7.07276 361.146L7.91749 362.234L9.04516 364.885L13.3397 369.227L15.4757 369.78L16.4866 369.65L18.2782 368.05L21.489 367.685L22.1888 366.676L22.6053 365.609L24.9857 364.018L26.6713 362.523L28.1131 361.666L30.5268 361.826L34.6346 361.406L38.5616 361.455L39.8471 362.929L40.5712 364.329L41.274 368.565L40.9266 371.278L40.428 373.017L38.3541 378.243L36.5904 381.142L34.1795 383.837L33.3465 385.494Z" stroke="#A15151" stroke-width="0.297283"/>
<path d="M33.3857 415.634L31.7804 414.348L29.7827 412.235L28.6369 411.381L27.0329 410.839L24.3342 410.903L23.6923 410.742L21.5498 408.923L19.5284 407.678L17.9172 407.445L16.7814 407.703L15.8875 408.152L14.2884 409.636L13.7932 409.788L10.7042 409.63L8.58446 410.023L6.86859 410.64L5.12134 410.59L3.9696 410.311L1.80812 409.472L-1.69319 407.697L-5.07187 406.692L-6.6561 405.508L-7.5576 403.467L-8.13488 402.856L-9.20215 402.439L-11.9432 401.889L-12.142 401.215L-14.037 398.126L-14.3906 396.155L-14.0336 395.103L-12.6244 394.747L-10.7578 393.261L-9.37325 392.477L-4.3843 391.465L-0.738658 391.583L0.334505 391.424L1.80122 390.924L5.68244 389.01L6.4723 388.314L7.51922 386.575L11.4741 382.117L11.9533 381.428L13.3592 378.287L13.6853 377.932L14.449 377.569L15.1699 377.619L15.6709 377.848L17.9015 379.376L20.2824 380.583L23.6314 383.03L26.0532 384.175L27.7215 384.814L29.089 385.138L33.3465 385.494L34.0975 386.422L34.4384 387.293L35.0357 391.564L35.4476 393.252L36.0721 394.59L36.8069 395.528L38.5372 396.686L40.3412 397.212L41.3489 397.166L43.3488 396.467L43.9677 396.398L45.2282 396.559L46.4033 396.997L48.397 398.378L50.7767 399.318L51.9313 400.062L53.281 401.633L53.8421 403.211L53.8652 403.919L53.367 406.066L52.783 407.127L51.9138 408.002L51.2691 408.334L50.2606 408.52L46.6884 408.319L40.8013 410.074L38.2293 411.64L33.3857 415.634Z" stroke="#A15151" stroke-width="0.297283"/>
<path d="M62.3106 484.074L61.3358 483.55L60.68 483.457L57.9322 483.622L57.3442 483.473L56.669 482.997L55.9694 480.111L54.9144 478.474L54.4504 475.946L54.1997 475.388L53.5299 474.884L51.4244 474.184L49.7093 473.226L48.3693 470.377L47.7722 469.453L47.2536 468.967L44.8985 467.976L42.9223 466.852L41.7381 466.594L40.5617 466.844L38.9986 468.153L38.5634 468.218L37.8854 467.755L36.928 466.054L35.8357 465.281L31.6988 464.134L29.5993 464.292L26.8371 462.683L25.1811 462.736L23.4101 463.553L22.3223 464.876L22.0011 466.778L21.6996 467.56L21.2144 467.867L20.3769 467.906L16.2039 466.935L14.2031 465.384L8.17261 464.283L5.61837 463.645L4.6515 463.151L1.90199 461.207L0.922829 460.977L0.230123 461.2L-0.636701 462.133L-1.62482 464.952L-2.35795 466.123L-5.37109 467.851L-6.54263 468.692L-10.0985 469.915L-15.4464 473.764L-21.8041 474.663L-28.0362 472.424L-32.1311 469.57L-32.5714 461.873L-28.8399 458.226L-16.7981 458.539L-13.4372 452.594L-13.6572 447.993L-18.1002 442.663L-20.6729 437.128L-19.9678 430.834L-15.385 424.69L-15.8414 421.784L-14.644 421.159L-14.7866 419.597L-14.4629 417.751L-11.7657 414.074L-10.396 410.152L-10.5179 406.851L-11.9433 401.889L-9.20216 402.439L-8.13489 402.856L-7.55761 403.467L-6.65611 405.508L-5.07189 406.692L-1.6932 407.697L1.80811 409.472L3.96959 410.311L5.12133 410.59L6.86858 410.64L8.58445 410.023L10.7042 409.63L13.7932 409.788L14.2883 409.636L15.8875 408.152L16.7813 407.703L17.9172 407.445L19.5284 407.678L21.5498 408.923L23.6923 410.742L24.3342 410.903L27.0328 410.839L28.6369 411.381L29.7827 412.235L31.7804 414.348L33.3857 415.634L36.0137 416.119L37.607 416.166L42.9348 414.942L43.6457 415.313L44.9344 417.182L45.6795 417.729L48.6158 418.15L50.8789 418.7L53.2137 418.97L53.9084 419.352L55.1586 420.861L56.008 421.584L56.9924 421.857L59.1621 421.699L60.5646 422.058L67.0225 425.932L68.5278 427.226L68.7822 427.63L69.0222 428.65L68.9141 431.566L69.0661 432.399L69.9862 434.487L71.188 435.957L71.8026 436.182L72.4326 436.059L75.3977 434.222L76.6506 434.283L79.1668 435.448L80.559 435.721L81.0156 436.166L81.6041 437.201L81.9009 438.218L81.7053 438.895L81.3189 439.406L79.6102 439.715L77.188 439.118L76.5695 439.118L76.0248 439.441L75.8681 439.929L75.9555 440.735L78.9923 444.903L81.7783 446.602L82.1132 447.092L82.1854 447.698L81.9058 448.92L81.3464 449.929L79.0744 452.907L77.0047 454.013L76.6798 454.635L76.7263 455.503L77.2338 457.477L77.145 458.865L76.0863 462.233L76.0256 462.937L76.1011 463.937L77.305 467.925L77.2498 468.603L77.1352 469.296L76.5354 470.297L74.311 472.497L73.6735 473.477L72.1622 478.087L72.3175 482.182L71.999 483.593L71.5055 484.898L70.841 485.872L69.4941 486.677L66.4495 485.826L62.3106 484.074Z" stroke="#A15151" stroke-width="0.297283"/>
<path d="M92.383 523.166L92.0133 523.596L88.4747 529.926L81.1186 518.597L80.2382 517.615L79.3157 516.905L76.5611 515.396L75.5823 515.096L73.1154 515.263L71.2456 514.92L69.2412 514.001L65.2261 512.809L62.3529 511.262L61.8054 511.121L60.8139 511.156L56.482 512.05L55.2798 512.084L53.0517 511.569L51.3342 510.555L49.7869 510.011L47.0522 510.25L44.1743 511.457L43.2634 511.579L39.2694 511.446L37.3206 510.735L36.128 510.518L31.0426 511.384L28.7403 511.093L27.3093 510.531L26.6879 510.066L20.6298 503.771L23.8381 500.48L26.5529 490.774L23.2279 485.478L12.4389 483.314L3.22232 477.198L-0.984052 473.999L-5.13543 468.209L-6.54265 468.692L-5.37111 467.851L-2.35797 466.123L-1.62485 464.952L-0.636726 462.132L0.230098 461.2L0.922805 460.977L1.90197 461.207L4.65147 463.151L5.61834 463.645L8.17258 464.283L14.2031 465.384L16.2039 466.935L20.3769 467.906L21.2144 467.867L21.6996 467.56L22.001 466.778L22.3223 464.876L23.4101 463.553L25.1811 462.736L26.8371 462.683L29.5993 464.292L31.6988 464.134L35.8357 465.281L36.9279 466.054L37.8853 467.755L38.5634 468.218L38.9986 468.153L40.5617 466.844L41.738 466.594L42.9223 466.852L44.8985 467.976L47.2536 468.967L47.7722 469.453L48.3693 470.377L49.7092 473.226L51.4244 474.184L53.5299 474.884L54.1996 475.388L54.4504 475.946L54.9143 478.474L55.9693 480.111L56.6689 482.997L57.3442 483.473L57.9322 483.622L60.68 483.457L61.3358 483.55L62.3106 484.074L61.4139 489.865L61.452 491.251L61.9635 492.045L63.6358 492.938L64.2619 493.994L64.5782 495.395L64.3172 496.185L63.2154 497.097L62.5287 498.179L62.5411 498.871L63.1152 500.044L66.5361 503.166L68.0227 503.936L69.6858 504.054L73.2878 503.29L75.1009 503.157L78.616 503.431L80.8897 503.997L81.7138 504.434L84.5077 507.118L84.2624 510.906L85.1032 513.175L92.383 523.166Z" stroke="#A15151" stroke-width="0.297283"/>
<path d="M40.0243 585.041L38.6674 585.211L36.6496 584.768L35.6668 584.214L31.6997 581.218L30.7486 580.305L29.3924 576.033L29.211 574.66L29.5668 573.341L31.0005 571.021L31.0889 569.703L30.756 568.861L27.7811 565.212L24.8673 563.178L22.8153 562.081L22.1087 561.415L20.6291 558.425L18.8063 555.462L16.6543 552.938L16.3305 551.916L16.9786 548.562L15.9544 543.838L14.9633 535.605L14.5633 534.201L12.927 531.221L12.4938 530.935L12.1561 530.936L11.5396 531.54L10.091 536.528L9.49237 537.319L8.72588 537.696L7.61463 537.903L6.41647 537.712L4.05025 536.776L1.30797 535.958L0.292675 535.426L-0.667461 534.694L-1.24674 533.956L-1.67051 532.941L-1.82133 531.897L-1.43414 531.246L0.745911 530.696L1.85038 529.77L2.28953 529.003L2.40732 528.226L1.8054 526.71L-0.435101 524.547L-1.96615 523.515L-2.48431 523.437L-4.28271 523.84L-5.6574 523.824L-6.96508 523.414L-7.63758 522.924L-7.89231 522.591L-8.14905 521.652L-7.92744 518.253L-8.28575 517.124L-9.5661 515.694L-14.4152 511.996L-2.31946 504.123L8.4174 502.101L20.2006 504.217L20.6299 503.771L26.688 510.066L27.3094 510.531L28.7404 511.093L31.0427 511.384L36.128 510.518L37.3207 510.735L39.2695 511.446L43.2635 511.579L44.1744 511.457L47.0523 510.25L49.787 510.011L51.3343 510.555L53.0518 511.569L55.2799 512.084L56.4821 512.05L60.814 511.156L61.8054 511.121L62.353 511.262L65.2262 512.809L69.2413 514.001L71.2456 514.92L73.1155 515.263L75.5824 515.096L76.5612 515.396L79.3158 516.905L80.2383 517.615L81.1187 518.597L88.4748 529.926L80.1619 544.764L71.784 560.602L68.8158 572.632L66.3383 583.848L51.0212 580.457L47.0856 580.996L40.0243 585.041Z" stroke="#A15151" stroke-width="0.297283"/>
<path d="M-44.9936 528.509L-42.1483 525.411L-33.4759 519.209L-28.9239 516.631L-16.9473 513.64L-14.4154 511.996L-9.56622 515.694L-8.28587 517.124L-7.92756 518.253L-8.14917 521.652L-7.89243 522.591L-7.6377 522.924L-6.9652 523.414L-5.65752 523.824L-4.28283 523.84L-2.48443 523.437L-1.96627 523.515L-0.43522 524.547L1.80528 526.71L2.4072 528.226L2.28941 529.003L1.85026 529.77L0.745793 530.696L-1.43426 531.246L-1.82145 531.897L-1.67063 532.941L-1.24686 533.956L-0.66758 534.694L0.292556 535.426L1.30785 535.958L4.05013 536.776L6.41635 537.712L7.61451 537.903L8.72576 537.696L9.49225 537.319L10.0909 536.528L11.5395 531.54L12.156 530.936L12.4936 530.935L12.9269 531.221L14.5632 534.201L14.9632 535.605L15.9543 543.838L16.9785 548.562L16.3304 551.916L16.6542 552.938L18.8062 555.462L20.629 558.425L22.1086 561.415L22.8152 562.081L24.8672 563.178L27.781 565.212L30.7559 568.861L31.0888 569.703L31.0004 571.021L29.5667 573.341L29.2109 574.66L29.3923 576.033L30.7485 580.305L31.6996 581.218L35.6667 584.214L36.6495 584.768L38.6673 585.211L40.0241 585.041L37.3768 586.563L28.4869 590.61L20.2713 592.406L13.1433 597.73L4.92833 603.281L1.09351 604.629L-4.70761 604.531L-9.14238 604.012L-14.3516 603.84L-17.4228 602.435L-22.8576 603.973L-36.0883 600.35L-45.4344 597.597L-55.6734 598.02L-66.5215 597.236L-71.9756 594.496L-75.0763 590.638L-76.8107 585.88L-76.3341 580.354L-69.9466 572.206L-63.4249 566.616L-56.9525 558.739L-55.1174 554.195L-53.8524 542.926L-49.7003 533.136L-44.9936 528.509Z" stroke="#A15151" stroke-width="0.297283"/>
<path d="M247.013 221.613L241.292 228.098L236.335 234.896L231.725 238.165L223.912 247.229L214.919 254.166L214.892 253.204L213.594 252.065L208.092 253.112L205.616 252.912L204.253 253.658L202.928 255.522L201.214 259.064L195.763 258.702L191.721 261.399L187.486 263.255L185.035 263.482L183.154 264.219L177.31 263.439L174.162 264.661L174.396 262.909L173.885 262.045L169.848 259.118L168.409 257.571L168.587 257.045L173.92 253.475L177.645 248.561L179.354 243.879L181.832 233.956L184.744 228.073L186.045 224.01L186.313 219.496L185.84 216.67L184.037 210.127L182.439 207.506L181.813 205.633L179.917 206.031L178.973 205.218L178.729 203.944L179.091 202.528L181.054 199.825L182.012 197.561L185.947 183.636L186.869 177.175L185.223 171.577L185.408 170.266L190.012 167.234L193.357 163.142L194.71 162.099L197.361 161.857L197.875 162.778L199.433 155.618L201.311 149.706L206.682 141.166L208.237 137.984L208.633 136.126L208.505 131.08L208.845 127.311L210.248 121.315L212.272 117.218L215.218 113.015L215.149 112.256L213.975 111.199L211.128 110.205L209.703 110.094L206.318 111.099L204.487 111.186L202.846 110.413L201.278 108.192L202.608 106.173L203.995 104.968L211.392 103.187L219.378 100.387L222.254 98.5749L226.843 93.7686L229.133 92.412L230.693 92.1425L236.431 93.8438L240.09 93.9643L245.157 92.9825L250.198 90.3503L251.944 88.7692L253.122 86.7338L255.653 79.9011L258.305 77.1285L262.369 75.2795L276.631 70.819L277.64 71.9969L277.556 74.0465L275.992 77.4085L272.736 80.9285L267.024 85.2505L263.98 89.9953L262.235 94.8526L261.042 106.32L260.303 108.136L256.693 112.146L257.993 114.578L260.816 118.211L261.894 120.626L262.388 122.12L262.795 128.067L262.423 131.379L261.511 133.483L260.171 135.555L257.627 137.394L256.58 138.725L256.409 141.811L258.196 142.896L261.31 143.889L262.908 145.075L266.357 153.181L264.313 160.311L259.913 162.836L259.245 163.894L259.46 165.513L261.477 169.036L261.503 170.278L261.026 170.883L259.633 171.37L256.952 171.141L252.578 168.962L251.429 169.555L250.579 170.884L250.759 175.955L248.283 184.5L248.683 188.703L246.901 207.473L249.793 213.917L250.191 216.01L249.891 217.537L248.22 220.258L247.013 221.613Z" stroke="#A15151" stroke-width="0.297283"/>
<path d="M110.761 330.998L109.504 329.319L109.857 327.943L108.65 325.473L108.118 321.23L109.528 315.812L110.01 309.78L107.55 302.609L104.364 299.029L102.494 298.138L98.0458 297.138L86.244 296.888L83.5354 296.316L81.7873 295.45L78.5038 292.89L75.4812 289.54L72.2123 284.382L69.3628 281.968L67.0406 281.841L65.6719 282.206L64.0743 283.41L63.2743 281.08L62.8193 280.354L60.3272 278.73L59.6694 278.032L58.5905 274.393L58.068 273.653L57.3094 273.103L55.8522 273.352L53.5996 275.756L50.8272 276.451L50.0008 276.914L49.1848 278.897L48.514 279.561L46.9223 279.711L44.8042 282.214L43.6608 282.85L42.1362 283.085L41.4887 282.952L37.9211 280.952L34.306 280.208L33.3986 279.697L32.765 278.541L32.4681 277.045L31.6421 276.482L31.1898 276.698L30.1345 276.565L29.8079 274.6L29.204 273.913L27.882 273.163L27.7233 271.611L28.9241 269.398L29.4203 267.602L28.9819 266.795L27.8115 265.991L27.498 264.577L27.0865 264.253L25.9772 264.109L25.4575 263.355L25.3634 261.832L25.8354 259.538L25.1343 258.368L24.7224 258.114L24.1864 257.371L24.2169 256.267L24.9013 255.606L25.8661 255.495L27.6062 255.853L29.2583 256.981L30.3176 257.368L31.8113 257.352L32.2057 256.392L31.8485 255.531L28.5436 253.895L27.9941 252.671L28.0952 251.497L28.6819 249.944L29.9161 248.525L30.7052 247.97L32.1084 247.711L33.2685 247.95L34.6071 248.619L36.9305 250.447L37.9692 250.661L38.7956 250.198L39.7465 249.199L42.2355 245.577L43.2399 244.659L47.7829 243.218L48.5447 242.728L49.108 241.972L49.3848 240.285L48.838 239.048L47.9041 237.984L47.7152 236.989L48.403 234.262L48.9155 233.412L49.6205 232.924L50.2172 232.962L50.737 233.716L51.5024 235.941L51.9003 236.262L52.8005 236.123L54.6286 234.756L55.1947 233.987L55.6164 232.963L55.7414 232.356L55.4985 230.872L58.0276 229.719L58.6818 229.137L58.9278 228.625L58.4555 225.659L58.5701 224.488L58.7998 223.986L63.345 219.256L63.8103 217.678L64.5553 216.313L64.7377 215.085L64.5591 213.698L63.7259 211.53L62.8893 207.055L63.1824 205.358L64.8109 202.023L64.8279 200.916L63.5662 199.532L59.5027 197.345L57.5399 194.79L55.6981 193.286L55.9036 192.288L57.2861 189.465L57.6034 188.265L57.2352 187.458L56.1493 186.517L55.4482 185.347L55.2188 183.865L55.3635 182.137L54.9541 181.941L56.6776 177.051L56.3105 174.121L54.6446 174.017L54.3355 173.264L53.8899 172.765L53.1349 172.539L52.8314 172.716L52.7065 173.323L52.2784 173.08L51.6845 173.028L51.8094 172.421L53.4145 169.883L53.9468 167.912L55.6225 164.348L56.148 162.136L56.4448 161.719L56.5661 160.788L56.7042 160.732L56.8625 159.963L57.321 159.101L57.3313 158.709L58.2112 157.372L58.3528 156.684L58.7773 156.603L59.2021 154.539L59.5056 154.362L59.9305 153.255L61.1813 151.754L61.336 150.661L61.2249 150.245L61.4471 150.122L61.6525 149.124L62.1012 148.583L62.2055 147.803L62.7554 147.045L62.7351 146.801L63.0922 146.706L63.129 145.912L63.763 145.087L64.2013 143.982L64.6528 143.428L65.0102 142.306L65.8937 141.293L65.6679 141.092L65.7956 140.471L66.5542 140.065L66.4498 139.889L66.7799 139.31L66.7227 138.905L67.323 138.311L67.3463 137.514L67.5352 137.553L67.6534 136.706L68.0136 136.527L68.442 134.787L68.8093 134.3L69.4662 131.792L69.8169 131.386L69.989 130.55L69.8502 130.268L70.3888 127.651L80.7926 129.638L88.245 130.525L96.1926 133.651L97.0742 133.467L98.7067 132.299L101.572 131.975L110.236 133.463L119.451 134.052L123.826 136.091L126.208 144.329L127.877 147.288L130.957 150.087L132.225 150.756L138.675 149.342L145.161 150.142L147.03 149.599L151.782 146.598L153.25 145.269L155.441 144.258L156.475 144.358L160.373 146.187L164.604 145.511L165.293 144.964L166.322 141.534L167.087 140.482L171.897 139.518L173.627 136.991L175.343 131.045L178.179 124.641L180.213 122.346L181.992 119.506L182.495 116.108L182.436 112.159L182.988 110.023L185.901 105.912L187.483 105.057L190.26 102.634L193.496 98.1816L194.169 97.7154L195.526 99.3868L199.414 108.37L200.259 108.84L201.278 108.192L202.846 110.413L204.487 111.186L206.318 111.099L209.703 110.094L211.128 110.205L213.975 111.199L215.149 112.256L215.218 113.015L212.272 117.218L210.248 121.315L208.845 127.311L208.505 131.08L208.633 136.126L208.237 137.984L206.682 141.166L201.311 149.706L199.433 155.618L197.875 162.778L197.361 161.857L194.71 162.099L193.357 163.142L190.012 167.234L185.408 170.266L185.223 171.577L186.869 177.175L185.947 183.636L182.012 197.561L181.054 199.825L179.091 202.528L178.729 203.944L178.973 205.218L179.917 206.031L181.813 205.633L182.44 207.506L184.037 210.127L185.84 216.67L186.313 219.496L186.045 224.01L184.744 228.073L181.832 233.956L179.354 243.879L177.645 248.561L173.92 253.475L168.587 257.045L168.409 257.571L169.848 259.118L173.885 262.045L174.396 262.909L174.162 264.661L167.018 266.171L165.152 267.587L164.787 271.547L161.942 272.044L161.706 273.739L161.004 274.283L158.834 274.441L154.95 276.3L154.06 279.055L154.613 280.055L153.435 284.073L153.7 285.449L155.232 286.748L155.338 288.556L153.704 290.891L153.012 293.434L154.381 298.876L154.035 299.396L151.72 298.891L150.769 301.395L149.709 301.149L148.543 299.981L147.989 300.148L147.801 301.811L148.844 304.669L148.154 305.427L145.704 305.443L144.104 306.927L145.038 307.991L146.544 308.259L147.331 311.95L148.927 313.01L149.219 313.843L148.647 315.188L144.711 319.763L144.222 321.111L144.331 322.427L146.066 323.768L146.349 324.782L145.491 326.012L144.35 325.819L143.42 326.373L143.24 330.118L140.34 330.407L139.738 336.751L139.125 337.679L137.279 337.834L136.945 338.229L138.398 342.437L136.535 341.857L131.459 339.195L125.264 334.588L122.534 333.098L117.293 331.78L113.605 332.075L110.761 330.998Z" stroke="#A15151" stroke-width="0.297283"/>
<path d="M-23.6754 303.341L-23.7631 303.084L-23.3656 302.519L-22.8761 302.395L-22.5595 301.813L-22.529 301.665L-23.163 301.534L-22.677 301.086L-22.5965 300.695L-22.1478 300.154L-21.5745 300.033L-21.5947 299.79L-21.4595 299.747L-19.5165 295.226L-18.9262 293.042L-17.7861 291.055L-16.9701 289.071L-17.2023 287.603L-20.0485 287.018L-19.968 286.626L-17.4316 287.078L-17.2094 286.955L-16.9496 286.376L-16.7405 286.658L-16.7841 287.211L-16.0152 287.37L-15.9145 287.222L-16.3596 287.13L-16.5175 286.873L-16.4537 286.562L-16.1807 286.534L-15.9375 286.036L-15.8737 285.726L-16.1133 285.592L-16.0689 285.376L-15.7959 285.348L-15.7757 285.591L-15.5868 285.63L-15.2159 285.467L-15.3036 285.21L-15.064 284.388L-14.0964 283.307L-14.1536 282.902L-14.5618 282.973L-14.4099 281.893L-14.1231 281.797L-13.9981 281.19L-13.6474 280.785L-13.7185 280.447L-13.1515 280.015L-13.0405 279.475L-13.2496 279.193L-12.9422 278.314L-12.3356 278.031L-12.0488 276.98L-11.2426 276.274L-11.86 276.062L-11.8497 275.671L-11.5259 275.737L-10.9761 274.979L-9.97801 272.794L-9.64397 272.469L-9.37383 271.498L-8.92237 270.944L-8.78714 269.946L-9.16167 269.784L-9.30332 269.516L-9.14783 268.761L-8.61862 267.829L-7.99775 267.409L-7.553 267.57L-7.01981 266.893L-7.02341 266.569L-7.45467 266.41L-7.36027 265.951L-7.63681 265.655L-6.56806 264.356L-6.67917 263.94L-6.48677 263.347L-6.0012 262.969L-5.09711 261.172L-4.87136 261.373L-4.6726 261.091L-4.69922 260.537L-3.98116 259.644L-3.97763 259.012L-4.34186 258.459L-4.24746 258.001L-3.69443 257.636L-3.28624 256.609L-3.51198 256.408L-3.43147 256.017L-2.80705 254.965L-2.31829 254.503L-2.44329 254.154L-2.14615 253.666L-1.93357 252.36L-1.56621 251.874L-1.42461 251.186L-1.59641 250.996L-1.16837 250.282L-0.409524 247.893L-0.069122 247.879L0.4101 247.19L0.986853 245.003L1.7251 243.397L2.32573 242.734L1.99523 242.427L2.66604 240.807L2.84847 239.579L3.53957 239.159L3.67088 238.863L4.24086 236.435L5.13777 233.99L5.53955 231.697L5.92039 231.213L5.96759 230.983L5.74501 230.698L5.82275 230.321L5.99096 230.187L6.03179 229.647L6.48684 229.417L6.5138 228.944L6.23725 228.648L6.36219 228.041L6.98939 226.975L7.11433 226.368L8.00418 225.666L8.08192 225.288L8.70558 224.854L9.5927 225.121L10.4123 224.418L11.0629 223.511L11.5687 222.42L11.508 221.691L12.0777 221.245L12.9143 218.479L13.6795 217.357L15.2376 212.11L15.6994 211.164L16.1881 208.79L16.5288 207.749L16.9235 207.198L18.0362 203.363L18.0325 202.083L18.3563 202.15L18.4543 202.015L19.0207 200.219L19.1583 199.278L18.9595 198.604L19.1484 198.643L19.3305 198.441L19.4721 198.709L19.6777 198.667L19.7249 198.438L19.5499 198.332L19.8665 197.75L19.6574 197.468L19.6101 196.741L20.1127 194.3L20.5141 193.989L20.3522 193.477L20.8243 193.096L21.3738 193.364L23.0869 192.282L23.8217 192.265L24.6548 192.521L25.9398 192.153L26.2905 191.747L26.5127 191.624L26.6984 191.746L26.9511 191.475L27.5311 191.594L28.3004 192.16L28.6611 193.345L29.2412 193.465L29.5011 193.842L30.5667 194.539L31.2543 194.751L31.2071 194.98L31.4503 195.438L33.1873 195.88L34.9571 195.752L34.9071 195.995L34.0772 196.133L33.9728 195.957L33.3825 196.23L33.1262 196.177L31.538 195.695L30.6306 195.185L29.6427 194.11L29.0996 194.153L29.4067 194.3L29.467 194.622L29.7066 194.756L29.5888 195.055L30.7961 196.021L30.9072 196.437L31.1604 196.574L31.4437 197.11L31.4675 197.677L31.7571 197.568L31.9126 196.813L32.1689 196.866L32.1622 197.581L32.4859 197.648L32.7017 197.214L32.4418 196.837L32.5057 196.527L32.6037 196.393L32.9782 196.554L33.3353 197.415L33.2378 198.913L33.6524 199.153L33.781 199.827L34.6173 199.999L34.9883 199.836L35.7199 199.902L35.6421 199.324L35.9122 199.309L36.7958 200.208L36.7483 201.464L38.121 201.353L38.2222 201.135L38.0972 200.785L37.4636 200.585L37.5004 199.791L36.9577 199.763L36.6272 199.456L37.7162 199.357L40.0633 198.406L40.5386 198.42L40.9031 197.946L41.311 197.946L41.3749 197.636L41.8672 197.498L41.945 197.12L42.3325 196.877L42.8959 196.121L43.9746 195.457L45.7451 193.754L49.1842 188.796L49.606 188.728L49.5821 188.161L50.5564 186.365L50.8432 186.269L50.8397 185.945L51.6656 184.596L52.0365 184.434L51.9627 184.109L53.0683 182.017L53.0648 181.692L54.2584 178.831L55.02 175.472L54.6446 174.017L56.3105 174.121L56.6776 177.051L54.954 181.941L55.3635 182.137L55.2188 183.865L55.4481 185.347L56.1493 186.517L57.2352 187.458L57.6034 188.265L57.2861 189.465L55.9036 192.288L55.6981 193.286L57.5399 194.79L59.5026 197.345L63.5662 199.532L64.8279 200.916L64.8109 202.023L63.1824 205.358L62.8893 207.055L63.7258 211.53L64.5591 213.698L64.7377 215.085L64.5553 216.313L63.8103 217.678L63.345 219.256L58.7998 223.986L58.5701 224.488L58.4555 225.659L58.9278 228.625L58.6818 229.137L58.0276 229.719L55.4985 230.872L55.7414 232.356L55.6164 232.963L55.1947 233.987L54.6286 234.756L52.8005 236.123L51.9003 236.262L51.5024 235.941L50.737 233.716L50.2172 232.962L49.6205 232.924L48.9155 233.411L48.403 234.262L47.7152 236.989L47.9041 237.984L48.838 239.048L49.3848 240.285L49.108 241.972L48.5446 242.728L47.7829 243.218L43.2399 244.659L42.2354 245.577L39.7465 249.199L38.7956 250.198L37.9692 250.661L36.9305 250.447L34.6071 248.619L33.2685 247.95L32.1084 247.711L30.7051 247.97L29.9161 248.525L28.6819 249.944L28.0952 251.497L27.9941 252.671L28.5436 253.895L31.8485 255.531L32.2056 256.392L31.8113 257.352L30.3176 257.368L29.2583 256.981L27.6062 255.853L25.8661 255.495L24.9012 255.606L24.2169 256.267L24.1864 257.371L24.7224 258.114L25.1343 258.368L25.8354 259.538L25.3633 261.832L25.4575 263.355L25.9772 264.109L27.0865 264.253L27.4979 264.577L27.8114 265.991L28.9819 266.795L29.4203 267.602L28.9241 269.398L27.7233 271.611L27.882 273.163L29.204 273.913L29.8079 274.6L30.1345 276.565L31.1898 276.698L31.6421 276.482L32.4681 277.045L32.765 278.541L33.3986 279.697L34.306 280.208L37.9211 280.952L41.4887 282.951L42.1362 283.085L43.6608 282.85L44.8042 282.214L46.9223 279.711L48.514 279.561L49.1848 278.897L50.0008 276.914L50.8272 276.451L53.5996 275.756L55.8522 273.352L57.3094 273.103L58.0679 273.653L58.5905 274.393L59.6694 278.032L60.3272 278.73L62.8192 280.354L63.2743 281.08L64.0743 283.41L60.4153 286.158L59.2616 287.664L55.9141 289.787L50.6554 292.178L44.247 293.938L34.1715 295.548L32.1295 296.52L29.1383 300.123L27.3274 303.729L24.7882 310.532L21.6098 315.727L20.4352 319.043L19.3834 318.756L12.4865 319.474L10.8139 319.129L9.82241 318.686L8.64238 316.222L7.22596 314.974L6.72041 313.126L5.82687 311.593L5.16906 310.895L4.25891 310.398L-1.29867 309.254L-4.6742 307.688L-8.17469 306.728L-10.502 306.559L-13.5001 307.052L-15.1894 306.789L-16.1809 306.346L-18.5888 304.655L-20.6424 303.839L-23.6754 303.341Z" stroke="#A15151" stroke-width="0.297283"/>
<path d="M-99.1802 440.232L-95.9522 435.343L-95.4599 434.249L-94.434 432.885L-94.373 432.589L-94.0528 432.331L-93.3875 430.738L-92.8409 430.064L-92.5981 429.157L-92.3144 429.146L-92.1966 428.846L-91.9804 428.821L-91.8693 428.281L-91.7007 428.077L-91.4984 428.118L-91.4207 427.741L-91.2993 427.766L-90.5871 426.97L-90.2329 426.888L-90.0845 426.441L-87.5507 423.967L-85.0339 420.211L-82.5434 416.309L-77.6759 407.074L-75.8378 407.776L-74.9173 408.837L-73.4271 409.453L-69.272 410.238L-67.5088 411.782L-65.9373 412.345L-62.275 412.859L-60.2215 412.72L-58.3053 411.539L-54.4226 408.387L-52.6853 407.803L-51.5252 408.042L-50.3385 408.834L-49.5838 411.043L-48.7578 411.606L-47.3545 411.347L-47.0038 410.941L-46.1972 410.643L-44.5655 410.571L-42.36 411.264L-41.2701 410.546L-40.9528 409.346L-41.0905 408.376L-41.8563 407.177L-44.1995 405.514L-43.8972 397.829L-44.0349 396.858L-44.736 395.688L-46.6885 393.697L-47.238 392.473L-47.2103 391.382L-46.7077 389.897L-46.1979 389.059L-45.6446 386.713L-44.885 384.661L-42.3888 382.644L-40.26 380.158L-39.1841 378.551L-38.6471 376.215L-38.9197 374.261L-38.164 372.912L-37.2934 369.365L-37.4985 368.381L-39.2891 366.902L-39.7406 365.543L-40.8432 364.684L-42.2696 362.801L-43.949 361.738L-48.7881 360.11L-50.4902 359.703L-49.8852 358.745L-49.8075 358.367L-49.9626 358.096L-49.8146 357.719L-48.7582 356.207L-48.3706 355.963L-48.3131 355.342L-47.5137 354.396L-47.2602 353.506L-46.3395 352.585L-45.9852 351.547L-45.506 350.858L-45.4826 350.062L-44.8483 349.644L-44.5984 348.43L-43.7451 346.538L-43.229 346.012L-42.2205 344.392L-42.102 343.474L-41.7679 343.149L-41.2248 342.15L-41.2451 341.907L-40.1252 340.155L-39.838 339.033L-40.0403 338.991L-39.9931 338.762L-39.3762 338.087L-38.8832 336.375L-37.8985 335.143L-37.6082 334.416L-36.7616 333.24L-36.6402 332.309L-36.4172 332.524L-36.1982 332.484L-36.0666 331.162L-35.5299 329.852L-35.2264 329.675L-35.1693 329.125L-33.3203 324.992L-33.2564 324.682L-33.533 324.386L-33.5092 323.997L-32.5784 323.71L-32.4638 323.495L-31.4883 321.01L-31.0904 320.375L-30.9016 319.458L-30.355 318.783L-28.2267 313.976L-28.0407 313.072L-27.3727 311.466L-27.7504 311.388L-27.717 311.227L-26.8768 310.697L-26.58 310.28L-26.2393 309.239L-26.1719 308.297L-25.4805 306.85L-25.8645 306.462L-25.3992 305.84L-25.1096 305.731L-24.3165 304.474L-24.0975 304.435L-23.6755 303.341L-20.6424 303.839L-18.5888 304.655L-16.1809 306.346L-15.1894 306.789L-13.5001 307.052L-10.502 306.559L-8.1747 306.728L-4.67422 307.688L-1.29868 309.254L4.2589 310.398L5.16904 310.895L5.82686 311.593L6.7204 313.126L7.22594 314.974L8.64237 316.222L9.82239 318.686L10.8139 319.129L12.4865 319.474L19.3834 318.756L20.4352 319.043L19.2221 322.477L17.2786 323.722L10.6773 325.189L8.72345 326.826L5.2998 330.958L3.52476 338.284L3.00425 346.346L1.8189 348.212L-0.439303 349.209L-4.58859 353.178L-10.7412 361.824L-11.8039 364.938L-12.3484 368.13L-10.1558 373.531L-9.4427 376.419L-9.28042 384.58L-9.71903 388.145L-11.0496 390.852L-13.6738 394.038L-14.3906 396.155L-14.037 398.126L-12.142 401.215L-10.5179 406.851L-10.3959 410.152L-11.7657 414.074L-14.4629 417.751L-14.7866 419.597L-14.644 421.159L-15.8414 421.784L-15.385 424.69L-19.9678 430.834L-20.6729 437.128L-18.1002 442.663L-13.6572 447.993L-13.4372 452.594L-16.7981 458.539L-28.8399 458.226L-29.1061 458.494L-35.0291 457.008L-38.5391 455.822L-40.6771 455.62L-42.6651 456.603L-45.9943 462.189L-48.7821 463.232L-56.5233 463.27L-60.6021 463.822L-66.311 467.512L-67.8804 469.945L-68.4065 469.837L-69.2297 470.216L-71.055 471.57L-74.0578 474.34L-75.5519 475.383L-76.3616 475.764L-77.9366 475.834L-78.5972 475.149L-79.5174 473.062L-80.1155 467.497L-80.4318 466.096L-81.1595 464.372L-82.2213 462.972L-85.7476 459.884L-86.2571 459.695L-88.0824 461.049L-88.9084 461.441L-89.8967 461.392L-92.0316 460.63L-93.1849 460.631L-93.138 461.428L-91.4859 462.556L-91.3379 464.091L-90.2928 465.571L-90.3475 466.179L-91.0692 466.747L-91.6631 466.695L-93.0692 466.012L-93.5611 466.08L-93.9867 467.806L-94.773 468.347L-96.9821 468.286L-97.5454 468.086L-98.7286 466.661L-100.067 465.992L-102.627 465.31L-103.547 464.249L-103.685 463.279L-103.546 462.604L-102.878 461.954L-101.63 461.424L-99.7207 461.029L-98.9483 460.556L-98.331 459.811L-98.3005 458.706L-98.9203 457.482L-101.058 455.706L-101.357 454.225L-101.138 453.159L-100.241 452.078L-99.3126 451.805L-98.7159 451.844L-96.5544 453.16L-95.5597 453.52L-94.3183 453.705L-93.5598 453.299L-93.0085 450.347L-92.0369 448.564L-92.0763 446.433L-91.8331 445.935L-89.6341 444.405L-89.2426 443.459L-89.5322 442.612L-90.2904 441.992L-92.7125 442.351L-94.3007 441.869L-95.3589 439.838L-96.5495 439.747L-97.3219 440.221L-98.3034 440.413L-99.1802 440.232Z" stroke="#A15151" stroke-width="0.297283"/>
<path d="M65.3451 588.537L62.3937 602.398L60.4491 607.678L54.3692 617.816L42.323 631.802L38.5169 636.699L35.1135 640.596L32.7912 645.799L34.2603 652.119L41.7599 668.216L42.7916 672.562L42.7911 678.439L42.1649 682.711L39.1623 689.306L36.7135 693.963L24.9869 705.849L22.9098 711.158L22.5577 715.669L23.3769 721.322L22.2195 726.876L17.4227 729.756L7.50161 733.69L-1.52438 746.118L-2.6104 750.984L-2.35031 755.664L-4.65629 760.855L-9.43813 761.544L-13.7684 765.026L-16.9738 770.215L-19.2608 781.19L-24.113 788.164L-31.9624 797.403L-34.4199 803.126L-38.5339 805.626L-48.1265 817.459L-49.5902 821.77L-59.8709 845.076L-62.4646 849.547L-66.6246 853.5L-68.2887 856.94L-63.3616 873.716L-62.9948 878.15L-64.3947 881.195L-70.7383 885.851L-73.1717 890.158L-73.4753 895.664L-79.9211 904.574L-79.2699 938.299L-102.579 960.413L-111.381 978.652L-114.95 999.684L-124.624 1011.98L-126.695 1016.78L-126.84 1020.9L-128.622 1026.14L-135.984 1041.83L-137.833 1050.81L-138.367 1056.55L-139.382 1061.75L-143.2 1064.86L-147.982 1067.06L-152.36 1070.43L-155.886 1074.92L-159.463 1080.82L-159.891 1080.58L-160.876 1080.44L-161.334 1079.73L-161.846 1079.63L-162.188 1080.33L-162.474 1080.35L-162.746 1081.06L-163.147 1081.37L-163.29 1081.72L-163.87 1081.6L-164.066 1081.94L-164.707 1082.05L-165.069 1082.51L-165.485 1083.57L-166.265 1084.43L-166.778 1084.32L-166.822 1084.54L-167.704 1085.2L-168.645 1085.54L-169 1086.24L-170.087 1086.94L-170.315 1088.05L-170.97 1088.29L-172.051 1089.31L-172.584 1089.58L-172.723 1090.25L-173.99 1091.22L-175.053 1091.46L-179.521 1083.45L-181.392 1077.04L-181.582 1072.36L-180.916 1064.41L-177.237 1057.6L-174.648 1050.56L-174.67 1045.34L-177.342 1037.21L-174.54 1024.41L-184.58 952.759L-183.278 948.823L-186.521 926.46L-194.894 865.695L-195.964 846.915L-210.006 832.958L-208.903 824.594L-201.295 812.015L-208.95 798.108L-205.257 783.584L-206.224 754.195L-217.847 706.963L-223.121 665.369L-229.198 597.751L-217.114 592.055L-204.93 585.255L-201.398 581.074L-199.95 573.766L-198.922 565.836L-195.486 559.457L-185.694 551.095L-157.704 533.29L-150.6 533.066L-147.783 529.835L-146.736 524.609L-148.942 519.276L-157.102 507.754L-149.611 499.776L-148.515 499.369L-147.917 498.789L-147.954 498.627L-148.329 498.465L-148.123 497.805L-148.308 497.682L-148.264 497.466L-147.293 496.71L-147.357 497.02L-148.075 497.576L-147.458 497.857L-147.384 498.111L-147.168 498.086L-142.407 492.921L-141.621 491.424L-140.662 491.002L-139.023 489.596L-138.294 488.65L-138.284 488.258L-137.383 487.501L-136.802 486.594L-136.431 486.432L-136.36 486.77L-136.104 486.822L-130.719 480.605L-129.801 479.768L-127.246 476.511L-125.958 475.441L-125.12 474.038L-121.625 470.104L-118.264 465.593L-116.701 463.876L-114.964 461.309L-114.434 460.715L-114.228 460.673L-114.249 460.43L-113.354 459.362L-112.332 457.674L-111.184 456.336L-109.747 454.27L-110.293 453.37L-110.417 451.994L-110.133 450.956L-109.172 449.495L-108.969 449.536L-109.078 450.062L-109.367 450.172L-109.944 450.995L-110.208 452.276L-109.669 453.892L-109.143 454L-108.944 453.647L-109.513 453.136L-109.466 452.907L-109.179 452.811L-109.078 452.045L-108.842 451.855L-108.649 451.261L-108.602 451.032L-108.828 450.831L-108.764 450.521L-108.184 450.64L-107.992 451.003L-106.508 451.308L-106.295 450.959L-105.674 450.538L-105.489 450.253L-105.782 450.038L-105.758 449.649L-105.299 447.691L-105.066 447.584L-105.06 447.894L-104.871 447.933L-104.84 447.785L-104.267 447.594L-101.338 443.135L-99.1802 440.232L-98.3034 440.413L-97.3219 440.221L-96.5494 439.747L-95.3588 439.838L-94.3006 441.869L-92.7124 442.351L-90.2904 441.992L-89.5322 442.612L-89.2425 443.459L-89.634 444.405L-91.8331 445.935L-92.0763 446.433L-92.0369 448.564L-93.0084 450.347L-93.5597 453.299L-94.3183 453.705L-95.5597 453.52L-96.5543 453.16L-98.7158 451.844L-99.3125 451.805L-100.24 452.078L-101.138 453.159L-101.357 454.225L-101.058 455.706L-98.9203 457.482L-98.3005 458.706L-98.331 459.811L-98.9483 460.556L-99.7207 461.029L-101.63 461.424L-102.878 461.954L-103.546 462.604L-103.685 463.279L-103.547 464.249L-102.627 465.31L-100.067 465.992L-98.7286 466.661L-97.5454 468.086L-96.982 468.286L-94.773 468.347L-93.9867 467.806L-93.561 466.08L-93.0691 466.012L-91.663 466.695L-91.0691 466.747L-90.3475 466.179L-90.2927 465.571L-91.3378 464.091L-91.4859 462.556L-93.138 461.428L-93.1848 460.631L-92.0315 460.63L-89.8966 461.392L-88.9083 461.441L-88.0823 461.049L-86.257 459.695L-85.7476 459.884L-82.2212 462.972L-81.1595 464.372L-80.4318 466.096L-80.1155 467.497L-79.5173 473.062L-78.5972 475.149L-77.9366 475.834L-76.3615 475.764L-75.5518 475.383L-74.0577 474.34L-71.055 471.57L-69.2296 470.216L-68.4064 469.837L-67.8803 469.945L-67.5161 470.02L-66.4849 471.568L-65.4537 474.072L-64.9322 476.458L-64.5932 480.071L-64.2222 480.864L-63.5315 481.47L-61.376 481.45L-60.2465 481.837L-59.4712 482.306L-58.6082 483.988L-58.8109 484.973L-60.566 487.283L-60.6338 488.296L-60.1698 491.302L-60.2816 492.46L-60.7612 494.175L-61.6725 495.323L-62.0941 496.347L-62.6089 500.488L-63.2503 502.647L-63.059 504.655L-63.4449 506.53L-64.272 508.568L-63.9724 510.049L-60.8305 512.819L-57.9381 515.777L-55.1398 518.167L-54.2871 519.284L-53.3642 521.358L-49.9351 523.006L-49.244 523.542L-44.9935 528.509L-49.7001 533.136L-53.8523 542.926L-55.1173 554.195L-56.9524 558.739L-63.4248 566.616L-69.9465 572.206L-76.334 580.354L-76.8106 585.88L-75.0762 590.638L-71.9755 594.496L-66.5214 597.236L-55.6733 598.02L-45.4343 597.597L-36.0882 600.35L-22.8575 603.973L-17.4227 602.435L-14.3514 603.84L-9.14225 604.012L-4.70748 604.531L1.09364 604.629L4.92845 603.281L13.1435 597.73L20.2714 592.406L28.487 590.61L37.3769 586.563L47.0856 580.996L51.0212 580.457L66.3383 583.848L65.3451 588.537Z" stroke="#A15151" stroke-width="0.297283"/>
<path d="M20.6298 503.771L20.2006 504.217L8.41734 502.101L-2.31953 504.123L-16.9472 513.64L-28.9238 516.631L-33.4759 519.209L-42.1483 525.411L-44.9935 528.509L-49.244 523.542L-49.9352 523.006L-53.3643 521.358L-54.2872 519.284L-55.1399 518.167L-57.9382 515.777L-60.8306 512.819L-63.9725 510.05L-64.2721 508.568L-63.445 506.53L-63.059 504.655L-63.2504 502.648L-62.609 500.488L-62.0942 496.347L-61.6725 495.323L-60.7613 494.175L-60.2817 492.46L-60.1699 491.302L-60.6338 488.296L-60.566 487.283L-58.811 484.973L-58.6083 483.988L-59.4713 482.306L-60.2465 481.837L-61.3761 481.45L-63.5316 481.47L-64.2223 480.864L-64.5933 480.071L-64.9323 476.458L-65.4537 474.072L-66.485 471.568L-67.5162 470.02L-67.8804 469.945L-66.311 467.512L-60.6021 463.822L-56.5233 463.27L-48.7821 463.232L-45.9943 462.189L-42.6651 456.603L-40.6771 455.62L-38.5391 455.822L-35.0291 457.008L-29.1061 458.494L-32.5714 461.873L-32.1311 469.57L-28.0362 472.424L-21.8041 474.663L-15.4464 473.764L-10.0985 469.915L-5.13542 468.209L-0.98404 473.999L3.22234 477.199L12.4389 483.314L23.2279 485.478L26.5529 490.775L23.8381 500.48L20.6298 503.771Z" stroke="#A15151" stroke-width="0.297283"/>
<path d="M146.482 774.825L149.762 774.962L156.248 777.309L160.04 777.387L160.778 776.066L167.831 774.975L169.086 775.91L172.809 773.54L174.188 771.437L174.41 774.976L176.735 774.971L177.874 776.469L181.955 777.951L183.99 776.093L189.175 775.953L191.492 774.731L195.948 774.415L199.043 775.65L199.817 775.083L199.01 774.216L199.942 773.891L203.054 775.544L202.613 773.238L203.482 772.371L204.164 772.133L204.516 773.651L207.183 773.667L205.8 772.037L206.551 771.093L209.699 772.173L210.059 773.5L214.487 773.376L215.695 772.32L217.359 773.878L218.946 774.047L220.407 777.505L224.192 776.376L225.186 777.571L225.417 774.07L227.753 774.154L227.866 771.726L229.527 772.555L230.328 770.907L231.707 771.798L232.377 770.574L234.395 770.854L238.264 773.629L238.891 772.03L245.521 772.485L247.927 774.597L249.081 773.068L259.034 771.748L261.51 772.195L269.292 770.133L275.383 766.286L277.155 766.244L277.827 764.072L276.777 762.214L276.954 760.347L279.945 756.094L288.502 755.761L291.629 754.996L292.33 753.609L296.194 754.058L295.239 755.315L293.069 755.721L295.059 756.194L299.806 753.428L303.279 754.561L305.223 753.481L305.376 756.938L307.583 761.688L307.648 764.546L310.551 765.494L312.316 768.637L312.029 769.978L309.445 770.431L308.462 771.88L310.45 780.149L312.928 782.194L313.505 786.131L312.879 788.877L309.479 793.656L307.688 794.239L307.165 796.045L308.245 798.877L310.143 800.379L311.581 799.676L311.941 801.003L314.608 801.458L317.958 800.189L319.628 800.828L321.806 804.803L318.865 811.776L315.061 811.859L313.137 810.3L309.629 810.699L307.891 808.231L304.009 807.624L302.713 809.578L300.297 810.362L299.22 812.83L300.643 813.846L300.986 816.862L298.8 818.099L299.1 819.592L296.104 821.52L295.587 827.328L296.171 827.901L299.016 826.939L300.594 832.569L303.823 838.491L306.033 838.879L306.119 841.474L304.112 841.034L305.421 844.469L304.304 845.005L305.076 846.534L303.098 847.488L302.003 849.359L301.754 851.993L303.098 853.896L295.073 851.095L289.814 856.295L288.519 854.825L287.152 855.619L283.256 853.047L279.582 852.865L280 856.811L281.689 859.983L279.904 865.447L277.678 867.027L271.606 865.781L267.092 866.992L263.45 869.373L262.328 867.055L258.195 865.119L257.271 867.09L254.019 869.746L253.484 873.74L250.432 877.451L245.494 880.198L243.48 883.122L239.63 883.5L240.956 882.521L240.58 879.648L236.869 879.85L237.228 877.913L235.109 878.154L231.898 880.645L227.521 881.392L226.376 878.697L224.18 878.697L223.172 880.369L222.257 878.986L221.038 879.503L220.179 877.924L218.386 880.064L219.221 882.315L214.801 883.387L210.722 888.602L208.38 887.76L206.119 888.336L204.409 885.935L200.737 885.334L197.097 886.157L196.102 888.207L194.238 889.018L190.588 886.767L188.369 883.755L187.375 880.544L185.239 880.627L181.142 878.307L178.586 878.308L172.823 871.956L167.066 872.51L163.273 871.543L153.839 879.533L147.889 878.652L145.568 879.834L140.77 880.13L138.352 877.74L135.108 878.358L130.767 876.256L122.668 874.381L121.585 875.393L121.376 877.952L117.447 878.338L116.556 879.897L117.65 882.847L116.365 887.176L116.767 892.551L114.061 893.777L113.637 891.19L108.786 889.874L107.106 891.433L106.854 895.454L105.639 896.002L104.919 899.507L98.2684 897.728L100.348 896.703L101.499 894.446L96.3012 894.208L96.9091 896.834L95.9108 899.733L92.9403 895.378L90.1571 894.078L88.1229 886.982L88.7707 885.83L91.0553 885.73L90.3907 881.463L91.9135 878.086L90.5026 872.786L88.1425 872.485L90.1169 869.216L89.6351 867.085L87.3675 863.469L85.3508 862.94L84.604 859.091L83.0415 857.552L75.8766 856.08L72.2017 849.48L69.917 849.141L71.4674 846.709L71.602 844.467L74.6995 844.405L76.1676 842.391L75.4202 841.348L74.9614 831.777L68.8694 830.084L68.3374 824.963L63.3327 823.176L59.4366 818.757L56.1292 817.676L54.795 816.3L58.3778 814.975L60.4406 812.923L64.3513 812.639L68.4528 807.621L70.4344 808.543L72.3945 807.871L73.6042 806.306L75.8462 805.832L78.8364 806.67L80.0653 805.802L81.2173 807.418L82.8777 807.798L87.9571 808.399L91.9272 807.758L96.648 809.068L98.669 808.23L100.459 810.192L110.665 812.686L114.145 815.465L119.653 816.586L122.374 818.213L126.098 816.992L133.212 810.902L136.429 809.778L140.348 804.471L143.256 796.504L146.482 774.825Z" fill="#FFE6DE" stroke="#A15151" stroke-width="0.297283"/>
<path d="M116.745 892.533L116.343 887.159L117.627 882.82L116.533 879.87L117.434 878.31L121.355 877.934L121.562 875.365L122.645 874.354L130.744 876.228L135.085 878.331L138.329 877.712L140.737 880.104L145.535 879.808L147.857 878.626L153.806 879.507L163.24 871.517L167.034 872.484L172.79 871.929L178.553 878.282L181.108 878.271L185.216 880.6L187.342 880.518L188.336 883.729L190.555 886.741L194.205 888.991L196.078 888.17L197.074 886.13L200.713 885.297L204.385 885.898L206.085 888.3L208.347 887.734L210.689 888.576L209.953 896.066L212.406 896.746L214.034 896.141L214.198 897.58L215.18 897.788L220.114 896.848L224.74 898.029L225.242 899.02L231.186 898.884L235.797 901.594L236.955 904.148L238.635 904.436L240.593 908.576L244.171 909.317L246.131 910.931L251.069 917.837L251.294 925.788L250.505 929.92L251.925 931.785L251.505 934.328L253.245 936.287L252.403 939.507L249.603 940.774L232.693 942.446L220.657 941.597L200.156 951.893L197.203 954.635L195.046 958.583L194.994 957.95L192.377 958.817L190.119 961.699L190.92 964.612L188.782 963.458L187.767 966.737L187.062 973.356L188.751 982.508L193.762 986.111L196.721 989.658L194.674 991.408L187.707 989.834L180.481 989.677L178.165 991.607L173.665 991.27L170.202 992.951L170.022 992.063L171.826 990.281L170.876 987.194L170.102 987.063L170.572 985.402L165.815 977.098L161.69 971.628L151.534 963.778L148.663 964.513L144.733 963.662L143.497 965.699L138.642 965.053L137.564 966.813L130.212 966.859L125.982 969.686L122.424 970.09L121.824 971.926L120.114 972.25L118.964 973.638L112.823 973.358L111.868 974.095L111.671 976.044L108.484 976.726L101.588 973.936L93.3729 972.883L91.9009 965.903L92.5343 962.956L90.0523 959.035L92.4097 958.258L94.4618 956.288L93.7579 954.222L94.7035 951.739L96.4886 952.075L99.2059 950.688L101.203 947.616L102.468 947.502L103.296 945.132L105.131 944.674L105.803 943.3L108.026 943.267L108.467 936.608L109.664 935.903L107.383 933.307L103.983 932.995L103.971 930.601L102.263 929.806L104.822 926.411L107.057 926.926L107.018 923.157L108.335 920.951L113.697 918.066L113.128 915.345L114.102 910.832L117.761 906.922L120.374 905.587L121.227 902.546L123.49 901.56L122.66 897.941L118.153 897.285L116.745 892.533Z" fill="#FFE6DE" stroke="#A15151" stroke-width="0.297283"/>
<path d="M321.777 804.806L325.75 804.105L328.619 802.472L329.802 804.623L337.399 808.052L337.547 812.607L339.782 820.329L345.166 818.949L345.871 816.463L346.723 815.697L349.196 815.855L351.888 811.517L353.118 811.537L354.387 812.6L352.291 819.636L354.843 823.03L356.083 823.139L361.043 818.033L364.728 819.711L365.312 823.008L369.509 824.977L369.9 827.538L372.38 826.877L373.503 827.538L372.878 829.585L380.769 828.749L383.835 830.876L395.267 829.227L395.857 832.394L400.269 840.648L403.233 841.429L405.817 840.277L405.79 842.146L403.605 845.409L398.133 849.176L395.466 849.858L387.556 844.378L373.246 840.644L371.884 841.308L366.28 840.926L364.974 841.903L362.044 841.158L361.306 842.22L355.28 842.945L348.766 845.802L343.3 850.586L340.989 855.28L340.139 859.31L341.659 861.174L340.529 860.633L340.343 861.283L340.773 861.903L340.444 864.536L341.247 864.225L340.01 865.284L340.954 871.486L340.491 876.899L341.757 880.399L335.13 890.775L334.314 896.947L328.937 896.011L320.915 897.362L312.973 906.27L308.723 909.099L307.905 912.007L301.713 913.12L291.019 918.109L288.134 921.88L282.601 923.967L277.085 929.625L271.001 930.376L265.786 934.732L263.369 935.067L264.419 936.055L260.795 934.73L261.296 934.044L260.321 933.806L256.154 934.12L253.245 936.287L251.506 934.328L251.925 931.785L250.505 929.92L251.294 925.788L251.069 917.837L246.131 910.931L244.171 909.317L240.593 908.576L238.635 904.436L236.955 904.148L235.797 901.594L231.186 898.884L225.242 899.02L224.74 898.029L220.114 896.848L215.18 897.788L214.198 897.58L214.034 896.141L212.406 896.746L209.953 896.066L210.689 888.576L214.768 883.36L219.197 882.278L218.362 880.027L220.156 877.897L221.015 879.476L222.234 878.958L223.149 880.342L224.158 878.68L226.355 878.68L227.499 881.374L231.875 880.618L235.096 878.125L237.205 877.886L236.857 879.832L240.568 879.63L240.944 882.502L239.618 883.481L243.468 883.104L245.482 880.179L250.42 877.432L253.473 873.731L254.008 869.737L257.26 867.082L258.184 865.11L262.317 867.046L263.449 869.363L267.091 866.983L271.605 865.771L277.667 867.019L279.892 865.428L281.677 859.964L279.979 856.793L279.56 852.848L283.234 853.029L287.13 855.601L288.508 854.816L289.794 856.287L295.052 851.087L303.077 853.889L301.732 851.975L301.982 849.342L303.078 847.48L305.056 846.527L304.283 844.997L305.399 844.451L304.09 841.016L306.097 841.457L306.011 838.861L303.802 838.483L300.574 832.561L298.996 826.931L296.15 827.893L295.566 827.321L296.074 821.513L299.069 819.586L298.77 818.092L300.956 816.865L300.613 813.85L299.191 812.843L300.267 810.365L302.684 809.582L303.979 807.628L307.861 808.235L309.599 810.702L313.108 810.304L315.032 811.862L318.836 811.779L321.777 804.806Z" fill="#FFE6DE" stroke="#A15151" stroke-width="0.297283"/>
<path d="M557.202 591.171L554.781 595.609L555.345 598.46L553.957 599.605L554.956 604.264L553.949 604.797L554.198 606.556L553.218 606.887L552.462 608.929L545.462 610.493L544.623 612.336L539.996 612.991L538.361 615.643L536.944 615.385L535.892 617.201L528.652 619.461L518.766 628.74L519.007 631.558L517.232 632.019L516.679 633.39L515.929 640.403L513.434 641.196L508.649 646.88L503.383 649.206L487.585 667.602L476.654 673.216L470.588 677.989L463.67 681.68L450.811 692.554L438.004 709.952L438.418 713.598L437.005 716.534L437.537 718.929L435.175 723.181L422.097 726.863L418.066 725.125L414.969 726.595L412.588 726.546L407.845 730.05L404.6 734.082L402.01 741.863L400.146 744.082L396.651 751.896L397.932 761.583L397.03 764.011L397.448 767.428L401.48 775.584L401.337 778.016L402.633 780.195L404.63 780.287L409.535 788.055L411.962 788.768L412.67 788.148L413.164 789.24L411.397 789.062L412.578 790.235L414.116 789.711L414.341 790.993L415.127 790.964L416.354 795.087L424.501 804.323L427.233 805.35L432.335 810.011L435.158 810.958L442.408 818.01L443.825 821.083L446.472 821.891L445.966 823.406L446.742 824.965L451.151 829.505L448.963 830.891L449.202 831.593L450.989 833.266L451.325 835.514L452.793 836.485L453.652 835.789L454.319 837.27L453.932 838.961L452.282 838.67L452.513 837.276L451.106 836.577L448.873 838.708L445.476 836.139L438.626 834.891L434.886 832.551L432.726 832.607L431.55 833.759L427.753 832.763L426.346 833.911L425.49 832.611L423.55 833.021L423.005 832.354L421.13 833.515L419.701 833.328L419.538 835.313L417.663 834.888L405.946 839.743L405.875 840.26L403.291 841.412L400.328 840.641L395.916 832.388L395.317 829.221L383.885 830.87L380.818 828.743L372.927 829.58L373.554 827.542L372.431 826.881L369.95 827.542L369.559 824.981L365.363 823.012L364.778 819.715L361.094 818.037L356.144 823.142L354.903 823.033L352.352 819.64L354.447 812.603L353.178 811.54L351.948 811.52L349.257 815.859L346.782 815.691L345.931 816.456L345.226 818.952L339.841 820.323L337.606 812.601L337.458 808.046L329.861 804.616L328.678 802.465L325.809 804.099L321.846 804.799L319.667 800.824L317.997 800.185L314.648 801.454L311.981 800.998L311.62 799.672L310.183 800.374L308.285 798.873L307.205 796.041L307.728 794.234L309.518 793.652L312.918 788.873L313.545 786.126L312.967 782.189L310.489 780.145L308.501 771.876L309.485 770.426L312.068 769.973L312.355 768.633L310.59 765.489L307.688 764.541L307.622 761.684L305.416 756.933L305.262 753.477L302.777 749.966L303.15 749.384L305.746 748.77L315.494 741.703L319.954 740.018L321.415 737.237L324.005 737.711L330.072 735.235L330.613 732.877L332.916 731.976L333.031 729.737L330.677 730.194L328.84 728.966L327.723 725.809L328.593 724.242L329.976 723.766L331.045 724.473L332.745 722.652L333.74 723.148L336.089 721.514L340.823 716.963L341.338 715.087L343.972 714.369L345.273 712.464L347.011 711.947L347.6 710.193L349.544 709.813L352.358 707.257L355.163 706.648L356.817 705.123L361.327 705.279L365.181 703.793L368.616 704.421L377.054 703.043L384.436 699.748L386.695 697.135L389.283 697.42L390.141 696.275L393.955 695.142L394.261 693.7L398.096 693.454L400.936 691.564L401.932 689.794L405.125 690.04L408.315 688.689L411.013 685.547L416.033 683.959L420.567 679.49L421.821 679.987L425.252 678.03L426.841 675.234L428.413 675.275L431.24 673.007L433.463 669.819L435.563 670.12L444.834 665.522L448.117 658.311L450.576 656.495L451.167 653.612L454.652 651.429L454.95 647.113L456.06 645.899L457.983 645.78L460.081 647.199L463.346 646.768L464.356 645.116L465.912 646.856L467.472 644.951L467.973 646.112L470.115 645.899L473.076 643.935L474.538 640.894L477.699 640.695L478.611 639.054L479.21 639.754L480.342 639.176L481.784 637.196L482.282 638.157L484.547 638.06L488.896 633.543L491.74 632.131L493.038 627.921L494.941 628.853L497.721 625.472L497.439 621.411L499.91 620.841L500.028 620.029L502.982 619.853L503.919 617.73L506.9 616.114L509.885 615.066L510.511 616.182L513.202 615.527L514.193 613.268L515.702 613.197L515.905 611.736L517.068 611.604L520.38 608.153L524.199 607.499L524.953 608.602L526.326 608.476L530.819 605.499L533.444 605.58L536.653 602.111L536.621 599.719L538.09 599.292L539.035 601.201L541.686 600.9L543.348 598.475L544.982 598.19L544.603 597.404L546.482 595.753L546.322 594.783L549.571 593.066L557.202 591.171Z" fill="#FFE6DE" stroke="#A15151" stroke-width="0.297283"/>
<path d="M52.6846 816.35L54.7951 816.3L56.1294 817.676L59.4367 818.757L63.3329 823.176L68.3375 824.963L68.8695 830.084L74.9616 831.777L75.4203 841.348L76.1655 842.371L74.6974 844.385L71.5999 844.448L71.4653 846.689L69.9149 849.121L72.1996 849.46L75.8745 856.06L83.0394 857.532L84.6019 859.072L85.3487 862.92L87.3654 863.449L89.633 867.065L90.1148 869.196L88.1404 872.465L90.5005 872.766L91.9114 878.066L90.3886 881.443L91.0532 885.71L88.7686 885.81L88.1208 886.962L90.155 894.058L92.9382 895.359L95.9087 899.713L96.907 896.814L96.2991 894.188L101.497 894.426L100.346 896.683L98.2663 897.708L104.917 899.488L105.637 895.982L106.852 895.435L107.104 891.413L108.784 889.854L113.635 891.17L114.059 893.757L116.764 892.531L118.163 897.284L122.68 897.938L123.509 901.548L121.245 902.534L120.393 905.575L117.781 906.92L114.121 910.82L113.147 915.333L113.715 918.053L108.353 920.939L107.037 923.145L107.075 926.904L104.851 926.398L102.282 929.794L103.988 930.579L104.002 932.983L107.402 933.295L109.682 935.881L108.484 936.586L108.043 943.245L105.831 943.277L105.148 944.652L103.324 945.109L102.495 947.479L101.23 947.593L99.2334 950.665L96.516 952.052L94.7309 951.715L93.7853 954.199L94.4893 956.265L92.4372 958.235L90.0699 959.013L92.5519 962.934L91.9185 965.881L93.3905 972.861L89.2831 971.151L83.7333 970.804L77.8088 966.895L73.4828 966.249L67.7782 963.134L66.3853 963.701L63.8825 962.848L61.701 963.854L57.3624 961.253L52.1961 963.138L49.9699 961.204L48.3275 961.421L46.0505 958.865L39.2768 954.863L35.5847 954.963L35.2355 953.735L32.7986 952.495L29.9816 949.051L28.444 950.015L26.0106 949.772L27.3034 945.952L25.2004 940.271L23.1893 938.912L22.1439 930.416L20.1986 928.671L20.9315 928.268L20.2931 927.482L20.9492 926.14L20.014 923.621L18 921.534L14.7366 921.805L15.1431 920.551L14.0595 919.536L12.6757 920.711L12.1346 918.936L9.0087 919.451L6.90706 914.749L4.63141 913.61L4.12318 911.421L-0.517507 907.127L-0.834224 906.185L1.41699 903.683L0.946605 899.105L-3.1888 892.317L-5.96572 891.775L-6.23182 889.169L-4.44333 889.535L-3.39579 887.509L-4.74797 885.537L-4.02969 881.931L-4.97423 879.593L-4.55384 877.319L-9.93547 871.073L-11.504 871.501L-11.4276 870.065L-14.5965 866.072L-15.802 865.83L-15.3525 864.252L-17.1824 862.204L-16.9002 860.295L-18.654 855.403L-17.798 852.131L-18.2363 849.416L-17.454 848.219L-17.781 846.22L-16.6689 845.904L-15.6299 843.979L-10.6329 847.983L-11.0965 848.734L-9.92149 850.378L1.62701 856.692L5.33011 860.114L10.6886 861.502L16.4862 861.482L24.084 858.682L30.1176 854.063L35.6828 847.87L41.3465 836.396L44.4941 825.267L45.4612 825.257L48.405 821.998L50.4515 815.147L51.6361 814.503L52.6846 816.35Z" fill="#FFE6DE" stroke="#A15151" stroke-width="0.297283"/>
<path d="M140.938 734.737L146.138 736.572L150.191 736.84L158.157 742.373L158.989 741.61L166.157 742.233L167.654 741.174L172.495 743.808L176.791 744.368L185.208 743.761L187.984 741.31L189.101 738.757L190.36 740.171L193.721 739.44L194.973 740.795L203.555 742.525L207.366 742.511L210.1 739.685L212.701 739.389L223.123 742.637L226.007 741.58L226.712 740.223L231.391 741.607L234.689 740.055L238.557 741.682L243.026 741.044L245.702 740.959L250.479 742.583L253.894 741.366L256.564 742.111L258.191 740.528L259.596 741.646L260.281 741L265.471 741.428L266.416 740.522L267.509 741.446L270.433 741.174L272.734 739.634L277.55 739.496L279.776 738.445L281.601 739.575L284.451 739.351L286.569 737.962L287.47 738.339L288.097 737.18L292.7 736.307L297.462 733.41L299.483 733.979L306.302 732.406L315.262 728.333L316.318 726.815L317.926 728.319L323.911 726.082L324.797 726.94L327.677 725.844L328.794 729.001L330.631 730.23L332.985 729.773L332.87 732.012L330.567 732.912L330.026 735.27L323.959 737.746L321.369 737.272L319.908 740.053L315.448 741.738L305.7 748.805L303.104 749.42L302.731 750.001L305.216 753.512L303.273 754.591L299.8 753.459L295.053 756.224L293.063 755.752L295.233 755.345L296.188 754.089L292.324 753.64L291.623 755.027L288.495 755.792L279.938 756.125L276.948 760.378L276.771 762.245L277.82 764.102L277.149 766.275L275.377 766.317L269.285 770.163L261.504 772.225L259.027 771.778L249.075 773.099L247.921 774.627L245.515 772.515L238.885 772.061L238.258 773.659L234.389 770.885L232.371 770.605L231.701 771.829L230.322 770.938L229.521 772.586L227.86 771.756L227.746 774.185L225.411 774.101L225.18 777.601L224.185 776.407L220.401 777.535L218.94 774.078L217.353 773.909L215.689 772.351L214.481 773.407L210.053 773.53L209.692 772.204L206.545 771.124L205.794 772.068L207.177 773.698L204.51 773.681L204.158 772.164L203.476 772.401L202.606 773.269L203.048 775.574L199.935 773.922L199.004 774.247L199.811 775.114L199.037 775.681L195.942 774.445L194.291 775.112L193.161 774.572L189.169 775.984L183.984 776.124L181.949 777.982L177.867 776.499L176.729 775.002L174.404 775.006L174.181 771.468L172.803 773.571L169.079 775.941L167.825 775.005L160.772 776.096L160.033 777.418L156.241 777.34L149.755 774.992L146.476 774.856L146.015 763.249L144.296 758.663L143.633 751.95L142.943 750.271L140.981 750.045L139.763 747.408L137.778 733.189L140.938 734.737Z" fill="#FFE6DE" stroke="#A15151" stroke-width="0.297283"/>
<path d="M742.037 -41.7855L741.057 -41.0338L739.353 -38.1318L732.062 -33.3474L714.54 -23.5857L714.049 -23.0353L713.622 -22.1646L710.692 -7.01649L713.042 0.579695L716.077 15.0615L716.511 18.2994L730.574 33.339L737.003 49.5978L735.106 57.3207L726.331 59.0116L717.351 62.0777L710.187 63.6586L704.283 63.8221L700.234 64.3132L694.835 63.2833L693.041 61.9857L690.842 61.3807L621.562 27.5361L617.873 25.1012L615.455 22.6704L611.533 19.4753L609.633 17.1747L608.994 15.8457L608.149 15.0978L605.763 14.1107L604.258 13.8068L598.566 13.6473L595.046 13.2186L591.664 15.281L590.161 15.5332L588.703 15.1915L583.159 11.4502L581.851 9.3886L579.856 7.37957L579.235 6.32645L579.999 5.66197L581.004 5.49528L585.913 2.94254L588.938 0.858617L593.254 -1.16124L596.576 -3.90867L601.988 -6.24445L604.101 -7.48786L606.704 -10.3428L610.913 -13.6994L613.671 -16.955L615.721 -18.7411L617.352 -21.5295L620.053 -23.4526L623.037 -25.0849L624.569 -26.4227L626.145 -28.3613L627.124 -30.2185L628.154 -31.1282L630.57 -34.2987L633.9 -37.4866L635.405 -40.2325L636.395 -41.4402L643.022 -45.3045L645.005 -47.2906L645.949 -48.7874L650.059 -52.3929L651.703 -54.7031L654.422 -56.3726L655.94 -58.2176L658.643 -59.0507L659.69 -58.4523L660.846 -58.5881L662.692 -60.8253L664.935 -61.8377L666.909 -62.2555L670.58 -62.3521L678.556 -63.4786L682.269 -64.465L684.906 -64.1702L685.74 -63.3222L686.26 -63.1853L687.438 -63.6994L689.296 -65.6363L704.419 -70.7416L708.037 -72.4753L713.816 -76.9006L718.468 -78.5586L720.346 -79.5524L733.442 -87.7989L735.662 -90.1837L738.047 -92.0305L740.592 -95.0811L741.043 -97.2954L741.761 -98.8273L744.465 -102.732L745.032 -105.95L745.482 -106.465L746.005 -106.477L746.327 -105.695L746.049 -103.428L746.362 -102.939L748.028 -103.765L750.144 -103.63L751.147 -104.864L752.504 -103.517L753.537 -103.447L754.279 -102.628L755.986 -102.407L756.739 -101.844L757.06 -100.401L756.371 -99.1601L756.433 -97.9123L756.853 -97.0589L759.866 -93.6773L760.712 -91.0453L761.12 -90.6479L762.31 -90.3946L762.96 -89.2547L757.054 -77.2704L754.151 -70.1593L752.278 -66.5407L744.493 -46.8691L742.882 -44.1318L742.037 -41.7855Z" stroke="#A15151" stroke-width="0.297283"/>
<path d="M464.032 148.302L462.822 149.472L462.913 151.557L462.545 154.641L462.152 155.722L461.499 156.609L459.576 157.974L459.266 158.754L459.327 161.123L458.812 163.106L459.236 164.433L460.086 164.667L460.997 164.287L461.777 161.814L462.645 161.723L463.532 162.865L464.779 166.446L464.712 166.668L463.409 166.609L462.982 166.974L462.455 167.945L462.162 169.439L461.514 170.005L457.777 171.43L456.545 171.272L454.874 167.863L455.099 165.992L454.881 164.922L454.285 163.809L453.184 163.006L452.88 163.138L452.461 165.163L451.415 167.132L451.26 169.343L450.869 169.749L449.235 170.297L448.6 170.881L447.733 170.178L446.32 169.836L445.342 168.799L442.158 167.627L436.848 170.73L435.465 172.136L432.718 173.281L430.55 173.786L425.784 174.021L423.163 174.878L422.357 174.599L421.006 173.138L418.654 172.785L417.263 174.521L415.654 175.432L414.672 174.938L413.029 172.41L411.209 170.676L411.519 169.303L410.354 167.157L410.022 165.747L409.101 164.639L408.758 163.685L407.618 155.312L406.801 153.123L406.189 153.046L402.841 154.126L402.249 153.998L400.822 152.154L399.774 152.261L398.622 153.494L397.398 153.957L395.905 153.708L395.185 153.045L396.707 151.169L396.633 149.865L396.285 149.381L395.044 149.375L392.528 150.368L388.337 152.627L387.467 152.445L387.092 151.992L386.998 150.739L386.045 149.115L386.859 150.059L387.92 150.126L388.294 148.19L387.369 144.107L386.359 142.888L386.349 141.378L387.101 138.157L387.913 137.084L388.86 136.477L390.163 136.202L391.373 136.427L392.855 135.692L392.999 135.347L391.715 134.019L391.615 133.014L392.553 131.586L394.645 131.938L396.174 131.209L396.677 130.476L396.678 129.682L396.144 128.4L396.54 126.464L395.516 124.804L395.693 123.342L394.487 122.337L393.639 120.871L393.703 118.697L391.967 116.861L392.245 115.039L392.938 114.539L392.884 113.823L391.872 112.025L392.174 111.642L394.684 112.158L396.225 111.907L397.298 112.141L397.897 111.606L398.008 108.95L399.058 109.005L399.71 108.052L401.017 107.613L402.263 108.1L403.901 107.187L405.964 107.808L406.591 107.686L407.154 107.394L407.714 106.167L409.966 105.404L411.257 103.612L411.315 102.613L409.991 101.566L409.929 99.7245L409.435 99.4675L407.725 99.5445L407.262 98.6311L409.049 97.6086L411.001 97.3021L411.558 96.6625L412.049 95.3179L412.912 94.9246L413.851 95.4921L414.903 97.4542L417.116 98.1659L419.306 99.9165L420.368 100.339L421.022 101.381L420.864 102.614L418.107 108.459L416.175 111.192L415.982 112.385L416.553 113.047L418.096 113.709L418.632 114.931L419.12 115.19L421.383 115.811L425.926 115.992L428.525 116.597L429.438 117.723L431.061 121.786L436.78 126.091L437.405 127.158L438.891 127.936L439.773 129.591L441.119 130.089L442.824 131.542L445.622 131.323L447.462 132.56L449.565 132.879L450.529 133.453L450.969 134.277L450.941 135.585L449.001 138.603L451.352 141.962L452.954 143.042L453.799 145.251L454.862 145.147L455.617 145.517L456.975 146.953L458.868 147.089L460.581 148.058L464.032 148.302Z" stroke="#A15151" stroke-width="0.297283"/>
<path d="M484.337 349.694L483.026 347.181L479.87 345.361L478.278 343.469L477.543 343.159L476.682 343.93L475.94 345.656L472.776 349.626L471.912 351.297L472.083 353.198L471.548 353.838L469.004 354.083L467.276 353.357L466.236 352.445L464.027 352.652L463.088 351.246L461.494 350.809L459.705 349.591L459.055 350.44L459.204 351.236L460.17 352.9L459.973 355.341L459.696 355.798L457.791 356.8L455.829 358.646L452.085 359.562L451.112 360.422L449.808 362.485L448.818 363.181L446.999 363.576L445.887 362.495L443.987 362.406L443.124 359.282L442.66 358.74L439.823 359.329L436.837 357.838L437.166 356.518L436.985 356.289L435.231 355.928L434.279 353.821L434.009 352.332L434.079 350.683L435.196 347.377L435.093 346.299L434.81 345.763L434.382 345.617L436.271 342.201L436.674 340.641L436.521 339.631L435.069 337.803L435.93 336.854L439.401 334.791L441.021 332.964L441.423 331.62L440.723 330.044L440.169 329.674L434.518 328.491L431.888 328.965L431.324 328.324L431.276 327.761L432.671 325.044L431.995 322.719L432.738 320.711L433.236 318.214L433.165 317.206L433.417 316.788L434.649 316.189L435.683 311.865L438.355 310.1L440.383 307.364L440.969 307.056L442.164 308.139L443.705 308.044L445.69 307.17L446.467 305.285L448.489 305.118L449.457 305.572L450.835 305.147L454.11 305.331L455.151 305.026L455.499 304.583L455.905 302.896L455.087 302.028L453.223 301.273L450.291 301.27L447.702 300.21L447.338 299.479L447.431 298.187L448.499 294.185L449.321 292.343L450.378 291.447L450.262 290.439L451.874 287.724L451.712 286.666L453.383 285.081L456.037 285.051L457.209 283.723L457.871 282.447L457.357 280.163L458.266 277.432L458.838 276.572L459.997 275.649L459.835 273.707L460.425 272.634L460.406 271.297L461.809 269.772L462.134 268.595L461.688 268.351L462.625 267.273L464.863 266.425L468.13 266.872L471.769 265.777L474.981 262.547L476.489 261.647L485.555 267.368L491.314 272.454L494.04 274.277L504.618 276.566L506.017 276.49L508.764 275.345L509.508 275.682L513.404 279.598L516.298 281.921L519.081 282.694L525.18 286.011L531.371 288.074L535.753 290.276L537.735 292.29L540.443 295.736L544.607 298.813L546.306 299.742L552.158 301.792L555.152 302.464L561.457 302.217L569.922 304.644L578.194 308.487L584.333 310.352L590.344 312.742L597.739 315.075L601.593 316.898L559.009 369.092L555.719 367.073L552.873 366.463L550.643 364.97L548.234 364.094L540.563 360.406L539.538 359.474L537.511 355.138L535.506 353.763L533.626 353.623L532.34 355.36L531.321 355.531L529.458 355.021L527.436 354.877L526.809 354.048L524.481 352.44L523.822 350.829L521.631 350.117L519.3 349.957L515.22 350.889L513.945 350.738L512.673 349.978L511.494 347.858L507.798 345.93L506.595 344.16L505.441 343.508L502.96 343.08L500.128 341.804L498.858 342.089L495.08 344.715L485.153 349.405L484.627 349.893L484.337 349.694ZM462.794 322.406L456.15 324.406L455.457 325.262L456.482 328.116L457.996 328.936L459.16 330.259L460.266 330.437L464.854 328.742L462.794 322.406Z" stroke="#A15151" stroke-width="0.297283"/>
<path d="M464.031 148.302L460.581 148.058L458.868 147.089L456.975 146.953L455.617 145.516L454.862 145.147L453.799 145.251L452.954 143.042L451.352 141.962L449 138.603L450.941 135.585L450.969 134.277L450.529 133.452L449.565 132.878L447.462 132.56L445.622 131.323L442.824 131.542L441.119 130.089L439.772 129.591L438.89 127.935L437.405 127.158L436.78 126.091L431.061 121.785L429.437 117.722L428.525 116.596L425.926 115.992L421.383 115.81L419.12 115.19L418.632 114.931L418.095 113.708L416.552 113.046L415.982 112.385L416.175 111.192L418.107 108.459L420.864 102.614L421.022 101.381L420.368 100.339L419.306 99.9162L417.116 98.1657L414.903 97.454L413.851 95.4919L412.911 94.9244L412.049 95.3177L411.558 96.6623L411.001 97.3019L409.049 97.6084L407.262 98.6309L406.949 97.6528L406.087 97.2297L404.728 97.5373L403.736 98.4936L402.804 98.7024L402.789 97.7281L403.456 96.2875L402.396 94.7659L402.104 93.3874L400.539 93.8088L399.722 93.5858L398.176 91.6559L397.714 90.5647L397.07 90.1945L396.403 88.3629L395.062 87.1734L395.036 86.6329L394.622 86.3045L394.516 85.9688L395.555 84.6187L396.039 82.1485L395.749 78.4765L394.927 76.8009L393.269 74.6266L392.995 72.9454L394.445 67.4502L393.696 65.6165L392.445 64.3L392.499 62.5381L394.045 58.9624L394.254 57.8608L393.936 57.0473L392.917 56.0239L393.133 55.0981L394.071 55.7702L397.903 55.4486L402.897 56.1101L409.958 55.6394L412.601 54.4261L416.057 55.0173L418.791 56.3775L421.523 56.6254L421.879 57.5523L421.278 60.8703L421.422 62.4471L422.973 62.6019L426.584 64.0759L427.319 63.5249L427.637 60.4723L429.039 59.653L431.951 59.5513L434.357 57.8535L437.002 56.8248L441.772 56.1142L444.308 55.4038L451.311 54.4706L452.95 52.8967L454.334 49.9687L460.772 42.7992L463.178 41.3683L465.015 39.7874L469.263 38.3838L470.499 37.0043L475.934 32.7688L479.555 28.5926L483.504 26.3177L484.634 23.2078L487.695 20.125L490.378 17.9928L491.451 16.5046L493.861 15.7923L495.127 14.6774L501.387 13.7635L505.164 12.7925L508.935 12.9293L512.335 13.5318L517.626 13.9302L523.627 17.0876L524.62 19.6259L527.337 24.0715L527.507 25.4837L527.025 26.1721L523.294 28.0328L523.076 28.8407L524.464 31.2759L525.671 31.9096L526.762 31.2912L528.947 28.0278L529.881 28.0703L530.438 28.7143L532.566 35.4723L533.457 41.3987L533.581 45.5938L532.817 48.4694L531.359 52.1273L528.251 56.4425L523.104 62.0433L517.199 65.4278L510.604 68.0196L508.718 69.098L508.321 70.0175L505.975 72.3113L505.226 73.7722L504.624 76.3338L504.537 78.574L503.639 81.9549L504.225 84.4962L505.679 87.3695L507.185 88.5187L511.022 90.4883L512.618 91.9042L516.291 93.2758L516.637 94.0648L516.406 98.4163L515.318 100.681L513.893 105.411L513.265 108.998L513.328 115.068L513.976 120.513L515.02 124.354L522.197 129.069L534.218 135.103L529.752 136.588L522.211 139.764L517.148 140.996L507.038 144.411L499.244 145.929L495.491 145.601L488.188 143.496L486.112 144.096L477.501 148.33L474.035 149.345L469.43 148.226L464.031 148.302Z" stroke="#A15151" stroke-width="0.297283"/>
<path d="M540.063 137.928L538.412 136.568L534.218 135.104L522.198 129.069L515.021 124.355L513.976 120.513L513.329 115.069L513.265 108.998L513.894 105.411L515.319 100.681L516.406 98.4167L516.637 94.0651L516.291 93.2761L512.618 91.9045L511.022 90.4886L507.185 88.519L505.679 87.3698L504.225 84.4966L503.639 81.9552L504.538 78.5744L504.624 76.3341L505.226 73.7725L505.975 72.3117L508.322 70.0178L508.718 69.0983L510.604 68.02L517.199 65.4282L523.104 62.0436L528.251 56.4429L531.359 52.1276L532.817 48.4698L533.581 45.5942L533.457 41.3991L532.566 35.4726L530.439 28.7146L529.881 28.0707L528.947 28.0281L526.762 31.2915L525.671 31.9099L524.465 31.2762L523.076 28.8411L523.294 28.0331L527.025 26.1724L527.507 25.4841L527.337 24.0719L524.621 19.6263L523.628 17.088L531.704 20.8996L535.552 20.6247L544.875 17.6513L551.431 14.9239L555.896 13.9893L566.121 13.481L573.183 8.87726L579.235 6.3266L579.856 7.37972L581.851 9.38876L583.159 11.4504L588.703 15.1916L590.161 15.5334L591.664 15.2811L595.046 13.2187L598.566 13.6474L604.258 13.807L605.763 14.1108L608.149 15.098L608.994 15.8459L609.633 17.1748L615.781 76.0375L616.673 75.8421L618.927 76.5026L620.146 76.3755L605.566 127.822L596.85 127.387L589.474 128.445L580.515 128.372L565.42 130.263L554.469 132.566L549.967 133.832L544.407 135.75L540.063 137.928Z" stroke="#A15151" stroke-width="0.297283"/>
<path d="M379.02 185.82L372.918 183.468L371.059 183.521L370.858 184.56L370.092 184.09L369.527 184.109L369.209 183.89L369.183 183.082L369.278 183.124L369.358 183.892L369.585 183.244L369.466 182.334L369.145 182.242L369.333 181.407L368.632 181.375L368.364 180.886L368.097 181.176L367.856 180.567L367.692 180.763L366.563 180.496L366.445 180.187L366.078 180.31L366.58 179.021L366.114 178.406L365.62 178.394L364.79 179.147L364.337 178.706L365.131 178.462L365.781 177.546L365.964 177.781L366.442 177.703L366.452 177.247L366.888 177.152L366.816 175.655L367.129 175.372L367.323 175.708L367.594 175.565L367.146 174.892L367.466 174.74L367.538 173.32L367.147 173.125L366.595 172.034L365.814 171.829L365.462 170.649L366.009 169.493L367.053 168.846L366.965 168.274L367.293 167.815L367.079 167.464L367.619 166.905L367.617 166.282L368.326 165.718L367.964 163.799L368.541 163.152L366.99 159.926L366.148 159.362L365.853 158.482L365.051 158.083L364.581 156.816L363.504 156.525L363.504 155.353L362.667 155.359L362.596 155.079L363.141 155L363.395 154.565L363.79 154.878L364.225 154.606L364.586 154.885L365.698 154.438L366.524 152.766L367.062 152.556L367.305 151.777L366.999 149.23L367.243 148.918L367.142 148.129L367.303 147.526L368.293 146.518L368.248 146.207L369.76 146.931L373.483 143.678L373.952 143.572L375.336 144.533L375.749 147.51L376.235 148.141L378.35 147.61L383.1 147.239L384.538 147.677L386.045 149.115L386.998 150.739L387.092 151.992L387.467 152.445L388.337 152.627L392.528 150.368L395.044 149.375L396.285 149.381L396.633 149.865L396.707 151.169L395.185 153.045L394.519 153.625L394.255 154.433L395.074 156.629L395.139 157.661L394.807 158.44L393.5 159.279L393.416 160.532L395.509 162.345L397.242 165.807L398.857 171.416L400.458 180.606L402.246 183.457L403.635 184.853L404.341 186.782L407.979 192.292L409.434 195.966L405.988 195.379L403.499 197.713L397.075 200.084L395.011 201.408L394.386 201.469L390.366 200.014L389.166 199.845L387.454 200.293L387.116 199.947L386.744 200.101L386.115 199.021L385.816 197.578L385.392 197.001L385.456 196.46L385.122 196.372L384.825 194.758L384.589 194.718L383.169 190.973L383.339 190.641L381.846 188.359L381.976 187.863L380.795 186.82L379.02 185.82Z" stroke="#A15151" stroke-width="0.297283"/>
<path d="M395.185 153.045L395.905 153.708L397.398 153.957L398.622 153.494L399.774 152.261L400.822 152.154L402.249 153.998L402.841 154.126L406.189 153.047L406.801 153.123L407.618 155.313L408.758 163.685L409.101 164.639L410.022 165.747L410.354 167.157L411.519 169.303L411.209 170.676L413.03 172.41L414.672 174.938L415.654 175.432L417.263 174.521L418.654 172.785L421.006 173.139L422.357 174.599L423.163 174.878L425.784 174.021L430.55 173.786L432.718 173.281L435.465 172.137L436.848 170.73L442.158 167.627L445.342 168.799L446.32 169.836L447.734 170.178L448.6 170.881L449.235 170.297L450.869 169.749L451.26 169.343L451.415 167.132L452.461 165.163L452.88 163.138L453.184 163.006L454.285 163.809L454.881 164.922L455.099 165.992L454.874 167.863L456.545 171.272L457.777 171.43L461.514 170.005L462.162 169.439L462.455 167.945L462.982 166.974L463.409 166.609L464.712 166.668L464.779 166.446L463.532 162.865L462.645 161.723L461.777 161.814L460.997 164.287L460.086 164.667L459.236 164.433L458.812 163.106L459.327 161.123L459.266 158.754L459.576 157.975L461.499 156.609L462.152 155.722L462.545 154.641L462.913 151.557L462.822 149.473L464.032 148.302L469.43 148.226L474.035 149.345L477.501 148.33L486.112 144.097L488.188 143.496L495.491 145.601L499.245 145.929L507.038 144.412L517.148 140.996L522.211 139.764L529.752 136.588L534.218 135.104L538.412 136.568L540.063 137.928L542.09 143.458L543.498 148.692L543.389 151.949L542.36 155.915L542.266 157.512L542.659 159.658L544.139 162.849L540.146 166.119L535.701 170.385L534.894 171.495L533.875 173.744L534.116 174.947L533.588 177.795L534.121 179.494L534.019 181.138L533.231 183.034L532.616 183.634L531.88 183.562L527.039 180.171L520.4 177.547L518.378 174.018L516.101 172.208L513.379 172.632L511.145 171.571L510.104 171.497L508.075 172.549L502.109 176.904L500.142 177.72L496.956 181.802L496.58 183.464L497.646 187.017L498.583 188.46L498.178 189.509L497.246 189.696L495.595 188.424L495.032 188.317L491.491 189.527L490.655 190.795L490.029 191.228L487.515 191.01L487.1 191.721L487.39 193.004L486.037 193.042L484.789 193.632L484.818 195.18L484.322 196.311L484.406 197.886L483.639 199.182L481.581 199.109L479.629 197.538L478.202 197.772L476.62 199.119L476.616 201.117L474.274 200.619L473.341 200.932L472.673 202.766L470.602 203.803L467.238 208.835L466.346 208.963L465.558 207.521L464.039 206.577L463.247 205.433L461.328 204.073L459.754 202.057L458.265 201.666L457.224 201.793L456.337 202.113L455.161 203.65L453.479 204.341L452.546 205.982L450.054 206.67L449.316 207.393L448.478 207.325L447.633 208.744L446.406 209.334L444.99 210.574L443.892 212.1L441.954 213.047L440.365 212.912L439.908 213.14L438.447 214.847L437.816 215.155L436.876 215.249L436.012 213.958L434.666 214.016L434.788 212.566L434.5 211.995L433.516 211.805L432.892 212.067L432.275 212.838L432.045 214.696L430.949 216.273L430.96 217.212L431.445 218.303L430.953 219.136L431.368 220.503L430.82 221.281L430.874 221.93L430.58 222.4L429.124 221.998L428.25 222.291L427.281 221.481L426.738 221.367L426.116 221.946L425.486 223.761L424.935 223.998L423.982 222.44L422.291 222.488L422.909 221.123L422.076 220.364L421.202 219.685L418.754 218.934L416.439 215.994L412.763 217.799L409.508 218.357L408.708 218.099L407.992 217.181L407.737 216.176L407.992 215.675L409.917 215.222L410.76 214.152L411.893 213.55L412.079 213.042L413.339 212.53L414.541 210.383L414.195 209.111L414.269 207.209L412.389 203.552L409.435 195.966L407.979 192.292L404.341 186.782L403.635 184.853L402.246 183.457L400.458 180.606L398.858 171.416L397.242 165.807L395.509 162.345L393.416 160.532L393.5 159.279L394.807 158.44L395.139 157.661L395.074 156.629L394.256 154.433L394.519 153.625L395.185 153.045Z" stroke="#A15151" stroke-width="0.297283"/>
<path d="M688.837 215.775L662.059 245.91L626.742 286.486L601.584 316.872L597.73 315.049L590.326 312.711L584.315 310.321L578.176 308.456L569.904 304.613L561.442 302.193L555.136 302.439L552.136 301.769L546.284 299.719L544.584 298.791L540.42 295.714L537.713 292.267L535.738 290.252L531.355 288.05L525.169 285.978L519.072 282.667L516.283 281.897L513.389 279.574L509.492 275.658L508.748 275.321L505.992 276.461L504.596 276.544L494.018 274.255L491.291 272.432L485.533 267.345L476.472 261.616L474.963 262.516L471.753 265.752L468.114 266.848L464.848 266.401L462.609 267.248L461.675 268.333L459.655 268.084L458.852 267.352L457.352 264.783L457.402 263.913L457.995 262.52L457.452 261.366L454.871 261.327L451.384 257.459L451.229 256.621L452.089 254.077L451.369 253.302L448.668 253.125L447.698 252.115L444.77 251.68L443.034 250.111L442.42 248.989L440.375 249.816L439.798 250.641L437.678 250.581L436.935 251.572L435.467 251.442L434.624 250.745L434.607 249.653L437.28 247.182L437.961 246.182L437.99 245.497L437.156 244.204L437.188 241.337L437.719 241.218L439.136 242.1L440.214 241.62L439.745 238.564L438.997 238.659L437.832 239.918L436.538 240.13L433.571 239.382L431.845 238.551L431.653 237.845L429.902 236.629L428.903 236.771L428.52 237.731L428.975 240.212L427.969 242.056L426.851 242.595L424.989 242.819L423.986 243.72L421.996 243.297L420.228 244.484L417.27 244.646L415.81 245.536L415.455 243.771L416.202 239.409L417.234 235.806L417.19 233.973L417.869 233.077L418.101 231.226L419.3 230.133L419.49 228.711L421.082 225.981L420.169 223.572L420.206 222.223L422.076 220.364L422.909 221.123L422.291 222.488L423.982 222.44L424.935 223.998L425.486 223.761L426.116 221.946L426.738 221.367L427.281 221.481L428.25 222.291L429.124 221.998L430.58 222.4L430.874 221.93L430.82 221.281L431.368 220.503L430.953 219.136L431.445 218.303L430.96 217.212L430.95 216.273L432.045 214.696L432.275 212.838L432.892 212.067L433.516 211.805L434.5 211.995L434.788 212.566L434.666 214.016L436.012 213.958L436.876 215.249L437.816 215.155L438.448 214.847L439.908 213.14L440.365 212.912L441.954 213.047L443.892 212.1L444.99 210.574L446.406 209.334L447.633 208.744L448.478 207.325L449.317 207.393L450.054 206.67L452.546 205.982L453.479 204.341L455.161 203.65L456.337 202.113L457.224 201.793L458.265 201.666L459.754 202.057L461.329 204.073L463.247 205.433L464.039 206.577L465.558 207.521L466.346 208.963L467.238 208.835L470.602 203.803L472.673 202.766L473.341 200.932L474.275 200.619L476.616 201.117L476.621 199.119L478.202 197.772L479.629 197.538L481.581 199.109L483.639 199.182L484.406 197.886L484.323 196.311L484.818 195.18L484.789 193.632L486.038 193.042L487.39 193.004L487.1 191.721L487.515 191.01L490.029 191.228L490.655 190.795L491.491 189.527L495.032 188.317L495.595 188.424L497.246 189.696L498.178 189.509L498.583 188.46L497.646 187.017L496.58 183.464L496.957 181.802L500.142 177.72L502.109 176.904L508.075 172.549L510.104 171.497L511.145 171.571L513.379 172.632L516.101 172.208L518.378 174.018L520.4 177.547L527.039 180.171L531.88 183.562L532.617 183.634L533.231 183.034L534.019 181.138L534.121 179.494L533.588 177.795L534.116 174.947L533.875 173.744L534.894 171.495L535.701 170.385L540.146 166.119L544.139 162.849L542.659 159.658L542.266 157.512L542.36 155.915L543.389 151.949L543.498 148.692L542.09 143.458L540.063 137.928L544.407 135.75L549.967 133.832L554.469 132.566L565.42 130.263L580.515 128.372L589.474 128.445L596.85 127.386L605.566 127.822L609.706 128.948L615.372 131.261L624.717 140.932L626.164 147.54L681.453 188.447L700.325 202.934L688.837 215.775Z" stroke="#A15151" stroke-width="0.297283"/>
<path d="M401.477 242.118L399.752 238.304L394.769 232.676L393.229 230.499L392.153 230.563L391.618 229.875L392.204 230.472L393.015 230.348L392.704 230.26L392.495 230.256L392.605 229.922L392.269 229.96L392.505 229.688L392.164 229.647L393.009 228.473L392.016 225.823L391.156 224.828L391.523 224.95L391.036 223.013L391.788 221.849L391.891 221.072L390.635 218.548L389.842 217.753L389.511 216.766L389.55 215.424L388.511 213.369L388.804 213.07L388.743 212.223L389.347 211.901L389.282 209.341L389.673 209.113L389.823 208.521L389.135 207.268L389.438 206.469L390.475 205.379L390.5 204.925L389.276 202.361L387.466 200.304L389.177 199.856L390.377 200.025L394.397 201.48L395.022 201.419L397.088 200.102L403.512 197.731L405.999 195.39L409.448 195.984L412.409 203.567L414.287 207.218L414.213 209.12L414.558 210.392L413.357 212.539L412.095 213.044L411.909 213.552L410.776 214.155L409.935 215.231L408.007 215.678L407.748 216.188L408.004 217.193L408.722 218.116L409.519 218.368L412.776 217.817L416.452 216.012L418.774 218.95L421.222 219.701L422.098 220.387L420.229 222.246L420.191 223.594L421.104 226.003L419.519 228.732L419.322 230.156L418.125 231.255L417.893 233.106L417.219 233.993L417.265 235.832L416.233 239.436L415.488 243.804L415.841 245.563L414.18 246.692L412.823 246.917L411.007 247.72L409.578 247.086L408.059 247.448L407.587 247.168L407.053 248.253L406.893 248.017L406.427 248.53L401.477 242.118Z" stroke="#A15151" stroke-width="0.297283"/>
<path d="M459.16 330.259L457.994 328.929L456.482 328.116L455.457 325.262L456.147 324.4L462.794 322.406L464.852 328.735L460.264 330.431L459.16 330.259Z" stroke="#A15151" stroke-width="0.297283"/>
<path d="M435.222 355.924L436.976 356.285L437.15 356.516L436.823 357.842L439.809 359.333L442.64 358.747L443.113 359.293L443.976 362.417L444.504 366.179L444.769 366.528L446.717 367.136L447.232 367.876L446.605 372.197L447.575 376.59L450.085 379.028L451.555 379.959L452.306 381.421L452.127 382.038L450.663 381.126L448.55 382.103L448.633 382.728L449.634 383.698L450.37 385.647L449.069 388.117L449.045 386.233L446.962 384.557L444.649 379.546L443.936 378.547L443.303 376.021L442.508 374.759L442.729 373.98L444.162 373.892L445.155 373.225L444.991 372.694L443.67 371.72L444.427 370.064L443.894 367.965L441.833 366.423L439.709 366.55L439.291 365.748L439.735 364.419L439.692 363.031L438.322 360.693L435.413 359.013L435.739 357.464L435.222 355.924Z" stroke="#A15151" stroke-width="0.297283"/>
<path d="M492.406 415.495L488.609 413.557L477.752 409.795L476.22 411.178L473.141 411.729L471.636 412.308L470.463 413.147L469.228 410.86L467.612 409.095L464.454 407.447L463.816 404.596L463.314 403.741L462.028 403.512L460.321 404.13L458.734 403.824L459.077 402.767L458.837 402.098L458.14 401.79L457.356 402.038L456.456 401.791L455.656 400.821L454.941 400.504L453.914 401.027L452.582 401.236L450.791 400.895L449.704 401.26L448.111 402.373L446.99 402.26L446.649 401.951L446.058 402.246L445.739 401.982L445.737 401.07L446.997 397.991L447.639 394.555L448.321 393.05L449.07 388.117L450.37 385.647L449.634 383.698L448.634 382.728L448.55 382.103L450.663 381.126L452.127 382.038L452.306 381.421L451.555 379.959L450.085 379.028L447.575 376.59L446.605 372.197L447.233 367.876L446.717 367.136L444.769 366.528L444.504 366.18L443.976 362.417L445.882 362.504L446.992 363.578L448.813 363.19L449.804 362.494L451.108 360.431L452.08 359.57L455.824 358.655L457.787 356.809L459.691 355.806L459.962 355.352L460.159 352.911L459.195 351.254L459.053 350.456L459.703 349.607L461.496 350.815L463.083 351.255L464.023 352.661L466.231 352.454L467.27 353.359L469.004 354.083L471.542 353.84L472.083 353.198L471.912 351.297L472.776 349.627L475.94 345.656L476.682 343.93L477.543 343.159L478.278 343.469L479.868 345.354L483.026 347.181L484.337 349.694L483.732 350.743L483.174 351.071L480.497 351.539L479.124 353.573L478.89 355.418L479.582 356.439L479.85 357.923L481.602 360.094L482.497 362.161L483.262 362.387L484.471 361.499L485.376 361.388L486.45 363.684L487.788 365.194L487 365.696L482.864 366.772L480.755 367.651L479.385 368.763L477.449 371.973L475.87 373.876L475.927 374.777L476.728 375.836L476.648 378.03L478.244 380.774L480.257 382.702L480.063 384.556L481.347 387.3L482.871 389.342L482.903 389.813L482.35 390.288L482.322 390.735L483.187 392.893L483.909 393.23L486.333 393.114L489.024 392.53L490.151 393.279L490.379 394.865L489.155 396.789L487.831 397.931L487.904 398.389L489.005 399.437L489.076 401.528L489.892 401.662L491.102 401.375L493.264 400.434L494.611 401.043L495.82 400.466L496.715 400.767L497.077 401.224L497.267 401.858L496.794 403.122L496.851 403.89L499.657 405.641L500.108 406.21L500.712 410.377L501.957 412.935L502.493 416.324L501.764 416.361L499.872 415.764L495 416.635L492.406 415.495Z" stroke="#A15151" stroke-width="0.297283"/>
<path d="M484.337 349.694L484.589 349.847L485.122 349.356L495.042 344.669L498.82 342.043L500.092 341.764L502.924 343.039L505.406 343.468L506.559 344.12L507.771 345.895L511.467 347.822L512.644 349.935L513.916 350.696L515.191 350.847L519.271 349.915L521.602 350.075L523.799 350.784L524.461 352.402L526.796 354.008L527.416 354.839L529.438 354.983L531.299 355.487L532.317 355.316L533.613 353.582L535.486 353.725L537.498 355.098L539.524 359.434L540.552 360.373L548.216 364.063L550.632 364.936L552.861 366.429L555.708 367.039L558.997 369.059L530.761 403.89L527.469 408.675L525.531 412.405L524.231 412.998L517.945 413.238L516.47 414.348L514.714 413.736L513.204 413.968L502.493 416.324L501.957 412.935L500.712 410.377L500.108 406.21L499.657 405.641L496.851 403.889L496.794 403.122L497.267 401.858L497.077 401.224L496.715 400.767L495.82 400.466L494.611 401.042L493.264 400.433L491.102 401.374L489.892 401.662L489.076 401.528L489.005 399.437L487.904 398.389L487.831 397.931L489.155 396.789L490.379 394.865L490.151 393.279L489.024 392.53L486.333 393.114L483.909 393.23L483.187 392.893L482.322 390.735L482.35 390.288L482.903 389.813L482.871 389.341L481.347 387.3L480.063 384.556L480.257 382.702L478.244 380.773L476.648 378.029L476.728 375.836L475.927 374.776L475.87 373.876L477.449 371.973L479.385 368.763L480.755 367.65L482.864 366.772L487 365.695L487.788 365.193L486.45 363.683L485.376 361.388L484.471 361.499L483.262 362.386L482.497 362.161L481.602 360.094L479.85 357.922L479.582 356.439L478.89 355.417L479.124 353.573L480.497 351.539L483.174 351.071L483.732 350.743L484.337 349.694Z" stroke="#A15151" stroke-width="0.297283"/>
</g>
<defs>
<clipPath id="clip0">
<rect width="569" height="949.522" fill="white"/>
</clipPath>
</defs>
</svg>
