<svg width="88" height="235" viewBox="0 0 88 235" fill="none" xmlns="http://www.w3.org/2000/svg">
<path d="M66.837 82.3652L66.6929 82.6532L66.8017 85.2163L67.3602 85.857L67.4425 86.2627L66.9692 86.9505L67.8158 88.814L67.4954 90.9361L66.5813 91.815L67.0751 94.3192L67.9568 94.8777L67.463 95.8565L67.9892 96.7L67.5924 97.8258L68.2155 101.291L66.9898 103.487L65.0381 101.712L64.7648 101.274L64.6531 100.471L63.9535 100.03L63.7625 99.9744L63.2628 99.9538L62.5162 100.048L62.1429 100.154L61.4228 100.468L61.0701 100.515L60.7262 100.418L59.8768 99.9127L59.7063 99.6922L59.6739 99.5482L59.7709 99.2925L59.962 99.0544L59.9826 98.878L59.8562 98.5988L59.6798 98.4048L59.2918 98.2902L59.1508 98.1462L59.0832 97.8581L59.0214 96.6089L59.962 96.797L60.6351 96.8441L60.882 96.6177L60.979 96.3855L61.026 96.0916L61.0319 95.783L60.8232 94.9335L60.9408 93.9048L61.0319 93.6726L61.4022 93.1171L61.4845 92.8819L61.4787 92.732L61.461 92.588L61.0378 91.8061L60.979 91.6004L60.9614 91.4505L61.0378 90.701L60.9966 90.407L60.8056 90.0161L60.7585 89.8368L60.7997 89.6928L61.1847 89.3724L61.5316 88.6523L61.6051 88.4171L61.6109 88.1497L61.5698 88.0262L61.4787 87.938L60.8232 87.7029L60.009 86.9622L59.9561 86.7976L59.9679 86.6889L60.0678 86.5977L60.1971 86.5713L60.7291 86.5919L61.073 86.4537L61.1318 86.3303L61.1436 86.1804L61.0378 85.9805L60.8702 85.7894L60.7556 85.716L60.7821 85.713L60.6674 85.5249L60.5116 85.0458L60.4646 84.8165L60.4881 84.0905L60.4646 83.7408L60.3882 83.4821L60.0796 82.8296L60.0649 82.6268L60.1501 82.2887L60.3559 81.8919L60.5469 81.7391L60.9231 81.6392L61.4992 81.601L62.2047 81.4275L62.4986 81.2747L62.5868 81.0366L62.5544 80.7897L62.2164 80.2107L62.1194 79.8727L62.3105 78.8615L62.2987 78.5529L62.19 78.0885L62.1606 77.727L62.2223 77.3243L62.4369 76.66L62.4163 76.2632L62.3252 76.0604L62.2282 75.9546L62.0518 75.8929L61.7873 75.8958L61.3993 76.0193L61.2612 76.0222L61.1965 75.9899L61.1348 75.8958L61.1318 75.7195L61.2788 75.4637L61.7373 75.0669L62.0959 74.5878L62.819 72.8478L63.8242 73.371L64.1505 73.6443L64.7648 74.6143L65.141 75.7812L65.3556 76.081L65.5202 76.1839L65.6671 76.1986L65.8288 76.1221L66.4725 75.5402L66.7752 75.3373L66.9046 75.2962L68.1861 75.2668L69.0914 75.1933L68.6534 76.0604L68.3272 77.5448L68.1832 79.132L67.9892 79.7962L67.2749 80.7633L67.1103 81.8185L66.837 82.3652Z" fill="#FF9372" stroke="white" stroke-width="0.5"/>
<path d="M62.5633 62.525L62.3458 62.6572L61.9578 63.3244L61.7668 63.4361L61.3465 63.5743L61.1378 63.8094L60.691 64.0681L60.3706 64.5795L60.2589 64.6559L60.0796 64.6853L59.9591 64.6618L59.5711 64.4355L59.3801 64.409L59.1361 64.5325L58.8275 64.8646L58.6247 64.9969L57.9516 65.0909L57.7811 65.1585L57.7106 65.2379L57.6488 65.4054L57.6077 65.958L57.3608 66.6253L57.3814 66.9515L57.4725 67.4306L57.4578 67.8127L57.3461 68.0831L57.0169 68.6004L56.7935 69.1883L55.997 68.721L55.6031 68.3918L55.0388 67.8039L54.9388 67.7481L54.8007 67.7745L54.5567 68.1978L54.3774 68.3771L54.1511 68.477L53.8395 68.5093L53.2046 68.4858L52.5316 68.2948L51.9907 68.3212L51.5204 68.0596L51.2559 68.0067L50.7004 68.0185L50.0508 68.1948L49.6863 68.233L49.413 68.1507L49.2895 68.0684L49.1955 67.9538L49.1426 67.7833L49.2454 66.9956L49.1984 66.7046L49.1337 66.5929L48.6488 66.3813L48.1285 66.0785L47.6318 65.8934L47.1439 65.3408L46.9675 65.2702L46.5031 65.185L46.4032 65.0792L46.3914 65.0028L46.5266 64.4855V63.9975L46.6383 63.6213L46.5913 62.9658L46.6177 62.4809L46.9146 61.7696V61.6402L46.844 61.4756L46.747 61.3757L46.5736 61.3081L46.2973 61.2846L45.8741 61.311L45.5214 61.4315L44.9894 61.7931L44.7013 61.9048L44.5279 61.8724L44.3074 61.6343L44.2487 61.4668L44.2692 61.3287L44.3398 61.2082L44.4544 61.1229L45.0011 60.9348L45.2539 60.7437L45.4038 60.4469L45.4361 60.1294L45.395 59.812L45.3274 59.6562L45.1069 59.4064L44.8159 59.2829L44.4897 59.2477L44.3427 59.2682L44.6425 58.7009L45.0276 58.41L47.0645 57.6399L48.3284 56.9962L49.3248 56.2702L49.9332 55.6823L50.1096 55.3178L51.0384 54.2656L51.3088 54.1304L51.7997 54.0569L52.4992 54.439L53.4045 55.3766L54.1805 55.9468L54.977 56.3407L55.3797 56.4465L55.9705 56.4495L58.4483 55.9939L59.4212 56.0115L59.8504 56.1173L60.6704 56.7287L61.4934 58.1219L61.6521 59.4034L61.5904 60.5968L61.8843 61.4609L62.2429 61.9253L62.2282 62.2281L62.5633 62.525Z" fill="#FF9372" stroke="white" stroke-width="0.5"/>
<path d="M48.7809 71.9983L47.9579 72.157L47.1173 72.4215L46.6059 72.4921L46.3413 72.7331L46.0533 73.1181L45.6241 73.5532L45.583 73.7942L45.4801 74.0352L44.8247 74.2498L44.519 74.6613L44.3132 74.7318L43.8429 74.7083L42.7584 73.9852L42.4086 73.4797L42.1852 73.2886L41.7737 72.6626L40.4246 70.8872L40.5304 70.8108L40.6979 70.3699L40.4598 68.6622L40.5157 67.0544L41.0536 66.0433L41.3916 65.6171L42.7084 65.0263L43.0611 64.6824L43.2698 63.1687L43.7107 61.9459L43.9488 60.4146L44.1721 59.5828L44.3426 59.2683L44.4896 59.2477L44.8158 59.283L45.1068 59.4064L45.3273 59.6562L45.3949 59.812L45.436 60.1295L45.4037 60.4469L45.2538 60.7438L45.001 60.9348L44.4543 61.1229L44.3397 61.2082L44.2691 61.3287L44.2486 61.4668L44.3073 61.6344L44.5278 61.8725L44.7012 61.9048L44.9893 61.7931L45.5213 61.4316L45.874 61.3111L46.2972 61.2846L46.5735 61.3081L46.747 61.3757L46.8439 61.4757L46.9145 61.6403V61.7696L46.6176 62.4809L46.5912 62.9659L46.6382 63.6213L46.5265 63.9976V64.4855L46.3913 65.0028L46.4031 65.0792L46.503 65.185L46.9674 65.2703L47.1438 65.3408L47.6317 65.8934L48.1284 66.0786L48.6487 66.3813L49.1336 66.5929L49.1983 66.7046L49.2453 66.9956L49.1425 67.7834L48.6134 67.5952L48.2489 67.3689L47.711 67.169L47.6963 67.7569L47.7845 68.2154L47.9197 68.3918L48.5546 68.7798L48.6663 68.8915L48.8103 69.1913L48.8485 69.6674L48.8044 69.9672L48.7016 70.1465L48.2783 70.3758L48.1784 70.5492L48.149 70.8314L48.2137 71.0842L48.5575 71.4369L48.7809 71.9983Z" fill="#FF9372" stroke="white" stroke-width="0.5"/>
<path d="M68.4182 63.6859L68.3212 64.7588L68.6945 65.2232L68.818 65.573L68.674 66.4665L68.5123 66.8839L68.477 67.363L68.8709 68.4299L68.624 69.1207L68.6122 69.5469L68.9591 70.4081L68.7768 71.7249L68.9738 72.5802L69.0237 73.5325L69.1619 74.0058L69.2148 74.6877L69.0913 75.1932L68.186 75.2667L66.9045 75.2961L66.7752 75.3372L66.4724 75.5401L65.8287 76.122L65.6671 76.1985L65.5201 76.1838L65.3555 76.0809L65.141 75.7811L64.7647 74.6142L64.1504 73.6442L63.8242 73.3709L62.8189 72.8477L62.6749 72.4391L62.4838 71.6837L62.2693 71.09L62.1164 70.7725L61.9489 70.5932L61.6168 70.4963L61.1259 70.4845L60.4881 70.7814L59.8062 70.9077L59.1977 71.1341L58.8568 71.1223L58.6716 70.9842L58.4423 70.555L58.2572 70.3199L58.0749 70.1964L57.4577 69.8908L57.0315 69.4881L56.7934 69.1883L57.0168 68.6004L57.346 68.0831L57.4577 67.8127L57.4724 67.4306L57.3813 66.9515L57.3607 66.6252L57.6076 65.958L57.6487 65.4054L57.7105 65.2379L57.781 65.1585L57.9515 65.0909L58.6246 64.9969L58.8274 64.8646L59.136 64.5324L59.38 64.409L59.571 64.4355L59.959 64.6618L60.0795 64.6853L60.2588 64.6559L60.3705 64.5795L60.6909 64.068L61.1377 63.8094L61.3463 63.5742L61.7667 63.4361L61.9577 63.3244L62.3457 62.6572L62.5632 62.5249L63.204 62.6278L63.9623 62.4073L65.1145 62.4573L65.7494 62.6513L67.2425 63.3479L68.4182 63.6859Z" fill="#FF9372" stroke="white" stroke-width="0.5"/>
<path d="M50.0301 83.5469L50.8708 82.5034L51.3411 82.0655L52.4962 81.4453L53.2516 81.3336L53.4544 81.2513L53.5749 81.1543L53.7189 80.9338L53.7954 80.6869L53.8071 80.2167L53.7718 80.0697L53.5867 79.764L53.2369 79.4936L52.9635 79.3878L52.4257 79.2937L51.9495 79.0909L51.685 79.0498L51.4145 79.0703L51.2882 79.1115L50.9002 79.3437L50.6915 79.3966L50.2917 79.3643L49.8802 79.1967L49.6862 79.0321L49.4981 78.7793L49.3394 78.4443L49.0308 77.5772L48.922 77.4096L48.7251 77.248L48.828 76.8659L49.216 76.1987L49.4599 75.5167L49.6686 74.3352L49.698 73.9501L49.6539 73.3681L49.3247 72.5128L49.1131 72.2512L48.7809 71.9984L48.5576 71.437L48.2137 71.0843L48.149 70.8315L48.1784 70.5494L48.2783 70.3759L48.7016 70.1467L48.8045 69.9674L48.8485 69.6676L48.8103 69.1914L48.6663 68.8916L48.5546 68.7799L47.9197 68.3919L47.7845 68.2156L47.6964 67.757L47.711 67.1692L48.2489 67.3691L48.6134 67.5954L49.1425 67.7835L49.1954 67.954L49.2894 68.0686L49.4129 68.1509L49.6862 68.2332L50.0507 68.195L50.7003 68.0186L51.2558 68.0069L51.5204 68.0598L51.9906 68.3214L52.5315 68.2949L53.2046 68.486L53.8394 68.5095L54.151 68.4772L54.3773 68.3772L54.5566 68.1979L54.8006 67.7747L54.9387 67.7482L55.0387 67.8041L55.603 68.3919L55.9969 68.7211L56.7934 69.1885L57.0315 69.4883L57.4577 69.891L58.0749 70.1966L58.2572 70.3201L58.4424 70.5552L58.6716 70.9844L58.8568 71.1225L59.1978 71.1343L59.8062 70.908L60.4881 70.7816L61.1259 70.4847L61.6168 70.4965L61.9489 70.5935L62.1165 70.7728L62.2693 71.0902L62.4839 71.6839L62.6749 72.4393L62.819 72.8479L62.0959 74.5879L61.7373 75.067L61.2788 75.4638L61.1318 75.7196L61.1347 75.8959L61.1965 75.99L61.2611 76.0223L61.3993 76.0194L61.7873 75.8959L62.0518 75.893L62.2282 75.9547L62.3252 76.0605L62.4163 76.2633L62.4368 76.6601L62.2223 77.3244L62.1606 77.7271L62.1899 78.0886L62.2987 78.553L62.3105 78.8616L62.1194 79.8728L62.2164 80.2108L62.5544 80.7898L62.5867 81.0367L62.4986 81.2748L62.2046 81.4276L61.4992 81.6011L60.9231 81.6393L60.5469 81.7392L60.3558 81.892L60.1501 82.2888L60.0648 82.6269L60.0795 82.8297L60.3882 83.4822L60.4646 83.7409L60.4881 84.0906L60.4646 84.8166L60.5116 85.0459L60.6674 85.525L60.782 85.7131L60.7556 85.7161L60.4528 85.719L59.8767 85.5838L59.6122 85.6249L59.0714 86.1364L58.945 86.1893L58.8068 86.1687L58.4923 85.913L58.2102 85.5162L58.1426 85.3486L58.0397 84.7343L57.9456 84.5315L57.8751 84.458L57.5047 84.2523L55.9881 83.7203L55.6794 83.7056L55.2327 83.832L55.0152 83.8173L54.8065 83.7026L54.4802 83.4411L54.3185 83.3911L53.8189 83.4352L53.3221 83.4175L52.6902 83.4557L52.5109 83.3734L52.1611 83.0384L51.9965 82.9913L50.9354 83.4763L50.6004 83.5351L50.0301 83.5469Z" fill="#FF9372" stroke="white" stroke-width="0.5"/>
<path d="M48.7251 77.2478L47.8198 77.3566L47.52 77.3477L47.1438 77.286L46.5882 77.1508L45.7829 76.7834L45.2332 76.6335L44.7012 76.4101L44.5866 76.3837L44.4337 76.4042L44.2897 76.513L44.2368 76.6012L44.0781 77.3183L44.0076 77.4829L43.3727 78.5852L43.2286 78.9937L43.0934 79.173L42.3645 79.7403L42.0794 79.9079L41.8619 79.9872L41.0947 80.1195L40.0954 80.5457L39.8397 80.7691L39.5134 81.16L39.2342 81.2952L39.2636 81.0571L39.6751 80.2782L39.8367 79.6551L39.775 78.8909L39.3899 77.192L39.1166 76.6188L38.4259 75.5842L38.4023 74.8934L38.4905 74.1968L39.4046 72.1246L40.1012 71.1165L40.4246 70.8872L41.7737 72.6625L42.1852 73.2886L42.4086 73.4797L42.7584 73.9852L43.843 74.7083L44.3132 74.7318L44.519 74.6612L44.8247 74.2497L45.4801 74.0352L45.583 73.7942L45.6242 73.5531L46.0533 73.1181L46.3413 72.7331L46.6059 72.4921L47.1173 72.4215L47.9579 72.157L48.7809 71.9983L49.1131 72.251L49.3247 72.5126L49.6539 73.368L49.698 73.9499L49.6686 74.335L49.4599 75.5166L49.216 76.1985L48.828 76.8657L48.7251 77.2478Z" fill="#FF9372" stroke="white" stroke-width="0.5"/>
<path d="M50.0302 83.5467L49.6393 83.3468L49.1308 82.9912L48.8545 82.8618L48.4959 82.8177L47.9345 82.9471L47.7934 82.9412L47.2673 82.6531L46.7911 82.4797L46.4443 82.5003L46.218 82.6032L46.0504 82.7354L45.78 83.1146L45.683 83.1675L45.0305 83.2675L44.6043 83.4409L44.2722 83.6437L43.9047 83.7084L43.652 83.6995L43.164 83.6172L42.3557 83.3968L41.6062 83.3321L41.2241 83.1528L40.9478 82.7648L40.8009 82.662L40.5598 82.6208L39.9632 82.6238L39.8926 82.4915L39.3636 81.9271L39.2048 81.5304L39.2342 81.2952L39.5135 81.16L39.8397 80.7691L40.0954 80.5457L41.0948 80.1195L41.8619 79.9872L42.0795 79.9079L42.3646 79.7403L43.0935 79.173L43.2287 78.9937L43.3727 78.5852L44.0076 77.483L44.0782 77.3184L44.2369 76.6012L44.2898 76.513L44.4338 76.4042L44.5867 76.3837L44.7013 76.4101L45.2333 76.6335L45.7829 76.7834L46.5883 77.1508L47.1438 77.286L47.5201 77.3478L47.8199 77.3566L48.7252 77.2478L48.9221 77.4095L49.0309 77.577L49.3395 78.4441L49.4982 78.7792L49.6863 79.032L49.8803 79.1966L50.2918 79.3641L50.6915 79.3964L50.9002 79.3435L51.2882 79.1113L51.4146 79.0702L51.685 79.0496L51.9496 79.0907L52.4257 79.2936L52.9636 79.3876L53.237 79.4934L53.5867 79.7638L53.7719 80.0695L53.8072 80.2165L53.7954 80.6868L53.719 80.9337L53.575 81.1541L53.4545 81.2511L53.2517 81.3334L52.4963 81.4451L51.3411 82.0653L50.8708 82.5033L50.0302 83.5467Z" fill="#FF9372" stroke="white" stroke-width="0.5"/>
<path d="M59.0213 96.609L58.795 96.5414L58.6539 96.5502L58.0867 96.703L57.9573 96.6972L57.7957 96.6266L57.5253 96.0535L57.2343 95.7566L57.0285 95.2481L56.9521 95.1423L56.7904 95.0659L56.3201 95.01L55.9204 94.8836L55.5177 94.3457L55.3531 94.1782L55.2238 94.0988L54.6888 93.993L54.2274 93.8431L53.9687 93.8402L53.7336 93.9431L53.4632 94.284L53.375 94.3163L53.2133 94.2487L52.94 93.9342L52.6784 93.8196L51.7643 93.7579L51.3322 93.8813L50.6855 93.6638L50.3416 93.7461L50.0066 93.993L49.8361 94.3163L49.8508 94.7278L49.8214 94.9042L49.7332 94.9894L49.5598 95.0335L48.6457 95.01L48.1607 94.7719L46.8527 94.8013L46.2913 94.7778L46.0679 94.7161L45.4095 94.428L45.195 94.4222L45.0598 94.4986L44.9187 94.7308L44.8334 95.3627L44.7306 95.639L44.175 96.1299L43.9663 96.3562L43.2756 96.7648L42.3233 97.7994L41.0329 98.2609L39.6338 98.061L38.6551 97.6407L38.2318 96.0505L38.8549 95.1276L41.3857 94.6749L41.8324 93.2876L41.5885 92.3353L40.4304 91.4123L39.6544 90.366L39.531 89.0198L40.2246 87.5384L40.0042 86.9505L40.2276 86.7683L40.1306 86.4479L40.1188 86.0481L40.5245 85.1634L40.642 84.2846L40.4745 83.5997L39.963 82.6239L40.5597 82.6209L40.8007 82.6621L40.9477 82.765L41.224 83.153L41.6061 83.3322L42.3556 83.3969L43.1639 83.6174L43.6518 83.6997L43.9046 83.7085L44.272 83.6438L44.6042 83.441L45.0304 83.2676L45.6829 83.1676L45.7799 83.1147L46.0503 82.7356L46.2178 82.6033L46.4442 82.5004L46.791 82.4799L47.2672 82.6533L47.7933 82.9413L47.9344 82.9472L48.4958 82.8179L48.8544 82.862L49.1307 82.9913L49.6392 83.3469L50.0301 83.5468L50.6003 83.5351L50.9354 83.4763L51.9965 82.9913L52.1611 83.0383L52.5108 83.3734L52.6901 83.4557L53.3221 83.4175L53.8188 83.4351L54.3185 83.391L54.4802 83.441L54.8064 83.7026L55.0151 83.8172L55.2326 83.8319L55.6794 83.7055L55.988 83.7202L57.5047 84.2522L57.875 84.458L57.9456 84.5315L58.0396 84.7343L58.1425 85.3486L58.2101 85.5161L58.4923 85.9129L58.8068 86.1687L58.9449 86.1892L59.0713 86.1363L59.6121 85.6249L59.8767 85.5837L60.4528 85.719L60.7555 85.716L60.8702 85.7895L61.0377 85.9805L61.1435 86.1804L61.1318 86.3303L61.073 86.4538L60.7291 86.5919L60.1971 86.5713L60.0677 86.5978L59.9678 86.6889L59.956 86.7977L60.0089 86.9623L60.8231 87.703L61.4786 87.9381L61.5697 88.0263L61.6109 88.1497L61.605 88.4172L61.5315 88.6523L61.1847 89.3725L60.7996 89.6929L60.7585 89.8369L60.8055 90.0162L60.9965 90.4071L61.0377 90.701L60.9613 91.4505L60.9789 91.6004L61.0377 91.8062L61.4609 92.588L61.4786 92.7321L61.4845 92.882L61.4022 93.1171L61.0318 93.6726L60.9407 93.9048L60.8231 94.9336L61.0318 95.783L61.0259 96.0917L60.9789 96.3856L60.8819 96.6178L60.635 96.8441L59.9619 96.7971L59.0213 96.609Z" fill="#FF9372" stroke="white" stroke-width="0.5"/>
<path d="M66.9898 103.487L66.931 103.593L66.4637 105.068L64.4385 103.017L64.2122 102.849L63.9888 102.74L63.348 102.543L63.1305 102.523L62.622 102.664L62.2164 102.673L61.7579 102.567L60.8673 102.49L60.2001 102.291L60.0796 102.285L59.8738 102.335L59.0067 102.708L58.7569 102.767L58.269 102.755L57.8663 102.617L57.5195 102.57L56.9581 102.737L56.4084 103.114L56.2232 103.178L55.3826 103.322L54.9446 103.258L54.686 103.264L53.6602 103.663L53.1664 103.701L52.8431 103.646L52.6932 103.575L51.1559 102.52L51.685 101.694L51.8349 99.5483L50.912 98.5842L48.5635 98.5959L46.3737 97.7141L45.3567 97.2262L44.2398 96.1945L43.9664 96.3562L44.1751 96.1299L44.7306 95.639L44.8335 95.3627L44.9188 94.7308L45.0598 94.4986L45.1951 94.4221L45.4096 94.428L46.068 94.7161L46.2914 94.7778L46.8528 94.8013L48.1608 94.7719L48.6458 95.01L49.5599 95.0335L49.7333 94.9894L49.8215 94.9042L49.8509 94.7278L49.8362 94.3163L50.0067 93.993L50.3417 93.7461L50.6856 93.6638L51.3323 93.8813L51.7643 93.7579L52.6785 93.8196L52.9401 93.9342L53.2134 94.2487L53.3751 94.3163L53.4633 94.284L53.7337 93.943L53.9688 93.8402L54.2275 93.8431L54.6889 93.993L55.2239 94.0988L55.3532 94.1782L55.5178 94.3457L55.9205 94.8836L56.3202 95.01L56.7905 95.0659L56.9522 95.1423L57.0286 95.2481L57.2343 95.7566L57.5253 96.0535L57.7957 96.6266L57.9574 96.6971L58.0867 96.703L58.654 96.5502L58.7951 96.5414L59.0214 96.609L59.0832 97.8582L59.1508 98.1462L59.2918 98.2902L59.6798 98.4049L59.8562 98.5989L59.9826 98.8781L59.962 99.0545L59.7709 99.2925L59.6739 99.5483L59.7063 99.6923L59.8768 99.9127L60.7262 100.418L61.0701 100.515L61.4228 100.468L62.1429 100.154L62.5162 100.048L63.2628 99.9539L63.7625 99.9745L63.9535 100.03L64.6531 100.471L64.7648 101.274L65.0381 101.712L66.9898 103.487Z" fill="#FF9372" stroke="white" stroke-width="0.5"/>
<path d="M58.7069 118.674L58.4307 118.768L57.9898 118.762L57.7605 118.689L56.8023 118.233L56.5642 118.083L56.0969 117.249L55.9999 116.969L56.0175 116.678L56.2174 116.132L56.1792 115.853L56.0733 115.691L55.2944 115.056L54.5978 114.756L54.1217 114.615L53.9453 114.506L53.5074 113.945L52.9989 113.404L52.4404 112.969L52.3287 112.769L52.3199 112.04L51.9025 111.097L51.3411 109.418L51.1971 109.142L50.7268 108.59L50.6239 108.548L50.5534 108.563L50.4505 108.716L50.3623 109.821L50.2712 110.012L50.1272 110.124L49.9038 110.215L49.6451 110.227L49.1102 110.133L48.5018 110.08L48.2666 110.012L48.0344 109.9L47.8816 109.771L47.7493 109.577L47.6729 109.366L47.7258 109.213L48.1579 109.004L48.3489 108.763L48.4077 108.584L48.3989 108.416L48.2078 108.125L47.6464 107.769L47.282 107.62L47.1703 107.625L46.8117 107.787L46.5236 107.843L46.2326 107.814L46.071 107.74L46.0034 107.681L45.9093 107.496L45.8094 106.776L45.6859 106.556L45.3567 106.312L44.184 105.747L46.3737 103.581L48.5312 102.696L51.0854 102.632L51.1559 102.52L52.6932 103.575L52.8431 103.646L53.1664 103.702L53.6602 103.663L54.686 103.264L54.9447 103.258L55.3826 103.322L56.2233 103.178L56.4084 103.114L56.9581 102.737L57.5195 102.57L57.8663 102.617L58.269 102.755L58.7569 102.767L59.0068 102.708L59.8738 102.335L60.0796 102.285L60.2001 102.291L60.8673 102.491L61.7579 102.567L62.2164 102.673L62.6221 102.664L63.1306 102.523L63.3481 102.543L63.9888 102.74L64.2122 102.849L64.4385 103.017L66.4637 105.068L65.3644 108.528L64.2945 112.199L64.1916 114.841L64.1564 117.293L60.8085 117.243L60.009 117.525L58.7069 118.674Z" fill="#FF9372" stroke="white" stroke-width="0.5"/>
<path d="M38.5023 110.515L38.9637 109.744L40.5098 108.075L41.3504 107.34L43.7254 106.2L44.1839 105.747L45.3567 106.311L45.6859 106.555L45.8093 106.776L45.9092 107.496L46.0033 107.681L46.0709 107.74L46.2326 107.813L46.5236 107.843L46.8116 107.787L47.1702 107.625L47.2819 107.619L47.6464 107.769L48.2078 108.125L48.3988 108.416L48.4076 108.583L48.3489 108.763L48.1578 109.004L47.7257 109.212L47.6728 109.365L47.7492 109.577L47.8815 109.771L48.0344 109.9L48.2666 110.012L48.5017 110.08L49.1101 110.132L49.6451 110.227L49.9037 110.215L50.1271 110.124L50.2711 110.012L50.3623 109.821L50.4504 108.716L50.5533 108.563L50.6239 108.548L50.7267 108.589L51.197 109.142L51.341 109.418L51.9024 111.097L52.3198 112.04L52.3286 112.769L52.4403 112.969L52.9988 113.404L53.5073 113.945L53.9452 114.506L54.1216 114.615L54.5978 114.756L55.2944 115.056L56.0733 115.691L56.1791 115.852L56.2173 116.132L56.0174 116.678L55.9998 116.969L56.0968 117.248L56.5641 118.083L56.8022 118.233L57.7604 118.689L57.9897 118.762L58.4306 118.768L58.7069 118.674L58.219 119.106L56.5348 120.335L54.8946 121.064L53.6337 122.483L52.1552 123.997L51.4116 124.444L50.1947 124.673L49.2453 124.755L48.149 124.944L47.4465 124.782L46.3766 125.337L43.455 125.149L41.3828 124.976L39.2606 125.505L36.9591 125.808L35.7011 125.47L34.8869 124.797L34.3197 123.877L34.1815 122.701L35.1662 120.723L36.289 119.274L37.303 117.348L37.4911 116.32L37.2707 113.909L37.7175 111.684L38.5023 110.515Z" fill="#FF9372" stroke="white" stroke-width="0.5"/>
<path d="M12.3574 113.724L13.6271 111.89L14.1738 111.008L16.3754 113.057L17.0661 114.077L17.072 115.215L16.6223 116.011L15.1556 116.361L14.6147 116.046L14.1709 115.738L13.9534 115.667L13.6418 115.626L13.5066 115.541L13.3714 115.314L13.3273 115.006L13.2597 114.818L13.1039 114.597L12.522 113.965L12.3574 113.724Z" fill="#FF9372" stroke="white" stroke-width="0.5"/>
<path d="M10.4674 120.899L10.4322 120.17L10.2294 119.403L10.0618 119.144L9.89429 119.062L9.14477 118.844L8.24829 118.806L8.54222 118.395L8.93608 117.933L10.0501 116.702L12.3574 113.724L12.522 113.965L13.104 114.597L13.2598 114.818L13.3274 115.006L13.3715 115.314L13.5067 115.541L13.6419 115.626L13.9534 115.667L14.1709 115.738L14.6148 116.046L15.1556 116.361L10.4674 120.899Z" fill="#FF9372" stroke="white" stroke-width="0.5"/>
<path d="M8.17476 124.124L7.71623 124.05L7.58102 123.968L7.14895 123.536L7.0402 123.465L5.3942 122.868L5.08557 122.689L4.89746 122.48L5.36187 122.054L6.30538 121.07L7.05195 120.25L8.24824 118.806L9.14472 118.845L9.89424 119.062L10.0618 119.144L10.2293 119.403L10.4321 120.17L10.4674 120.899L10.0618 121.29L8.37463 123.459L8.17476 124.124Z" fill="#FF9372" stroke="white" stroke-width="0.5"/>
<path d="M5.6377 130.875L5.33495 130.178L5.05866 128.923L4.98518 128.729L4.89406 128.618L4.7177 128.497L3.71541 128.006L2.94532 127.556L1.45804 126.457L1.11121 126.298L2.61906 124.826L4.35029 122.974L4.897 122.48L5.08511 122.689L5.39374 122.868L7.03974 123.465L7.14849 123.536L7.58056 123.968L7.71577 124.05L8.1743 124.123L7.93034 124.941L8.05673 126.642L8.06848 128.233L7.51002 129.258L5.6377 130.875Z" fill="#FF9372" stroke="white" stroke-width="0.5"/>
<path d="M2.9752 132.915L1 126.384L1.11169 126.299L1.45853 126.457L2.9458 127.557L3.7159 128.006L4.71819 128.497L4.89455 128.618L4.98566 128.729L5.05915 128.923L5.33544 130.178L5.63818 130.875L5.25608 131.204L2.9752 132.915Z" fill="#FF9372" stroke="white" stroke-width="0.5"/>
<path d="M86.3391 33.7965L85.422 35.3984L84.6784 37.0326L83.8554 37.9144L82.6121 40.1453L81.0308 41.9824L80.9837 41.7825L80.6633 41.6003L79.5582 42.0559L79.0321 42.1205L78.7793 42.3351L78.5823 42.7819L78.3766 43.5961L77.2215 43.7548L76.4925 44.4925L75.6871 45.0628L75.1845 45.2156L74.823 45.4507L73.5679 45.5389L72.9624 45.9298L72.936 45.5536L72.792 45.3949L71.822 44.9569L71.4546 44.6953L71.4693 44.5778L72.4304 43.6019L72.9977 42.4145L73.1535 41.3622L73.2446 39.1812L73.6003 37.8262L73.6973 36.9209L73.5591 35.9657L73.3387 35.3955L72.6803 34.1051L72.2335 33.626L72.0219 33.2615L71.6427 33.4261L71.4105 33.2968L71.3047 33.0411L71.3194 32.7295L71.6133 32.0799L71.7162 31.5656L71.9396 28.4852L71.8543 27.0949L71.2694 25.9956L71.2518 25.7135L72.0836 24.8817L72.6068 23.8823L72.8449 23.606L73.3886 23.4414L73.5356 23.6119L73.5532 22.0482L73.6914 20.7314L74.4468 18.715L74.6349 17.9832L74.6378 17.5775L74.3939 16.5282L74.3027 15.7258L74.338 14.4119L74.5849 13.4684L75.0199 12.4632L74.9729 12.3074L74.6819 12.1369L74.0441 12.0517L73.7413 12.0899L73.0771 12.4456L72.6979 12.5426L72.3217 12.4514L71.8984 12.0546L72.0895 11.5755L72.3275 11.264L73.7972 10.5732L75.3462 9.64442L75.8694 9.14181L76.6218 7.93964L77.0422 7.55753L77.3567 7.43408L78.6294 7.54284L79.3995 7.41057L80.4165 6.98731L81.357 6.22016L81.6539 5.81454L81.8126 5.33838L82.0477 3.80113L82.4828 3.10746L83.2529 2.54606L86.0422 1L86.3038 1.20281L86.3744 1.63488L86.1921 2.40498L85.6631 3.28088L84.6549 4.43014L84.2228 5.55295L84.067 6.64342L84.311 9.09184L84.2346 9.50334L83.6526 10.4968L84.0288 10.9495L84.7754 11.5873L85.1046 12.0458L85.2721 12.3368L85.6131 13.5625L85.6778 14.2709L85.5778 14.75L85.3868 15.2408L84.9341 15.7346L84.7725 16.0579L84.8695 16.7105L85.2898 16.8604L85.9834 16.9338L86.3685 17.1131L87.4384 18.6592L87.3179 20.2376L86.5066 20.9548L86.4126 21.2046L86.5272 21.5338L87.1004 22.1834L87.1592 22.442L87.0857 22.589L86.8153 22.7507L86.245 22.8183L85.2369 22.5508L85.0223 22.7242L84.9018 23.0387L85.1575 24.091L85.0076 25.9839L85.2721 26.8451L85.7072 30.8455L86.5889 32.0682L86.7624 32.4885L86.7653 32.8206L86.5331 33.4614L86.3391 33.7965Z" fill="#FF9372" stroke="white" stroke-width="0.5"/>
<path d="M62.5633 62.525L62.2282 62.2281L62.2429 61.9254L61.8843 61.461L61.5903 60.5968L61.6521 59.4035L61.4934 58.122L60.6704 56.7287L59.8503 56.1174L59.4212 56.0116L58.4483 55.9939L55.9704 56.4495L55.3796 56.4466L54.977 56.3408L54.1804 55.9469L53.4045 55.3767L52.4992 54.439L51.7996 54.0569L51.3087 54.1304L51.0383 54.2656L50.7562 54.586L50.4887 54.1334L50.3623 54.0011L49.7715 53.7689L49.604 53.6513L49.2219 52.9371L49.0808 52.8048L48.8985 52.7225L48.6046 52.8371L48.2372 53.4367L47.6876 53.7013L47.5347 53.8335L47.4495 54.2833L47.3378 54.4508L47.0115 54.5507L46.6764 55.165L46.4648 55.3473L46.1562 55.4619H46.0151L45.1833 55.1974H44.3956L44.1839 55.1298L44.0017 54.9152L43.8753 54.6154L43.6784 54.5331L43.5931 54.5978L43.3668 54.6154L43.214 54.2186L43.0582 54.101L42.7496 54.0011L42.6496 53.6836L42.8054 53.1693L42.8319 52.7725L42.7055 52.6226L42.4262 52.505L42.2998 52.2228L42.1999 52.1729L41.9618 52.1905L41.8207 52.0553L41.7355 51.7408V51.2411L41.5386 51.0265L41.4416 50.9913L41.2976 50.859L41.2564 50.6268L41.371 50.4593L41.568 50.3946H41.9471L42.341 50.5592L42.5791 50.5945L42.8906 50.5269L42.9318 50.3093L42.8201 50.1447L42.0588 49.9449L41.8913 49.7127L41.8619 49.4628L41.9177 49.1131L42.1147 48.7633L42.2558 48.6134L42.5379 48.4988H42.7907L43.0993 48.5811L43.6637 48.8632H43.89L44.0428 48.731L44.1986 48.4811L44.5631 47.617L44.7336 47.3818L45.6212 46.8851L45.7594 46.7499L45.8446 46.5676L45.8299 46.2032L45.6624 45.968L45.4214 45.7858L45.3391 45.5859L45.3655 44.9863L45.4361 44.7864L45.5625 44.6542L45.6888 44.6365L45.8299 44.7717L46.0856 45.2038L46.1826 45.2538L46.3649 45.1862L46.6882 44.8217L46.7734 44.6365L46.8175 44.4043V44.2721L46.7029 43.9723L47.182 43.6225L47.2937 43.4726L47.3231 43.355L47.0968 42.7554L47.0703 42.5056L47.0968 42.3909L47.8433 41.2064L47.8727 40.8566L47.9697 40.5392L47.955 40.2746L47.858 39.9925L47.5906 39.5751L47.2231 38.6757L47.2114 38.3083L47.4083 37.5411L47.3642 37.3089L47.0409 37.0738L46.0974 36.7916L45.5772 36.3419L45.1274 36.1067V35.8892L45.295 35.2397L45.3097 34.9751L45.198 34.8223L44.9305 34.6724L44.7336 34.4578L44.6219 34.158L44.5778 33.7906L44.4837 33.7671L44.6336 32.6707L44.4308 32.0741L44.0781 32.124L43.9811 31.98L43.8665 31.8948L43.699 31.8801L43.6431 31.93V32.0623L43.5432 32.03L43.4168 32.0447V31.9124L43.6431 31.3128L43.6696 30.8778L43.8665 30.0606L43.8812 29.5757L43.9253 29.4757L43.9106 29.2759L43.937 29.2582V29.0907L43.9958 28.8908L43.9811 28.8085L44.1075 28.4911V28.3412L44.1927 28.3059V27.8562L44.2486 27.8062L44.2897 27.5564L44.4867 27.189L44.472 26.9538L44.4308 26.8715L44.472 26.8363V26.6187L44.5425 26.4865L44.5308 26.3189L44.6131 26.1367L44.5984 26.0867L44.6689 26.0515L44.6425 25.8839L44.7395 25.6841L44.7835 25.4342L44.8541 25.299L44.8805 25.0492L45.0216 24.7993L44.9658 24.767V24.6318L45.1069 24.5142L45.0775 24.4819L45.1216 24.3467L45.0922 24.2644L45.1921 24.1145L45.1627 23.9469H45.2039L45.1921 23.7647L45.2597 23.7118L45.2744 23.3297L45.3303 23.2121L45.3596 22.6595L45.4155 22.5596V22.3774L45.3743 22.3245V21.7542L47.6346 21.7219L49.2307 21.5867L51.0266 21.8983L51.2029 21.8218L51.4939 21.5073L52.0788 21.3163L53.9541 21.2546L55.9058 20.9812L56.9081 21.2193L57.7605 22.8388L58.2366 23.3855L59.0008 23.8382L59.2948 23.9234L60.5822 23.3503L61.9725 23.2386L62.3399 23.0446L63.204 22.2128L63.4539 21.8718L63.8683 21.5661L64.0887 21.5426L64.9823 21.7572L65.8376 21.4339L65.9581 21.2898L66.0257 20.5286L66.1404 20.2758L67.1044 19.8672L67.3572 19.2647L67.4601 17.9479L67.7775 16.487L68.1038 15.9198L68.3536 15.2496L68.3125 14.5177L68.1302 13.6947L68.1538 13.2244L68.5858 12.2398L68.8798 11.9929L69.3559 11.3668L69.8409 10.2969L69.9614 10.1705L70.3171 10.4615L71.5163 12.1722L71.7132 12.2339L71.8984 12.0546L72.3217 12.4514L72.6979 12.5425L73.0771 12.4455L73.7413 12.0899L74.0441 12.0517L74.6819 12.1369L74.9729 12.3074L75.0199 12.4632L74.5849 13.4684L74.338 14.4119L74.3027 15.7258L74.3939 16.5282L74.6378 17.5775L74.6349 17.9831L74.4468 18.715L73.6914 20.7314L73.5532 22.0482L73.5356 23.6119L73.3886 23.4414L72.8449 23.606L72.6068 23.8823L72.0836 24.8816L71.2518 25.7134L71.2694 25.9956L71.8543 27.0949L71.9396 28.4852L71.7162 31.5656L71.6133 32.0799L71.3194 32.7295L71.3047 33.0411L71.4105 33.2968L71.6427 33.4261L72.0219 33.2615L72.2335 33.626L72.6803 34.1051L73.3387 35.3954L73.5591 35.9657L73.6972 36.9209L73.6003 37.8262L73.2446 39.1812L73.1535 41.3622L72.9977 42.4144L72.4304 43.6019L71.4693 44.5778L71.4546 44.6953L71.822 44.9569L72.7919 45.3949L72.936 45.5536L72.9624 45.9298L71.5339 46.5529L71.2047 46.9292L71.2988 47.7728L70.7256 47.9991L70.7491 48.3635L70.6257 48.5076L70.1789 48.634L69.447 49.1895L69.3794 49.8038L69.5382 49.989L69.4647 50.8796L69.5793 51.1559L69.9555 51.3616L70.0555 51.7349L69.8145 52.2934L69.7792 52.8548L70.2994 53.9335L70.2495 54.0569L69.7439 54.0511L69.6528 54.6154L69.4206 54.6095L69.1267 54.4155L69.0179 54.4743L69.0502 54.83L69.3912 55.3825L69.2795 55.5707L68.7681 55.6794L68.4977 56.0586L68.7387 56.2408L69.0649 56.232L69.3883 56.9698L69.7674 57.1226L69.8644 57.2843L69.8027 57.5899L69.1766 58.7157L69.1325 59.0184L69.2119 59.2888L69.6322 59.4946L69.7351 59.6945L69.6087 59.9884L69.3618 59.9972L69.1913 60.153L69.3148 60.9437L68.721 61.1288L68.868 62.4809L68.7798 62.7014L68.4007 62.813L68.3478 62.91L68.8327 63.7272L68.4183 63.686L67.2426 63.348L65.7494 62.6514L65.1145 62.4574L63.9624 62.4074L63.204 62.6279L62.5633 62.525Z" fill="#FF9372" stroke="white" stroke-width="0.5"/>
<path d="M33.2704 62.528L33.241 62.478L33.2998 62.3428L33.3967 62.2958L33.4379 62.1606V62.1282H33.2998L33.3821 62.0136V61.9284L33.4526 61.7961L33.5672 61.7461L33.5525 61.6962L33.579 61.6815L33.7906 60.6527L33.82 60.1707L33.9728 59.7063L34.0581 59.2566L33.9464 58.9597H33.3262V58.8745L33.8759 58.8598L33.917 58.8245L33.9464 58.6922L34.0022 58.7422L34.0169 58.8598H34.1845L34.1992 58.8245H34.1022L34.0581 58.7775V58.7099L34.1139 58.6922L34.1433 58.5776V58.51L34.0875 58.4924V58.4453L34.1433 58.4277L34.158 58.4777H34.1992L34.2697 58.4277L34.2403 58.3777L34.255 58.1955L34.4108 57.928L34.3814 57.8457L34.2991 57.878L34.2844 57.6458L34.3403 57.6135V57.4812L34.3961 57.3813L34.3667 57.3137L34.4666 57.1991V57.0815L34.4108 57.0315L34.4373 56.8346L34.5519 56.7494L34.5666 56.5172L34.7047 56.3349L34.5666 56.3173L34.5519 56.235H34.6224L34.7047 56.0527L34.8194 55.5531L34.8752 55.4708L34.8899 55.2562L34.9604 55.121L34.9457 54.9064L34.8605 54.8888L34.8194 54.8388V54.6742L34.8899 54.4567L35.0016 54.3421L35.1015 54.3568L35.1838 54.1922L35.1691 54.1246L35.0721 54.1099V54.0099L35.0016 53.96L35.1691 53.6425L35.128 53.5602L35.1427 53.428L35.2279 53.328L35.3396 52.9136L35.3955 52.9459L35.4249 52.8783L35.3955 52.7637L35.5072 52.5462L35.4807 52.4139L35.3808 52.314V52.214L35.4807 52.1141L35.5218 51.8819L35.466 51.8496V51.7643L35.5512 51.5174L35.6335 51.3999L35.5924 51.3323L35.6335 51.2176L35.6218 50.9355L35.6776 50.8179V50.668L35.6335 50.6357L35.6923 50.4681L35.7482 49.9361L35.8187 49.9185L35.8893 49.7539L35.9157 49.2718L36.001 48.9044L36.0979 48.7398L36.0156 48.6898L36.0862 48.3224L36.0715 48.0579L36.1979 47.9403L36.2126 47.8727L36.2273 47.3407L36.3096 46.7911L36.2949 46.2943L36.3537 46.1768V46.1268L36.2949 46.0768V45.9945L36.3243 45.9593L36.3096 45.8446L36.3948 45.777L36.3801 45.6771L36.3096 45.6271V45.4949L36.3948 45.245V45.1127L36.5506 44.9276V44.8453L36.6623 44.7277L36.8592 44.7453L37.0003 44.5631L37.0973 44.3456L37.1561 44.0958L37.112 43.9459L37.2119 43.8283L37.2678 43.214L37.3795 42.9465L37.4794 41.7825L37.5353 41.565V41.0477L37.5617 40.8155L37.6205 40.6832L37.6881 39.8338L37.6323 39.5663H37.7028L37.7175 39.534L37.7586 39.1342L37.7469 38.9314L37.6763 38.7992H37.7175L37.7469 38.7492L37.788 38.7992L37.8292 38.7815V38.7316L37.788 38.7169L37.8292 38.5817L37.7733 38.5317L37.7322 38.3818V37.8498L37.8027 37.7675L37.7469 37.6675L37.8292 37.5676L37.9556 37.5999L38.2671 37.3001L38.42 37.2649L38.6052 37.2825L38.8579 37.1502L38.9138 37.0503L38.9549 37.015L38.999 37.0327L39.0402 36.9651H39.1666L39.3517 37.0503L39.4781 37.2825H39.6045L39.6751 37.3501L39.9278 37.45L40.0807 37.4647V37.5147L40.1512 37.5999L40.5333 37.6176L40.8978 37.5147V37.5676L40.7303 37.6323L40.7009 37.5999L40.5892 37.6822H40.5333L40.1806 37.6499L39.969 37.5823L39.7162 37.4001L39.6045 37.4324L39.6751 37.45L39.7015 37.5147L39.7574 37.5323L39.7456 37.5999L40.0395 37.7498L40.0807 37.8321L40.1395 37.8498L40.2218 37.9497L40.2511 38.0673L40.307 38.032V37.8674H40.3628L40.3922 38.0173H40.4628L40.4892 37.9174L40.4187 37.8498V37.7822L40.4334 37.7498L40.5186 37.7675L40.6303 37.9321L40.6744 38.2495L40.7714 38.2819L40.8273 38.4171H41.0095L41.08 38.3671L41.2358 38.3495L41.1947 38.2319L41.2505 38.2172L41.4739 38.3671L41.518 38.6316L41.8002 38.5493L41.8119 38.4994L41.7708 38.4318L41.6297 38.4171L41.6032 38.2495L41.4886 38.2672L41.4063 38.2172L41.6297 38.1496L42.0794 37.8498L42.1793 37.8321L42.2352 37.7175L42.3204 37.6999V37.6323L42.4174 37.5823V37.5L42.4879 37.4324L42.5732 37.2502L42.7701 37.065L43.067 36.6329L43.5725 35.4484L43.6578 35.4161L43.6284 35.2985L43.7548 34.8811L43.8106 34.8488L43.7959 34.7812L43.9106 34.4637L43.9811 34.4138L43.9517 34.3491L44.0928 33.8641L44.0781 33.7965L44.2045 33.1469L44.2192 32.4121L44.0781 32.1241L44.4308 32.0741L44.6336 32.6708L44.4837 33.7671L44.5778 33.7906L44.6219 34.158L44.7336 34.4579L44.9305 34.6724L45.198 34.8223L45.3097 34.9752L45.295 35.2397L45.1274 35.8893V36.1068L45.5771 36.3419L46.0974 36.7916L47.0409 37.0738L47.3642 37.309L47.4083 37.5412L47.2114 38.3083L47.2231 38.6757L47.5905 39.5751L47.858 39.9925L47.955 40.2747L47.9697 40.5392L47.8727 40.8567L47.8433 41.2064L47.0967 42.391L47.0703 42.5056L47.0967 42.7554L47.3231 43.3551L47.2937 43.4726L47.182 43.6225L46.7029 43.9723L46.8175 44.2721V44.4044L46.7734 44.6366L46.6882 44.8218L46.3649 45.1862L46.1826 45.2538L46.0856 45.2039L45.8299 44.7718L45.6888 44.6366L45.5624 44.6542L45.436 44.7865L45.3655 44.9864L45.339 45.586L45.4213 45.7858L45.6624 45.9681L45.8299 46.2032L45.8446 46.5677L45.7594 46.7499L45.6212 46.8851L44.7336 47.3819L44.5631 47.617L44.1986 48.4812L44.0428 48.731L43.89 48.8633H43.6637L43.0993 48.5811L42.7907 48.4988H42.5379L42.2557 48.6134L42.1147 48.7633L41.9177 49.1131L41.8619 49.4629L41.8913 49.7127L42.0588 49.9449L42.8201 50.1448L42.9318 50.3094L42.8906 50.5269L42.5791 50.5945L42.341 50.5592L41.9471 50.3946H41.568L41.371 50.4593L41.2564 50.6268L41.2975 50.859L41.4416 50.9913L41.5386 51.0266L41.7355 51.2411V51.7408L41.8207 52.0553L41.9618 52.1905L42.1999 52.1729L42.2998 52.2229L42.4262 52.505L42.7055 52.6226L42.8318 52.7725L42.8054 53.1693L42.6496 53.6837L42.7495 54.0011L43.0582 54.1011L43.2139 54.2186L43.3668 54.6154L43.5931 54.5978L43.6784 54.5331L43.8753 54.6154L44.0017 54.9152L44.1839 55.1298L44.3955 55.1974H45.1833L46.0151 55.462H46.1562L46.4648 55.3473L46.6764 55.1651L47.0115 54.5508L47.3378 54.4508L47.4494 54.2833L47.5347 53.8336L47.6875 53.7013L48.2372 53.4368L48.6046 52.8372L48.8985 52.7225L49.0808 52.8048L49.2218 52.9371L49.6039 53.6514L49.7715 53.7689L50.3623 54.0011L50.4887 54.1334L50.7561 54.586L50.1095 55.3179L49.9331 55.6824L49.3247 56.2703L48.3283 56.9963L47.0644 57.64L45.0275 58.4101L44.6424 58.701L44.1722 59.5828L43.9488 60.4146L43.7107 61.946L43.2698 63.1687L43.1669 63.9124L42.9347 63.8977L41.5239 64.3445H41.1594L40.9331 64.2945L40.5804 63.8301L40.2306 63.6302L40.0454 63.2657L39.7926 62.9836L39.6251 62.866L39.4135 62.8013H38.2025L37.4294 62.6191L36.6564 62.5691L36.1626 62.6338L35.5571 62.866L35.1926 62.8836L34.9663 62.8337L34.3902 62.5838L33.9258 62.5015L33.2704 62.528Z" fill="#FF9372" stroke="white" stroke-width="0.5"/>
<path d="M23.3768 94.3927L23.8412 93.2316L23.897 92.9818L24.0528 92.6526V92.5879L24.1087 92.5203L24.1792 92.1588L24.2644 91.9942L24.2762 91.7943L24.335 91.7796L24.3467 91.712L24.3908 91.6973V91.5798L24.4173 91.5298H24.4614V91.4475H24.4878L24.6025 91.2506L24.673 91.2182L24.6848 91.1183L25.108 90.4922L25.4725 89.5987L25.8252 88.6758L26.4454 86.536L26.8598 86.6036L27.0979 86.7858L27.4359 86.8505L28.3383 86.8358L28.7733 87.0827L29.126 87.1326L29.9137 87.0827L30.337 86.9651L30.6868 86.6359L31.3628 85.81L31.7008 85.613H31.9536L32.2358 85.7277L32.4885 86.1568L32.6855 86.2391L32.9676 86.1245L33.0235 86.0245L33.1793 85.9275L33.5173 85.8423L34.0082 85.8923L34.2051 85.6953L34.2198 85.4308L34.1492 85.2339L33.9376 85.0164L33.3762 84.7695L33.1087 83.1499L33.0382 82.953L32.8413 82.7384L32.3475 82.4063L32.1799 82.1741L32.1388 81.9448L32.1799 81.6127L32.2505 81.4157L32.2652 80.9014L32.3357 80.4399L32.7707 79.9108L33.1087 79.2995L33.2645 78.9173L33.2763 78.4059L33.1352 78.0091L33.2351 77.6946L33.2645 76.9157L33.1793 76.7188L32.7413 76.4866L32.5885 76.222L32.321 76.0898L31.9418 75.7576L31.545 75.6077L30.4634 75.4754L30.0901 75.4637L30.1753 75.2374V75.1551L30.1312 75.1051L30.1459 75.0199L30.3017 74.6583L30.3723 74.5907L30.3576 74.4585L30.484 74.2263L30.4986 74.0293L30.6515 73.7971L30.6809 73.5649L30.7514 73.4003L30.722 73.2328L30.8367 73.1181V72.8536L30.9337 72.4215L31.0189 72.2893L31.16 71.9072L31.1453 71.7102L31.2011 71.6279L31.2717 71.3957L31.257 71.3458L31.4157 70.9313L31.4275 70.6844H31.3834V70.6345L31.4833 70.4669L31.5127 70.0877L31.6655 69.7879L31.6949 69.6233L31.8213 69.3412L31.8066 69.1413L31.8625 69.1766L31.9066 69.1589L31.8772 68.8768L31.933 68.5799L31.9889 68.5299L31.9771 68.4124L32.1858 67.4688V67.4012L32.1153 67.3513L32.1035 67.269L32.2857 67.169L32.3004 67.1191L32.3974 66.5577L32.4533 66.4078V66.2079L32.5385 66.0433L32.7766 64.9469V64.75L32.8471 64.3855H32.7648V64.3503L32.9177 64.2033L32.9618 64.1034L32.9882 63.8712L32.9618 63.6713L33.0441 63.3392L32.9471 63.2745L33.0176 63.1246L33.0735 63.0893L33.1852 62.7925L33.2292 62.7748L33.2704 62.5279L33.9258 62.5015L34.3903 62.5838L34.9664 62.8336L35.1927 62.8836L35.5572 62.8659L36.1626 62.6337L36.6564 62.5691L37.4295 62.619L38.2025 62.8013H39.4135L39.6251 62.8659L39.7927 62.9835L40.0454 63.2657L40.2306 63.6301L40.5804 63.83L40.9331 64.2944L41.1594 64.3444H41.5239L42.9347 63.8976L43.167 63.9123L43.0611 64.6824L42.7084 65.0263L41.3916 65.6171L41.0536 66.0433L40.5157 67.0544L40.4599 68.6622L40.698 70.3699L40.5304 70.8108L40.1013 71.1165L39.4047 72.1247L38.4906 74.1969L38.4024 74.8935L38.4259 75.5842L39.1166 76.6188L39.39 77.192L39.775 78.8909L39.8367 79.6551L39.6751 80.2782L39.2636 81.0571L39.2048 81.5304L39.3635 81.9272L39.8926 82.4915L40.4746 83.5996L40.6421 84.2845L40.5245 85.1633L40.1189 86.048L40.1307 86.4478L40.2277 86.7682L40.0043 86.9504L40.2247 87.5383L39.5311 89.0196L39.6545 90.3658L40.4305 91.4122L41.5886 92.3352L41.8325 93.2875L41.3857 94.6748L38.855 95.1275L38.8109 95.1951L37.5088 95.1392L36.724 95.0422L36.2685 95.0922L35.8952 95.3832L35.4396 96.6941L34.9017 97.0321L33.2851 97.3731L32.4562 97.6641L31.4216 98.6811L31.1982 99.2572H31.0836L30.9278 99.3718L30.6045 99.7333L30.096 100.442L29.8285 100.724L29.6756 100.839L29.3494 100.921L29.1819 100.806L28.8997 100.409L28.5352 99.2719L28.4088 98.9926L28.1825 98.6634L27.9003 98.4165L27.0303 97.9227L26.9157 97.9051L26.5923 98.2666L26.4366 98.3842L26.2279 98.4165L25.7488 98.3489L25.5077 98.3989L25.5518 98.5635L25.9457 98.7281L26.0427 99.0426L26.3249 99.3071L26.3396 99.4365L26.2132 99.5864L26.0868 99.6011L25.7635 99.5188L25.6635 99.554L25.6488 99.9332L25.5077 100.08L25.0433 100.162L24.917 100.145L24.6083 99.8979L24.2997 99.8156L23.7354 99.7833L23.4973 99.6011L23.4267 99.4041V99.2572L23.5384 99.0926L23.7765 98.928L24.1586 98.7634L24.2997 98.6311L24.3967 98.4489L24.3556 98.2167L24.1733 97.9874L23.6501 97.7082L23.5237 97.4113V97.1791L23.6648 96.9146L23.8471 96.8176L23.9734 96.7999L24.4819 96.9822L24.7053 97.0145L24.9728 96.9998L25.1139 96.8822L25.1021 96.2415L25.2285 95.827L25.1286 95.3832L25.158 95.2686L25.5518 94.8541L25.593 94.6396L25.496 94.475L25.3108 94.378L24.82 94.5573L24.4672 94.5249L24.1586 94.1458L23.9058 94.1781L23.7648 94.3104L23.5678 94.3927H23.3768Z" fill="#FF9372" stroke="white" stroke-width="0.5"/>
<path d="M26.4454 86.536L26.5571 86.0981L26.6688 85.8365L26.7128 85.4544L26.8245 85.3074L26.754 85.2574L26.8539 84.9253L26.9362 84.793V84.696L26.995 84.5638L27.0656 84.4815L27.1067 84.117L27.2743 83.9847V83.8348L27.2184 83.7878L27.3742 83.6379H27.4712L27.5976 83.5379L27.7534 83.2911L27.8533 82.9765L27.9238 82.8766L27.9356 82.7296L27.9091 82.6944L27.9944 82.662L27.9356 82.5797L27.9797 82.5298L27.9503 82.5151L27.9797 82.3975L28.1913 81.9037L28.2031 81.7538L28.2648 81.7215L28.303 81.6215L28.2325 81.4217V81.2571L28.3441 81.1748L28.4 81.1924L28.4852 80.9279L28.6116 80.678L28.5411 80.5458L28.5558 80.4488H28.5969L28.6263 80.5311H28.6822L28.8379 80.052L28.9349 79.5552L29.0613 79.3877L29.1054 79.2731L29.0907 79.2084L29.1319 79.1731L29.273 78.6293V78.3795L29.4434 77.9504L29.414 77.7681L29.5698 77.6858L29.5551 77.5536L29.4552 77.486L29.4846 77.1068L29.5404 77.0568L29.6257 77.0892L29.6521 77.0392L29.852 76.3779L29.9901 75.6342L30.0901 75.4637L30.4634 75.4755L31.545 75.6078L31.9418 75.7577L32.321 76.0898L32.5885 76.2221L32.7413 76.4866L33.1793 76.7188L33.2645 76.9158L33.2351 77.6947L33.1352 78.0092L33.2763 78.406L33.2645 78.9174L33.1087 79.2995L32.7707 79.9109L32.3357 80.4399L32.2651 80.9014L32.2505 81.4158L32.1799 81.6127L32.1388 81.9449L32.1799 82.1741L32.3474 82.4063L32.8412 82.7385L33.0382 82.953L33.1087 83.15L33.3762 84.7695L33.9376 85.0164L34.1492 85.2339L34.2198 85.4308L34.2051 85.6954L34.0081 85.8923L33.5173 85.8423L33.1793 85.9276L33.0235 86.0246L32.9676 86.1245L32.6855 86.2392L32.4885 86.1569L32.2358 85.7277L31.9536 85.6131H31.7008L31.3628 85.81L30.6868 86.636L30.337 86.9652L29.9137 87.0827L29.126 87.1327L28.7733 87.0827L28.3383 86.8358L27.4359 86.8505L27.0979 86.7859L26.8598 86.6036L26.4454 86.536Z" fill="#FF9372" stroke="white" stroke-width="0.5"/>
<path d="M64.1505 118.315L64.1299 121.34L63.9506 122.527L63.1158 124.908L61.1994 128.35L60.6145 129.538L60.0707 130.499L59.8092 131.686L60.3882 132.944L62.6485 135.986L63.0512 136.851L63.304 138.079L63.3569 138.999L63.013 140.507L62.7014 141.586L60.7615 144.575L60.5557 145.774L60.6762 146.732L61.0907 147.879L61.0877 149.09L60.2089 149.898L58.3042 151.147L56.9522 154.134L56.9345 155.198L57.1903 156.165L56.9316 157.349L55.9616 157.699L55.2062 158.613L54.7595 159.836L54.7536 162.228L54.0393 163.895L52.796 166.164L52.5285 167.466L51.7761 168.166L50.28 171.052L50.1595 172.016L49.0132 177.33L48.6634 178.377L47.9638 179.382L47.764 180.173L49.5158 183.468L49.7833 184.379L49.6216 185.075L48.4959 186.322L48.1725 187.327L48.346 188.491L47.3819 190.631L48.9691 197.653L45.0481 203.278L43.9929 207.47L44.1516 212.02L42.6584 215.006L42.4321 216.099L42.5791 216.967L42.4321 218.139L41.568 221.734V223.692L41.7032 224.914L41.7149 226.046L41.0507 226.86L40.1454 227.524L39.3753 228.418L38.8315 229.508L38.3377 230.896L38.2378 230.863L38.0261 230.878L37.8997 230.749H37.7881L37.7469 230.91L37.6881 230.928L37.6617 231.087L37.5911 231.169L37.5764 231.249H37.45L37.4236 231.328L37.2943 231.378L37.2384 231.49L37.1973 231.731L37.0709 231.942H36.9592V231.989L36.8034 232.166L36.6212 232.277L36.5771 232.439L36.3801 232.633V232.874L36.2538 232.953L36.0715 233.212L35.9716 233.291V233.438L35.7482 233.694L35.5366 233.791L34.258 232.31L33.5908 231.049L33.3497 230.079L33.1469 228.389L33.6231 226.807L33.8612 225.223L33.6319 224.133L32.7237 222.548L32.759 219.753L27.577 205.206L27.6799 204.328L26.0398 199.792L21.6749 187.45L20.6432 183.57L17.1073 181.257L16.978 179.461L18.0273 176.504L15.8287 173.927L15.9757 170.732L14.509 164.63L10.0471 155.256L7.15488 146.788L2.97522 132.915L5.2561 131.204L7.51053 129.258L8.06899 128.233L8.05724 126.642L7.93085 124.941L8.37468 123.459L10.0618 121.29L15.1468 116.364L16.6223 116.011L17.072 115.215L17.0661 114.077L16.3754 113.057L14.1739 111L15.3966 109.01L15.6082 108.877L15.7082 108.73L15.6935 108.698L15.6082 108.68L15.6229 108.534L15.5789 108.516V108.469L15.7493 108.269V108.337L15.6229 108.484L15.764 108.516L15.7905 108.566L15.8346 108.551L16.6076 107.267L16.7075 106.92L16.8898 106.791L17.1719 106.426L17.2836 106.197L17.2689 106.115L17.4247 105.918L17.507 105.703L17.5776 105.653L17.607 105.721H17.6628L18.5211 104.189L18.6769 103.975L19.0707 103.184L19.2941 102.905L19.4087 102.576L19.9701 101.603L20.4786 100.515L20.7314 100.089L20.9842 99.4776L21.0694 99.3306L21.1106 99.313L21.0959 99.263L21.237 99.0014L21.3781 98.6046L21.5603 98.2754L21.7719 97.7816L21.6191 97.617L21.5338 97.3349L21.5485 97.1056L21.6867 96.7588H21.7308V96.8734L21.6749 96.9087L21.5897 97.1056V97.3848L21.7719 97.6993H21.8865L21.913 97.617L21.7719 97.5347V97.4848L21.8278 97.4524L21.816 97.2878L21.8572 97.2379L21.8719 97.1056V97.0556L21.816 97.0233V96.9557H21.9424L21.9982 97.0233H22.3216L22.351 96.941L22.4626 96.8264L22.4891 96.7588L22.4186 96.7264L22.4068 96.6441L22.4186 96.215L22.4626 96.1827L22.4773 96.2473H22.5185V96.215L22.6302 96.1503L23.0505 95.0922L23.3768 94.3927H23.5678L23.7647 94.3104L23.9058 94.1781L24.1586 94.1458L24.4672 94.5249L24.82 94.5572L25.3108 94.378L25.496 94.4749L25.593 94.6395L25.5518 94.8541L25.158 95.2686L25.1286 95.3832L25.2285 95.827L25.1021 96.2415L25.1139 96.8822L24.9728 96.9998L24.7053 97.0145L24.4819 96.9822L23.9734 96.7999L23.8471 96.8176L23.6648 96.9146L23.5237 97.1791V97.4113L23.6501 97.7082L24.1733 97.9874L24.3555 98.2167L24.3967 98.4489L24.2997 98.6311L24.1586 98.7634L23.7765 98.928L23.5384 99.0926L23.4267 99.2572V99.4041L23.4973 99.6011L23.7354 99.7833L24.2997 99.8156L24.6083 99.8979L24.917 100.145L25.0433 100.162L25.5077 100.08L25.6488 99.9332L25.6635 99.554L25.7635 99.5188L26.0868 99.6011L26.2132 99.5864L26.3396 99.4365L26.3249 99.3071L26.0427 99.0426L25.9457 98.7281L25.5518 98.5635L25.5077 98.3989L25.7488 98.3489L26.2279 98.4165L26.4366 98.3842L26.5923 98.2666L26.9157 97.9051L27.0303 97.9227L27.9003 98.4165L28.1825 98.6634L28.4088 98.9926L28.5352 99.2719L28.8997 100.409L29.1818 100.806L29.3494 100.921L29.6756 100.839L29.8285 100.724L30.096 100.442L30.6045 99.7333L30.9278 99.3718L31.0836 99.2572H31.1982H31.2776L31.5597 99.5364L31.883 100.015L32.0947 100.492L32.321 101.232L32.4327 101.382L32.6032 101.479L33.0529 101.382L33.3057 101.415L33.4879 101.479L33.7407 101.794V102.008L33.4732 102.567L33.5026 102.781L33.7289 103.39L33.7554 103.637L33.7289 104.016L33.5878 104.295L33.5437 104.527L33.6143 105.415L33.5731 105.894L33.6995 106.306V106.714L33.6143 107.176L33.7407 107.472L34.5166 107.916L35.2485 108.41L35.9363 108.789L36.1626 108.986L36.4448 109.38L37.2325 109.577L37.4001 109.659L38.5023 110.515L37.7175 111.684L37.2707 113.909L37.4912 116.32L37.3031 117.348L36.289 119.274L35.1662 120.723L34.1816 122.701L34.3197 123.877L34.887 124.797L35.7012 125.47L36.9592 125.808L39.2606 125.505L41.3828 124.976L43.455 125.149L46.3766 125.337L47.4465 124.782L48.149 124.944L49.2454 124.755L50.1948 124.673L51.4116 124.444L52.1553 123.997L53.6337 122.483L54.8947 121.064L56.5348 120.335L58.219 119.106L60.009 117.525L60.8085 117.243L64.1563 117.293L64.1505 118.315Z" fill="#FF9372" stroke="white" stroke-width="0.5"/>
<path d="M51.1559 102.52L51.0854 102.631L48.5311 102.696L46.3737 103.581L43.7254 106.2L41.3505 107.34L40.5098 108.075L38.9638 109.745L38.5023 110.515L37.4001 109.659L37.2325 109.577L36.4448 109.38L36.1626 108.986L35.9363 108.789L35.2485 108.41L34.5166 107.916L33.7407 107.472L33.6143 107.176L33.6995 106.714V106.306L33.5731 105.894L33.6143 105.415L33.5437 104.527L33.5878 104.295L33.7289 104.016L33.7554 103.637L33.7289 103.39L33.5026 102.781L33.4732 102.567L33.7407 102.008V101.794L33.4879 101.479L33.3056 101.415L33.0529 101.382L32.6032 101.479L32.4327 101.382L32.321 101.232L32.0947 100.492L31.883 100.015L31.5597 99.5364L31.2775 99.2572H31.1982L31.4216 98.6811L32.4562 97.6641L33.2851 97.3731L34.9017 97.0321L35.4396 96.6941L35.8952 95.3832L36.2684 95.0922L36.724 95.0422L37.5088 95.1392L38.8109 95.1951L38.2319 96.0504L38.6551 97.6406L39.6339 98.0609L41.033 98.2607L42.3234 97.7993L43.2757 96.7647L44.2398 96.1944L45.3567 97.2261L46.3737 97.714L48.5635 98.5958L50.9119 98.5841L51.8349 99.5482L51.685 101.694L51.1559 102.52Z" fill="#FF9372" stroke="white" stroke-width="0.5"/>
</svg>
