<svg width="255" height="232" viewBox="0 0 255 232" fill="none" xmlns="http://www.w3.org/2000/svg">
<path d="M234.94 33.899L234.302 34.118L232.915 35.3247L228.307 36.5352L217.535 38.545L217.186 38.7449L216.813 39.1215L212.663 46.4576L212.559 50.8L211.614 58.8278L211.275 60.5802L215.944 70.8138L216.448 80.3519L214.123 84.0218L209.285 83.3724L204.101 83.3993L200.116 82.9727L197.03 82.0312L194.847 81.5816L192.23 80.1098L191.527 79.126L190.493 78.4304L160.495 48.8594L159.008 46.9571L158.178 45.2778L156.702 42.9413L156.118 41.4195L156.018 40.6202L155.711 40.086L154.647 39.1599L153.92 38.741L151 37.6689L149.251 36.835L147.141 37.3153L146.319 37.1847L145.623 36.7543L143.402 33.8529L143.083 32.5578L142.399 31.1705L142.261 30.5172L142.772 30.3059L143.322 30.3943L146.307 29.9254L148.237 29.3721L150.823 29.0762L153.021 28.2307L156.23 27.9617L157.54 27.685L159.385 26.659L162.148 25.6521L164.142 24.4455L165.514 23.8767L166.844 22.7162L168.577 22.1897L170.406 21.8631L171.432 21.4365L172.585 20.7063L173.415 19.9147L174.107 19.6227L175.909 18.4006L178.188 17.3284L179.445 16.1679L180.167 15.7144L184.271 14.8652L185.643 14.1811L186.393 13.5701L189.148 12.4172L190.401 11.5065L192.099 11.1145L193.206 10.4228L194.751 10.4612L195.189 10.9531L195.812 11.0837L197.157 10.246L198.494 10.1115L199.589 10.2383L201.507 10.8263L205.834 11.6294L207.928 11.7639L209.242 12.375L209.527 12.9591L209.773 13.1205L210.472 13.059L211.771 12.3788L220.491 12.3634L222.666 12.0944L226.428 10.8071L229.126 10.7571L230.271 10.5688L238.487 8.57434L240.051 7.72506L241.607 7.18321L243.456 6.04572L244.074 4.97739L244.712 4.30873L246.791 2.7562L247.644 1.1883L247.967 1L248.24 1.08454L248.271 1.54569L247.733 2.67166L247.81 2.97909L248.817 2.84074L249.889 3.27883L250.623 2.81384L251.092 3.74767L251.614 3.96287L251.856 4.51625L252.702 4.92743L252.994 5.35015L252.909 6.15332L252.337 6.67595L252.152 7.33308L252.221 7.84803L253.194 10.123L253.174 11.6333L253.317 11.91L253.889 12.2481L254.028 12.9514L248.886 18.1316L246.146 21.3097L244.547 22.8584L237.096 31.6932L235.785 32.8307L234.94 33.899Z" fill="#FF9372" stroke="white" stroke-width="0.5"/>
<path d="M209.942 107.118L210.199 112.398V115.975L210.507 119.434L206.779 124.987L202.74 134.71L202.141 135.286L201.956 136.189L186.45 144.559L170.798 153.39L163.543 142.607L142.019 111.81L142.418 108.136L139.26 101.503L136.727 99.3204L134.779 98.0177L151.272 73.9074L150.619 73.7613L149.566 73.0273L149.07 72.9735L156.118 41.4196L156.702 42.9413L158.178 45.2778L159.008 46.9572L160.495 48.8594L190.493 78.4304L191.527 79.126L192.23 80.1098L194.847 81.5816L197.03 82.0312L200.116 82.9727L204.101 83.3993L209.285 83.3724L214.123 84.0218L212.209 87.0462L211.917 91.7384L210.684 96.3422L210.034 100.101L209.761 103.428L209.942 107.118Z" fill="#FF9372" stroke="white" stroke-width="0.5"/>
<path d="M57.9171 84.0219L57.087 84.4177L56.7719 85.5129L56.0456 87.0462L55.6536 87.5381L55.1617 87.884L53.9282 88.2567L53.6323 88.6064L53.2518 89.8438L52.6408 90.7815L52.6293 91.5424L53.0289 91.8114L53.5669 91.773L54.4008 90.6278L54.8658 90.7315L55.1271 91.4771L55.1502 93.5484L55.0772 93.6521L54.4124 93.3947L54.128 93.51L53.6861 93.9211L53.2749 94.6436L52.8406 94.8242L50.6579 94.9126L50.0468 94.6167L49.774 92.5608L50.2159 91.6308L50.2889 91.039L50.1737 90.3588L49.7433 89.7516L49.5626 89.767L48.9939 90.7431L48.11 91.5808L47.645 92.6991L47.3722 92.8413H46.4307L46.0003 93.0334L45.6736 92.5185L45.0011 92.0958L44.6745 91.3887L43.2296 90.2281L39.94 90.9122L38.9793 91.4002L37.3576 91.5155L36.1471 91.4002L33.6377 90.6931L32.1313 90.6816L31.7624 90.3972L31.3166 89.4058L30.1599 88.8139L29.1377 89.4711L28.1462 89.6632L27.7235 89.2367L27.3123 87.6419L26.6705 86.4275L27.0702 85.7704L26.8396 84.4561L26.9126 83.6683L26.6283 82.9343L26.6167 82.3809L27.4814 77.8463L27.4391 76.5705L27.1355 76.4245L25.2141 76.4014L24.9297 76.2323L24.5108 75.0295L23.9498 74.9027L23.1389 75.3408L22.4241 75.3677L21.694 74.9795L21.4365 74.5107L22.551 73.8036L22.7393 73.1157L22.6432 72.8045L22.0014 72.5854L20.5258 72.6623L17.9625 73.1042L17.5437 72.8583L17.4284 72.5585L17.5975 71.8937L17.3861 70.8869L17.6436 71.5171L18.1816 71.7361L18.7119 70.7985L18.9425 68.5235L18.6312 67.7165L18.8887 66.9325L19.8379 65.3954L20.445 64.9803L21.0407 64.8305L21.7632 64.915L22.3511 65.2416L23.2465 65.1187L23.381 64.965L22.9468 64.0542L23.0697 63.5162L23.8037 62.9398L24.8259 63.4854L25.7444 63.374L26.1325 63.0819L26.2709 62.6708L26.2171 61.9137L26.7589 60.9799L26.5168 59.9423L26.8627 59.216L26.4131 58.4858L26.2286 57.5789L26.6398 56.4645L26.0595 55.2117L26.5207 54.3163L26.9664 54.178L27.0625 53.7975L26.8511 52.6908L27.074 52.5447L28.2845 53.248L29.1261 53.3863L29.6411 53.6938L30.0446 53.5208L30.5634 52.1643L31.0975 52.3756L31.601 51.9952H32.3542L32.9152 52.464L33.9221 52.2757L34.8828 52.9559L35.2287 53.002L35.5707 52.9482L36.0741 52.4102L37.373 52.4064L38.3529 51.7031L38.5566 51.1959L38.0532 50.4235L38.3414 49.4589L38.13 49.2398L37.2308 48.9824L37.1501 48.429L38.253 48.21L39.3175 48.3906L39.7172 48.1562L40.2052 47.5451L40.7201 47.4913L41.1083 47.9486L41.312 49.1476L42.3342 49.9008L43.1642 51.1882L43.6407 51.5917L43.7983 52.245L43.5024 52.856L41.0583 55.4038L39.5827 56.4837L39.2752 57.0678L39.4558 57.5098L40.1399 58.1208L40.2052 58.8471L40.4127 59.0661L41.4772 59.7809L43.7983 60.6648L45.0396 61.4295L45.3162 62.1712L45.4507 64.5576L47.6643 67.7818L47.8026 68.4428L48.4367 69.1038L48.6058 70.1144L49.2168 70.6063L49.847 71.6554L51.3342 72.0282L52.072 72.9889L53.1058 73.5192L53.5054 73.9842L53.59 74.4876L53.3479 75.1601L51.8184 76.386L52.4525 78.5342L53.0943 79.372L53.1481 80.6632L53.7168 80.7938L54.0434 81.1166L54.4969 82.0966L55.4538 82.4962L56.1724 83.2955L57.9171 84.0219Z" fill="#FF9372" stroke="white" stroke-width="0.5"/>
<path d="M33.4263 191.853L33.1842 190.324L31.8661 188.833L31.3704 187.576L31.0437 187.288L30.4635 187.538L29.7794 188.303L27.4506 189.809L26.7128 190.524L26.4707 191.538L26.0826 191.777L24.7222 191.461L23.9536 190.785L23.5732 190.132L22.3934 189.855L22.1513 188.964L21.4019 188.46L20.6872 187.519L20.2029 187.845L20.1415 188.283L20.3528 189.313L19.8263 190.543L19.6035 190.731L18.4429 190.92L17.1056 191.534L15.0074 191.358L14.3541 191.634L13.3203 192.476L12.6863 192.664L11.6756 192.553L11.2874 191.8L10.319 191.423L10.4151 189.655L10.2691 189.294L8.69733 189.106L7.40996 187.815L7.80962 187.188L7.75582 187.038L6.91038 186.546L6.78357 185.29L6.9027 184.471L7.2255 183.63L8.37837 182.112L8.51287 181.535L8.45907 181.209L8.26308 181.059L9.83483 179.618L10.3152 178.88L10.4113 178.33L9.97701 177.131L10.588 176.789L12.7439 176.324L13.9006 175.659L14.3425 175.033L14.2542 174.095L14.0313 173.807L11.3105 172.212L9.86557 172.001L9.68495 171.571L9.75797 171.271L10.9531 170.106L11.0069 168.784L11.7409 167.874L12.4326 166.667L12.571 166.133L12.7746 165.96L13.5163 165.864L14.8037 163.804L16.4946 163.355L18.0202 162.29L18.3776 162.232L18.808 163.001L19.6227 163.22L20.8024 163.112L21.5326 162.271L22.6086 162.536L23.0313 162.939L23.8191 162.959L25.4831 163.623L26.0749 163.647L26.3324 163.477L26.8358 162.674L26.5629 162.083L25.729 161.368L24.2111 160.857L23.0544 159.857L22.9929 159.416L23.2657 158.762L24.5147 156.875L25.2602 156.065L25.9634 155.784L26.0787 155.242L27.3853 154.116L27.4852 153.54L28.6266 153.009L30.0062 153.455L30.8439 152.971L31.4088 152.425L31.5395 151.153L32.4848 149.897L32.9306 149.551L33.6915 149.274L33.9451 148.24L34.437 147.787L34.6599 147.091L35.6514 146.546L36.0241 145.992L35.8358 145.789L36.5083 145.393L37.8149 145.343L39.4289 146.142L41.5041 146.208L43.7291 145.093L44.6668 144.889L48.3675 149.428L50.4657 153.063L51.5609 154.481L56.6412 157.506L57.3791 157.709L59.0008 157.594L59.3274 157.898L60.6647 160.603L61.76 162.309L63.0666 163.193L65.649 165.972L68.4966 168.116L70.3834 170.018L71.0598 171.405L71.8629 173.661L73.4846 175.978L74.2033 176.755L76.8779 178.834L78.3113 179.702L81.62 180.671L85.5821 183.399L89.1982 186.827L92.0535 188.86L94.7512 191.142L98.1752 193.636L99.8546 195.25L68.7271 214.88L67.3744 213.262L66.0064 212.451L65.111 211.291L64.0157 210.418L60.684 207.175L60.315 206.514L60.0191 203.916L59.2198 202.856L58.2706 202.456L57.3022 203.132L56.745 203.044L55.8688 202.456L54.8466 202.029L54.666 201.491L53.7399 200.254L53.6784 199.305L52.6677 198.555L51.4879 198.067L49.2129 197.841L48.5789 197.541L48.0524 196.926L47.8103 195.623L46.2308 193.982L45.9157 192.856L45.4315 192.318L44.221 191.665L42.9759 190.512L42.2688 190.439L39.8555 191.142L33.899 191.846L33.5416 192.007L33.4263 191.853ZM27.0126 173.976L23.2235 173.857L22.7162 174.18L22.7508 175.836L23.3925 176.524L23.7653 177.412L24.3072 177.696L26.978 177.615L27.0126 173.976Z" fill="#FF9372" stroke="white" stroke-width="0.5"/>
<path d="M57.917 84.0217L56.1724 83.2954L55.4537 82.4961L54.4969 82.0964L54.0434 81.1165L53.7167 80.7937L53.148 80.663L53.0942 79.3718L52.4524 78.5341L51.8184 76.3859L53.3478 75.16L53.5899 74.4875L53.5054 73.9841L53.1057 73.5191L52.072 72.9888L51.3342 72.0281L49.847 71.6553L49.2167 70.6062L48.6057 70.1143L48.4366 69.1036L47.8025 68.4426L47.6642 67.7817L45.4507 64.5575L45.3162 62.171L45.0395 61.4294L43.7982 60.6646L41.4771 59.7808L40.4127 59.066L40.2051 58.8469L40.1398 58.1206L39.4558 57.5096L39.2752 57.0677L39.5826 56.4836L41.0583 55.4037L43.5023 52.8559L43.7982 52.2449L43.6407 51.5916L43.1642 51.1881L42.3341 49.9007L41.3119 49.1475L41.1082 47.9485L40.7201 47.4912L40.2051 47.545L39.7171 48.156L39.3174 48.3904L38.253 48.2098L37.15 48.4289L37.1577 47.8678L36.785 47.4989L36.0279 47.422L35.3477 47.7448L34.8289 47.691L34.9903 47.1838L35.586 46.5535L35.3016 45.5813L35.39 44.8165L34.5061 44.7627L34.1218 44.5053L33.6569 43.2371L33.6069 42.5915L33.3379 42.2879L33.311 41.2234L32.823 40.3742L32.9037 40.0898L32.7461 39.8477L32.7499 39.6555L33.5224 39.1368L34.2025 37.9416L34.6906 35.9894L34.5561 34.9787L34.0757 33.5646L34.2256 32.6461L35.9319 30.0522L35.8627 28.9723L35.4438 28.0731L35.7781 27.17L37.2 25.5867L37.4998 25.0526L37.4767 24.576L37.127 23.8689L37.3998 23.427L37.7688 23.9381L39.8093 24.4377L42.2803 25.6482L46.0194 26.632L47.5989 26.4629L49.2859 27.3698L50.4657 28.5496L51.8376 29.1529L51.8606 29.6948L50.9729 31.3088L50.7731 32.1504L51.5494 32.5001L53.1634 33.8912L53.6399 33.7337L54.3355 32.208L55.204 32.0274L56.7296 32.4809L58.2706 32.0197L59.8193 31.9467L62.4132 32.4079L63.8505 32.4809L67.6395 33.2149L68.7617 32.6845L69.9876 31.4087L74.5683 28.8147L76.0632 28.4919L77.289 27.9924L79.7331 28.0039L80.6131 27.5043L84.164 26.2554L86.7656 24.7221L89.2058 24.2302L90.3318 22.816L92.4531 21.7515L94.2131 21.1136L95.0278 20.5295L96.3997 20.5794L97.249 20.222L100.65 20.8369L102.775 20.9906L104.704 21.7169L106.361 22.62L109.031 23.746L111.591 26.4245L111.664 27.9117L112.298 30.6862L112.14 31.4471L111.771 31.72L109.516 32.0351L109.262 32.4155L109.558 33.9181L110.073 34.4561L110.745 34.3255L112.444 33.015L112.92 33.1995L113.097 33.6299L113.024 37.4997L112.455 40.7239L111.791 42.9182L110.895 44.2747L109.504 45.9156L107.144 47.6103L103.505 49.6163L99.8583 50.3426L95.9924 50.5386L94.828 50.7692L94.4629 51.1765L92.8489 51.9566L92.2071 52.583L91.4501 53.8051L91.0159 54.9503L89.9629 56.5451L89.8246 57.9631L90.0782 59.7039L90.6585 60.5609L92.3032 62.2479L92.8835 63.2586L94.5475 64.6074L94.5897 65.0763L93.7136 67.2898L92.7567 68.2736L91.1965 70.4755L90.2473 72.224L89.2251 75.3791L88.614 78.3112L88.4872 80.4824L91.3848 84.1716L96.5611 89.3864L93.9902 89.3787L89.5325 89.7131L86.6964 89.4709L80.8668 89.4825L76.5666 88.9137L74.6797 88.0914L71.2634 85.7318L70.0836 85.6819L64.888 86.3774L62.9166 86.3006L60.7262 84.921L57.917 84.0217Z" fill="#FF9372" stroke="white" stroke-width="0.5"/>
<path d="M99.0975 91.8653L98.4788 90.8738L96.5612 89.3866L91.3848 84.1718L88.4873 80.4826L88.6141 78.3114L89.2251 75.3793L90.2473 72.2243L91.1965 70.4757L92.7568 68.2738L93.7136 67.29L94.5898 65.0765L94.5475 64.6077L92.8836 63.2588L92.3033 62.2481L90.6585 60.5611L90.0783 59.7041L89.8246 57.9633L89.963 56.5453L91.0159 54.9505L91.4502 53.8053L92.2072 52.5832L92.849 51.9569L94.463 51.1767L94.8281 50.7694L95.9925 50.5388L99.8584 50.3428L103.505 49.6165L107.145 47.6105L109.504 45.9158L110.895 44.2749L111.791 42.9184L112.455 40.7241L113.024 37.4999L113.097 33.6301L112.92 33.1997L112.444 33.0152L110.745 34.3257L110.073 34.4563L109.558 33.9183L109.262 32.4157L109.516 32.0353L111.771 31.7202L112.14 31.4473L112.298 30.6864L111.664 27.9119L111.591 26.4247L115.111 29.8026L117.151 30.3291L122.497 30.4098L126.367 30.1369L128.842 30.429L134.225 31.9431L138.683 30.7864L142.261 30.5174L142.399 31.1707L143.083 32.5579L143.402 33.853L145.623 36.7544L146.319 37.1848L147.141 37.3154L149.251 36.8351L151 37.669L153.92 38.7411L154.647 39.16L155.711 40.0862L156.018 40.6203L156.118 41.4196L149.07 72.9736L149.566 73.0274L150.619 73.7614L151.272 73.9074L134.779 98.0177L130.34 96.2769L126.336 95.5429L121.709 93.9481L113.562 92.3034L107.49 91.5924L104.939 91.4656L101.726 91.4925L99.0975 91.8653Z" fill="#FF9372" stroke="white" stroke-width="0.5"/>
<path d="M7.36767 88.6757L4.61616 86.3968L3.64391 86.1009L3.35954 86.6044L3.04442 86.2278L2.74852 86.1394L2.6217 85.9703L2.74852 85.5476L2.79079 85.586L2.69856 85.9972L2.92913 85.7013L3.0252 85.2094L2.87533 85.1056L3.11743 84.706L2.76004 84.5676L2.70624 84.2679L2.51794 84.3716L2.49873 84.0142L2.3796 84.0873L1.84159 83.7529L1.83391 83.5723H1.62255L2.10675 82.992L1.97225 82.5924L1.71862 82.5001L1.15756 82.7461L1 82.4387L1.45346 82.4502L1.94919 82.089L2.00299 82.2427L2.26431 82.2849L2.34885 82.0505L2.59096 82.0774L2.81384 81.2896L3.0252 81.1974L3.06748 81.4049L3.23272 81.378L3.11743 80.9515L3.30958 80.9284L3.59395 80.2059L3.42486 80.0369L3.32879 79.3759L2.95987 79.1338L2.98293 78.4613L3.46714 77.9578L4.12043 77.8041L4.17423 77.4929L4.42402 77.3122L4.37406 77.0932L4.75066 76.8972L4.85826 76.5744L5.32325 76.4053L5.46928 75.3485L5.88047 75.1141L5.63837 73.1734L5.3002 72.7354V72.2281L4.95434 71.8822L4.93128 71.1444L4.42402 70.8062L4.62769 70.1991L4.19344 70.0569L4.20497 69.8993L4.50087 69.9531L4.70839 69.7725L4.85826 70.0031L5.13111 69.9377L5.26945 70.1452L5.92274 70.1068L6.64136 69.3844L6.95648 69.369L7.2178 69.0078L7.50217 67.6358L7.68279 67.5167L7.76733 67.0902L7.95563 66.8058L8.64351 66.4561L8.67425 66.287L9.33139 66.9249L11.8254 65.8873L12.0867 65.9142L12.6363 66.6521L12.3327 68.2661L12.4749 68.6773L13.6623 68.7695L16.1871 69.4036L16.8558 69.8801L17.3861 70.8869L17.5974 71.8938L17.4284 72.5586L17.5436 72.8583L17.9625 73.1043L20.5257 72.6623L22.0014 72.5855L22.6432 72.8045L22.7392 73.1158L22.5509 73.8037L21.4365 74.5108L20.9907 74.6952L20.714 75.068L20.7563 76.3477L20.6103 76.8934L20.3028 77.2392L19.4805 77.4467L19.2191 78.0808L19.9877 79.3836L20.2836 81.4779L20.1453 84.6637L19.3767 89.7017L19.8071 91.4887L20.2836 92.4532L20.3144 93.5754L21.2405 97.0609L21.3558 99.2167L19.6726 98.3136L17.9779 99.0899L14.2388 99.2014L12.9399 99.528L12.6055 99.4511L10.7763 97.9985L10.1845 97.7026L9.21994 97.6373L9.10466 97.399L8.88561 97.4144L8.74727 96.7457L8.84334 95.9464L8.72421 95.5737L8.85103 95.3047L8.69347 95.2009L8.82028 94.3132L8.705 94.2517L8.62045 92.0651L8.76648 91.9229L8.38988 90.4818L8.5436 90.2474L8.11319 89.5019L7.36767 88.6757Z" fill="#FF9372" stroke="white" stroke-width="0.5"/>
<path d="M21.4365 74.5107L21.694 74.9796L22.4242 75.3677L23.1389 75.3408L23.9498 74.9027L24.5109 75.0295L24.9297 76.2324L25.2141 76.4014L27.1355 76.4245L27.4391 76.5705L27.4814 77.8464L26.6168 82.381L26.6283 82.9344L26.9127 83.6684L26.8396 84.4561L27.0702 85.7704L26.6706 86.4276L27.3123 87.6419L27.7235 89.2367L28.1462 89.6633L29.1377 89.4711L30.1599 88.814L31.3166 89.4058L31.7624 90.3973L32.1313 90.6816L33.6377 90.6932L36.1471 91.4003L37.3576 91.5155L38.9793 91.4003L39.9401 90.9122L43.2296 90.2282L44.6745 91.3887L45.0012 92.0958L45.6737 92.5185L46.0003 93.0335L46.4307 92.8413H47.3722L47.6451 92.6991L48.1101 91.5809L48.9939 90.7431L49.5627 89.767L49.7433 89.7516L50.1737 90.3588L50.289 91.039L50.216 91.6308L49.774 92.5608L50.0469 94.6168L50.6579 94.9127L52.8406 94.8243L53.2749 94.6436L53.6861 93.9212L54.128 93.51L54.4124 93.3947L55.0772 93.6522L55.1502 93.5484L55.1272 91.4771L54.8659 90.7316L54.4009 90.6278L53.567 91.773L53.029 91.8114L52.6293 91.5424L52.6408 90.7815L53.2518 89.8439L53.6323 88.6065L53.9282 88.2568L55.1618 87.884L55.6536 87.5381L56.0456 87.0463L56.7719 85.5129L57.087 84.4177L57.9171 84.0219L60.7263 84.9211L62.9167 86.3007L64.8881 86.3776L70.0837 85.682L71.2635 85.732L74.6798 88.0915L76.5667 88.9139L80.8669 89.4826L86.6965 89.4711L89.5326 89.7132L93.9903 89.3789L96.5612 89.3866L98.4788 90.8738L99.0975 91.8652L99.1859 95.0817L99.0053 98.0369L98.3828 99.7047L97.1607 101.58L96.8341 102.391L96.665 103.571L96.8764 105.481L94.2401 106.48L91.1966 107.917L90.5855 108.351L89.6671 109.339L89.5825 110.004L88.814 111.387L88.7947 112.359L88.4566 113.193L87.7187 114.039L87.296 114.242L86.9271 114.077L85.0095 111.479L82.0274 108.966L81.5932 106.787L80.7285 105.454L79.2452 105.2L78.2729 104.262L77.7464 104.043L76.5129 104.236L72.6661 105.454L71.5056 105.534L69.146 107.095L68.6618 107.89L68.5965 109.915L68.8309 110.826L68.4389 111.299L67.924 111.233L67.2899 110.288L67.0171 110.134L64.9727 110.146L64.3194 110.657L63.9197 110.772L62.6554 110.223L62.3172 110.519L62.2442 111.233L61.5371 111.018L60.7878 111.107L60.5341 111.914L60.0807 112.413L59.8501 113.243L59.2275 113.781L58.1746 113.385L57.4368 112.233L56.6566 112.106L55.6037 112.528L55.254 113.562L54.128 112.897H53.59L52.9252 113.731L51.6724 113.908L49.0554 115.929L48.5712 115.841L48.4136 114.957L47.7911 114.204L47.5797 113.474L46.8227 112.436L46.3577 111.118L45.6544 110.657L45.0934 110.542L44.5784 110.553L43.7023 111.145L42.7108 111.21L41.9422 111.898L40.5319 111.821L40.0246 112.067L39.6019 111.887L38.9179 112.475L38.18 112.567L37.2308 112.963L36.3969 113.562L35.2287 113.716L34.4294 113.37L34.1527 113.408L33.0997 114.039L32.7193 114.089L32.2159 113.973L31.993 113.155L31.2859 112.951L31.601 112.221L31.551 111.875L31.0745 111.606L30.7056 111.633L30.2521 111.925L29.8102 112.847L28.9686 113.474L28.8111 113.962L28.8725 114.611L28.4729 114.957L28.4498 115.737L28.0309 116.045L27.9464 116.391L27.712 116.583L27.0279 116.122H26.5245L26.1633 115.534L25.902 115.38L25.4793 115.572L24.8375 116.402L24.5109 116.429L24.288 115.457L23.4041 115.188L23.9613 114.588L23.6616 114.05L23.3272 113.547L22.1897 112.732L21.5019 110.807L19.2845 111.103L17.5014 110.826L17.1325 110.553L16.9211 109.954L16.9634 109.389L17.1825 109.174L18.2585 109.274L18.881 108.866L19.5727 108.751L19.7572 108.52L20.4989 108.474L21.4942 107.571L21.5365 106.853L21.9054 105.88L21.5672 103.659L21.3558 99.2167L21.2406 97.0608L20.3144 93.5753L20.2837 92.4532L19.8072 91.4886L19.3768 89.7017L20.1453 84.6637L20.2837 81.4779L19.9878 79.3835L19.2192 78.0808L19.4805 77.4467L20.3029 77.2392L20.6103 76.8933L20.7563 76.3476L20.7141 75.068L20.9908 74.6952L21.4365 74.5107Z" fill="#FF9372" stroke="white" stroke-width="0.5"/>
<path d="M162.617 158.044L143.51 168.996L118.166 183.872L99.8546 195.235L98.1752 193.621L94.7474 191.123L92.0497 188.841L89.1944 186.808L85.5783 183.38L81.6162 180.655L78.3075 179.687L76.8703 178.818L74.1956 176.739L73.477 175.963L71.8553 173.646L71.0521 171.39L70.3796 170.003L68.4928 168.101L65.649 165.952L63.0666 163.178L61.7562 162.294L60.6609 160.588L59.3236 157.882L58.997 157.579L57.3714 157.69L56.6336 157.49L51.5533 154.466L50.4581 153.048L48.3599 149.413L44.663 144.87L43.7253 145.074L41.5003 146.192L39.4251 146.127L37.8111 145.328L36.5045 145.378L35.832 145.777L34.829 145.297L34.5408 144.778L34.2103 143.187L34.3871 142.745L34.9366 142.126L34.8559 141.435L33.5263 140.966L32.3926 138.357L32.458 137.895L33.3457 136.727L33.1074 136.201L31.7393 135.64L31.4127 134.948L29.9716 134.214L29.3452 133.099L29.2223 132.412L28.0194 132.485L27.5775 132.811L26.49 132.412L25.9327 132.796L25.1949 132.473L24.8798 131.966L25.0604 131.397L26.8742 130.582L27.4007 130.183L27.5352 129.833L27.3277 129.018L27.8427 127.539L28.1386 127.57L28.7188 128.273L29.3606 128.211L29.6488 126.547L29.2453 126.467L28.4229 126.916L27.7158 126.801L26.3093 125.898L25.56 125.168L25.583 124.768L24.8875 123.834L24.3456 123.734L23.9806 124.165L23.7846 125.529L22.943 126.309L22.2705 126.394L21.2675 126.186L20.5911 126.478L19.6342 125.913L18.5121 126.221L16.9519 125.79L16.0411 125.998L16.1641 125.022L17.3093 122.893L18.4698 121.206L18.7657 120.249L19.273 119.903L19.7149 118.985L20.5258 118.627L20.8717 117.924L22.1705 116.786L22.1167 115.38L22.3704 114.688L23.6616 114.05L23.9613 114.588L23.4041 115.188L24.288 115.457L24.5109 116.429L24.8375 116.402L25.4793 115.572L25.902 115.38L26.1633 115.534L26.5245 116.122H27.028L27.712 116.583L27.9464 116.391L28.031 116.045L28.4498 115.737L28.4729 114.957L28.8726 114.611L28.8111 113.962L28.9686 113.474L29.8102 112.847L30.2522 111.925L30.7056 111.633L31.0745 111.606L31.551 111.875L31.601 112.221L31.2859 112.951L31.993 113.155L32.2159 113.973L32.7193 114.089L33.0997 114.039L34.1527 113.408L34.4294 113.37L35.2287 113.716L36.3969 113.562L37.2308 112.963L38.18 112.567L38.9179 112.475L39.6019 111.887L40.0246 112.067L40.5319 111.821L41.9422 111.898L42.7108 111.21L43.7023 111.145L44.5784 110.553L45.0934 110.542L45.6545 110.657L46.3577 111.118L46.8227 112.436L47.5797 113.474L47.7911 114.204L48.4137 114.957L48.5712 115.841L49.0554 115.929L51.6724 113.908L52.9252 113.731L53.59 112.897H54.128L55.254 113.562L55.6037 112.528L56.6567 112.106L57.4368 112.233L58.1746 113.385L59.2276 113.781L59.8501 113.243L60.0807 112.413L60.5341 111.914L60.7878 111.107L61.5371 111.018L62.2442 111.233L62.3172 110.519L62.6554 110.223L63.9197 110.772L64.3194 110.657L64.9727 110.146L67.0171 110.134L67.2899 110.288L67.924 111.233L68.439 111.299L68.8309 110.826L68.5965 109.915L68.6618 107.89L69.1461 107.095L71.5056 105.534L72.6661 105.454L76.5129 104.236L77.7464 104.043L78.2729 104.262L79.2452 105.2L80.7285 105.454L81.5932 106.787L82.0274 108.966L85.0095 111.479L86.9271 114.077L87.296 114.242L87.7187 114.039L88.4566 113.193L88.7948 112.359L88.814 111.387L89.5825 110.004L89.6671 109.339L90.5855 108.351L91.1966 107.917L94.2401 106.48L96.8764 105.481L96.665 103.571L96.8341 102.391L97.1607 101.58L98.3828 99.7047L99.0053 98.0369L99.1859 95.0817L99.0975 91.8652L101.726 91.4925L104.939 91.4656L107.49 91.5924L113.562 92.3033L121.709 93.9481L126.336 95.5429L130.34 96.2769L134.779 98.0177L136.727 99.3204L139.26 101.503L142.418 108.136L142.019 111.81L163.543 142.607L170.798 153.39L162.617 158.044Z" fill="#FF9372" stroke="white" stroke-width="0.5"/>
<path d="M9.21225 121.736L8.98168 119.461L7.37919 115.68L6.96032 114.285L6.39157 114.131L6.23401 113.681L6.43384 114.092L6.87577 114.169L6.72974 114.069L6.62214 114.031L6.73743 113.877L6.55681 113.839L6.7259 113.739L6.55681 113.658L7.19857 113.197L7.14477 111.652L6.87193 110.987L7.04102 111.114L7.12556 110.027L7.71736 109.554L7.90567 109.17L7.69431 107.644L7.42146 107.095V106.526L7.67509 105.838L7.49448 104.593L7.69815 104.489L7.81344 104.039L8.18236 103.978L8.59354 102.641L8.83565 102.591L9.01626 102.31L8.87792 101.542L9.17382 101.18L9.90013 100.796L9.99236 100.565L9.80405 99.0245L9.22378 97.6449L10.1883 97.7102L10.7801 98.0061L12.6094 99.4587L12.9437 99.5356L14.2426 99.2128L17.9817 99.1014L19.6764 98.3212L21.3596 99.2282L21.5748 103.671L21.913 105.888L21.5441 106.86L21.5018 107.579L20.5065 108.482L19.7648 108.524L19.5804 108.755L18.8887 108.87L18.2661 109.281L17.1901 109.177L16.9672 109.396L16.9249 109.961L17.1363 110.565L17.5052 110.834L19.2883 111.114L21.5057 110.818L22.1974 112.744L23.3349 113.558L23.6692 114.066L22.378 114.703L22.1244 115.395L22.1782 116.802L20.8831 117.939L20.5334 118.642L19.7226 119.004L19.2806 119.922L18.7772 120.264L18.4813 121.225L17.3208 122.912L16.1756 125.045L16.0526 126.017L14.9958 126.313L14.2541 126.194L13.1743 126.294L12.544 125.717L11.6948 125.64L11.4988 125.414L11.0338 125.882L10.9915 125.733L10.661 125.917L9.21225 121.736Z" fill="#FF9372" stroke="white" stroke-width="0.5"/>
<path d="M23.7653 177.412L23.3925 176.52L22.7508 175.836L22.7162 174.18L23.2234 173.853L27.0125 173.976L26.978 177.612L24.3071 177.692L23.7653 177.412Z" fill="#FF9372" stroke="white" stroke-width="0.5"/>
<path d="M6.90647 186.542L7.75191 187.034L7.80187 187.184L7.40221 187.814L8.68958 189.106L10.2575 189.294L10.4073 189.659L10.3113 191.427L9.93083 193.467L10.0077 193.694L10.9108 194.347L11.0491 194.82L9.9731 196.949L9.71178 199.393L10.588 201.092L11.1875 201.829L11.322 202.717L11.1221 203.005L10.5226 202.279L9.25832 202.417L9.19299 202.756L9.5427 203.432L9.58497 204.569L8.48206 205.622L8.79718 204.642L8.00938 203.413L7.68274 200.415L7.48675 199.774L7.59819 198.356L7.40605 197.564L7.65584 197.199L8.41289 197.402L9.04312 197.23L9.05081 196.926L8.53586 196.192L9.21605 195.466L9.30444 194.286L8.50512 193.129L7.38299 192.826L7.30613 192.338L7.76728 191.727L7.98633 191L7.68274 189.551L6.46838 188.176L6.90647 187.43V186.542Z" fill="#FF9372" stroke="white" stroke-width="0.5"/>
<path d="M26.1671 227.335L24.5377 225.671L19.5689 221.836L18.5351 222.285L16.8442 222.035L15.9642 222.074L15.211 222.305L14.9689 220.906L14.4386 219.711L13.0897 218.308L13.255 216.721L13.1435 216.19L12.5172 215.848L11.5257 215.872L10.7571 215.437L11.1183 214.949L11.1107 214.561L10.8032 214.281L10.3536 214.273L9.93089 213.988L9.68494 213.347L9.36983 213.059L8.74728 213.151L8.02097 213.028L7.15248 212.54H6.52609L5.50772 212.839L4.94666 212.586L4.82369 212.367L4.4663 212.417L4.34717 212.225L4.50473 211.752L5.69218 210.376L6.62216 208.708L7.23702 208.047L8.48212 205.623L9.58503 204.57L9.54276 203.432L9.19305 202.756L9.25838 202.418L10.5227 202.279L11.1222 203.005L11.322 202.717L11.1875 201.83L10.588 201.092L9.71184 199.393L9.97316 196.949L11.0492 194.82L10.9108 194.347L10.0077 193.694L9.93089 193.467L10.3113 191.427L11.2836 191.803L11.6717 192.553L12.6824 192.668L13.3165 192.48L14.3502 191.638L15.0035 191.362L17.1017 191.538L18.4391 190.923L19.5996 190.735L19.8186 190.547L20.3451 189.317L20.1338 188.291L20.1991 187.853L20.6833 187.526L21.4019 188.464L22.1474 188.967L22.3895 189.859L23.5693 190.136L23.9498 190.785L24.7222 191.461L26.0787 191.777L26.4707 191.538L26.7128 190.524L27.4506 189.809L29.7794 188.303L30.4635 187.538L31.0437 187.288L31.3704 187.576L31.8661 188.829L33.1842 190.324L33.4263 191.853L32.9306 192.292L32.5847 192.365L31.1167 192.142L30.0523 192.956L29.6103 193.871L29.791 194.52L29.6718 195.335L30.2021 196.765L30.3059 197.991L30.6633 198.24L31.4434 197.991L31.9314 198.09L32.089 199.466L32.5194 200.481L32.0237 200.604L29.6949 200.442L28.4498 200.531L27.5467 200.869L25.9865 202.195L24.8375 202.906L24.7106 203.382L24.9412 204.07L24.5185 205.192L24.8682 206.891L25.5753 208.24L25.1526 209.166L25.3409 210.81L25.7751 212.132L25.7098 212.382L25.3409 212.532L25.2487 212.759L25.3217 214.027L25.6368 214.327L26.9126 214.688L28.4075 214.853L28.861 215.437L28.7034 216.298L27.735 217.082L26.8511 217.443L26.8089 217.693L27.197 218.427L26.8704 219.522L27.27 219.734L27.9464 219.795L29.2299 219.684L29.8217 220.233L30.548 220.145L30.9592 220.456L31.0668 220.756L31.0553 221.117L30.5903 221.69L30.4865 222.097L31.6355 223.492L31.77 223.865L31.3589 226.128L31.5587 227.669L31.2474 229.518L30.8631 229.41L29.9869 228.772L27.3123 228.376L26.1671 227.335Z" fill="#FF9372" stroke="white" stroke-width="0.5"/>
<path d="M33.4264 191.853L33.5301 191.976L33.8914 191.815L39.844 191.112L42.2573 190.408L42.9644 190.485L44.2095 191.638L45.42 192.291L45.9042 192.829L46.2232 193.959L47.8026 195.6L48.0447 196.899L48.5712 197.514L49.2053 197.814L51.4803 198.04L52.66 198.528L53.6746 199.278L53.7361 200.231L54.666 201.468L54.8428 202.006L55.865 202.433L56.7412 203.017L57.2984 203.105L58.2707 202.433L59.216 202.832L60.0192 203.893L60.3151 206.491L60.684 207.156L64.012 210.399L65.111 211.271L66.0064 212.432L67.3745 213.243L68.7272 214.861L48.0486 227.992L45.5123 229.898L43.8598 231.493L43.0836 231.573L39.7864 230.605L38.8295 230.924L38.0263 230.301L37.2039 230.159L31.2475 229.517L31.5587 227.669L31.3589 226.128L31.7701 223.865L31.6356 223.492L30.4866 222.097L30.5903 221.689L31.0553 221.117L31.0668 220.756L30.9592 220.456L30.5481 220.145L29.8217 220.233L29.2299 219.683L27.9464 219.795L27.2701 219.733L26.8704 219.522L27.197 218.427L26.8089 217.693L26.8512 217.443L27.7351 217.082L28.7035 216.298L28.861 215.437L28.4076 214.853L26.9127 214.688L25.6368 214.326L25.3217 214.027L25.2487 212.759L25.3409 212.532L25.7099 212.382L25.7752 212.132L25.3409 210.81L25.1526 209.165L25.5753 208.239L24.8683 206.89L24.5186 205.192L24.9413 204.07L24.7107 203.382L24.8375 202.905L25.9865 202.194L27.5468 200.869L28.4498 200.53L29.6949 200.442L32.0237 200.604L32.5195 200.481L32.0891 199.466L31.9315 198.09L31.4434 197.99L30.6633 198.24L30.3059 197.99L30.2022 196.764L29.6719 195.335L29.791 194.52L29.6104 193.871L30.0523 192.956L31.1168 192.141L32.5848 192.364L32.9306 192.291L33.4264 191.853Z" fill="#FF9372" stroke="white" stroke-width="0.5"/>
</svg>
